M48
;DRILL file {KiCad 4.0.2+dfsg1-stable} date dim. 24 juil. 2016 14:49:48 CEST
;FORMAT={-:-/ absolute / inch / decimal}
FMAT,2
INCH,TZ
T1C0.024
T2C0.031
T3C0.035
T4C0.039
T5C0.039
T6C0.040
T7C0.060
%
G90
G05
M72
T1
X7.0863Y-2.3469
X7.2114Y-2.472
X7.89Y-2.78
X8.6093Y-3.3868
X8.94Y-3.24
X9.2518Y-3.3961
T2
X6.37Y-3.66
X6.44Y-2.51
X6.44Y-2.7069
X6.4731Y-2.98
X6.5669Y-3.66
X6.57Y-3.1
X6.57Y-3.4
X6.59Y-2.46
X6.59Y-2.76
X6.67Y-2.98
X6.67Y-3.1
X6.67Y-3.4
X6.69Y-2.46
X6.69Y-2.76
X6.77Y-3.1
X6.77Y-3.4
X6.79Y-2.46
X6.79Y-2.76
X6.87Y-3.1
X6.87Y-3.4
X6.87Y-3.52
X6.87Y-3.62
X6.89Y-2.29
X6.89Y-2.46
X6.89Y-2.76
X7.03Y-2.9531
X7.03Y-3.15
X7.0669Y-3.52
X7.0669Y-3.62
X7.15Y-2.85
X7.15Y-2.95
X7.15Y-3.05
X7.15Y-3.15
X7.23Y-3.52
X7.2531Y-2.7
X7.29Y-2.29
X7.45Y-2.7
X7.45Y-2.85
X7.45Y-2.95
X7.45Y-3.05
X7.45Y-3.15
X7.52Y-3.52
X7.58Y-2.6131
X7.58Y-2.81
X7.73Y-2.61
X7.73Y-2.91
X7.83Y-2.61
X7.83Y-2.91
X7.93Y-2.61
X7.93Y-2.91
X8.03Y-2.61
X8.03Y-2.91
X8.03Y-3.31
X8.22Y-2.3316
X8.22Y-2.43
X8.5331Y-3.95
X8.63Y-2.0216
X8.63Y-2.12
X8.73Y-3.95
T3
X9.06Y-2.51
X9.06Y-3.1006
X9.73Y-2.0394
X9.73Y-2.63
T4
X6.9095Y-4.0553
T5
X6.37Y-2.29
X6.37Y-3.53
X6.77Y-2.29
X6.77Y-3.53
X7.3Y-3.32
X7.43Y-3.73
X7.43Y-3.86
X7.7Y-3.32
X7.71Y-3.19
X7.81Y-3.32
X7.83Y-3.73
X7.83Y-3.86
X7.94Y-3.73
X7.94Y-3.86
X8.11Y-3.19
X8.21Y-3.32
X8.23Y-2.8
X8.23Y-3.2
X8.34Y-3.73
X8.34Y-3.86
X8.45Y-2.8
X8.45Y-3.2
X8.47Y-2.45
X8.54Y-2.32
X8.57Y-2.59
X8.67Y-2.59
X8.77Y-2.59
X8.87Y-2.45
X8.89Y-1.97
X8.89Y-2.17
X8.94Y-2.32
X9.09Y-1.97
X9.09Y-2.17
X9.22Y-3.57
X9.22Y-3.77
X9.25Y-2.82
X9.25Y-3.02
X9.4Y-2.26
X9.4Y-2.66
X9.42Y-3.57
X9.42Y-3.77
X9.45Y-2.82
X9.45Y-3.02
X9.53Y-2.26
X9.53Y-2.66
T6
X6.5865Y-2.134
X6.6865Y-2.134
X6.7865Y-2.134
X6.8865Y-2.134
X6.9865Y-2.134
X7.0465Y-4.034
X7.0865Y-2.134
X7.1465Y-4.034
X7.1865Y-2.134
X7.2465Y-4.034
X7.2865Y-2.134
X7.3465Y-4.034
X7.3865Y-2.134
X7.445Y-1.97
X7.4465Y-4.034
X7.4865Y-2.134
X7.545Y-1.97
X7.5465Y-4.034
X7.645Y-1.97
X7.6465Y-2.134
X7.6465Y-4.034
X7.73Y-3.05
X7.745Y-1.97
X7.7465Y-2.134
X7.83Y-3.05
X7.845Y-1.97
X7.8465Y-2.134
X7.8465Y-4.034
X7.93Y-3.05
X7.945Y-1.97
X7.9465Y-2.134
X7.9465Y-4.034
X7.95Y-3.58
X8.045Y-1.97
X8.0465Y-2.134
X8.0465Y-4.034
X8.05Y-3.58
X8.145Y-1.97
X8.1465Y-2.134
X8.1465Y-4.034
X8.15Y-3.58
X8.245Y-1.97
X8.2465Y-2.134
X8.2465Y-4.034
X8.345Y-1.97
X8.3465Y-2.134
X8.3465Y-4.034
T7
X9.22Y-4.01
X9.29Y-2.05
X9.42Y-4.01
X9.49Y-2.05
X9.71Y-2.82
X9.71Y-3.02
X9.71Y-3.24
X9.71Y-3.44
X9.71Y-3.64
X9.71Y-3.86
X9.71Y-4.06
T0
M30
