M48
;DRILL file {KiCad 4.0.2+dfsg1-stable} date dim. 24 juil. 2016 19:10:39 CEST
;FORMAT={-:-/ absolute / metric / decimal}
FMAT,2
METRIC,TZ
T1C0.600
T2C0.800
T3C0.900
T4C1.001
T5C1.016
T6C1.524
%
G90
G05
M71
T1
X175.006Y-58.166
X179.992Y-59.61
X183.17Y-62.788
X183.642Y-89.408
X185.166Y-58.166
X191.008Y-89.408
X200.406Y-70.612
X203.962Y-84.074
X212.852Y-75.438
X212.852Y-82.55
X215.138Y-89.154
X223.158Y-81.026
T2
X161.798Y-92.964
X163.576Y-63.754
X163.576Y-68.754
X164.418Y-75.692
X166.798Y-92.964
X166.878Y-78.74
X166.878Y-86.36
X167.386Y-62.484
X167.386Y-70.104
X169.418Y-75.692
X169.418Y-78.74
X169.418Y-86.36
X169.926Y-62.484
X169.926Y-70.104
X171.958Y-78.74
X171.958Y-86.36
X172.466Y-62.484
X172.466Y-70.104
X174.498Y-78.74
X174.498Y-86.36
X174.498Y-89.408
X174.498Y-91.948
X175.006Y-62.484
X175.006Y-70.104
X178.562Y-75.01
X178.562Y-80.01
X179.498Y-89.408
X179.498Y-91.948
X181.61Y-72.39
X181.61Y-74.93
X181.61Y-77.47
X181.61Y-80.01
X184.23Y-68.58
X189.23Y-68.58
X189.23Y-72.39
X189.23Y-74.93
X189.23Y-77.47
X189.23Y-80.01
X192.532Y-66.374
X192.532Y-71.374
X196.342Y-66.294
X196.342Y-73.914
X198.882Y-66.294
X198.882Y-73.914
X201.422Y-66.294
X201.422Y-73.914
X203.962Y-66.294
X203.962Y-73.914
X208.788Y-59.222
X208.788Y-61.722
X216.742Y-100.33
X219.202Y-51.348
X219.202Y-53.848
X221.742Y-100.33
T3
X230.124Y-62.47
X230.124Y-77.47
X247.65Y-51.308
X247.65Y-66.308
T4
X161.798Y-58.166
X161.798Y-89.662
X171.958Y-58.166
X171.958Y-89.662
X185.42Y-84.328
X188.722Y-94.742
X188.722Y-98.044
X195.58Y-84.328
X195.834Y-81.026
X198.374Y-84.328
X198.882Y-94.742
X198.882Y-98.044
X201.676Y-94.742
X201.676Y-98.044
X205.994Y-81.026
X208.534Y-84.328
X209.042Y-71.12
X209.042Y-81.28
X211.836Y-94.742
X211.836Y-98.044
X215.138Y-62.23
X216.916Y-58.928
X217.678Y-65.786
X220.218Y-65.786
X222.758Y-65.786
X225.298Y-62.23
X225.806Y-50.038
X225.806Y-55.118
X226.568Y-91.948
X226.568Y-97.028
X227.076Y-58.928
X229.362Y-88.9
X230.886Y-50.038
X230.886Y-55.118
X231.648Y-91.948
X231.648Y-97.028
X235.475Y-72.119
X235.475Y-77.199
X238.76Y-57.404
X238.76Y-67.564
X239.522Y-88.9
X240.555Y-72.119
X240.555Y-77.199
X242.062Y-57.404
X242.062Y-67.564
T5
X167.297Y-54.204
X169.837Y-54.204
X172.377Y-54.204
X174.917Y-54.204
X177.457Y-54.204
X178.981Y-102.464
X179.997Y-54.204
X181.521Y-102.464
X182.537Y-54.204
X184.061Y-102.464
X185.077Y-54.204
X186.601Y-102.464
X187.617Y-54.204
X189.103Y-50.038
X189.141Y-102.464
X190.157Y-54.204
X191.643Y-50.038
X191.681Y-102.464
X194.183Y-50.038
X194.221Y-54.204
X194.221Y-102.464
X196.342Y-77.47
X196.723Y-50.038
X196.761Y-54.204
X198.882Y-77.47
X199.263Y-50.038
X199.301Y-54.204
X199.301Y-102.464
X201.422Y-77.47
X201.803Y-50.038
X201.841Y-54.204
X201.841Y-102.464
X201.93Y-90.932
X204.343Y-50.038
X204.381Y-54.204
X204.381Y-102.464
X204.47Y-90.932
X206.883Y-50.038
X206.921Y-54.204
X206.921Y-102.464
X207.01Y-90.932
X209.423Y-50.038
X209.461Y-54.204
X209.461Y-102.464
X211.963Y-50.038
X212.001Y-54.204
X212.001Y-102.464
T6
X234.696Y-102.616
X235.966Y-52.07
X239.776Y-102.616
X241.046Y-52.07
X246.888Y-71.628
X246.888Y-76.708
X246.888Y-83.058
X246.888Y-88.138
X246.888Y-93.218
X246.888Y-98.806
X246.888Y-103.886
T0
M30
