%FSLAX45Y45*%
G04 Gerber Fmt 4.5, Leading zero omitted, Abs format (unit mm)*
G04 Created by KiCad (PCBNEW 4.0.2+dfsg1-stable) date mer. 27 juil. 2016 00:54:04 CEST*
%MOMM*%
G01*
G04 APERTURE LIST*
%ADD10C,0.127000*%
%ADD11C,0.100000*%
%ADD12C,0.200000*%
%ADD13C,0.300000*%
G04 APERTURE END LIST*
D10*
D11*
X16256000Y-10490200D02*
X16002000Y-10236200D01*
X17653000Y-10490200D02*
X16256000Y-10490200D01*
X17653000Y-10490200D02*
X17907000Y-10744200D01*
X16256000Y-5003800D02*
X16764000Y-5003800D01*
X16002000Y-5257800D02*
X16256000Y-5003800D01*
X16002000Y-10236200D02*
X16002000Y-5257800D01*
X24892000Y-10744200D02*
X17907000Y-10744200D01*
X25146000Y-10490200D02*
X24892000Y-10744200D01*
X25146000Y-5003800D02*
X25146000Y-10490200D01*
X24892000Y-4749800D02*
X25146000Y-5003800D01*
X17018000Y-4749800D02*
X24892000Y-4749800D01*
X16764000Y-5003800D02*
X17018000Y-4749800D01*
D12*
X17470600Y-5786600D02*
X17530600Y-5846600D01*
X17530600Y-5786600D02*
X17470600Y-5846600D01*
X17969235Y-5931046D02*
X18029235Y-5991046D01*
X18029235Y-5931046D02*
X17969235Y-5991046D01*
X18286967Y-6248779D02*
X18346967Y-6308779D01*
X18346967Y-6248779D02*
X18286967Y-6308779D01*
X18334200Y-8910800D02*
X18394200Y-8970800D01*
X18394200Y-8910800D02*
X18334200Y-8970800D01*
X18486600Y-5786600D02*
X18546600Y-5846600D01*
X18546600Y-5786600D02*
X18486600Y-5846600D01*
X19070800Y-8910800D02*
X19130800Y-8970800D01*
X19130800Y-8910800D02*
X19070800Y-8970800D01*
X20010600Y-7031200D02*
X20070600Y-7091200D01*
X20070600Y-7031200D02*
X20010600Y-7091200D01*
X20366200Y-8377400D02*
X20426200Y-8437400D01*
X20426200Y-8377400D02*
X20366200Y-8437400D01*
X21255200Y-7513800D02*
X21315200Y-7573800D01*
X21315200Y-7513800D02*
X21255200Y-7573800D01*
X21255200Y-8225000D02*
X21315200Y-8285000D01*
X21315200Y-8225000D02*
X21255200Y-8285000D01*
X21483800Y-8885400D02*
X21543800Y-8945400D01*
X21543800Y-8885400D02*
X21483800Y-8945400D01*
X22285826Y-8072600D02*
X22345826Y-8132600D01*
X22345826Y-8072600D02*
X22285826Y-8132600D01*
X16219800Y-9296400D02*
G75*
G03X16219800Y-9296400I-40000J0D01*
G01*
X16481800Y-7493000D02*
G75*
G03X16481800Y-7493000I-40000J0D01*
G01*
X16719800Y-9296400D02*
G75*
G03X16719800Y-9296400I-40000J0D01*
G01*
X16727800Y-7874000D02*
G75*
G03X16727800Y-7874000I-40000J0D01*
G01*
X16727800Y-8636000D02*
G75*
G03X16727800Y-8636000I-40000J0D01*
G01*
X16778600Y-6248400D02*
G75*
G03X16778600Y-6248400I-40000J0D01*
G01*
X16778600Y-7010400D02*
G75*
G03X16778600Y-7010400I-40000J0D01*
G01*
X16981800Y-7493000D02*
G75*
G03X16981800Y-7493000I-40000J0D01*
G01*
X16981800Y-7874000D02*
G75*
G03X16981800Y-7874000I-40000J0D01*
G01*
X16981800Y-8636000D02*
G75*
G03X16981800Y-8636000I-40000J0D01*
G01*
X17032600Y-6248400D02*
G75*
G03X17032600Y-6248400I-40000J0D01*
G01*
X17032600Y-7010400D02*
G75*
G03X17032600Y-7010400I-40000J0D01*
G01*
X17235800Y-7874000D02*
G75*
G03X17235800Y-7874000I-40000J0D01*
G01*
X17235800Y-8636000D02*
G75*
G03X17235800Y-8636000I-40000J0D01*
G01*
X17286600Y-6248400D02*
G75*
G03X17286600Y-6248400I-40000J0D01*
G01*
X17286600Y-7010400D02*
G75*
G03X17286600Y-7010400I-40000J0D01*
G01*
X17489800Y-7874000D02*
G75*
G03X17489800Y-7874000I-40000J0D01*
G01*
X17489800Y-8636000D02*
G75*
G03X17489800Y-8636000I-40000J0D01*
G01*
X17489800Y-8940800D02*
G75*
G03X17489800Y-8940800I-40000J0D01*
G01*
X17489800Y-9194800D02*
G75*
G03X17489800Y-9194800I-40000J0D01*
G01*
X17540600Y-6248400D02*
G75*
G03X17540600Y-6248400I-40000J0D01*
G01*
X17540600Y-7010400D02*
G75*
G03X17540600Y-7010400I-40000J0D01*
G01*
X17896200Y-7501000D02*
G75*
G03X17896200Y-7501000I-40000J0D01*
G01*
X17896200Y-8001000D02*
G75*
G03X17896200Y-8001000I-40000J0D01*
G01*
X17989800Y-8940800D02*
G75*
G03X17989800Y-8940800I-40000J0D01*
G01*
X17989800Y-9194800D02*
G75*
G03X17989800Y-9194800I-40000J0D01*
G01*
X18201000Y-7239000D02*
G75*
G03X18201000Y-7239000I-40000J0D01*
G01*
X18201000Y-7493000D02*
G75*
G03X18201000Y-7493000I-40000J0D01*
G01*
X18201000Y-7747000D02*
G75*
G03X18201000Y-7747000I-40000J0D01*
G01*
X18201000Y-8001000D02*
G75*
G03X18201000Y-8001000I-40000J0D01*
G01*
X18463000Y-6858000D02*
G75*
G03X18463000Y-6858000I-40000J0D01*
G01*
X18963000Y-6858000D02*
G75*
G03X18963000Y-6858000I-40000J0D01*
G01*
X18963000Y-7239000D02*
G75*
G03X18963000Y-7239000I-40000J0D01*
G01*
X18963000Y-7493000D02*
G75*
G03X18963000Y-7493000I-40000J0D01*
G01*
X18963000Y-7747000D02*
G75*
G03X18963000Y-7747000I-40000J0D01*
G01*
X18963000Y-8001000D02*
G75*
G03X18963000Y-8001000I-40000J0D01*
G01*
X19293200Y-6637400D02*
G75*
G03X19293200Y-6637400I-40000J0D01*
G01*
X19293200Y-7137400D02*
G75*
G03X19293200Y-7137400I-40000J0D01*
G01*
X19674200Y-6629400D02*
G75*
G03X19674200Y-6629400I-40000J0D01*
G01*
X19674200Y-7391400D02*
G75*
G03X19674200Y-7391400I-40000J0D01*
G01*
X19928200Y-6629400D02*
G75*
G03X19928200Y-6629400I-40000J0D01*
G01*
X19928200Y-7391400D02*
G75*
G03X19928200Y-7391400I-40000J0D01*
G01*
X20182200Y-6629400D02*
G75*
G03X20182200Y-6629400I-40000J0D01*
G01*
X20182200Y-7391400D02*
G75*
G03X20182200Y-7391400I-40000J0D01*
G01*
X20436200Y-6629400D02*
G75*
G03X20436200Y-6629400I-40000J0D01*
G01*
X20436200Y-7391400D02*
G75*
G03X20436200Y-7391400I-40000J0D01*
G01*
X20918800Y-5922200D02*
G75*
G03X20918800Y-5922200I-40000J0D01*
G01*
X20918800Y-6172200D02*
G75*
G03X20918800Y-6172200I-40000J0D01*
G01*
X21714200Y-10033000D02*
G75*
G03X21714200Y-10033000I-40000J0D01*
G01*
X21960200Y-5134800D02*
G75*
G03X21960200Y-5134800I-40000J0D01*
G01*
X21960200Y-5384800D02*
G75*
G03X21960200Y-5384800I-40000J0D01*
G01*
X22214200Y-10033000D02*
G75*
G03X22214200Y-10033000I-40000J0D01*
G01*
X23012400Y-6202000D02*
X23012400Y-6292000D01*
X22967400Y-6247000D02*
X23057400Y-6247000D01*
X23012400Y-7702000D02*
X23012400Y-7792000D01*
X22967400Y-7747000D02*
X23057400Y-7747000D01*
X24765000Y-5085800D02*
X24765000Y-5175800D01*
X24720000Y-5130800D02*
X24810000Y-5130800D01*
X24765000Y-6585800D02*
X24765000Y-6675800D01*
X24720000Y-6630800D02*
X24810000Y-6630800D01*
X16215182Y-5851982D02*
X16215182Y-5781217D01*
X16144417Y-5781217D01*
X16144417Y-5851982D01*
X16215182Y-5851982D01*
X16215182Y-9001583D02*
X16215182Y-8930818D01*
X16144417Y-8930818D01*
X16144417Y-9001583D01*
X16215182Y-9001583D01*
X17231183Y-5851982D02*
X17231183Y-5781217D01*
X17160418Y-5781217D01*
X17160418Y-5851982D01*
X17231183Y-5851982D01*
X17231183Y-9001583D02*
X17231183Y-8930818D01*
X17160418Y-8930818D01*
X17160418Y-9001583D01*
X17231183Y-9001583D01*
X18577383Y-8468183D02*
X18577383Y-8397418D01*
X18506618Y-8397418D01*
X18506618Y-8468183D01*
X18577383Y-8468183D01*
X18907583Y-9509583D02*
X18907583Y-9438818D01*
X18836818Y-9438818D01*
X18836818Y-9509583D01*
X18907583Y-9509583D01*
X18907583Y-9839783D02*
X18907583Y-9769018D01*
X18836818Y-9769018D01*
X18836818Y-9839783D01*
X18907583Y-9839783D01*
X19593383Y-8468183D02*
X19593383Y-8397418D01*
X19522618Y-8397418D01*
X19522618Y-8468183D01*
X19593383Y-8468183D01*
X19618783Y-8137982D02*
X19618783Y-8067217D01*
X19548018Y-8067217D01*
X19548018Y-8137982D01*
X19618783Y-8137982D01*
X19872783Y-8468183D02*
X19872783Y-8397418D01*
X19802018Y-8397418D01*
X19802018Y-8468183D01*
X19872783Y-8468183D01*
X19923583Y-9509583D02*
X19923583Y-9438818D01*
X19852818Y-9438818D01*
X19852818Y-9509583D01*
X19923583Y-9509583D01*
X19923583Y-9839783D02*
X19923583Y-9769018D01*
X19852818Y-9769018D01*
X19852818Y-9839783D01*
X19923583Y-9839783D01*
X20202983Y-9509583D02*
X20202983Y-9438818D01*
X20132218Y-9438818D01*
X20132218Y-9509583D01*
X20202983Y-9509583D01*
X20202983Y-9839783D02*
X20202983Y-9769018D01*
X20132218Y-9769018D01*
X20132218Y-9839783D01*
X20202983Y-9839783D01*
X20634783Y-8137982D02*
X20634783Y-8067217D01*
X20564018Y-8067217D01*
X20564018Y-8137982D01*
X20634783Y-8137982D01*
X20888783Y-8468183D02*
X20888783Y-8397418D01*
X20818018Y-8397418D01*
X20818018Y-8468183D01*
X20888783Y-8468183D01*
X20939583Y-7147382D02*
X20939583Y-7076617D01*
X20868818Y-7076617D01*
X20868818Y-7147382D01*
X20939583Y-7147382D01*
X20939583Y-8163382D02*
X20939583Y-8092617D01*
X20868818Y-8092617D01*
X20868818Y-8163382D01*
X20939583Y-8163382D01*
X21218983Y-9509583D02*
X21218983Y-9438818D01*
X21148218Y-9438818D01*
X21148218Y-9509583D01*
X21218983Y-9509583D01*
X21218983Y-9839783D02*
X21218983Y-9769018D01*
X21148218Y-9769018D01*
X21148218Y-9839783D01*
X21218983Y-9839783D01*
X21549183Y-6258382D02*
X21549183Y-6187617D01*
X21478418Y-6187617D01*
X21478418Y-6258382D01*
X21549183Y-6258382D01*
X21726983Y-5928182D02*
X21726983Y-5857417D01*
X21656218Y-5857417D01*
X21656218Y-5928182D01*
X21726983Y-5928182D01*
X21803183Y-6613982D02*
X21803183Y-6543217D01*
X21732418Y-6543217D01*
X21732418Y-6613982D01*
X21803183Y-6613982D01*
X22057183Y-6613982D02*
X22057183Y-6543217D01*
X21986418Y-6543217D01*
X21986418Y-6613982D01*
X22057183Y-6613982D01*
X22311183Y-6613982D02*
X22311183Y-6543217D01*
X22240418Y-6543217D01*
X22240418Y-6613982D01*
X22311183Y-6613982D01*
X22565182Y-6258382D02*
X22565182Y-6187617D01*
X22494417Y-6187617D01*
X22494417Y-6258382D01*
X22565182Y-6258382D01*
X22615982Y-5039183D02*
X22615982Y-4968418D01*
X22545217Y-4968418D01*
X22545217Y-5039183D01*
X22615982Y-5039183D01*
X22615982Y-5547183D02*
X22615982Y-5476418D01*
X22545217Y-5476418D01*
X22545217Y-5547183D01*
X22615982Y-5547183D01*
X22692182Y-9230183D02*
X22692182Y-9159418D01*
X22621417Y-9159418D01*
X22621417Y-9230183D01*
X22692182Y-9230183D01*
X22692182Y-9738183D02*
X22692182Y-9667418D01*
X22621417Y-9667418D01*
X22621417Y-9738183D01*
X22692182Y-9738183D01*
X22742982Y-5928182D02*
X22742982Y-5857417D01*
X22672217Y-5857417D01*
X22672217Y-5928182D01*
X22742982Y-5928182D01*
X22971582Y-8925383D02*
X22971582Y-8854618D01*
X22900817Y-8854618D01*
X22900817Y-8925383D01*
X22971582Y-8925383D01*
X23123982Y-5039183D02*
X23123982Y-4968418D01*
X23053217Y-4968418D01*
X23053217Y-5039183D01*
X23123982Y-5039183D01*
X23123982Y-5547183D02*
X23123982Y-5476418D01*
X23053217Y-5476418D01*
X23053217Y-5547183D01*
X23123982Y-5547183D01*
X23200182Y-9230183D02*
X23200182Y-9159418D01*
X23129417Y-9159418D01*
X23129417Y-9230183D01*
X23200182Y-9230183D01*
X23200182Y-9738183D02*
X23200182Y-9667418D01*
X23129417Y-9667418D01*
X23129417Y-9738183D01*
X23200182Y-9738183D01*
X23582874Y-7247291D02*
X23582874Y-7176526D01*
X23512109Y-7176526D01*
X23512109Y-7247291D01*
X23582874Y-7247291D01*
X23582874Y-7755291D02*
X23582874Y-7684526D01*
X23512109Y-7684526D01*
X23512109Y-7755291D01*
X23582874Y-7755291D01*
X23911382Y-5775782D02*
X23911382Y-5705017D01*
X23840617Y-5705017D01*
X23840617Y-5775782D01*
X23911382Y-5775782D01*
X23911382Y-6791782D02*
X23911382Y-6721017D01*
X23840617Y-6721017D01*
X23840617Y-6791782D01*
X23911382Y-6791782D01*
X23987582Y-8925383D02*
X23987582Y-8854618D01*
X23916817Y-8854618D01*
X23916817Y-8925383D01*
X23987582Y-8925383D01*
X24090874Y-7247291D02*
X24090874Y-7176526D01*
X24020109Y-7176526D01*
X24020109Y-7247291D01*
X24090874Y-7247291D01*
X24090874Y-7755291D02*
X24090874Y-7684526D01*
X24020109Y-7684526D01*
X24020109Y-7755291D01*
X24090874Y-7755291D01*
X24241582Y-5775782D02*
X24241582Y-5705017D01*
X24170817Y-5705017D01*
X24170817Y-5775782D01*
X24241582Y-5775782D01*
X24241582Y-6791782D02*
X24241582Y-6721017D01*
X24170817Y-6721017D01*
X24170817Y-6791782D01*
X24241582Y-6791782D01*
X16729710Y-5471160D02*
X16780510Y-5420360D01*
X16729710Y-5369560D01*
X16678910Y-5420360D01*
X16729710Y-5471160D01*
X16983710Y-5471160D02*
X17034510Y-5420360D01*
X16983710Y-5369560D01*
X16932910Y-5420360D01*
X16983710Y-5471160D01*
X17237710Y-5471160D02*
X17288510Y-5420360D01*
X17237710Y-5369560D01*
X17186910Y-5420360D01*
X17237710Y-5471160D01*
X17491710Y-5471160D02*
X17542510Y-5420360D01*
X17491710Y-5369560D01*
X17440910Y-5420360D01*
X17491710Y-5471160D01*
X17745710Y-5471160D02*
X17796510Y-5420360D01*
X17745710Y-5369560D01*
X17694910Y-5420360D01*
X17745710Y-5471160D01*
X17898110Y-10297160D02*
X17948910Y-10246360D01*
X17898110Y-10195560D01*
X17847310Y-10246360D01*
X17898110Y-10297160D01*
X17999710Y-5471160D02*
X18050510Y-5420360D01*
X17999710Y-5369560D01*
X17948910Y-5420360D01*
X17999710Y-5471160D01*
X18152110Y-10297160D02*
X18202910Y-10246360D01*
X18152110Y-10195560D01*
X18101310Y-10246360D01*
X18152110Y-10297160D01*
X18253710Y-5471160D02*
X18304510Y-5420360D01*
X18253710Y-5369560D01*
X18202910Y-5420360D01*
X18253710Y-5471160D01*
X18406110Y-10297160D02*
X18456910Y-10246360D01*
X18406110Y-10195560D01*
X18355310Y-10246360D01*
X18406110Y-10297160D01*
X18507710Y-5471160D02*
X18558510Y-5420360D01*
X18507710Y-5369560D01*
X18456910Y-5420360D01*
X18507710Y-5471160D01*
X18660110Y-10297160D02*
X18710910Y-10246360D01*
X18660110Y-10195560D01*
X18609310Y-10246360D01*
X18660110Y-10297160D01*
X18761710Y-5471160D02*
X18812510Y-5420360D01*
X18761710Y-5369560D01*
X18710910Y-5420360D01*
X18761710Y-5471160D01*
X18910300Y-5054600D02*
X18961100Y-5003800D01*
X18910300Y-4953000D01*
X18859500Y-5003800D01*
X18910300Y-5054600D01*
X18914110Y-10297160D02*
X18964910Y-10246360D01*
X18914110Y-10195560D01*
X18863310Y-10246360D01*
X18914110Y-10297160D01*
X19015710Y-5471160D02*
X19066510Y-5420360D01*
X19015710Y-5369560D01*
X18964910Y-5420360D01*
X19015710Y-5471160D01*
X19164300Y-5054600D02*
X19215100Y-5003800D01*
X19164300Y-4953000D01*
X19113500Y-5003800D01*
X19164300Y-5054600D01*
X19168110Y-10297160D02*
X19218910Y-10246360D01*
X19168110Y-10195560D01*
X19117310Y-10246360D01*
X19168110Y-10297160D01*
X19418300Y-5054600D02*
X19469100Y-5003800D01*
X19418300Y-4953000D01*
X19367500Y-5003800D01*
X19418300Y-5054600D01*
X19422110Y-5471160D02*
X19472910Y-5420360D01*
X19422110Y-5369560D01*
X19371310Y-5420360D01*
X19422110Y-5471160D01*
X19422110Y-10297160D02*
X19472910Y-10246360D01*
X19422110Y-10195560D01*
X19371310Y-10246360D01*
X19422110Y-10297160D01*
X19634200Y-7797800D02*
X19685000Y-7747000D01*
X19634200Y-7696200D01*
X19583400Y-7747000D01*
X19634200Y-7797800D01*
X19672300Y-5054600D02*
X19723100Y-5003800D01*
X19672300Y-4953000D01*
X19621500Y-5003800D01*
X19672300Y-5054600D01*
X19676110Y-5471160D02*
X19726910Y-5420360D01*
X19676110Y-5369560D01*
X19625310Y-5420360D01*
X19676110Y-5471160D01*
X19888200Y-7797800D02*
X19939000Y-7747000D01*
X19888200Y-7696200D01*
X19837400Y-7747000D01*
X19888200Y-7797800D01*
X19926300Y-5054600D02*
X19977100Y-5003800D01*
X19926300Y-4953000D01*
X19875500Y-5003800D01*
X19926300Y-5054600D01*
X19930110Y-5471160D02*
X19980910Y-5420360D01*
X19930110Y-5369560D01*
X19879310Y-5420360D01*
X19930110Y-5471160D01*
X19930110Y-10297160D02*
X19980910Y-10246360D01*
X19930110Y-10195560D01*
X19879310Y-10246360D01*
X19930110Y-10297160D01*
X20142200Y-7797800D02*
X20193000Y-7747000D01*
X20142200Y-7696200D01*
X20091400Y-7747000D01*
X20142200Y-7797800D01*
X20180300Y-5054600D02*
X20231100Y-5003800D01*
X20180300Y-4953000D01*
X20129500Y-5003800D01*
X20180300Y-5054600D01*
X20184110Y-5471160D02*
X20234910Y-5420360D01*
X20184110Y-5369560D01*
X20133310Y-5420360D01*
X20184110Y-5471160D01*
X20184110Y-10297160D02*
X20234910Y-10246360D01*
X20184110Y-10195560D01*
X20133310Y-10246360D01*
X20184110Y-10297160D01*
X20193000Y-9144000D02*
X20243800Y-9093200D01*
X20193000Y-9042400D01*
X20142200Y-9093200D01*
X20193000Y-9144000D01*
X20434300Y-5054600D02*
X20485100Y-5003800D01*
X20434300Y-4953000D01*
X20383500Y-5003800D01*
X20434300Y-5054600D01*
X20438110Y-5471160D02*
X20488910Y-5420360D01*
X20438110Y-5369560D01*
X20387310Y-5420360D01*
X20438110Y-5471160D01*
X20438110Y-10297160D02*
X20488910Y-10246360D01*
X20438110Y-10195560D01*
X20387310Y-10246360D01*
X20438110Y-10297160D01*
X20447000Y-9144000D02*
X20497800Y-9093200D01*
X20447000Y-9042400D01*
X20396200Y-9093200D01*
X20447000Y-9144000D01*
X20688300Y-5054600D02*
X20739100Y-5003800D01*
X20688300Y-4953000D01*
X20637500Y-5003800D01*
X20688300Y-5054600D01*
X20692110Y-5471160D02*
X20742910Y-5420360D01*
X20692110Y-5369560D01*
X20641310Y-5420360D01*
X20692110Y-5471160D01*
X20692110Y-10297160D02*
X20742910Y-10246360D01*
X20692110Y-10195560D01*
X20641310Y-10246360D01*
X20692110Y-10297160D01*
X20701000Y-9144000D02*
X20751800Y-9093200D01*
X20701000Y-9042400D01*
X20650200Y-9093200D01*
X20701000Y-9144000D01*
X20942300Y-5054600D02*
X20993100Y-5003800D01*
X20942300Y-4953000D01*
X20891500Y-5003800D01*
X20942300Y-5054600D01*
X20946110Y-5471160D02*
X20996910Y-5420360D01*
X20946110Y-5369560D01*
X20895310Y-5420360D01*
X20946110Y-5471160D01*
X20946110Y-10297160D02*
X20996910Y-10246360D01*
X20946110Y-10195560D01*
X20895310Y-10246360D01*
X20946110Y-10297160D01*
X21196300Y-5054600D02*
X21247100Y-5003800D01*
X21196300Y-4953000D01*
X21145500Y-5003800D01*
X21196300Y-5054600D01*
X21200110Y-5471160D02*
X21250910Y-5420360D01*
X21200110Y-5369560D01*
X21149310Y-5420360D01*
X21200110Y-5471160D01*
X21200110Y-10297160D02*
X21250910Y-10246360D01*
X21200110Y-10195560D01*
X21149310Y-10246360D01*
X21200110Y-10297160D01*
X23393400Y-10185400D02*
X23545800Y-10337800D01*
X23545800Y-10185400D02*
X23393400Y-10337800D01*
X23545800Y-10261600D02*
G75*
G03X23545800Y-10261600I-76200J0D01*
G01*
X23520400Y-5130800D02*
X23672800Y-5283200D01*
X23672800Y-5130800D02*
X23520400Y-5283200D01*
X23672800Y-5207000D02*
G75*
G03X23672800Y-5207000I-76200J0D01*
G01*
X23901400Y-10185400D02*
X24053800Y-10337800D01*
X24053800Y-10185400D02*
X23901400Y-10337800D01*
X24053800Y-10261600D02*
G75*
G03X24053800Y-10261600I-76200J0D01*
G01*
X24028400Y-5130800D02*
X24180800Y-5283200D01*
X24180800Y-5130800D02*
X24028400Y-5283200D01*
X24180800Y-5207000D02*
G75*
G03X24180800Y-5207000I-76200J0D01*
G01*
X24612600Y-7086600D02*
X24765000Y-7239000D01*
X24765000Y-7086600D02*
X24612600Y-7239000D01*
X24765000Y-7162800D02*
G75*
G03X24765000Y-7162800I-76200J0D01*
G01*
X24612600Y-7594600D02*
X24765000Y-7747000D01*
X24765000Y-7594600D02*
X24612600Y-7747000D01*
X24765000Y-7670800D02*
G75*
G03X24765000Y-7670800I-76200J0D01*
G01*
X24612600Y-8280400D02*
X24765000Y-8432800D01*
X24765000Y-8280400D02*
X24612600Y-8432800D01*
X24765000Y-8356600D02*
G75*
G03X24765000Y-8356600I-76200J0D01*
G01*
X24612600Y-8788400D02*
X24765000Y-8940800D01*
X24765000Y-8788400D02*
X24612600Y-8940800D01*
X24765000Y-8864600D02*
G75*
G03X24765000Y-8864600I-76200J0D01*
G01*
X24612600Y-9296400D02*
X24765000Y-9448800D01*
X24765000Y-9296400D02*
X24612600Y-9448800D01*
X24765000Y-9372600D02*
G75*
G03X24765000Y-9372600I-76200J0D01*
G01*
X24612600Y-9804400D02*
X24765000Y-9956800D01*
X24765000Y-9804400D02*
X24612600Y-9956800D01*
X24765000Y-9880600D02*
G75*
G03X24765000Y-9880600I-76200J0D01*
G01*
X24612600Y-10312400D02*
X24765000Y-10464800D01*
X24765000Y-10312400D02*
X24612600Y-10464800D01*
X24765000Y-10388600D02*
G75*
G03X24765000Y-10388600I-76200J0D01*
G01*
D13*
X16268428Y-11214914D02*
X16268428Y-10914914D01*
X16339857Y-10914914D01*
X16382714Y-10929200D01*
X16411286Y-10957772D01*
X16425571Y-10986343D01*
X16439857Y-11043486D01*
X16439857Y-11086343D01*
X16425571Y-11143486D01*
X16411286Y-11172057D01*
X16382714Y-11200629D01*
X16339857Y-11214914D01*
X16268428Y-11214914D01*
X16568428Y-11214914D02*
X16568428Y-11014914D01*
X16568428Y-11072057D02*
X16582714Y-11043486D01*
X16597000Y-11029200D01*
X16625571Y-11014914D01*
X16654143Y-11014914D01*
X16754143Y-11214914D02*
X16754143Y-11014914D01*
X16754143Y-10914914D02*
X16739857Y-10929200D01*
X16754143Y-10943486D01*
X16768428Y-10929200D01*
X16754143Y-10914914D01*
X16754143Y-10943486D01*
X16939857Y-11214914D02*
X16911286Y-11200629D01*
X16897000Y-11172057D01*
X16897000Y-10914914D01*
X17097000Y-11214914D02*
X17068429Y-11200629D01*
X17054143Y-11172057D01*
X17054143Y-10914914D01*
X17439857Y-11214914D02*
X17439857Y-10914914D01*
X17539857Y-11129200D01*
X17639857Y-10914914D01*
X17639857Y-11214914D01*
X17911286Y-11214914D02*
X17911286Y-11057772D01*
X17897000Y-11029200D01*
X17868429Y-11014914D01*
X17811286Y-11014914D01*
X17782714Y-11029200D01*
X17911286Y-11200629D02*
X17882714Y-11214914D01*
X17811286Y-11214914D01*
X17782714Y-11200629D01*
X17768429Y-11172057D01*
X17768429Y-11143486D01*
X17782714Y-11114914D01*
X17811286Y-11100629D01*
X17882714Y-11100629D01*
X17911286Y-11086343D01*
X18054143Y-11014914D02*
X18054143Y-11314914D01*
X18054143Y-11029200D02*
X18082714Y-11014914D01*
X18139857Y-11014914D01*
X18168429Y-11029200D01*
X18182714Y-11043486D01*
X18197000Y-11072057D01*
X18197000Y-11157772D01*
X18182714Y-11186343D01*
X18168429Y-11200629D01*
X18139857Y-11214914D01*
X18082714Y-11214914D01*
X18054143Y-11200629D01*
X18325571Y-11186343D02*
X18339857Y-11200629D01*
X18325571Y-11214914D01*
X18311286Y-11200629D01*
X18325571Y-11186343D01*
X18325571Y-11214914D01*
X18325571Y-11029200D02*
X18339857Y-11043486D01*
X18325571Y-11057772D01*
X18311286Y-11043486D01*
X18325571Y-11029200D01*
X18325571Y-11057772D01*
X15937000Y-11679200D02*
X15997000Y-11739200D01*
X15997000Y-11679200D02*
X15937000Y-11739200D01*
X16325571Y-11544914D02*
X16354143Y-11544914D01*
X16382714Y-11559200D01*
X16397000Y-11573486D01*
X16411286Y-11602057D01*
X16425571Y-11659200D01*
X16425571Y-11730629D01*
X16411286Y-11787771D01*
X16397000Y-11816343D01*
X16382714Y-11830629D01*
X16354143Y-11844914D01*
X16325571Y-11844914D01*
X16297000Y-11830629D01*
X16282714Y-11816343D01*
X16268428Y-11787771D01*
X16254143Y-11730629D01*
X16254143Y-11659200D01*
X16268428Y-11602057D01*
X16282714Y-11573486D01*
X16297000Y-11559200D01*
X16325571Y-11544914D01*
X16554143Y-11816343D02*
X16568428Y-11830629D01*
X16554143Y-11844914D01*
X16539857Y-11830629D01*
X16554143Y-11816343D01*
X16554143Y-11844914D01*
X16825571Y-11544914D02*
X16768428Y-11544914D01*
X16739857Y-11559200D01*
X16725571Y-11573486D01*
X16697000Y-11616343D01*
X16682714Y-11673486D01*
X16682714Y-11787771D01*
X16697000Y-11816343D01*
X16711286Y-11830629D01*
X16739857Y-11844914D01*
X16797000Y-11844914D01*
X16825571Y-11830629D01*
X16839857Y-11816343D01*
X16854143Y-11787771D01*
X16854143Y-11716343D01*
X16839857Y-11687771D01*
X16825571Y-11673486D01*
X16797000Y-11659200D01*
X16739857Y-11659200D01*
X16711286Y-11673486D01*
X16697000Y-11687771D01*
X16682714Y-11716343D01*
X17039857Y-11544914D02*
X17068429Y-11544914D01*
X17097000Y-11559200D01*
X17111286Y-11573486D01*
X17125571Y-11602057D01*
X17139857Y-11659200D01*
X17139857Y-11730629D01*
X17125571Y-11787771D01*
X17111286Y-11816343D01*
X17097000Y-11830629D01*
X17068429Y-11844914D01*
X17039857Y-11844914D01*
X17011286Y-11830629D01*
X16997000Y-11816343D01*
X16982714Y-11787771D01*
X16968429Y-11730629D01*
X16968429Y-11659200D01*
X16982714Y-11602057D01*
X16997000Y-11573486D01*
X17011286Y-11559200D01*
X17039857Y-11544914D01*
X17268429Y-11844914D02*
X17268429Y-11644914D01*
X17268429Y-11673486D02*
X17282714Y-11659200D01*
X17311286Y-11644914D01*
X17354143Y-11644914D01*
X17382714Y-11659200D01*
X17397000Y-11687771D01*
X17397000Y-11844914D01*
X17397000Y-11687771D02*
X17411286Y-11659200D01*
X17439857Y-11644914D01*
X17482714Y-11644914D01*
X17511286Y-11659200D01*
X17525571Y-11687771D01*
X17525571Y-11844914D01*
X17668429Y-11844914D02*
X17668429Y-11644914D01*
X17668429Y-11673486D02*
X17682714Y-11659200D01*
X17711286Y-11644914D01*
X17754143Y-11644914D01*
X17782714Y-11659200D01*
X17797000Y-11687771D01*
X17797000Y-11844914D01*
X17797000Y-11687771D02*
X17811286Y-11659200D01*
X17839857Y-11644914D01*
X17882714Y-11644914D01*
X17911286Y-11659200D01*
X17925571Y-11687771D01*
X17925571Y-11844914D01*
X18511286Y-11530629D02*
X18254143Y-11916343D01*
X18897000Y-11544914D02*
X18925571Y-11544914D01*
X18954143Y-11559200D01*
X18968428Y-11573486D01*
X18982714Y-11602057D01*
X18997000Y-11659200D01*
X18997000Y-11730629D01*
X18982714Y-11787771D01*
X18968428Y-11816343D01*
X18954143Y-11830629D01*
X18925571Y-11844914D01*
X18897000Y-11844914D01*
X18868428Y-11830629D01*
X18854143Y-11816343D01*
X18839857Y-11787771D01*
X18825571Y-11730629D01*
X18825571Y-11659200D01*
X18839857Y-11602057D01*
X18854143Y-11573486D01*
X18868428Y-11559200D01*
X18897000Y-11544914D01*
X19125571Y-11816343D02*
X19139857Y-11830629D01*
X19125571Y-11844914D01*
X19111286Y-11830629D01*
X19125571Y-11816343D01*
X19125571Y-11844914D01*
X19325571Y-11544914D02*
X19354143Y-11544914D01*
X19382714Y-11559200D01*
X19397000Y-11573486D01*
X19411286Y-11602057D01*
X19425571Y-11659200D01*
X19425571Y-11730629D01*
X19411286Y-11787771D01*
X19397000Y-11816343D01*
X19382714Y-11830629D01*
X19354143Y-11844914D01*
X19325571Y-11844914D01*
X19297000Y-11830629D01*
X19282714Y-11816343D01*
X19268428Y-11787771D01*
X19254143Y-11730629D01*
X19254143Y-11659200D01*
X19268428Y-11602057D01*
X19282714Y-11573486D01*
X19297000Y-11559200D01*
X19325571Y-11544914D01*
X19539857Y-11573486D02*
X19554143Y-11559200D01*
X19582714Y-11544914D01*
X19654143Y-11544914D01*
X19682714Y-11559200D01*
X19697000Y-11573486D01*
X19711286Y-11602057D01*
X19711286Y-11630629D01*
X19697000Y-11673486D01*
X19525571Y-11844914D01*
X19711286Y-11844914D01*
X19968428Y-11644914D02*
X19968428Y-11844914D01*
X19897000Y-11530629D02*
X19825571Y-11744914D01*
X20011286Y-11744914D01*
X20111286Y-11544914D02*
X20111286Y-11602057D01*
X20225571Y-11544914D02*
X20225571Y-11602057D01*
X20668428Y-11959200D02*
X20654143Y-11944914D01*
X20625571Y-11902057D01*
X20611286Y-11873486D01*
X20597000Y-11830629D01*
X20582714Y-11759200D01*
X20582714Y-11702057D01*
X20597000Y-11630629D01*
X20611286Y-11587771D01*
X20625571Y-11559200D01*
X20654143Y-11516343D01*
X20668428Y-11502057D01*
X20939857Y-11844914D02*
X20768428Y-11844914D01*
X20854143Y-11844914D02*
X20854143Y-11544914D01*
X20825571Y-11587771D01*
X20797000Y-11616343D01*
X20768428Y-11630629D01*
X21054143Y-11573486D02*
X21068428Y-11559200D01*
X21097000Y-11544914D01*
X21168428Y-11544914D01*
X21197000Y-11559200D01*
X21211286Y-11573486D01*
X21225571Y-11602057D01*
X21225571Y-11630629D01*
X21211286Y-11673486D01*
X21039857Y-11844914D01*
X21225571Y-11844914D01*
X21582714Y-11844914D02*
X21582714Y-11544914D01*
X21711286Y-11844914D02*
X21711286Y-11687771D01*
X21697000Y-11659200D01*
X21668428Y-11644914D01*
X21625571Y-11644914D01*
X21597000Y-11659200D01*
X21582714Y-11673486D01*
X21897000Y-11844914D02*
X21868428Y-11830629D01*
X21854143Y-11816343D01*
X21839857Y-11787771D01*
X21839857Y-11702057D01*
X21854143Y-11673486D01*
X21868428Y-11659200D01*
X21897000Y-11644914D01*
X21939857Y-11644914D01*
X21968428Y-11659200D01*
X21982714Y-11673486D01*
X21997000Y-11702057D01*
X21997000Y-11787771D01*
X21982714Y-11816343D01*
X21968428Y-11830629D01*
X21939857Y-11844914D01*
X21897000Y-11844914D01*
X22168428Y-11844914D02*
X22139857Y-11830629D01*
X22125571Y-11802057D01*
X22125571Y-11544914D01*
X22397000Y-11830629D02*
X22368429Y-11844914D01*
X22311286Y-11844914D01*
X22282714Y-11830629D01*
X22268429Y-11802057D01*
X22268429Y-11687771D01*
X22282714Y-11659200D01*
X22311286Y-11644914D01*
X22368429Y-11644914D01*
X22397000Y-11659200D01*
X22411286Y-11687771D01*
X22411286Y-11716343D01*
X22268429Y-11744914D01*
X22525571Y-11830629D02*
X22554143Y-11844914D01*
X22611286Y-11844914D01*
X22639857Y-11830629D01*
X22654143Y-11802057D01*
X22654143Y-11787771D01*
X22639857Y-11759200D01*
X22611286Y-11744914D01*
X22568428Y-11744914D01*
X22539857Y-11730629D01*
X22525571Y-11702057D01*
X22525571Y-11687771D01*
X22539857Y-11659200D01*
X22568428Y-11644914D01*
X22611286Y-11644914D01*
X22639857Y-11659200D01*
X22754143Y-11959200D02*
X22768428Y-11944914D01*
X22797000Y-11902057D01*
X22811286Y-11873486D01*
X22825571Y-11830629D01*
X22839857Y-11759200D01*
X22839857Y-11702057D01*
X22825571Y-11630629D01*
X22811286Y-11587771D01*
X22797000Y-11559200D01*
X22768428Y-11516343D01*
X22754143Y-11502057D01*
X15997000Y-12105200D02*
G75*
G03X15997000Y-12105200I-40000J0D01*
G01*
X16325571Y-11940914D02*
X16354143Y-11940914D01*
X16382714Y-11955200D01*
X16397000Y-11969486D01*
X16411286Y-11998057D01*
X16425571Y-12055200D01*
X16425571Y-12126629D01*
X16411286Y-12183771D01*
X16397000Y-12212343D01*
X16382714Y-12226629D01*
X16354143Y-12240914D01*
X16325571Y-12240914D01*
X16297000Y-12226629D01*
X16282714Y-12212343D01*
X16268428Y-12183771D01*
X16254143Y-12126629D01*
X16254143Y-12055200D01*
X16268428Y-11998057D01*
X16282714Y-11969486D01*
X16297000Y-11955200D01*
X16325571Y-11940914D01*
X16554143Y-12212343D02*
X16568428Y-12226629D01*
X16554143Y-12240914D01*
X16539857Y-12226629D01*
X16554143Y-12212343D01*
X16554143Y-12240914D01*
X16739857Y-12069486D02*
X16711286Y-12055200D01*
X16697000Y-12040914D01*
X16682714Y-12012343D01*
X16682714Y-11998057D01*
X16697000Y-11969486D01*
X16711286Y-11955200D01*
X16739857Y-11940914D01*
X16797000Y-11940914D01*
X16825571Y-11955200D01*
X16839857Y-11969486D01*
X16854143Y-11998057D01*
X16854143Y-12012343D01*
X16839857Y-12040914D01*
X16825571Y-12055200D01*
X16797000Y-12069486D01*
X16739857Y-12069486D01*
X16711286Y-12083771D01*
X16697000Y-12098057D01*
X16682714Y-12126629D01*
X16682714Y-12183771D01*
X16697000Y-12212343D01*
X16711286Y-12226629D01*
X16739857Y-12240914D01*
X16797000Y-12240914D01*
X16825571Y-12226629D01*
X16839857Y-12212343D01*
X16854143Y-12183771D01*
X16854143Y-12126629D01*
X16839857Y-12098057D01*
X16825571Y-12083771D01*
X16797000Y-12069486D01*
X17039857Y-11940914D02*
X17068429Y-11940914D01*
X17097000Y-11955200D01*
X17111286Y-11969486D01*
X17125571Y-11998057D01*
X17139857Y-12055200D01*
X17139857Y-12126629D01*
X17125571Y-12183771D01*
X17111286Y-12212343D01*
X17097000Y-12226629D01*
X17068429Y-12240914D01*
X17039857Y-12240914D01*
X17011286Y-12226629D01*
X16997000Y-12212343D01*
X16982714Y-12183771D01*
X16968429Y-12126629D01*
X16968429Y-12055200D01*
X16982714Y-11998057D01*
X16997000Y-11969486D01*
X17011286Y-11955200D01*
X17039857Y-11940914D01*
X17268429Y-12240914D02*
X17268429Y-12040914D01*
X17268429Y-12069486D02*
X17282714Y-12055200D01*
X17311286Y-12040914D01*
X17354143Y-12040914D01*
X17382714Y-12055200D01*
X17397000Y-12083771D01*
X17397000Y-12240914D01*
X17397000Y-12083771D02*
X17411286Y-12055200D01*
X17439857Y-12040914D01*
X17482714Y-12040914D01*
X17511286Y-12055200D01*
X17525571Y-12083771D01*
X17525571Y-12240914D01*
X17668429Y-12240914D02*
X17668429Y-12040914D01*
X17668429Y-12069486D02*
X17682714Y-12055200D01*
X17711286Y-12040914D01*
X17754143Y-12040914D01*
X17782714Y-12055200D01*
X17797000Y-12083771D01*
X17797000Y-12240914D01*
X17797000Y-12083771D02*
X17811286Y-12055200D01*
X17839857Y-12040914D01*
X17882714Y-12040914D01*
X17911286Y-12055200D01*
X17925571Y-12083771D01*
X17925571Y-12240914D01*
X18511286Y-11926629D02*
X18254143Y-12312343D01*
X18897000Y-11940914D02*
X18925571Y-11940914D01*
X18954143Y-11955200D01*
X18968428Y-11969486D01*
X18982714Y-11998057D01*
X18997000Y-12055200D01*
X18997000Y-12126629D01*
X18982714Y-12183771D01*
X18968428Y-12212343D01*
X18954143Y-12226629D01*
X18925571Y-12240914D01*
X18897000Y-12240914D01*
X18868428Y-12226629D01*
X18854143Y-12212343D01*
X18839857Y-12183771D01*
X18825571Y-12126629D01*
X18825571Y-12055200D01*
X18839857Y-11998057D01*
X18854143Y-11969486D01*
X18868428Y-11955200D01*
X18897000Y-11940914D01*
X19125571Y-12212343D02*
X19139857Y-12226629D01*
X19125571Y-12240914D01*
X19111286Y-12226629D01*
X19125571Y-12212343D01*
X19125571Y-12240914D01*
X19325571Y-11940914D02*
X19354143Y-11940914D01*
X19382714Y-11955200D01*
X19397000Y-11969486D01*
X19411286Y-11998057D01*
X19425571Y-12055200D01*
X19425571Y-12126629D01*
X19411286Y-12183771D01*
X19397000Y-12212343D01*
X19382714Y-12226629D01*
X19354143Y-12240914D01*
X19325571Y-12240914D01*
X19297000Y-12226629D01*
X19282714Y-12212343D01*
X19268428Y-12183771D01*
X19254143Y-12126629D01*
X19254143Y-12055200D01*
X19268428Y-11998057D01*
X19282714Y-11969486D01*
X19297000Y-11955200D01*
X19325571Y-11940914D01*
X19525571Y-11940914D02*
X19711286Y-11940914D01*
X19611286Y-12055200D01*
X19654143Y-12055200D01*
X19682714Y-12069486D01*
X19697000Y-12083771D01*
X19711286Y-12112343D01*
X19711286Y-12183771D01*
X19697000Y-12212343D01*
X19682714Y-12226629D01*
X19654143Y-12240914D01*
X19568428Y-12240914D01*
X19539857Y-12226629D01*
X19525571Y-12212343D01*
X19997000Y-12240914D02*
X19825571Y-12240914D01*
X19911286Y-12240914D02*
X19911286Y-11940914D01*
X19882714Y-11983771D01*
X19854143Y-12012343D01*
X19825571Y-12026629D01*
X20111286Y-11940914D02*
X20111286Y-11998057D01*
X20225571Y-11940914D02*
X20225571Y-11998057D01*
X20668428Y-12355200D02*
X20654143Y-12340914D01*
X20625571Y-12298057D01*
X20611286Y-12269486D01*
X20597000Y-12226629D01*
X20582714Y-12155200D01*
X20582714Y-12098057D01*
X20597000Y-12026629D01*
X20611286Y-11983771D01*
X20625571Y-11955200D01*
X20654143Y-11912343D01*
X20668428Y-11898057D01*
X20925571Y-11940914D02*
X20782714Y-11940914D01*
X20768428Y-12083771D01*
X20782714Y-12069486D01*
X20811286Y-12055200D01*
X20882714Y-12055200D01*
X20911286Y-12069486D01*
X20925571Y-12083771D01*
X20939857Y-12112343D01*
X20939857Y-12183771D01*
X20925571Y-12212343D01*
X20911286Y-12226629D01*
X20882714Y-12240914D01*
X20811286Y-12240914D01*
X20782714Y-12226629D01*
X20768428Y-12212343D01*
X21054143Y-11969486D02*
X21068428Y-11955200D01*
X21097000Y-11940914D01*
X21168428Y-11940914D01*
X21197000Y-11955200D01*
X21211286Y-11969486D01*
X21225571Y-11998057D01*
X21225571Y-12026629D01*
X21211286Y-12069486D01*
X21039857Y-12240914D01*
X21225571Y-12240914D01*
X21582714Y-12240914D02*
X21582714Y-11940914D01*
X21711286Y-12240914D02*
X21711286Y-12083771D01*
X21697000Y-12055200D01*
X21668428Y-12040914D01*
X21625571Y-12040914D01*
X21597000Y-12055200D01*
X21582714Y-12069486D01*
X21897000Y-12240914D02*
X21868428Y-12226629D01*
X21854143Y-12212343D01*
X21839857Y-12183771D01*
X21839857Y-12098057D01*
X21854143Y-12069486D01*
X21868428Y-12055200D01*
X21897000Y-12040914D01*
X21939857Y-12040914D01*
X21968428Y-12055200D01*
X21982714Y-12069486D01*
X21997000Y-12098057D01*
X21997000Y-12183771D01*
X21982714Y-12212343D01*
X21968428Y-12226629D01*
X21939857Y-12240914D01*
X21897000Y-12240914D01*
X22168428Y-12240914D02*
X22139857Y-12226629D01*
X22125571Y-12198057D01*
X22125571Y-11940914D01*
X22397000Y-12226629D02*
X22368429Y-12240914D01*
X22311286Y-12240914D01*
X22282714Y-12226629D01*
X22268429Y-12198057D01*
X22268429Y-12083771D01*
X22282714Y-12055200D01*
X22311286Y-12040914D01*
X22368429Y-12040914D01*
X22397000Y-12055200D01*
X22411286Y-12083771D01*
X22411286Y-12112343D01*
X22268429Y-12140914D01*
X22525571Y-12226629D02*
X22554143Y-12240914D01*
X22611286Y-12240914D01*
X22639857Y-12226629D01*
X22654143Y-12198057D01*
X22654143Y-12183771D01*
X22639857Y-12155200D01*
X22611286Y-12140914D01*
X22568428Y-12140914D01*
X22539857Y-12126629D01*
X22525571Y-12098057D01*
X22525571Y-12083771D01*
X22539857Y-12055200D01*
X22568428Y-12040914D01*
X22611286Y-12040914D01*
X22639857Y-12055200D01*
X22754143Y-12355200D02*
X22768428Y-12340914D01*
X22797000Y-12298057D01*
X22811286Y-12269486D01*
X22825571Y-12226629D01*
X22839857Y-12155200D01*
X22839857Y-12098057D01*
X22825571Y-12026629D01*
X22811286Y-11983771D01*
X22797000Y-11955200D01*
X22768428Y-11912343D01*
X22754143Y-11898057D01*
X15952000Y-12456200D02*
X15952000Y-12546200D01*
X15907000Y-12501200D02*
X15997000Y-12501200D01*
X16325571Y-12336914D02*
X16354143Y-12336914D01*
X16382714Y-12351200D01*
X16397000Y-12365486D01*
X16411286Y-12394057D01*
X16425571Y-12451200D01*
X16425571Y-12522629D01*
X16411286Y-12579771D01*
X16397000Y-12608343D01*
X16382714Y-12622629D01*
X16354143Y-12636914D01*
X16325571Y-12636914D01*
X16297000Y-12622629D01*
X16282714Y-12608343D01*
X16268428Y-12579771D01*
X16254143Y-12522629D01*
X16254143Y-12451200D01*
X16268428Y-12394057D01*
X16282714Y-12365486D01*
X16297000Y-12351200D01*
X16325571Y-12336914D01*
X16554143Y-12608343D02*
X16568428Y-12622629D01*
X16554143Y-12636914D01*
X16539857Y-12622629D01*
X16554143Y-12608343D01*
X16554143Y-12636914D01*
X16711286Y-12636914D02*
X16768428Y-12636914D01*
X16797000Y-12622629D01*
X16811286Y-12608343D01*
X16839857Y-12565486D01*
X16854143Y-12508343D01*
X16854143Y-12394057D01*
X16839857Y-12365486D01*
X16825571Y-12351200D01*
X16797000Y-12336914D01*
X16739857Y-12336914D01*
X16711286Y-12351200D01*
X16697000Y-12365486D01*
X16682714Y-12394057D01*
X16682714Y-12465486D01*
X16697000Y-12494057D01*
X16711286Y-12508343D01*
X16739857Y-12522629D01*
X16797000Y-12522629D01*
X16825571Y-12508343D01*
X16839857Y-12494057D01*
X16854143Y-12465486D01*
X17039857Y-12336914D02*
X17068429Y-12336914D01*
X17097000Y-12351200D01*
X17111286Y-12365486D01*
X17125571Y-12394057D01*
X17139857Y-12451200D01*
X17139857Y-12522629D01*
X17125571Y-12579771D01*
X17111286Y-12608343D01*
X17097000Y-12622629D01*
X17068429Y-12636914D01*
X17039857Y-12636914D01*
X17011286Y-12622629D01*
X16997000Y-12608343D01*
X16982714Y-12579771D01*
X16968429Y-12522629D01*
X16968429Y-12451200D01*
X16982714Y-12394057D01*
X16997000Y-12365486D01*
X17011286Y-12351200D01*
X17039857Y-12336914D01*
X17268429Y-12636914D02*
X17268429Y-12436914D01*
X17268429Y-12465486D02*
X17282714Y-12451200D01*
X17311286Y-12436914D01*
X17354143Y-12436914D01*
X17382714Y-12451200D01*
X17397000Y-12479771D01*
X17397000Y-12636914D01*
X17397000Y-12479771D02*
X17411286Y-12451200D01*
X17439857Y-12436914D01*
X17482714Y-12436914D01*
X17511286Y-12451200D01*
X17525571Y-12479771D01*
X17525571Y-12636914D01*
X17668429Y-12636914D02*
X17668429Y-12436914D01*
X17668429Y-12465486D02*
X17682714Y-12451200D01*
X17711286Y-12436914D01*
X17754143Y-12436914D01*
X17782714Y-12451200D01*
X17797000Y-12479771D01*
X17797000Y-12636914D01*
X17797000Y-12479771D02*
X17811286Y-12451200D01*
X17839857Y-12436914D01*
X17882714Y-12436914D01*
X17911286Y-12451200D01*
X17925571Y-12479771D01*
X17925571Y-12636914D01*
X18511286Y-12322629D02*
X18254143Y-12708343D01*
X18897000Y-12336914D02*
X18925571Y-12336914D01*
X18954143Y-12351200D01*
X18968428Y-12365486D01*
X18982714Y-12394057D01*
X18997000Y-12451200D01*
X18997000Y-12522629D01*
X18982714Y-12579771D01*
X18968428Y-12608343D01*
X18954143Y-12622629D01*
X18925571Y-12636914D01*
X18897000Y-12636914D01*
X18868428Y-12622629D01*
X18854143Y-12608343D01*
X18839857Y-12579771D01*
X18825571Y-12522629D01*
X18825571Y-12451200D01*
X18839857Y-12394057D01*
X18854143Y-12365486D01*
X18868428Y-12351200D01*
X18897000Y-12336914D01*
X19125571Y-12608343D02*
X19139857Y-12622629D01*
X19125571Y-12636914D01*
X19111286Y-12622629D01*
X19125571Y-12608343D01*
X19125571Y-12636914D01*
X19325571Y-12336914D02*
X19354143Y-12336914D01*
X19382714Y-12351200D01*
X19397000Y-12365486D01*
X19411286Y-12394057D01*
X19425571Y-12451200D01*
X19425571Y-12522629D01*
X19411286Y-12579771D01*
X19397000Y-12608343D01*
X19382714Y-12622629D01*
X19354143Y-12636914D01*
X19325571Y-12636914D01*
X19297000Y-12622629D01*
X19282714Y-12608343D01*
X19268428Y-12579771D01*
X19254143Y-12522629D01*
X19254143Y-12451200D01*
X19268428Y-12394057D01*
X19282714Y-12365486D01*
X19297000Y-12351200D01*
X19325571Y-12336914D01*
X19525571Y-12336914D02*
X19711286Y-12336914D01*
X19611286Y-12451200D01*
X19654143Y-12451200D01*
X19682714Y-12465486D01*
X19697000Y-12479771D01*
X19711286Y-12508343D01*
X19711286Y-12579771D01*
X19697000Y-12608343D01*
X19682714Y-12622629D01*
X19654143Y-12636914D01*
X19568428Y-12636914D01*
X19539857Y-12622629D01*
X19525571Y-12608343D01*
X19982714Y-12336914D02*
X19839857Y-12336914D01*
X19825571Y-12479771D01*
X19839857Y-12465486D01*
X19868428Y-12451200D01*
X19939857Y-12451200D01*
X19968428Y-12465486D01*
X19982714Y-12479771D01*
X19997000Y-12508343D01*
X19997000Y-12579771D01*
X19982714Y-12608343D01*
X19968428Y-12622629D01*
X19939857Y-12636914D01*
X19868428Y-12636914D01*
X19839857Y-12622629D01*
X19825571Y-12608343D01*
X20111286Y-12336914D02*
X20111286Y-12394057D01*
X20225571Y-12336914D02*
X20225571Y-12394057D01*
X20668428Y-12751200D02*
X20654143Y-12736914D01*
X20625571Y-12694057D01*
X20611286Y-12665486D01*
X20597000Y-12622629D01*
X20582714Y-12551200D01*
X20582714Y-12494057D01*
X20597000Y-12422629D01*
X20611286Y-12379771D01*
X20625571Y-12351200D01*
X20654143Y-12308343D01*
X20668428Y-12294057D01*
X20911286Y-12436914D02*
X20911286Y-12636914D01*
X20839857Y-12322629D02*
X20768428Y-12536914D01*
X20954143Y-12536914D01*
X21297000Y-12636914D02*
X21297000Y-12336914D01*
X21425571Y-12636914D02*
X21425571Y-12479771D01*
X21411286Y-12451200D01*
X21382714Y-12436914D01*
X21339857Y-12436914D01*
X21311286Y-12451200D01*
X21297000Y-12465486D01*
X21611286Y-12636914D02*
X21582714Y-12622629D01*
X21568428Y-12608343D01*
X21554143Y-12579771D01*
X21554143Y-12494057D01*
X21568428Y-12465486D01*
X21582714Y-12451200D01*
X21611286Y-12436914D01*
X21654143Y-12436914D01*
X21682714Y-12451200D01*
X21697000Y-12465486D01*
X21711286Y-12494057D01*
X21711286Y-12579771D01*
X21697000Y-12608343D01*
X21682714Y-12622629D01*
X21654143Y-12636914D01*
X21611286Y-12636914D01*
X21882714Y-12636914D02*
X21854143Y-12622629D01*
X21839857Y-12594057D01*
X21839857Y-12336914D01*
X22111286Y-12622629D02*
X22082714Y-12636914D01*
X22025571Y-12636914D01*
X21997000Y-12622629D01*
X21982714Y-12594057D01*
X21982714Y-12479771D01*
X21997000Y-12451200D01*
X22025571Y-12436914D01*
X22082714Y-12436914D01*
X22111286Y-12451200D01*
X22125571Y-12479771D01*
X22125571Y-12508343D01*
X21982714Y-12536914D01*
X22239857Y-12622629D02*
X22268429Y-12636914D01*
X22325571Y-12636914D01*
X22354143Y-12622629D01*
X22368429Y-12594057D01*
X22368429Y-12579771D01*
X22354143Y-12551200D01*
X22325571Y-12536914D01*
X22282714Y-12536914D01*
X22254143Y-12522629D01*
X22239857Y-12494057D01*
X22239857Y-12479771D01*
X22254143Y-12451200D01*
X22282714Y-12436914D01*
X22325571Y-12436914D01*
X22354143Y-12451200D01*
X22468428Y-12751200D02*
X22482714Y-12736914D01*
X22511286Y-12694057D01*
X22525571Y-12665486D01*
X22539857Y-12622629D01*
X22554143Y-12551200D01*
X22554143Y-12494057D01*
X22539857Y-12422629D01*
X22525571Y-12379771D01*
X22511286Y-12351200D01*
X22482714Y-12308343D01*
X22468428Y-12294057D01*
X15982344Y-12932583D02*
X15982344Y-12861818D01*
X15911579Y-12861818D01*
X15911579Y-12932583D01*
X15982344Y-12932583D01*
X16425571Y-13032914D02*
X16254143Y-13032914D01*
X16339857Y-13032914D02*
X16339857Y-12732914D01*
X16311286Y-12775771D01*
X16282714Y-12804343D01*
X16254143Y-12818629D01*
X16554143Y-13004343D02*
X16568428Y-13018629D01*
X16554143Y-13032914D01*
X16539857Y-13018629D01*
X16554143Y-13004343D01*
X16554143Y-13032914D01*
X16754143Y-12732914D02*
X16782714Y-12732914D01*
X16811286Y-12747200D01*
X16825571Y-12761486D01*
X16839857Y-12790057D01*
X16854143Y-12847200D01*
X16854143Y-12918629D01*
X16839857Y-12975771D01*
X16825571Y-13004343D01*
X16811286Y-13018629D01*
X16782714Y-13032914D01*
X16754143Y-13032914D01*
X16725571Y-13018629D01*
X16711286Y-13004343D01*
X16697000Y-12975771D01*
X16682714Y-12918629D01*
X16682714Y-12847200D01*
X16697000Y-12790057D01*
X16711286Y-12761486D01*
X16725571Y-12747200D01*
X16754143Y-12732914D01*
X17039857Y-12732914D02*
X17068429Y-12732914D01*
X17097000Y-12747200D01*
X17111286Y-12761486D01*
X17125571Y-12790057D01*
X17139857Y-12847200D01*
X17139857Y-12918629D01*
X17125571Y-12975771D01*
X17111286Y-13004343D01*
X17097000Y-13018629D01*
X17068429Y-13032914D01*
X17039857Y-13032914D01*
X17011286Y-13018629D01*
X16997000Y-13004343D01*
X16982714Y-12975771D01*
X16968429Y-12918629D01*
X16968429Y-12847200D01*
X16982714Y-12790057D01*
X16997000Y-12761486D01*
X17011286Y-12747200D01*
X17039857Y-12732914D01*
X17268429Y-13032914D02*
X17268429Y-12832914D01*
X17268429Y-12861486D02*
X17282714Y-12847200D01*
X17311286Y-12832914D01*
X17354143Y-12832914D01*
X17382714Y-12847200D01*
X17397000Y-12875771D01*
X17397000Y-13032914D01*
X17397000Y-12875771D02*
X17411286Y-12847200D01*
X17439857Y-12832914D01*
X17482714Y-12832914D01*
X17511286Y-12847200D01*
X17525571Y-12875771D01*
X17525571Y-13032914D01*
X17668429Y-13032914D02*
X17668429Y-12832914D01*
X17668429Y-12861486D02*
X17682714Y-12847200D01*
X17711286Y-12832914D01*
X17754143Y-12832914D01*
X17782714Y-12847200D01*
X17797000Y-12875771D01*
X17797000Y-13032914D01*
X17797000Y-12875771D02*
X17811286Y-12847200D01*
X17839857Y-12832914D01*
X17882714Y-12832914D01*
X17911286Y-12847200D01*
X17925571Y-12875771D01*
X17925571Y-13032914D01*
X18511286Y-12718629D02*
X18254143Y-13104343D01*
X18897000Y-12732914D02*
X18925571Y-12732914D01*
X18954143Y-12747200D01*
X18968428Y-12761486D01*
X18982714Y-12790057D01*
X18997000Y-12847200D01*
X18997000Y-12918629D01*
X18982714Y-12975771D01*
X18968428Y-13004343D01*
X18954143Y-13018629D01*
X18925571Y-13032914D01*
X18897000Y-13032914D01*
X18868428Y-13018629D01*
X18854143Y-13004343D01*
X18839857Y-12975771D01*
X18825571Y-12918629D01*
X18825571Y-12847200D01*
X18839857Y-12790057D01*
X18854143Y-12761486D01*
X18868428Y-12747200D01*
X18897000Y-12732914D01*
X19125571Y-13004343D02*
X19139857Y-13018629D01*
X19125571Y-13032914D01*
X19111286Y-13018629D01*
X19125571Y-13004343D01*
X19125571Y-13032914D01*
X19325571Y-12732914D02*
X19354143Y-12732914D01*
X19382714Y-12747200D01*
X19397000Y-12761486D01*
X19411286Y-12790057D01*
X19425571Y-12847200D01*
X19425571Y-12918629D01*
X19411286Y-12975771D01*
X19397000Y-13004343D01*
X19382714Y-13018629D01*
X19354143Y-13032914D01*
X19325571Y-13032914D01*
X19297000Y-13018629D01*
X19282714Y-13004343D01*
X19268428Y-12975771D01*
X19254143Y-12918629D01*
X19254143Y-12847200D01*
X19268428Y-12790057D01*
X19282714Y-12761486D01*
X19297000Y-12747200D01*
X19325571Y-12732914D01*
X19525571Y-12732914D02*
X19711286Y-12732914D01*
X19611286Y-12847200D01*
X19654143Y-12847200D01*
X19682714Y-12861486D01*
X19697000Y-12875771D01*
X19711286Y-12904343D01*
X19711286Y-12975771D01*
X19697000Y-13004343D01*
X19682714Y-13018629D01*
X19654143Y-13032914D01*
X19568428Y-13032914D01*
X19539857Y-13018629D01*
X19525571Y-13004343D01*
X19854143Y-13032914D02*
X19911286Y-13032914D01*
X19939857Y-13018629D01*
X19954143Y-13004343D01*
X19982714Y-12961486D01*
X19997000Y-12904343D01*
X19997000Y-12790057D01*
X19982714Y-12761486D01*
X19968428Y-12747200D01*
X19939857Y-12732914D01*
X19882714Y-12732914D01*
X19854143Y-12747200D01*
X19839857Y-12761486D01*
X19825571Y-12790057D01*
X19825571Y-12861486D01*
X19839857Y-12890057D01*
X19854143Y-12904343D01*
X19882714Y-12918629D01*
X19939857Y-12918629D01*
X19968428Y-12904343D01*
X19982714Y-12890057D01*
X19997000Y-12861486D01*
X20111286Y-12732914D02*
X20111286Y-12790057D01*
X20225571Y-12732914D02*
X20225571Y-12790057D01*
X20668428Y-13147200D02*
X20654143Y-13132914D01*
X20625571Y-13090057D01*
X20611286Y-13061486D01*
X20597000Y-13018629D01*
X20582714Y-12947200D01*
X20582714Y-12890057D01*
X20597000Y-12818629D01*
X20611286Y-12775771D01*
X20625571Y-12747200D01*
X20654143Y-12704343D01*
X20668428Y-12690057D01*
X20911286Y-12832914D02*
X20911286Y-13032914D01*
X20839857Y-12718629D02*
X20768428Y-12932914D01*
X20954143Y-12932914D01*
X21211286Y-12732914D02*
X21068428Y-12732914D01*
X21054143Y-12875771D01*
X21068428Y-12861486D01*
X21097000Y-12847200D01*
X21168428Y-12847200D01*
X21197000Y-12861486D01*
X21211286Y-12875771D01*
X21225571Y-12904343D01*
X21225571Y-12975771D01*
X21211286Y-13004343D01*
X21197000Y-13018629D01*
X21168428Y-13032914D01*
X21097000Y-13032914D01*
X21068428Y-13018629D01*
X21054143Y-13004343D01*
X21582714Y-13032914D02*
X21582714Y-12732914D01*
X21711286Y-13032914D02*
X21711286Y-12875771D01*
X21697000Y-12847200D01*
X21668428Y-12832914D01*
X21625571Y-12832914D01*
X21597000Y-12847200D01*
X21582714Y-12861486D01*
X21897000Y-13032914D02*
X21868428Y-13018629D01*
X21854143Y-13004343D01*
X21839857Y-12975771D01*
X21839857Y-12890057D01*
X21854143Y-12861486D01*
X21868428Y-12847200D01*
X21897000Y-12832914D01*
X21939857Y-12832914D01*
X21968428Y-12847200D01*
X21982714Y-12861486D01*
X21997000Y-12890057D01*
X21997000Y-12975771D01*
X21982714Y-13004343D01*
X21968428Y-13018629D01*
X21939857Y-13032914D01*
X21897000Y-13032914D01*
X22168428Y-13032914D02*
X22139857Y-13018629D01*
X22125571Y-12990057D01*
X22125571Y-12732914D01*
X22397000Y-13018629D02*
X22368429Y-13032914D01*
X22311286Y-13032914D01*
X22282714Y-13018629D01*
X22268429Y-12990057D01*
X22268429Y-12875771D01*
X22282714Y-12847200D01*
X22311286Y-12832914D01*
X22368429Y-12832914D01*
X22397000Y-12847200D01*
X22411286Y-12875771D01*
X22411286Y-12904343D01*
X22268429Y-12932914D01*
X22525571Y-13018629D02*
X22554143Y-13032914D01*
X22611286Y-13032914D01*
X22639857Y-13018629D01*
X22654143Y-12990057D01*
X22654143Y-12975771D01*
X22639857Y-12947200D01*
X22611286Y-12932914D01*
X22568428Y-12932914D01*
X22539857Y-12918629D01*
X22525571Y-12890057D01*
X22525571Y-12875771D01*
X22539857Y-12847200D01*
X22568428Y-12832914D01*
X22611286Y-12832914D01*
X22639857Y-12847200D01*
X22754143Y-13147200D02*
X22768428Y-13132914D01*
X22797000Y-13090057D01*
X22811286Y-13061486D01*
X22825571Y-13018629D01*
X22839857Y-12947200D01*
X22839857Y-12890057D01*
X22825571Y-12818629D01*
X22811286Y-12775771D01*
X22797000Y-12747200D01*
X22768428Y-12704343D01*
X22754143Y-12690057D01*
X15946200Y-13344000D02*
X15997000Y-13293200D01*
X15946200Y-13242400D01*
X15895400Y-13293200D01*
X15946200Y-13344000D01*
X16425571Y-13428914D02*
X16254143Y-13428914D01*
X16339857Y-13428914D02*
X16339857Y-13128914D01*
X16311286Y-13171771D01*
X16282714Y-13200343D01*
X16254143Y-13214629D01*
X16554143Y-13400343D02*
X16568428Y-13414629D01*
X16554143Y-13428914D01*
X16539857Y-13414629D01*
X16554143Y-13400343D01*
X16554143Y-13428914D01*
X16754143Y-13128914D02*
X16782714Y-13128914D01*
X16811286Y-13143200D01*
X16825571Y-13157486D01*
X16839857Y-13186057D01*
X16854143Y-13243200D01*
X16854143Y-13314629D01*
X16839857Y-13371771D01*
X16825571Y-13400343D01*
X16811286Y-13414629D01*
X16782714Y-13428914D01*
X16754143Y-13428914D01*
X16725571Y-13414629D01*
X16711286Y-13400343D01*
X16697000Y-13371771D01*
X16682714Y-13314629D01*
X16682714Y-13243200D01*
X16697000Y-13186057D01*
X16711286Y-13157486D01*
X16725571Y-13143200D01*
X16754143Y-13128914D01*
X16968429Y-13157486D02*
X16982714Y-13143200D01*
X17011286Y-13128914D01*
X17082714Y-13128914D01*
X17111286Y-13143200D01*
X17125571Y-13157486D01*
X17139857Y-13186057D01*
X17139857Y-13214629D01*
X17125571Y-13257486D01*
X16954143Y-13428914D01*
X17139857Y-13428914D01*
X17268429Y-13428914D02*
X17268429Y-13228914D01*
X17268429Y-13257486D02*
X17282714Y-13243200D01*
X17311286Y-13228914D01*
X17354143Y-13228914D01*
X17382714Y-13243200D01*
X17397000Y-13271771D01*
X17397000Y-13428914D01*
X17397000Y-13271771D02*
X17411286Y-13243200D01*
X17439857Y-13228914D01*
X17482714Y-13228914D01*
X17511286Y-13243200D01*
X17525571Y-13271771D01*
X17525571Y-13428914D01*
X17668429Y-13428914D02*
X17668429Y-13228914D01*
X17668429Y-13257486D02*
X17682714Y-13243200D01*
X17711286Y-13228914D01*
X17754143Y-13228914D01*
X17782714Y-13243200D01*
X17797000Y-13271771D01*
X17797000Y-13428914D01*
X17797000Y-13271771D02*
X17811286Y-13243200D01*
X17839857Y-13228914D01*
X17882714Y-13228914D01*
X17911286Y-13243200D01*
X17925571Y-13271771D01*
X17925571Y-13428914D01*
X18511286Y-13114629D02*
X18254143Y-13500343D01*
X18897000Y-13128914D02*
X18925571Y-13128914D01*
X18954143Y-13143200D01*
X18968428Y-13157486D01*
X18982714Y-13186057D01*
X18997000Y-13243200D01*
X18997000Y-13314629D01*
X18982714Y-13371771D01*
X18968428Y-13400343D01*
X18954143Y-13414629D01*
X18925571Y-13428914D01*
X18897000Y-13428914D01*
X18868428Y-13414629D01*
X18854143Y-13400343D01*
X18839857Y-13371771D01*
X18825571Y-13314629D01*
X18825571Y-13243200D01*
X18839857Y-13186057D01*
X18854143Y-13157486D01*
X18868428Y-13143200D01*
X18897000Y-13128914D01*
X19125571Y-13400343D02*
X19139857Y-13414629D01*
X19125571Y-13428914D01*
X19111286Y-13414629D01*
X19125571Y-13400343D01*
X19125571Y-13428914D01*
X19325571Y-13128914D02*
X19354143Y-13128914D01*
X19382714Y-13143200D01*
X19397000Y-13157486D01*
X19411286Y-13186057D01*
X19425571Y-13243200D01*
X19425571Y-13314629D01*
X19411286Y-13371771D01*
X19397000Y-13400343D01*
X19382714Y-13414629D01*
X19354143Y-13428914D01*
X19325571Y-13428914D01*
X19297000Y-13414629D01*
X19282714Y-13400343D01*
X19268428Y-13371771D01*
X19254143Y-13314629D01*
X19254143Y-13243200D01*
X19268428Y-13186057D01*
X19282714Y-13157486D01*
X19297000Y-13143200D01*
X19325571Y-13128914D01*
X19682714Y-13228914D02*
X19682714Y-13428914D01*
X19611286Y-13114629D02*
X19539857Y-13328914D01*
X19725571Y-13328914D01*
X19897000Y-13128914D02*
X19925571Y-13128914D01*
X19954143Y-13143200D01*
X19968428Y-13157486D01*
X19982714Y-13186057D01*
X19997000Y-13243200D01*
X19997000Y-13314629D01*
X19982714Y-13371771D01*
X19968428Y-13400343D01*
X19954143Y-13414629D01*
X19925571Y-13428914D01*
X19897000Y-13428914D01*
X19868428Y-13414629D01*
X19854143Y-13400343D01*
X19839857Y-13371771D01*
X19825571Y-13314629D01*
X19825571Y-13243200D01*
X19839857Y-13186057D01*
X19854143Y-13157486D01*
X19868428Y-13143200D01*
X19897000Y-13128914D01*
X20111286Y-13128914D02*
X20111286Y-13186057D01*
X20225571Y-13128914D02*
X20225571Y-13186057D01*
X20668428Y-13543200D02*
X20654143Y-13528914D01*
X20625571Y-13486057D01*
X20611286Y-13457486D01*
X20597000Y-13414629D01*
X20582714Y-13343200D01*
X20582714Y-13286057D01*
X20597000Y-13214629D01*
X20611286Y-13171771D01*
X20625571Y-13143200D01*
X20654143Y-13100343D01*
X20668428Y-13086057D01*
X20911286Y-13228914D02*
X20911286Y-13428914D01*
X20839857Y-13114629D02*
X20768428Y-13328914D01*
X20954143Y-13328914D01*
X21039857Y-13128914D02*
X21239857Y-13128914D01*
X21111286Y-13428914D01*
X21582714Y-13428914D02*
X21582714Y-13128914D01*
X21711286Y-13428914D02*
X21711286Y-13271771D01*
X21697000Y-13243200D01*
X21668428Y-13228914D01*
X21625571Y-13228914D01*
X21597000Y-13243200D01*
X21582714Y-13257486D01*
X21897000Y-13428914D02*
X21868428Y-13414629D01*
X21854143Y-13400343D01*
X21839857Y-13371771D01*
X21839857Y-13286057D01*
X21854143Y-13257486D01*
X21868428Y-13243200D01*
X21897000Y-13228914D01*
X21939857Y-13228914D01*
X21968428Y-13243200D01*
X21982714Y-13257486D01*
X21997000Y-13286057D01*
X21997000Y-13371771D01*
X21982714Y-13400343D01*
X21968428Y-13414629D01*
X21939857Y-13428914D01*
X21897000Y-13428914D01*
X22168428Y-13428914D02*
X22139857Y-13414629D01*
X22125571Y-13386057D01*
X22125571Y-13128914D01*
X22397000Y-13414629D02*
X22368429Y-13428914D01*
X22311286Y-13428914D01*
X22282714Y-13414629D01*
X22268429Y-13386057D01*
X22268429Y-13271771D01*
X22282714Y-13243200D01*
X22311286Y-13228914D01*
X22368429Y-13228914D01*
X22397000Y-13243200D01*
X22411286Y-13271771D01*
X22411286Y-13300343D01*
X22268429Y-13328914D01*
X22525571Y-13414629D02*
X22554143Y-13428914D01*
X22611286Y-13428914D01*
X22639857Y-13414629D01*
X22654143Y-13386057D01*
X22654143Y-13371771D01*
X22639857Y-13343200D01*
X22611286Y-13328914D01*
X22568428Y-13328914D01*
X22539857Y-13314629D01*
X22525571Y-13286057D01*
X22525571Y-13271771D01*
X22539857Y-13243200D01*
X22568428Y-13228914D01*
X22611286Y-13228914D01*
X22639857Y-13243200D01*
X22754143Y-13543200D02*
X22768428Y-13528914D01*
X22797000Y-13486057D01*
X22811286Y-13457486D01*
X22825571Y-13414629D01*
X22839857Y-13343200D01*
X22839857Y-13286057D01*
X22825571Y-13214629D01*
X22811286Y-13171771D01*
X22797000Y-13143200D01*
X22768428Y-13100343D01*
X22754143Y-13086057D01*
X15844600Y-13613000D02*
X15997000Y-13765400D01*
X15997000Y-13613000D02*
X15844600Y-13765400D01*
X15997000Y-13689200D02*
G75*
G03X15997000Y-13689200I-76200J0D01*
G01*
X16425571Y-13824914D02*
X16254143Y-13824914D01*
X16339857Y-13824914D02*
X16339857Y-13524914D01*
X16311286Y-13567771D01*
X16282714Y-13596343D01*
X16254143Y-13610629D01*
X16554143Y-13796343D02*
X16568428Y-13810629D01*
X16554143Y-13824914D01*
X16539857Y-13810629D01*
X16554143Y-13796343D01*
X16554143Y-13824914D01*
X16839857Y-13524914D02*
X16697000Y-13524914D01*
X16682714Y-13667771D01*
X16697000Y-13653486D01*
X16725571Y-13639200D01*
X16797000Y-13639200D01*
X16825571Y-13653486D01*
X16839857Y-13667771D01*
X16854143Y-13696343D01*
X16854143Y-13767771D01*
X16839857Y-13796343D01*
X16825571Y-13810629D01*
X16797000Y-13824914D01*
X16725571Y-13824914D01*
X16697000Y-13810629D01*
X16682714Y-13796343D01*
X16968429Y-13553486D02*
X16982714Y-13539200D01*
X17011286Y-13524914D01*
X17082714Y-13524914D01*
X17111286Y-13539200D01*
X17125571Y-13553486D01*
X17139857Y-13582057D01*
X17139857Y-13610629D01*
X17125571Y-13653486D01*
X16954143Y-13824914D01*
X17139857Y-13824914D01*
X17268429Y-13824914D02*
X17268429Y-13624914D01*
X17268429Y-13653486D02*
X17282714Y-13639200D01*
X17311286Y-13624914D01*
X17354143Y-13624914D01*
X17382714Y-13639200D01*
X17397000Y-13667771D01*
X17397000Y-13824914D01*
X17397000Y-13667771D02*
X17411286Y-13639200D01*
X17439857Y-13624914D01*
X17482714Y-13624914D01*
X17511286Y-13639200D01*
X17525571Y-13667771D01*
X17525571Y-13824914D01*
X17668429Y-13824914D02*
X17668429Y-13624914D01*
X17668429Y-13653486D02*
X17682714Y-13639200D01*
X17711286Y-13624914D01*
X17754143Y-13624914D01*
X17782714Y-13639200D01*
X17797000Y-13667771D01*
X17797000Y-13824914D01*
X17797000Y-13667771D02*
X17811286Y-13639200D01*
X17839857Y-13624914D01*
X17882714Y-13624914D01*
X17911286Y-13639200D01*
X17925571Y-13667771D01*
X17925571Y-13824914D01*
X18511286Y-13510629D02*
X18254143Y-13896343D01*
X18897000Y-13524914D02*
X18925571Y-13524914D01*
X18954143Y-13539200D01*
X18968428Y-13553486D01*
X18982714Y-13582057D01*
X18997000Y-13639200D01*
X18997000Y-13710629D01*
X18982714Y-13767771D01*
X18968428Y-13796343D01*
X18954143Y-13810629D01*
X18925571Y-13824914D01*
X18897000Y-13824914D01*
X18868428Y-13810629D01*
X18854143Y-13796343D01*
X18839857Y-13767771D01*
X18825571Y-13710629D01*
X18825571Y-13639200D01*
X18839857Y-13582057D01*
X18854143Y-13553486D01*
X18868428Y-13539200D01*
X18897000Y-13524914D01*
X19125571Y-13796343D02*
X19139857Y-13810629D01*
X19125571Y-13824914D01*
X19111286Y-13810629D01*
X19125571Y-13796343D01*
X19125571Y-13824914D01*
X19325571Y-13524914D02*
X19354143Y-13524914D01*
X19382714Y-13539200D01*
X19397000Y-13553486D01*
X19411286Y-13582057D01*
X19425571Y-13639200D01*
X19425571Y-13710629D01*
X19411286Y-13767771D01*
X19397000Y-13796343D01*
X19382714Y-13810629D01*
X19354143Y-13824914D01*
X19325571Y-13824914D01*
X19297000Y-13810629D01*
X19282714Y-13796343D01*
X19268428Y-13767771D01*
X19254143Y-13710629D01*
X19254143Y-13639200D01*
X19268428Y-13582057D01*
X19282714Y-13553486D01*
X19297000Y-13539200D01*
X19325571Y-13524914D01*
X19682714Y-13524914D02*
X19625571Y-13524914D01*
X19597000Y-13539200D01*
X19582714Y-13553486D01*
X19554143Y-13596343D01*
X19539857Y-13653486D01*
X19539857Y-13767771D01*
X19554143Y-13796343D01*
X19568428Y-13810629D01*
X19597000Y-13824914D01*
X19654143Y-13824914D01*
X19682714Y-13810629D01*
X19697000Y-13796343D01*
X19711286Y-13767771D01*
X19711286Y-13696343D01*
X19697000Y-13667771D01*
X19682714Y-13653486D01*
X19654143Y-13639200D01*
X19597000Y-13639200D01*
X19568428Y-13653486D01*
X19554143Y-13667771D01*
X19539857Y-13696343D01*
X19897000Y-13524914D02*
X19925571Y-13524914D01*
X19954143Y-13539200D01*
X19968428Y-13553486D01*
X19982714Y-13582057D01*
X19997000Y-13639200D01*
X19997000Y-13710629D01*
X19982714Y-13767771D01*
X19968428Y-13796343D01*
X19954143Y-13810629D01*
X19925571Y-13824914D01*
X19897000Y-13824914D01*
X19868428Y-13810629D01*
X19854143Y-13796343D01*
X19839857Y-13767771D01*
X19825571Y-13710629D01*
X19825571Y-13639200D01*
X19839857Y-13582057D01*
X19854143Y-13553486D01*
X19868428Y-13539200D01*
X19897000Y-13524914D01*
X20111286Y-13524914D02*
X20111286Y-13582057D01*
X20225571Y-13524914D02*
X20225571Y-13582057D01*
X20668428Y-13939200D02*
X20654143Y-13924914D01*
X20625571Y-13882057D01*
X20611286Y-13853486D01*
X20597000Y-13810629D01*
X20582714Y-13739200D01*
X20582714Y-13682057D01*
X20597000Y-13610629D01*
X20611286Y-13567771D01*
X20625571Y-13539200D01*
X20654143Y-13496343D01*
X20668428Y-13482057D01*
X20939857Y-13824914D02*
X20768428Y-13824914D01*
X20854143Y-13824914D02*
X20854143Y-13524914D01*
X20825571Y-13567771D01*
X20797000Y-13596343D01*
X20768428Y-13610629D01*
X21225571Y-13824914D02*
X21054143Y-13824914D01*
X21139857Y-13824914D02*
X21139857Y-13524914D01*
X21111286Y-13567771D01*
X21082714Y-13596343D01*
X21054143Y-13610629D01*
X21582714Y-13824914D02*
X21582714Y-13524914D01*
X21711286Y-13824914D02*
X21711286Y-13667771D01*
X21697000Y-13639200D01*
X21668428Y-13624914D01*
X21625571Y-13624914D01*
X21597000Y-13639200D01*
X21582714Y-13653486D01*
X21897000Y-13824914D02*
X21868428Y-13810629D01*
X21854143Y-13796343D01*
X21839857Y-13767771D01*
X21839857Y-13682057D01*
X21854143Y-13653486D01*
X21868428Y-13639200D01*
X21897000Y-13624914D01*
X21939857Y-13624914D01*
X21968428Y-13639200D01*
X21982714Y-13653486D01*
X21997000Y-13682057D01*
X21997000Y-13767771D01*
X21982714Y-13796343D01*
X21968428Y-13810629D01*
X21939857Y-13824914D01*
X21897000Y-13824914D01*
X22168428Y-13824914D02*
X22139857Y-13810629D01*
X22125571Y-13782057D01*
X22125571Y-13524914D01*
X22397000Y-13810629D02*
X22368429Y-13824914D01*
X22311286Y-13824914D01*
X22282714Y-13810629D01*
X22268429Y-13782057D01*
X22268429Y-13667771D01*
X22282714Y-13639200D01*
X22311286Y-13624914D01*
X22368429Y-13624914D01*
X22397000Y-13639200D01*
X22411286Y-13667771D01*
X22411286Y-13696343D01*
X22268429Y-13724914D01*
X22525571Y-13810629D02*
X22554143Y-13824914D01*
X22611286Y-13824914D01*
X22639857Y-13810629D01*
X22654143Y-13782057D01*
X22654143Y-13767771D01*
X22639857Y-13739200D01*
X22611286Y-13724914D01*
X22568428Y-13724914D01*
X22539857Y-13710629D01*
X22525571Y-13682057D01*
X22525571Y-13667771D01*
X22539857Y-13639200D01*
X22568428Y-13624914D01*
X22611286Y-13624914D01*
X22639857Y-13639200D01*
X22754143Y-13939200D02*
X22768428Y-13924914D01*
X22797000Y-13882057D01*
X22811286Y-13853486D01*
X22825571Y-13810629D01*
X22839857Y-13739200D01*
X22839857Y-13682057D01*
X22825571Y-13610629D01*
X22811286Y-13567771D01*
X22797000Y-13539200D01*
X22768428Y-13496343D01*
X22754143Y-13482057D01*
M02*
