G04 #@! TF.FileFunction,Legend,Top*
%FSLAX46Y46*%
G04 Gerber Fmt 4.6, Leading zero omitted, Abs format (unit mm)*
G04 Created by KiCad (PCBNEW 4.0.2+dfsg1-stable) date mer. 27 juil. 2016 00:58:03 CEST*
%MOMM*%
G01*
G04 APERTURE LIST*
%ADD10C,0.100000*%
%ADD11C,0.200000*%
%ADD12C,0.500000*%
%ADD13C,0.300000*%
%ADD14C,0.700000*%
%ADD15C,0.304800*%
%ADD16C,0.254000*%
%ADD17C,0.150000*%
%ADD18C,0.002540*%
G04 APERTURE END LIST*
D10*
D11*
X185857047Y-57329714D02*
X185857047Y-57996381D01*
X185857047Y-57424952D02*
X185904666Y-57377333D01*
X185999904Y-57329714D01*
X186142762Y-57329714D01*
X186238000Y-57377333D01*
X186285619Y-57472571D01*
X186285619Y-57996381D01*
X187190381Y-57996381D02*
X187190381Y-57472571D01*
X187142762Y-57377333D01*
X187047524Y-57329714D01*
X186857047Y-57329714D01*
X186761809Y-57377333D01*
X187190381Y-57948762D02*
X187095143Y-57996381D01*
X186857047Y-57996381D01*
X186761809Y-57948762D01*
X186714190Y-57853524D01*
X186714190Y-57758286D01*
X186761809Y-57663048D01*
X186857047Y-57615429D01*
X187095143Y-57615429D01*
X187190381Y-57567810D01*
X187666571Y-57329714D02*
X187666571Y-57996381D01*
X187666571Y-57424952D02*
X187714190Y-57377333D01*
X187809428Y-57329714D01*
X187952286Y-57329714D01*
X188047524Y-57377333D01*
X188095143Y-57472571D01*
X188095143Y-57996381D01*
X188714190Y-57996381D02*
X188618952Y-57948762D01*
X188571333Y-57901143D01*
X188523714Y-57805905D01*
X188523714Y-57520190D01*
X188571333Y-57424952D01*
X188618952Y-57377333D01*
X188714190Y-57329714D01*
X188857048Y-57329714D01*
X188952286Y-57377333D01*
X188999905Y-57424952D01*
X189047524Y-57520190D01*
X189047524Y-57805905D01*
X188999905Y-57901143D01*
X188952286Y-57948762D01*
X188857048Y-57996381D01*
X188714190Y-57996381D01*
X189333238Y-56996381D02*
X189904667Y-56996381D01*
X189618952Y-57996381D02*
X189618952Y-56996381D01*
X190238000Y-57996381D02*
X190238000Y-57329714D01*
X190238000Y-57520190D02*
X190285619Y-57424952D01*
X190333238Y-57377333D01*
X190428476Y-57329714D01*
X190523715Y-57329714D01*
X191285620Y-57996381D02*
X191285620Y-57472571D01*
X191238001Y-57377333D01*
X191142763Y-57329714D01*
X190952286Y-57329714D01*
X190857048Y-57377333D01*
X191285620Y-57948762D02*
X191190382Y-57996381D01*
X190952286Y-57996381D01*
X190857048Y-57948762D01*
X190809429Y-57853524D01*
X190809429Y-57758286D01*
X190857048Y-57663048D01*
X190952286Y-57615429D01*
X191190382Y-57615429D01*
X191285620Y-57567810D01*
X192190382Y-57948762D02*
X192095144Y-57996381D01*
X191904667Y-57996381D01*
X191809429Y-57948762D01*
X191761810Y-57901143D01*
X191714191Y-57805905D01*
X191714191Y-57520190D01*
X191761810Y-57424952D01*
X191809429Y-57377333D01*
X191904667Y-57329714D01*
X192095144Y-57329714D01*
X192190382Y-57377333D01*
X192999906Y-57948762D02*
X192904668Y-57996381D01*
X192714191Y-57996381D01*
X192618953Y-57948762D01*
X192571334Y-57853524D01*
X192571334Y-57472571D01*
X192618953Y-57377333D01*
X192714191Y-57329714D01*
X192904668Y-57329714D01*
X192999906Y-57377333D01*
X193047525Y-57472571D01*
X193047525Y-57567810D01*
X192571334Y-57663048D01*
X193476096Y-57996381D02*
X193476096Y-57329714D01*
X193476096Y-57520190D02*
X193523715Y-57424952D01*
X193571334Y-57377333D01*
X193666572Y-57329714D01*
X193761811Y-57329714D01*
X181238000Y-59596381D02*
X181238000Y-58596381D01*
X181238000Y-58977333D02*
X181333238Y-58929714D01*
X181523715Y-58929714D01*
X181618953Y-58977333D01*
X181666572Y-59024952D01*
X181714191Y-59120190D01*
X181714191Y-59405905D01*
X181666572Y-59501143D01*
X181618953Y-59548762D01*
X181523715Y-59596381D01*
X181333238Y-59596381D01*
X181238000Y-59548762D01*
X182047524Y-58929714D02*
X182285619Y-59596381D01*
X182523715Y-58929714D02*
X182285619Y-59596381D01*
X182190381Y-59834476D01*
X182142762Y-59882095D01*
X182047524Y-59929714D01*
X183618953Y-59310667D02*
X184095144Y-59310667D01*
X183523715Y-59596381D02*
X183857048Y-58596381D01*
X184190382Y-59596381D01*
X184523715Y-59215429D02*
X185285620Y-59215429D01*
X185666572Y-58929714D02*
X185857048Y-59596381D01*
X186047525Y-59120190D01*
X186238001Y-59596381D01*
X186428477Y-58929714D01*
X187238001Y-59596381D02*
X187238001Y-59072571D01*
X187190382Y-58977333D01*
X187095144Y-58929714D01*
X186904667Y-58929714D01*
X186809429Y-58977333D01*
X187238001Y-59548762D02*
X187142763Y-59596381D01*
X186904667Y-59596381D01*
X186809429Y-59548762D01*
X186761810Y-59453524D01*
X186761810Y-59358286D01*
X186809429Y-59263048D01*
X186904667Y-59215429D01*
X187142763Y-59215429D01*
X187238001Y-59167810D01*
X187714191Y-59596381D02*
X187714191Y-58929714D01*
X187714191Y-58596381D02*
X187666572Y-58644000D01*
X187714191Y-58691619D01*
X187761810Y-58644000D01*
X187714191Y-58596381D01*
X187714191Y-58691619D01*
X188904667Y-59310667D02*
X189380858Y-59310667D01*
X188809429Y-59596381D02*
X189142762Y-58596381D01*
X189476096Y-59596381D01*
X189809429Y-59596381D02*
X189809429Y-58929714D01*
X189809429Y-59024952D02*
X189857048Y-58977333D01*
X189952286Y-58929714D01*
X190095144Y-58929714D01*
X190190382Y-58977333D01*
X190238001Y-59072571D01*
X190238001Y-59596381D01*
X190238001Y-59072571D02*
X190285620Y-58977333D01*
X190380858Y-58929714D01*
X190523715Y-58929714D01*
X190618953Y-58977333D01*
X190666572Y-59072571D01*
X190666572Y-59596381D01*
X191142762Y-58929714D02*
X191142762Y-59929714D01*
X191142762Y-58977333D02*
X191238000Y-58929714D01*
X191428477Y-58929714D01*
X191523715Y-58977333D01*
X191571334Y-59024952D01*
X191618953Y-59120190D01*
X191618953Y-59405905D01*
X191571334Y-59501143D01*
X191523715Y-59548762D01*
X191428477Y-59596381D01*
X191238000Y-59596381D01*
X191142762Y-59548762D01*
X192190381Y-59596381D02*
X192095143Y-59548762D01*
X192047524Y-59453524D01*
X192047524Y-58596381D01*
X192571334Y-59596381D02*
X192571334Y-58929714D01*
X192571334Y-58596381D02*
X192523715Y-58644000D01*
X192571334Y-58691619D01*
X192618953Y-58644000D01*
X192571334Y-58596381D01*
X192571334Y-58691619D01*
X192904667Y-58929714D02*
X193285619Y-58929714D01*
X193047524Y-59596381D02*
X193047524Y-58739238D01*
X193095143Y-58644000D01*
X193190381Y-58596381D01*
X193285619Y-58596381D01*
X193618953Y-59596381D02*
X193618953Y-58929714D01*
X193618953Y-58596381D02*
X193571334Y-58644000D01*
X193618953Y-58691619D01*
X193666572Y-58644000D01*
X193618953Y-58596381D01*
X193618953Y-58691619D01*
X194523715Y-59548762D02*
X194428477Y-59596381D01*
X194238000Y-59596381D01*
X194142762Y-59548762D01*
X194095143Y-59501143D01*
X194047524Y-59405905D01*
X194047524Y-59120190D01*
X194095143Y-59024952D01*
X194142762Y-58977333D01*
X194238000Y-58929714D01*
X194428477Y-58929714D01*
X194523715Y-58977333D01*
X195380858Y-59596381D02*
X195380858Y-59072571D01*
X195333239Y-58977333D01*
X195238001Y-58929714D01*
X195047524Y-58929714D01*
X194952286Y-58977333D01*
X195380858Y-59548762D02*
X195285620Y-59596381D01*
X195047524Y-59596381D01*
X194952286Y-59548762D01*
X194904667Y-59453524D01*
X194904667Y-59358286D01*
X194952286Y-59263048D01*
X195047524Y-59215429D01*
X195285620Y-59215429D01*
X195380858Y-59167810D01*
X195714191Y-58929714D02*
X196095143Y-58929714D01*
X195857048Y-58596381D02*
X195857048Y-59453524D01*
X195904667Y-59548762D01*
X195999905Y-59596381D01*
X196095143Y-59596381D01*
X196428477Y-59596381D02*
X196428477Y-58929714D01*
X196428477Y-58596381D02*
X196380858Y-58644000D01*
X196428477Y-58691619D01*
X196476096Y-58644000D01*
X196428477Y-58596381D01*
X196428477Y-58691619D01*
X197047524Y-59596381D02*
X196952286Y-59548762D01*
X196904667Y-59501143D01*
X196857048Y-59405905D01*
X196857048Y-59120190D01*
X196904667Y-59024952D01*
X196952286Y-58977333D01*
X197047524Y-58929714D01*
X197190382Y-58929714D01*
X197285620Y-58977333D01*
X197333239Y-59024952D01*
X197380858Y-59120190D01*
X197380858Y-59405905D01*
X197333239Y-59501143D01*
X197285620Y-59548762D01*
X197190382Y-59596381D01*
X197047524Y-59596381D01*
X197809429Y-58929714D02*
X197809429Y-59596381D01*
X197809429Y-59024952D02*
X197857048Y-58977333D01*
X197952286Y-58929714D01*
X198095144Y-58929714D01*
X198190382Y-58977333D01*
X198238001Y-59072571D01*
X198238001Y-59596381D01*
X178833238Y-62129714D02*
X178833238Y-62939238D01*
X178785619Y-63034476D01*
X178738000Y-63082095D01*
X178642761Y-63129714D01*
X178499904Y-63129714D01*
X178404666Y-63082095D01*
X178833238Y-62748762D02*
X178738000Y-62796381D01*
X178547523Y-62796381D01*
X178452285Y-62748762D01*
X178404666Y-62701143D01*
X178357047Y-62605905D01*
X178357047Y-62320190D01*
X178404666Y-62224952D01*
X178452285Y-62177333D01*
X178547523Y-62129714D01*
X178738000Y-62129714D01*
X178833238Y-62177333D01*
X179309428Y-62796381D02*
X179309428Y-62129714D01*
X179309428Y-61796381D02*
X179261809Y-61844000D01*
X179309428Y-61891619D01*
X179357047Y-61844000D01*
X179309428Y-61796381D01*
X179309428Y-61891619D01*
X179642761Y-62129714D02*
X180023713Y-62129714D01*
X179785618Y-61796381D02*
X179785618Y-62653524D01*
X179833237Y-62748762D01*
X179928475Y-62796381D01*
X180023713Y-62796381D01*
X180357047Y-62796381D02*
X180357047Y-61796381D01*
X180785619Y-62796381D02*
X180785619Y-62272571D01*
X180738000Y-62177333D01*
X180642762Y-62129714D01*
X180499904Y-62129714D01*
X180404666Y-62177333D01*
X180357047Y-62224952D01*
X181690381Y-62129714D02*
X181690381Y-62796381D01*
X181261809Y-62129714D02*
X181261809Y-62653524D01*
X181309428Y-62748762D01*
X181404666Y-62796381D01*
X181547524Y-62796381D01*
X181642762Y-62748762D01*
X181690381Y-62701143D01*
X182166571Y-62796381D02*
X182166571Y-61796381D01*
X182166571Y-62177333D02*
X182261809Y-62129714D01*
X182452286Y-62129714D01*
X182547524Y-62177333D01*
X182595143Y-62224952D01*
X182642762Y-62320190D01*
X182642762Y-62605905D01*
X182595143Y-62701143D01*
X182547524Y-62748762D01*
X182452286Y-62796381D01*
X182261809Y-62796381D01*
X182166571Y-62748762D01*
X183071333Y-62701143D02*
X183118952Y-62748762D01*
X183071333Y-62796381D01*
X183023714Y-62748762D01*
X183071333Y-62701143D01*
X183071333Y-62796381D01*
X183976095Y-62748762D02*
X183880857Y-62796381D01*
X183690380Y-62796381D01*
X183595142Y-62748762D01*
X183547523Y-62701143D01*
X183499904Y-62605905D01*
X183499904Y-62320190D01*
X183547523Y-62224952D01*
X183595142Y-62177333D01*
X183690380Y-62129714D01*
X183880857Y-62129714D01*
X183976095Y-62177333D01*
X184547523Y-62796381D02*
X184452285Y-62748762D01*
X184404666Y-62701143D01*
X184357047Y-62605905D01*
X184357047Y-62320190D01*
X184404666Y-62224952D01*
X184452285Y-62177333D01*
X184547523Y-62129714D01*
X184690381Y-62129714D01*
X184785619Y-62177333D01*
X184833238Y-62224952D01*
X184880857Y-62320190D01*
X184880857Y-62605905D01*
X184833238Y-62701143D01*
X184785619Y-62748762D01*
X184690381Y-62796381D01*
X184547523Y-62796381D01*
X185309428Y-62796381D02*
X185309428Y-62129714D01*
X185309428Y-62224952D02*
X185357047Y-62177333D01*
X185452285Y-62129714D01*
X185595143Y-62129714D01*
X185690381Y-62177333D01*
X185738000Y-62272571D01*
X185738000Y-62796381D01*
X185738000Y-62272571D02*
X185785619Y-62177333D01*
X185880857Y-62129714D01*
X186023714Y-62129714D01*
X186118952Y-62177333D01*
X186166571Y-62272571D01*
X186166571Y-62796381D01*
X187357047Y-61748762D02*
X186499904Y-63034476D01*
X188118952Y-62796381D02*
X188118952Y-62272571D01*
X188071333Y-62177333D01*
X187976095Y-62129714D01*
X187785618Y-62129714D01*
X187690380Y-62177333D01*
X188118952Y-62748762D02*
X188023714Y-62796381D01*
X187785618Y-62796381D01*
X187690380Y-62748762D01*
X187642761Y-62653524D01*
X187642761Y-62558286D01*
X187690380Y-62463048D01*
X187785618Y-62415429D01*
X188023714Y-62415429D01*
X188118952Y-62367810D01*
X188595142Y-62415429D02*
X189357047Y-62415429D01*
X189737999Y-62129714D02*
X189928475Y-62796381D01*
X190118952Y-62320190D01*
X190309428Y-62796381D01*
X190499904Y-62129714D01*
X191309428Y-62796381D02*
X191309428Y-62272571D01*
X191261809Y-62177333D01*
X191166571Y-62129714D01*
X190976094Y-62129714D01*
X190880856Y-62177333D01*
X191309428Y-62748762D02*
X191214190Y-62796381D01*
X190976094Y-62796381D01*
X190880856Y-62748762D01*
X190833237Y-62653524D01*
X190833237Y-62558286D01*
X190880856Y-62463048D01*
X190976094Y-62415429D01*
X191214190Y-62415429D01*
X191309428Y-62367810D01*
X191785618Y-62796381D02*
X191785618Y-62129714D01*
X191785618Y-61796381D02*
X191737999Y-61844000D01*
X191785618Y-61891619D01*
X191833237Y-61844000D01*
X191785618Y-61796381D01*
X191785618Y-61891619D01*
X192976094Y-61748762D02*
X192118951Y-63034476D01*
X193309427Y-62129714D02*
X193309427Y-62796381D01*
X193309427Y-62224952D02*
X193357046Y-62177333D01*
X193452284Y-62129714D01*
X193595142Y-62129714D01*
X193690380Y-62177333D01*
X193737999Y-62272571D01*
X193737999Y-62796381D01*
X194642761Y-62796381D02*
X194642761Y-62272571D01*
X194595142Y-62177333D01*
X194499904Y-62129714D01*
X194309427Y-62129714D01*
X194214189Y-62177333D01*
X194642761Y-62748762D02*
X194547523Y-62796381D01*
X194309427Y-62796381D01*
X194214189Y-62748762D01*
X194166570Y-62653524D01*
X194166570Y-62558286D01*
X194214189Y-62463048D01*
X194309427Y-62415429D01*
X194547523Y-62415429D01*
X194642761Y-62367810D01*
X195118951Y-62129714D02*
X195118951Y-62796381D01*
X195118951Y-62224952D02*
X195166570Y-62177333D01*
X195261808Y-62129714D01*
X195404666Y-62129714D01*
X195499904Y-62177333D01*
X195547523Y-62272571D01*
X195547523Y-62796381D01*
X196166570Y-62796381D02*
X196071332Y-62748762D01*
X196023713Y-62701143D01*
X195976094Y-62605905D01*
X195976094Y-62320190D01*
X196023713Y-62224952D01*
X196071332Y-62177333D01*
X196166570Y-62129714D01*
X196309428Y-62129714D01*
X196404666Y-62177333D01*
X196452285Y-62224952D01*
X196499904Y-62320190D01*
X196499904Y-62605905D01*
X196452285Y-62701143D01*
X196404666Y-62748762D01*
X196309428Y-62796381D01*
X196166570Y-62796381D01*
X196785618Y-61796381D02*
X197357047Y-61796381D01*
X197071332Y-62796381D02*
X197071332Y-61796381D01*
X197690380Y-62796381D02*
X197690380Y-62129714D01*
X197690380Y-62320190D02*
X197737999Y-62224952D01*
X197785618Y-62177333D01*
X197880856Y-62129714D01*
X197976095Y-62129714D01*
X198738000Y-62796381D02*
X198738000Y-62272571D01*
X198690381Y-62177333D01*
X198595143Y-62129714D01*
X198404666Y-62129714D01*
X198309428Y-62177333D01*
X198738000Y-62748762D02*
X198642762Y-62796381D01*
X198404666Y-62796381D01*
X198309428Y-62748762D01*
X198261809Y-62653524D01*
X198261809Y-62558286D01*
X198309428Y-62463048D01*
X198404666Y-62415429D01*
X198642762Y-62415429D01*
X198738000Y-62367810D01*
X199642762Y-62748762D02*
X199547524Y-62796381D01*
X199357047Y-62796381D01*
X199261809Y-62748762D01*
X199214190Y-62701143D01*
X199166571Y-62605905D01*
X199166571Y-62320190D01*
X199214190Y-62224952D01*
X199261809Y-62177333D01*
X199357047Y-62129714D01*
X199547524Y-62129714D01*
X199642762Y-62177333D01*
X200452286Y-62748762D02*
X200357048Y-62796381D01*
X200166571Y-62796381D01*
X200071333Y-62748762D01*
X200023714Y-62653524D01*
X200023714Y-62272571D01*
X200071333Y-62177333D01*
X200166571Y-62129714D01*
X200357048Y-62129714D01*
X200452286Y-62177333D01*
X200499905Y-62272571D01*
X200499905Y-62367810D01*
X200023714Y-62463048D01*
X200928476Y-62796381D02*
X200928476Y-62129714D01*
X200928476Y-62320190D02*
X200976095Y-62224952D01*
X201023714Y-62177333D01*
X201118952Y-62129714D01*
X201214191Y-62129714D01*
D12*
X215797334Y-84990952D02*
X216273524Y-84990952D01*
X216511619Y-85110000D01*
X216749715Y-85348095D01*
X216868762Y-85824286D01*
X216868762Y-86657619D01*
X216749715Y-87133810D01*
X216511619Y-87371905D01*
X216273524Y-87490952D01*
X215797334Y-87490952D01*
X215559238Y-87371905D01*
X215321143Y-87133810D01*
X215202095Y-86657619D01*
X215202095Y-85824286D01*
X215321143Y-85348095D01*
X215559238Y-85110000D01*
X215797334Y-84990952D01*
X217821143Y-87371905D02*
X218178286Y-87490952D01*
X218773524Y-87490952D01*
X219011620Y-87371905D01*
X219130667Y-87252857D01*
X219249715Y-87014762D01*
X219249715Y-86776667D01*
X219130667Y-86538571D01*
X219011620Y-86419524D01*
X218773524Y-86300476D01*
X218297334Y-86181429D01*
X218059239Y-86062381D01*
X217940191Y-85943333D01*
X217821143Y-85705238D01*
X217821143Y-85467143D01*
X217940191Y-85229048D01*
X218059239Y-85110000D01*
X218297334Y-84990952D01*
X218892572Y-84990952D01*
X219249715Y-85110000D01*
X220321143Y-87490952D02*
X220321143Y-84990952D01*
X220321143Y-86181429D02*
X221749715Y-86181429D01*
X221749715Y-87490952D02*
X221749715Y-84990952D01*
X222702096Y-84990952D02*
X223297334Y-87490952D01*
X223773524Y-85705238D01*
X224249715Y-87490952D01*
X224844953Y-84990952D01*
D13*
X241450857Y-93976000D02*
X242165143Y-93976000D01*
X241308000Y-94404571D02*
X241808000Y-92904571D01*
X242308000Y-94404571D01*
X241415143Y-89324571D02*
X241415143Y-87824571D01*
X242272286Y-89324571D02*
X241629429Y-88467429D01*
X242272286Y-87824571D02*
X241415143Y-88681714D01*
X242200857Y-82816000D02*
X242058000Y-82744571D01*
X241843714Y-82744571D01*
X241629429Y-82816000D01*
X241486571Y-82958857D01*
X241415143Y-83101714D01*
X241343714Y-83387429D01*
X241343714Y-83601714D01*
X241415143Y-83887429D01*
X241486571Y-84030286D01*
X241629429Y-84173143D01*
X241843714Y-84244571D01*
X241986571Y-84244571D01*
X242200857Y-84173143D01*
X242272286Y-84101714D01*
X242272286Y-83601714D01*
X241986571Y-83601714D01*
D14*
X203962000Y-77223714D02*
X204200095Y-77461810D01*
X203962000Y-77699905D01*
X203723905Y-77461810D01*
X203962000Y-77223714D01*
X203962000Y-77699905D01*
X209550000Y-90685714D02*
X209788095Y-90923810D01*
X209550000Y-91161905D01*
X209311905Y-90923810D01*
X209550000Y-90685714D01*
X209550000Y-91161905D01*
D15*
X228008000Y-95588000D02*
G75*
G03X228308000Y-95288000I0J300000D01*
G01*
X228308000Y-95288000D02*
G75*
G03X228008000Y-94988000I-300000J0D01*
G01*
X228008000Y-95588000D02*
G75*
G03X227708000Y-95888000I0J-300000D01*
G01*
X227708000Y-95888000D02*
G75*
G03X228008000Y-96188000I300000J0D01*
G01*
X229908000Y-93688000D02*
G75*
G03X230208000Y-93988000I300000J0D01*
G01*
X230208000Y-93388000D02*
G75*
G03X229908000Y-93688000I0J-300000D01*
G01*
X230508000Y-93088000D02*
G75*
G03X230208000Y-92788000I-300000J0D01*
G01*
X230208000Y-93388000D02*
G75*
G03X230508000Y-93088000I0J300000D01*
G01*
X230208000Y-96188000D02*
X230208000Y-94988000D01*
X228008000Y-93988000D02*
X228008000Y-92788000D01*
X228608000Y-93388000D02*
X227408000Y-93388000D01*
D16*
X233426672Y-94488000D02*
G75*
G03X233426672Y-94488000I-4318672J0D01*
G01*
D15*
X239114919Y-73559081D02*
G75*
G03X238814919Y-73859081I0J-300000D01*
G01*
X238814919Y-73859081D02*
G75*
G03X239114919Y-74159081I300000J0D01*
G01*
X239114919Y-73559081D02*
G75*
G03X239414919Y-73259081I0J300000D01*
G01*
X239414919Y-73259081D02*
G75*
G03X239114919Y-72959081I-300000J0D01*
G01*
X237214919Y-75459081D02*
G75*
G03X236914919Y-75159081I-300000J0D01*
G01*
X236914919Y-75759081D02*
G75*
G03X237214919Y-75459081I0J300000D01*
G01*
X236614919Y-76059081D02*
G75*
G03X236914919Y-76359081I300000J0D01*
G01*
X236914919Y-75759081D02*
G75*
G03X236614919Y-76059081I0J-300000D01*
G01*
X236914919Y-72959081D02*
X236914919Y-74159081D01*
X239114919Y-75159081D02*
X239114919Y-76359081D01*
X238514919Y-75759081D02*
X239714919Y-75759081D01*
D16*
X242333591Y-74659081D02*
G75*
G03X242333591Y-74659081I-4318672J0D01*
G01*
D15*
X229446000Y-51478000D02*
G75*
G03X229146000Y-51778000I0J-300000D01*
G01*
X229146000Y-51778000D02*
G75*
G03X229446000Y-52078000I300000J0D01*
G01*
X229446000Y-51478000D02*
G75*
G03X229746000Y-51178000I0J300000D01*
G01*
X229746000Y-51178000D02*
G75*
G03X229446000Y-50878000I-300000J0D01*
G01*
X227546000Y-53378000D02*
G75*
G03X227246000Y-53078000I-300000J0D01*
G01*
X227246000Y-53678000D02*
G75*
G03X227546000Y-53378000I0J300000D01*
G01*
X226946000Y-53978000D02*
G75*
G03X227246000Y-54278000I300000J0D01*
G01*
X227246000Y-53678000D02*
G75*
G03X226946000Y-53978000I0J-300000D01*
G01*
X227246000Y-50878000D02*
X227246000Y-52078000D01*
X229446000Y-53078000D02*
X229446000Y-54278000D01*
X228846000Y-53678000D02*
X230046000Y-53678000D01*
D16*
X232664672Y-52578000D02*
G75*
G03X232664672Y-52578000I-4318672J0D01*
G01*
D17*
X242316000Y-105156000D02*
X232156000Y-105156000D01*
X242316000Y-106426000D02*
X242316000Y-98806000D01*
X242316000Y-98806000D02*
X232156000Y-98806000D01*
X232156000Y-98806000D02*
X232156000Y-106426000D01*
X232156000Y-106426000D02*
X242316000Y-106426000D01*
X191262000Y-93472000D02*
X196342000Y-93472000D01*
X196342000Y-93472000D02*
X196342000Y-96012000D01*
X196342000Y-96012000D02*
X191262000Y-96012000D01*
X191262000Y-96012000D02*
X191262000Y-93472000D01*
X191262000Y-94742000D02*
X189992000Y-94742000D01*
X196342000Y-94742000D02*
X197612000Y-94742000D01*
X177562000Y-81010000D02*
X177562000Y-74010000D01*
X177562000Y-74010000D02*
X179562000Y-74010000D01*
X179562000Y-74010000D02*
X179562000Y-81010000D01*
X179562000Y-81010000D02*
X177562000Y-81010000D01*
X250698000Y-96266000D02*
X243078000Y-96266000D01*
X250698000Y-81026000D02*
X243078000Y-81026000D01*
X249428000Y-96266000D02*
X249428000Y-81026000D01*
X243078000Y-96266000D02*
X243078000Y-81026000D01*
X250698000Y-96266000D02*
X250698000Y-81026000D01*
X219317000Y-95331000D02*
X219317000Y-105329000D01*
X219457000Y-95335000D02*
X219457000Y-105325000D01*
X219597000Y-95343000D02*
X219597000Y-105317000D01*
X219737000Y-95355000D02*
X219737000Y-105305000D01*
X219877000Y-95370000D02*
X219877000Y-105290000D01*
X220017000Y-95390000D02*
X220017000Y-105270000D01*
X220157000Y-95414000D02*
X220157000Y-105246000D01*
X220297000Y-95443000D02*
X220297000Y-105217000D01*
X220437000Y-95475000D02*
X220437000Y-105185000D01*
X220577000Y-95512000D02*
X220577000Y-105148000D01*
X220717000Y-95553000D02*
X220717000Y-105107000D01*
X220857000Y-95598000D02*
X220857000Y-99864000D01*
X220857000Y-100796000D02*
X220857000Y-105062000D01*
X220997000Y-95648000D02*
X220997000Y-99663000D01*
X220997000Y-100997000D02*
X220997000Y-105012000D01*
X221137000Y-95703000D02*
X221137000Y-99534000D01*
X221137000Y-101126000D02*
X221137000Y-104957000D01*
X221277000Y-95763000D02*
X221277000Y-99445000D01*
X221277000Y-101215000D02*
X221277000Y-104897000D01*
X221417000Y-95828000D02*
X221417000Y-99384000D01*
X221417000Y-101276000D02*
X221417000Y-104832000D01*
X221557000Y-95898000D02*
X221557000Y-99347000D01*
X221557000Y-101313000D02*
X221557000Y-104762000D01*
X221697000Y-95974000D02*
X221697000Y-99331000D01*
X221697000Y-101329000D02*
X221697000Y-104686000D01*
X221837000Y-96056000D02*
X221837000Y-99335000D01*
X221837000Y-101325000D02*
X221837000Y-104604000D01*
X221977000Y-96144000D02*
X221977000Y-99358000D01*
X221977000Y-101302000D02*
X221977000Y-104516000D01*
X222117000Y-96239000D02*
X222117000Y-99403000D01*
X222117000Y-101257000D02*
X222117000Y-104421000D01*
X222257000Y-96341000D02*
X222257000Y-99473000D01*
X222257000Y-101187000D02*
X222257000Y-104319000D01*
X222397000Y-96451000D02*
X222397000Y-99574000D01*
X222397000Y-101086000D02*
X222397000Y-104209000D01*
X222537000Y-96569000D02*
X222537000Y-99723000D01*
X222537000Y-100937000D02*
X222537000Y-104091000D01*
X222677000Y-96697000D02*
X222677000Y-99975000D01*
X222677000Y-100685000D02*
X222677000Y-103963000D01*
X222817000Y-96834000D02*
X222817000Y-103826000D01*
X222957000Y-96984000D02*
X222957000Y-103676000D01*
X223097000Y-97146000D02*
X223097000Y-103514000D01*
X223237000Y-97323000D02*
X223237000Y-103337000D01*
X223377000Y-97519000D02*
X223377000Y-103141000D01*
X223517000Y-97737000D02*
X223517000Y-102923000D01*
X223657000Y-97983000D02*
X223657000Y-102677000D01*
X223797000Y-98268000D02*
X223797000Y-102392000D01*
X223937000Y-98610000D02*
X223937000Y-102050000D01*
X224077000Y-99056000D02*
X224077000Y-101604000D01*
X224217000Y-99831000D02*
X224217000Y-100829000D01*
X222742000Y-100330000D02*
G75*
G03X222742000Y-100330000I-1000000J0D01*
G01*
X224279500Y-100330000D02*
G75*
G03X224279500Y-100330000I-5037500J0D01*
G01*
X180498000Y-92948000D02*
X173498000Y-92948000D01*
X173498000Y-92948000D02*
X173498000Y-90948000D01*
X173498000Y-90948000D02*
X180498000Y-90948000D01*
X180498000Y-90948000D02*
X180498000Y-92948000D01*
X160798000Y-91964000D02*
X167798000Y-91964000D01*
X167798000Y-91964000D02*
X167798000Y-93964000D01*
X167798000Y-93964000D02*
X160798000Y-93964000D01*
X160798000Y-93964000D02*
X160798000Y-91964000D01*
X222951000Y-52673000D02*
X215453000Y-52673000D01*
X222946000Y-52813000D02*
X215458000Y-52813000D01*
X222935000Y-52953000D02*
X219648000Y-52953000D01*
X218756000Y-52953000D02*
X215469000Y-52953000D01*
X222919000Y-53093000D02*
X219858000Y-53093000D01*
X218546000Y-53093000D02*
X215485000Y-53093000D01*
X222898000Y-53233000D02*
X219991000Y-53233000D01*
X218413000Y-53233000D02*
X215506000Y-53233000D01*
X222871000Y-53373000D02*
X220082000Y-53373000D01*
X218322000Y-53373000D02*
X215533000Y-53373000D01*
X222839000Y-53513000D02*
X220144000Y-53513000D01*
X218260000Y-53513000D02*
X215565000Y-53513000D01*
X222801000Y-53653000D02*
X220183000Y-53653000D01*
X218221000Y-53653000D02*
X215603000Y-53653000D01*
X222757000Y-53793000D02*
X220200000Y-53793000D01*
X218204000Y-53793000D02*
X215647000Y-53793000D01*
X222706000Y-53933000D02*
X220198000Y-53933000D01*
X218206000Y-53933000D02*
X215698000Y-53933000D01*
X222650000Y-54073000D02*
X220176000Y-54073000D01*
X218228000Y-54073000D02*
X215754000Y-54073000D01*
X222586000Y-54213000D02*
X220133000Y-54213000D01*
X218271000Y-54213000D02*
X215818000Y-54213000D01*
X222516000Y-54353000D02*
X220065000Y-54353000D01*
X218339000Y-54353000D02*
X215888000Y-54353000D01*
X222438000Y-54493000D02*
X219966000Y-54493000D01*
X218438000Y-54493000D02*
X215966000Y-54493000D01*
X222352000Y-54633000D02*
X219821000Y-54633000D01*
X218583000Y-54633000D02*
X216052000Y-54633000D01*
X222257000Y-54773000D02*
X219582000Y-54773000D01*
X218822000Y-54773000D02*
X216147000Y-54773000D01*
X222152000Y-54913000D02*
X216252000Y-54913000D01*
X222037000Y-55053000D02*
X216367000Y-55053000D01*
X221909000Y-55193000D02*
X216495000Y-55193000D01*
X221768000Y-55333000D02*
X216636000Y-55333000D01*
X221610000Y-55473000D02*
X216794000Y-55473000D01*
X221432000Y-55613000D02*
X216972000Y-55613000D01*
X221229000Y-55753000D02*
X217175000Y-55753000D01*
X220992000Y-55893000D02*
X217412000Y-55893000D01*
X220706000Y-56033000D02*
X217698000Y-56033000D01*
X220334000Y-56173000D02*
X218070000Y-56173000D01*
X219713000Y-56313000D02*
X218691000Y-56313000D01*
X220202000Y-53848000D02*
G75*
G03X220202000Y-53848000I-1000000J0D01*
G01*
X222989500Y-52598000D02*
G75*
G03X222989500Y-52598000I-3787500J0D01*
G01*
X211937000Y-60547000D02*
X205639000Y-60547000D01*
X211931000Y-60687000D02*
X205645000Y-60687000D01*
X211918000Y-60827000D02*
X209234000Y-60827000D01*
X208342000Y-60827000D02*
X205658000Y-60827000D01*
X211899000Y-60967000D02*
X209444000Y-60967000D01*
X208132000Y-60967000D02*
X205677000Y-60967000D01*
X211873000Y-61107000D02*
X209577000Y-61107000D01*
X207999000Y-61107000D02*
X205703000Y-61107000D01*
X211841000Y-61247000D02*
X209668000Y-61247000D01*
X207908000Y-61247000D02*
X205735000Y-61247000D01*
X211802000Y-61387000D02*
X209730000Y-61387000D01*
X207846000Y-61387000D02*
X205774000Y-61387000D01*
X211756000Y-61527000D02*
X209769000Y-61527000D01*
X207807000Y-61527000D02*
X205820000Y-61527000D01*
X211703000Y-61667000D02*
X209786000Y-61667000D01*
X207790000Y-61667000D02*
X205873000Y-61667000D01*
X211641000Y-61807000D02*
X209784000Y-61807000D01*
X207792000Y-61807000D02*
X205935000Y-61807000D01*
X211571000Y-61947000D02*
X209762000Y-61947000D01*
X207814000Y-61947000D02*
X206005000Y-61947000D01*
X211492000Y-62087000D02*
X209719000Y-62087000D01*
X207857000Y-62087000D02*
X206084000Y-62087000D01*
X211404000Y-62227000D02*
X209651000Y-62227000D01*
X207925000Y-62227000D02*
X206172000Y-62227000D01*
X211304000Y-62367000D02*
X209552000Y-62367000D01*
X208024000Y-62367000D02*
X206272000Y-62367000D01*
X211192000Y-62507000D02*
X209407000Y-62507000D01*
X208169000Y-62507000D02*
X206384000Y-62507000D01*
X211067000Y-62647000D02*
X209168000Y-62647000D01*
X208408000Y-62647000D02*
X206509000Y-62647000D01*
X210924000Y-62787000D02*
X206652000Y-62787000D01*
X210762000Y-62927000D02*
X206814000Y-62927000D01*
X210574000Y-63067000D02*
X207002000Y-63067000D01*
X210351000Y-63207000D02*
X207225000Y-63207000D01*
X210075000Y-63347000D02*
X207501000Y-63347000D01*
X209700000Y-63487000D02*
X207876000Y-63487000D01*
X209788000Y-61722000D02*
G75*
G03X209788000Y-61722000I-1000000J0D01*
G01*
X211975500Y-60472000D02*
G75*
G03X211975500Y-60472000I-3187500J0D01*
G01*
X173498000Y-88408000D02*
X180498000Y-88408000D01*
X180498000Y-88408000D02*
X180498000Y-90408000D01*
X180498000Y-90408000D02*
X173498000Y-90408000D01*
X173498000Y-90408000D02*
X173498000Y-88408000D01*
X163418000Y-73930000D02*
X170418000Y-73930000D01*
X170418000Y-73930000D02*
X170418000Y-75930000D01*
X170418000Y-75930000D02*
X163418000Y-75930000D01*
X163418000Y-75930000D02*
X163418000Y-73930000D01*
X191532000Y-72374000D02*
X191532000Y-65374000D01*
X191532000Y-65374000D02*
X193532000Y-65374000D01*
X193532000Y-65374000D02*
X193532000Y-72374000D01*
X193532000Y-72374000D02*
X191532000Y-72374000D01*
X183230000Y-67580000D02*
X190230000Y-67580000D01*
X190230000Y-67580000D02*
X190230000Y-69580000D01*
X190230000Y-69580000D02*
X183230000Y-69580000D01*
X183230000Y-69580000D02*
X183230000Y-67580000D01*
X200152000Y-76200000D02*
X195072000Y-76200000D01*
X195072000Y-76200000D02*
X195072000Y-78740000D01*
X195072000Y-78740000D02*
X200152000Y-78740000D01*
X202972000Y-79020000D02*
X201422000Y-79020000D01*
X200152000Y-78740000D02*
X200152000Y-76200000D01*
X201422000Y-75920000D02*
X202972000Y-75920000D01*
X202972000Y-75920000D02*
X202972000Y-79020000D01*
X205740000Y-89662000D02*
X200660000Y-89662000D01*
X200660000Y-89662000D02*
X200660000Y-92202000D01*
X200660000Y-92202000D02*
X205740000Y-92202000D01*
X208560000Y-92482000D02*
X207010000Y-92482000D01*
X205740000Y-92202000D02*
X205740000Y-89662000D01*
X207010000Y-89382000D02*
X208560000Y-89382000D01*
X208560000Y-89382000D02*
X208560000Y-92482000D01*
X249428000Y-96266000D02*
X249428000Y-106426000D01*
X250698000Y-96266000D02*
X243078000Y-96266000D01*
X243078000Y-96266000D02*
X243078000Y-106426000D01*
X243078000Y-106426000D02*
X250698000Y-106426000D01*
X250698000Y-106426000D02*
X250698000Y-96266000D01*
X249428000Y-69088000D02*
X249428000Y-79248000D01*
X250698000Y-69088000D02*
X243078000Y-69088000D01*
X243078000Y-69088000D02*
X243078000Y-79248000D01*
X243078000Y-79248000D02*
X250698000Y-79248000D01*
X250698000Y-79248000D02*
X250698000Y-69088000D01*
X233426000Y-49530000D02*
X243586000Y-49530000D01*
X233426000Y-48260000D02*
X233426000Y-55880000D01*
X233426000Y-55880000D02*
X243586000Y-55880000D01*
X243586000Y-55880000D02*
X243586000Y-48260000D01*
X243586000Y-48260000D02*
X233426000Y-48260000D01*
X204216000Y-96774000D02*
X209296000Y-96774000D01*
X209296000Y-96774000D02*
X209296000Y-99314000D01*
X209296000Y-99314000D02*
X204216000Y-99314000D01*
X204216000Y-99314000D02*
X204216000Y-96774000D01*
X204216000Y-98044000D02*
X202946000Y-98044000D01*
X209296000Y-98044000D02*
X210566000Y-98044000D01*
X191262000Y-96774000D02*
X196342000Y-96774000D01*
X196342000Y-96774000D02*
X196342000Y-99314000D01*
X196342000Y-99314000D02*
X191262000Y-99314000D01*
X191262000Y-99314000D02*
X191262000Y-96774000D01*
X191262000Y-98044000D02*
X189992000Y-98044000D01*
X196342000Y-98044000D02*
X197612000Y-98044000D01*
X204216000Y-93472000D02*
X209296000Y-93472000D01*
X209296000Y-93472000D02*
X209296000Y-96012000D01*
X209296000Y-96012000D02*
X204216000Y-96012000D01*
X204216000Y-96012000D02*
X204216000Y-93472000D01*
X204216000Y-94742000D02*
X202946000Y-94742000D01*
X209296000Y-94742000D02*
X210566000Y-94742000D01*
X164338000Y-88392000D02*
X169418000Y-88392000D01*
X169418000Y-88392000D02*
X169418000Y-90932000D01*
X169418000Y-90932000D02*
X164338000Y-90932000D01*
X164338000Y-90932000D02*
X164338000Y-88392000D01*
X164338000Y-89662000D02*
X163068000Y-89662000D01*
X169418000Y-89662000D02*
X170688000Y-89662000D01*
X169418000Y-59436000D02*
X164338000Y-59436000D01*
X164338000Y-59436000D02*
X164338000Y-56896000D01*
X164338000Y-56896000D02*
X169418000Y-56896000D01*
X169418000Y-56896000D02*
X169418000Y-59436000D01*
X169418000Y-58166000D02*
X170688000Y-58166000D01*
X164338000Y-58166000D02*
X163068000Y-58166000D01*
X237490000Y-65024000D02*
X237490000Y-59944000D01*
X237490000Y-59944000D02*
X240030000Y-59944000D01*
X240030000Y-59944000D02*
X240030000Y-65024000D01*
X240030000Y-65024000D02*
X237490000Y-65024000D01*
X238760000Y-65024000D02*
X238760000Y-66294000D01*
X238760000Y-59944000D02*
X238760000Y-58674000D01*
X240792000Y-65024000D02*
X240792000Y-59944000D01*
X240792000Y-59944000D02*
X243332000Y-59944000D01*
X243332000Y-59944000D02*
X243332000Y-65024000D01*
X243332000Y-65024000D02*
X240792000Y-65024000D01*
X242062000Y-65024000D02*
X242062000Y-66294000D01*
X242062000Y-59944000D02*
X242062000Y-58674000D01*
X236982000Y-90170000D02*
X231902000Y-90170000D01*
X231902000Y-90170000D02*
X231902000Y-87630000D01*
X231902000Y-87630000D02*
X236982000Y-87630000D01*
X236982000Y-87630000D02*
X236982000Y-90170000D01*
X236982000Y-88900000D02*
X238252000Y-88900000D01*
X231902000Y-88900000D02*
X230632000Y-88900000D01*
X210312000Y-73660000D02*
X210312000Y-78740000D01*
X210312000Y-78740000D02*
X207772000Y-78740000D01*
X207772000Y-78740000D02*
X207772000Y-73660000D01*
X207772000Y-73660000D02*
X210312000Y-73660000D01*
X209042000Y-73660000D02*
X209042000Y-72390000D01*
X209042000Y-78740000D02*
X209042000Y-80010000D01*
X198374000Y-79756000D02*
X203454000Y-79756000D01*
X203454000Y-79756000D02*
X203454000Y-82296000D01*
X203454000Y-82296000D02*
X198374000Y-82296000D01*
X198374000Y-82296000D02*
X198374000Y-79756000D01*
X198374000Y-81026000D02*
X197104000Y-81026000D01*
X203454000Y-81026000D02*
X204724000Y-81026000D01*
X205994000Y-85598000D02*
X200914000Y-85598000D01*
X200914000Y-85598000D02*
X200914000Y-83058000D01*
X200914000Y-83058000D02*
X205994000Y-83058000D01*
X205994000Y-83058000D02*
X205994000Y-85598000D01*
X205994000Y-84328000D02*
X207264000Y-84328000D01*
X200914000Y-84328000D02*
X199644000Y-84328000D01*
X187960000Y-83058000D02*
X193040000Y-83058000D01*
X193040000Y-83058000D02*
X193040000Y-85598000D01*
X193040000Y-85598000D02*
X187960000Y-85598000D01*
X187960000Y-85598000D02*
X187960000Y-83058000D01*
X187960000Y-84328000D02*
X186690000Y-84328000D01*
X193040000Y-84328000D02*
X194310000Y-84328000D01*
X219456000Y-57658000D02*
X224536000Y-57658000D01*
X224536000Y-57658000D02*
X224536000Y-60198000D01*
X224536000Y-60198000D02*
X219456000Y-60198000D01*
X219456000Y-60198000D02*
X219456000Y-57658000D01*
X219456000Y-58928000D02*
X218186000Y-58928000D01*
X224536000Y-58928000D02*
X225806000Y-58928000D01*
X222758000Y-63500000D02*
X217678000Y-63500000D01*
X217678000Y-63500000D02*
X217678000Y-60960000D01*
X217678000Y-60960000D02*
X222758000Y-60960000D01*
X222758000Y-60960000D02*
X222758000Y-63500000D01*
X222758000Y-62230000D02*
X224028000Y-62230000D01*
X217678000Y-62230000D02*
X216408000Y-62230000D01*
X181745000Y-70095000D02*
X181745000Y-71365000D01*
X189095000Y-70095000D02*
X189095000Y-71365000D01*
X189095000Y-82305000D02*
X189095000Y-81035000D01*
X181745000Y-82305000D02*
X181745000Y-81035000D01*
X181745000Y-70095000D02*
X189095000Y-70095000D01*
X181745000Y-82305000D02*
X189095000Y-82305000D01*
X181745000Y-71365000D02*
X180460000Y-71365000D01*
X164583000Y-86225000D02*
X165853000Y-86225000D01*
X164583000Y-78875000D02*
X165853000Y-78875000D01*
X176793000Y-78875000D02*
X175523000Y-78875000D01*
X176793000Y-86225000D02*
X175523000Y-86225000D01*
X164583000Y-86225000D02*
X164583000Y-78875000D01*
X176793000Y-86225000D02*
X176793000Y-78875000D01*
X165853000Y-86225000D02*
X165853000Y-87510000D01*
X165091000Y-69969000D02*
X166361000Y-69969000D01*
X165091000Y-62619000D02*
X166361000Y-62619000D01*
X177301000Y-62619000D02*
X176031000Y-62619000D01*
X177301000Y-69969000D02*
X176031000Y-69969000D01*
X165091000Y-69969000D02*
X165091000Y-62619000D01*
X177301000Y-69969000D02*
X177301000Y-62619000D01*
X166361000Y-69969000D02*
X166361000Y-71254000D01*
X221742000Y-68834000D02*
X221742000Y-67691000D01*
X218694000Y-68834000D02*
X218694000Y-67691000D01*
X214884000Y-67691000D02*
X214884000Y-64008000D01*
X214884000Y-64008000D02*
X225552000Y-64008000D01*
X225552000Y-64008000D02*
X225552000Y-67691000D01*
X214884000Y-68834000D02*
X214884000Y-67691000D01*
X214884000Y-67691000D02*
X225552000Y-67691000D01*
X225552000Y-67691000D02*
X225552000Y-68834000D01*
X220218000Y-68834000D02*
X225552000Y-68834000D01*
X220218000Y-68834000D02*
X214884000Y-68834000D01*
X194047000Y-73779000D02*
X195317000Y-73779000D01*
X194047000Y-66429000D02*
X195317000Y-66429000D01*
X206257000Y-66429000D02*
X204987000Y-66429000D01*
X206257000Y-73779000D02*
X204987000Y-73779000D01*
X194047000Y-73779000D02*
X194047000Y-66429000D01*
X206257000Y-73779000D02*
X206257000Y-66429000D01*
X195317000Y-73779000D02*
X195317000Y-75064000D01*
X190373000Y-48768000D02*
X213233000Y-48768000D01*
X213233000Y-48768000D02*
X213233000Y-51308000D01*
X213233000Y-51308000D02*
X190373000Y-51308000D01*
X187553000Y-48488000D02*
X189103000Y-48488000D01*
X190373000Y-48768000D02*
X190373000Y-51308000D01*
X189103000Y-51588000D02*
X187553000Y-51588000D01*
X187553000Y-51588000D02*
X187553000Y-48488000D01*
X233124000Y-60970000D02*
X233124000Y-78970000D01*
X233124000Y-78970000D02*
X227124000Y-78970000D01*
X227124000Y-78970000D02*
X227124000Y-60970000D01*
X227124000Y-60970000D02*
X233124000Y-60970000D01*
X250650000Y-49808000D02*
X250650000Y-67808000D01*
X250650000Y-67808000D02*
X244650000Y-67808000D01*
X244650000Y-67808000D02*
X244650000Y-49808000D01*
X244650000Y-49808000D02*
X250650000Y-49808000D01*
D18*
G36*
X216933780Y-83484720D02*
X216984580Y-83456780D01*
X217103960Y-83383120D01*
X217269060Y-83273900D01*
X217467180Y-83141820D01*
X217665300Y-83009740D01*
X217827860Y-82900520D01*
X217942160Y-82826860D01*
X217990420Y-82798920D01*
X218015820Y-82809080D01*
X218109800Y-82854800D01*
X218246960Y-82925920D01*
X218325700Y-82966560D01*
X218450160Y-83019900D01*
X218513660Y-83032600D01*
X218523820Y-83014820D01*
X218569540Y-82918300D01*
X218640660Y-82755740D01*
X218734640Y-82537300D01*
X218843860Y-82283300D01*
X218958160Y-82011520D01*
X219075000Y-81732120D01*
X219186760Y-81465420D01*
X219283280Y-81226660D01*
X219362020Y-81031080D01*
X219412820Y-80896460D01*
X219433140Y-80838040D01*
X219428060Y-80825340D01*
X219364560Y-80764380D01*
X219255340Y-80683100D01*
X219019120Y-80490060D01*
X218785440Y-80197960D01*
X218643200Y-79867760D01*
X218594940Y-79499460D01*
X218635580Y-79159100D01*
X218770200Y-78831440D01*
X218998800Y-78536800D01*
X219275660Y-78315820D01*
X219600780Y-78178660D01*
X219964000Y-78132940D01*
X220311980Y-78173580D01*
X220647260Y-78305660D01*
X220941900Y-78529180D01*
X221066360Y-78673960D01*
X221239080Y-78971140D01*
X221335600Y-79291180D01*
X221345760Y-79372460D01*
X221333060Y-79722980D01*
X221228920Y-80060800D01*
X221043500Y-80363060D01*
X220784420Y-80609440D01*
X220753940Y-80632300D01*
X220634560Y-80721200D01*
X220553280Y-80782160D01*
X220492320Y-80832960D01*
X220939360Y-81909920D01*
X221010480Y-82080100D01*
X221132400Y-82374740D01*
X221241620Y-82628740D01*
X221325440Y-82829400D01*
X221386400Y-82964020D01*
X221411800Y-83019900D01*
X221414340Y-83022440D01*
X221454980Y-83030060D01*
X221536260Y-82999580D01*
X221686120Y-82925920D01*
X221785180Y-82875120D01*
X221899480Y-82819240D01*
X221952820Y-82798920D01*
X221996000Y-82824320D01*
X222105220Y-82895440D01*
X222265240Y-83002120D01*
X222458280Y-83131660D01*
X222641160Y-83256120D01*
X222808800Y-83367880D01*
X222933260Y-83446620D01*
X222991680Y-83479640D01*
X223001840Y-83479640D01*
X223055180Y-83449160D01*
X223151700Y-83367880D01*
X223299020Y-83230720D01*
X223504760Y-83024980D01*
X223537780Y-82994500D01*
X223707960Y-82819240D01*
X223845120Y-82674460D01*
X223939100Y-82570320D01*
X223972120Y-82524600D01*
X223972120Y-82524600D01*
X223941640Y-82466180D01*
X223865440Y-82344260D01*
X223753680Y-82171540D01*
X223616520Y-81973420D01*
X223260920Y-81455260D01*
X223456500Y-80965040D01*
X223514920Y-80815180D01*
X223591120Y-80634840D01*
X223649540Y-80505300D01*
X223677480Y-80449420D01*
X223730820Y-80429100D01*
X223865440Y-80398620D01*
X224058480Y-80357980D01*
X224289620Y-80314800D01*
X224510600Y-80274160D01*
X224708720Y-80236060D01*
X224853500Y-80208120D01*
X224917000Y-80195420D01*
X224932240Y-80185260D01*
X224947480Y-80154780D01*
X224955100Y-80086200D01*
X224960180Y-79966820D01*
X224962720Y-79776320D01*
X224962720Y-79499460D01*
X224962720Y-79468980D01*
X224960180Y-79207360D01*
X224955100Y-78996540D01*
X224947480Y-78859380D01*
X224939860Y-78806040D01*
X224937320Y-78806040D01*
X224876360Y-78790800D01*
X224736660Y-78760320D01*
X224536000Y-78722220D01*
X224299780Y-78676500D01*
X224284540Y-78673960D01*
X224048320Y-78628240D01*
X223850200Y-78587600D01*
X223710500Y-78554580D01*
X223652080Y-78536800D01*
X223639380Y-78519020D01*
X223593660Y-78427580D01*
X223525080Y-78280260D01*
X223446340Y-78102460D01*
X223370140Y-77917040D01*
X223301560Y-77749400D01*
X223258380Y-77624940D01*
X223243140Y-77569060D01*
X223245680Y-77566520D01*
X223281240Y-77510640D01*
X223362520Y-77388720D01*
X223476820Y-77218540D01*
X223613980Y-77015340D01*
X223624140Y-77000100D01*
X223761300Y-76801980D01*
X223870520Y-76631800D01*
X223944180Y-76512420D01*
X223972120Y-76456540D01*
X223972120Y-76454000D01*
X223926400Y-76393040D01*
X223824800Y-76281280D01*
X223680020Y-76128880D01*
X223504760Y-75951080D01*
X223448880Y-75897740D01*
X223253300Y-75707240D01*
X223118680Y-75582780D01*
X223034860Y-75516740D01*
X222994220Y-75501500D01*
X222994220Y-75504040D01*
X222933260Y-75539600D01*
X222806260Y-75620880D01*
X222636080Y-75737720D01*
X222432880Y-75874880D01*
X222417640Y-75885040D01*
X222219520Y-76022200D01*
X222051880Y-76133960D01*
X221935040Y-76212700D01*
X221881700Y-76243180D01*
X221874080Y-76243180D01*
X221792800Y-76220320D01*
X221650560Y-76169520D01*
X221475300Y-76100940D01*
X221289880Y-76027280D01*
X221122240Y-75956160D01*
X220995240Y-75900280D01*
X220936820Y-75864720D01*
X220934280Y-75862180D01*
X220913960Y-75791060D01*
X220878400Y-75641200D01*
X220837760Y-75435460D01*
X220789500Y-75191620D01*
X220781880Y-75150980D01*
X220738700Y-74912220D01*
X220700600Y-74716640D01*
X220672660Y-74579480D01*
X220657420Y-74523600D01*
X220624400Y-74515980D01*
X220507560Y-74508360D01*
X220329760Y-74503280D01*
X220113860Y-74500740D01*
X219887800Y-74503280D01*
X219666820Y-74508360D01*
X219478860Y-74513440D01*
X219344240Y-74523600D01*
X219288360Y-74533760D01*
X219285820Y-74538840D01*
X219265500Y-74612500D01*
X219232480Y-74762360D01*
X219189300Y-74968100D01*
X219143580Y-75214480D01*
X219133420Y-75257660D01*
X219090240Y-75493880D01*
X219049600Y-75689460D01*
X219021660Y-75824080D01*
X219006420Y-75877420D01*
X218983560Y-75887580D01*
X218887040Y-75930760D01*
X218727020Y-75996800D01*
X218528900Y-76075540D01*
X218071700Y-76260960D01*
X217510360Y-75877420D01*
X217459560Y-75841860D01*
X217256360Y-75704700D01*
X217091260Y-75595480D01*
X216976960Y-75519280D01*
X216928700Y-75493880D01*
X216923620Y-75493880D01*
X216867740Y-75544680D01*
X216758520Y-75648820D01*
X216606120Y-75796140D01*
X216428320Y-75971400D01*
X216298780Y-76103480D01*
X216143840Y-76260960D01*
X216044780Y-76365100D01*
X215991440Y-76433680D01*
X215973660Y-76474320D01*
X215978740Y-76502260D01*
X216014300Y-76560680D01*
X216095580Y-76682600D01*
X216212420Y-76852780D01*
X216349580Y-77050900D01*
X216461340Y-77218540D01*
X216583260Y-77406500D01*
X216662000Y-77541120D01*
X216689940Y-77607160D01*
X216682320Y-77632560D01*
X216644220Y-77744320D01*
X216575640Y-77909420D01*
X216491820Y-78107540D01*
X216296240Y-78552040D01*
X216006680Y-78607920D01*
X215828880Y-78640940D01*
X215582500Y-78689200D01*
X215346280Y-78734920D01*
X214977980Y-78806040D01*
X214965280Y-80159860D01*
X215021160Y-80185260D01*
X215077040Y-80200500D01*
X215214200Y-80230980D01*
X215407240Y-80269080D01*
X215638380Y-80312260D01*
X215833960Y-80347820D01*
X216032080Y-80385920D01*
X216174320Y-80413860D01*
X216235280Y-80426560D01*
X216253060Y-80449420D01*
X216301320Y-80543400D01*
X216372440Y-80695800D01*
X216451180Y-80878680D01*
X216529920Y-81069180D01*
X216598500Y-81244440D01*
X216646760Y-81376520D01*
X216667080Y-81445100D01*
X216639140Y-81498440D01*
X216565480Y-81615280D01*
X216456260Y-81780380D01*
X216321640Y-81975960D01*
X216187020Y-82171540D01*
X216072720Y-82339180D01*
X215993980Y-82461100D01*
X215960960Y-82516980D01*
X215978740Y-82552540D01*
X216057480Y-82649060D01*
X216204800Y-82801460D01*
X216425780Y-83019900D01*
X216461340Y-83055460D01*
X216636600Y-83223100D01*
X216783920Y-83360260D01*
X216888060Y-83451700D01*
X216933780Y-83484720D01*
X216933780Y-83484720D01*
G37*
X216933780Y-83484720D02*
X216984580Y-83456780D01*
X217103960Y-83383120D01*
X217269060Y-83273900D01*
X217467180Y-83141820D01*
X217665300Y-83009740D01*
X217827860Y-82900520D01*
X217942160Y-82826860D01*
X217990420Y-82798920D01*
X218015820Y-82809080D01*
X218109800Y-82854800D01*
X218246960Y-82925920D01*
X218325700Y-82966560D01*
X218450160Y-83019900D01*
X218513660Y-83032600D01*
X218523820Y-83014820D01*
X218569540Y-82918300D01*
X218640660Y-82755740D01*
X218734640Y-82537300D01*
X218843860Y-82283300D01*
X218958160Y-82011520D01*
X219075000Y-81732120D01*
X219186760Y-81465420D01*
X219283280Y-81226660D01*
X219362020Y-81031080D01*
X219412820Y-80896460D01*
X219433140Y-80838040D01*
X219428060Y-80825340D01*
X219364560Y-80764380D01*
X219255340Y-80683100D01*
X219019120Y-80490060D01*
X218785440Y-80197960D01*
X218643200Y-79867760D01*
X218594940Y-79499460D01*
X218635580Y-79159100D01*
X218770200Y-78831440D01*
X218998800Y-78536800D01*
X219275660Y-78315820D01*
X219600780Y-78178660D01*
X219964000Y-78132940D01*
X220311980Y-78173580D01*
X220647260Y-78305660D01*
X220941900Y-78529180D01*
X221066360Y-78673960D01*
X221239080Y-78971140D01*
X221335600Y-79291180D01*
X221345760Y-79372460D01*
X221333060Y-79722980D01*
X221228920Y-80060800D01*
X221043500Y-80363060D01*
X220784420Y-80609440D01*
X220753940Y-80632300D01*
X220634560Y-80721200D01*
X220553280Y-80782160D01*
X220492320Y-80832960D01*
X220939360Y-81909920D01*
X221010480Y-82080100D01*
X221132400Y-82374740D01*
X221241620Y-82628740D01*
X221325440Y-82829400D01*
X221386400Y-82964020D01*
X221411800Y-83019900D01*
X221414340Y-83022440D01*
X221454980Y-83030060D01*
X221536260Y-82999580D01*
X221686120Y-82925920D01*
X221785180Y-82875120D01*
X221899480Y-82819240D01*
X221952820Y-82798920D01*
X221996000Y-82824320D01*
X222105220Y-82895440D01*
X222265240Y-83002120D01*
X222458280Y-83131660D01*
X222641160Y-83256120D01*
X222808800Y-83367880D01*
X222933260Y-83446620D01*
X222991680Y-83479640D01*
X223001840Y-83479640D01*
X223055180Y-83449160D01*
X223151700Y-83367880D01*
X223299020Y-83230720D01*
X223504760Y-83024980D01*
X223537780Y-82994500D01*
X223707960Y-82819240D01*
X223845120Y-82674460D01*
X223939100Y-82570320D01*
X223972120Y-82524600D01*
X223972120Y-82524600D01*
X223941640Y-82466180D01*
X223865440Y-82344260D01*
X223753680Y-82171540D01*
X223616520Y-81973420D01*
X223260920Y-81455260D01*
X223456500Y-80965040D01*
X223514920Y-80815180D01*
X223591120Y-80634840D01*
X223649540Y-80505300D01*
X223677480Y-80449420D01*
X223730820Y-80429100D01*
X223865440Y-80398620D01*
X224058480Y-80357980D01*
X224289620Y-80314800D01*
X224510600Y-80274160D01*
X224708720Y-80236060D01*
X224853500Y-80208120D01*
X224917000Y-80195420D01*
X224932240Y-80185260D01*
X224947480Y-80154780D01*
X224955100Y-80086200D01*
X224960180Y-79966820D01*
X224962720Y-79776320D01*
X224962720Y-79499460D01*
X224962720Y-79468980D01*
X224960180Y-79207360D01*
X224955100Y-78996540D01*
X224947480Y-78859380D01*
X224939860Y-78806040D01*
X224937320Y-78806040D01*
X224876360Y-78790800D01*
X224736660Y-78760320D01*
X224536000Y-78722220D01*
X224299780Y-78676500D01*
X224284540Y-78673960D01*
X224048320Y-78628240D01*
X223850200Y-78587600D01*
X223710500Y-78554580D01*
X223652080Y-78536800D01*
X223639380Y-78519020D01*
X223593660Y-78427580D01*
X223525080Y-78280260D01*
X223446340Y-78102460D01*
X223370140Y-77917040D01*
X223301560Y-77749400D01*
X223258380Y-77624940D01*
X223243140Y-77569060D01*
X223245680Y-77566520D01*
X223281240Y-77510640D01*
X223362520Y-77388720D01*
X223476820Y-77218540D01*
X223613980Y-77015340D01*
X223624140Y-77000100D01*
X223761300Y-76801980D01*
X223870520Y-76631800D01*
X223944180Y-76512420D01*
X223972120Y-76456540D01*
X223972120Y-76454000D01*
X223926400Y-76393040D01*
X223824800Y-76281280D01*
X223680020Y-76128880D01*
X223504760Y-75951080D01*
X223448880Y-75897740D01*
X223253300Y-75707240D01*
X223118680Y-75582780D01*
X223034860Y-75516740D01*
X222994220Y-75501500D01*
X222994220Y-75504040D01*
X222933260Y-75539600D01*
X222806260Y-75620880D01*
X222636080Y-75737720D01*
X222432880Y-75874880D01*
X222417640Y-75885040D01*
X222219520Y-76022200D01*
X222051880Y-76133960D01*
X221935040Y-76212700D01*
X221881700Y-76243180D01*
X221874080Y-76243180D01*
X221792800Y-76220320D01*
X221650560Y-76169520D01*
X221475300Y-76100940D01*
X221289880Y-76027280D01*
X221122240Y-75956160D01*
X220995240Y-75900280D01*
X220936820Y-75864720D01*
X220934280Y-75862180D01*
X220913960Y-75791060D01*
X220878400Y-75641200D01*
X220837760Y-75435460D01*
X220789500Y-75191620D01*
X220781880Y-75150980D01*
X220738700Y-74912220D01*
X220700600Y-74716640D01*
X220672660Y-74579480D01*
X220657420Y-74523600D01*
X220624400Y-74515980D01*
X220507560Y-74508360D01*
X220329760Y-74503280D01*
X220113860Y-74500740D01*
X219887800Y-74503280D01*
X219666820Y-74508360D01*
X219478860Y-74513440D01*
X219344240Y-74523600D01*
X219288360Y-74533760D01*
X219285820Y-74538840D01*
X219265500Y-74612500D01*
X219232480Y-74762360D01*
X219189300Y-74968100D01*
X219143580Y-75214480D01*
X219133420Y-75257660D01*
X219090240Y-75493880D01*
X219049600Y-75689460D01*
X219021660Y-75824080D01*
X219006420Y-75877420D01*
X218983560Y-75887580D01*
X218887040Y-75930760D01*
X218727020Y-75996800D01*
X218528900Y-76075540D01*
X218071700Y-76260960D01*
X217510360Y-75877420D01*
X217459560Y-75841860D01*
X217256360Y-75704700D01*
X217091260Y-75595480D01*
X216976960Y-75519280D01*
X216928700Y-75493880D01*
X216923620Y-75493880D01*
X216867740Y-75544680D01*
X216758520Y-75648820D01*
X216606120Y-75796140D01*
X216428320Y-75971400D01*
X216298780Y-76103480D01*
X216143840Y-76260960D01*
X216044780Y-76365100D01*
X215991440Y-76433680D01*
X215973660Y-76474320D01*
X215978740Y-76502260D01*
X216014300Y-76560680D01*
X216095580Y-76682600D01*
X216212420Y-76852780D01*
X216349580Y-77050900D01*
X216461340Y-77218540D01*
X216583260Y-77406500D01*
X216662000Y-77541120D01*
X216689940Y-77607160D01*
X216682320Y-77632560D01*
X216644220Y-77744320D01*
X216575640Y-77909420D01*
X216491820Y-78107540D01*
X216296240Y-78552040D01*
X216006680Y-78607920D01*
X215828880Y-78640940D01*
X215582500Y-78689200D01*
X215346280Y-78734920D01*
X214977980Y-78806040D01*
X214965280Y-80159860D01*
X215021160Y-80185260D01*
X215077040Y-80200500D01*
X215214200Y-80230980D01*
X215407240Y-80269080D01*
X215638380Y-80312260D01*
X215833960Y-80347820D01*
X216032080Y-80385920D01*
X216174320Y-80413860D01*
X216235280Y-80426560D01*
X216253060Y-80449420D01*
X216301320Y-80543400D01*
X216372440Y-80695800D01*
X216451180Y-80878680D01*
X216529920Y-81069180D01*
X216598500Y-81244440D01*
X216646760Y-81376520D01*
X216667080Y-81445100D01*
X216639140Y-81498440D01*
X216565480Y-81615280D01*
X216456260Y-81780380D01*
X216321640Y-81975960D01*
X216187020Y-82171540D01*
X216072720Y-82339180D01*
X215993980Y-82461100D01*
X215960960Y-82516980D01*
X215978740Y-82552540D01*
X216057480Y-82649060D01*
X216204800Y-82801460D01*
X216425780Y-83019900D01*
X216461340Y-83055460D01*
X216636600Y-83223100D01*
X216783920Y-83360260D01*
X216888060Y-83451700D01*
X216933780Y-83484720D01*
D17*
X228369905Y-92146381D02*
X228369905Y-91146381D01*
X228608000Y-91146381D01*
X228750858Y-91194000D01*
X228846096Y-91289238D01*
X228893715Y-91384476D01*
X228941334Y-91574952D01*
X228941334Y-91717810D01*
X228893715Y-91908286D01*
X228846096Y-92003524D01*
X228750858Y-92098762D01*
X228608000Y-92146381D01*
X228369905Y-92146381D01*
X229893715Y-92146381D02*
X229322286Y-92146381D01*
X229608000Y-92146381D02*
X229608000Y-91146381D01*
X229512762Y-91289238D01*
X229417524Y-91384476D01*
X229322286Y-91432095D01*
X224806286Y-99750571D02*
X224949143Y-99798190D01*
X224996762Y-99845810D01*
X225044381Y-99941048D01*
X225044381Y-100083905D01*
X224996762Y-100179143D01*
X224949143Y-100226762D01*
X224853905Y-100274381D01*
X224472952Y-100274381D01*
X224472952Y-99274381D01*
X224806286Y-99274381D01*
X224901524Y-99322000D01*
X224949143Y-99369619D01*
X224996762Y-99464857D01*
X224996762Y-99560095D01*
X224949143Y-99655333D01*
X224901524Y-99702952D01*
X224806286Y-99750571D01*
X224472952Y-99750571D01*
X225615809Y-99702952D02*
X225520571Y-99655333D01*
X225472952Y-99607714D01*
X225425333Y-99512476D01*
X225425333Y-99464857D01*
X225472952Y-99369619D01*
X225520571Y-99322000D01*
X225615809Y-99274381D01*
X225806286Y-99274381D01*
X225901524Y-99322000D01*
X225949143Y-99369619D01*
X225996762Y-99464857D01*
X225996762Y-99512476D01*
X225949143Y-99607714D01*
X225901524Y-99655333D01*
X225806286Y-99702952D01*
X225615809Y-99702952D01*
X225520571Y-99750571D01*
X225472952Y-99798190D01*
X225425333Y-99893429D01*
X225425333Y-100083905D01*
X225472952Y-100179143D01*
X225520571Y-100226762D01*
X225615809Y-100274381D01*
X225806286Y-100274381D01*
X225901524Y-100226762D01*
X225949143Y-100179143D01*
X225996762Y-100083905D01*
X225996762Y-99893429D01*
X225949143Y-99798190D01*
X225901524Y-99750571D01*
X225806286Y-99702952D01*
X226615809Y-99274381D02*
X226711048Y-99274381D01*
X226806286Y-99322000D01*
X226853905Y-99369619D01*
X226901524Y-99464857D01*
X226949143Y-99655333D01*
X226949143Y-99893429D01*
X226901524Y-100083905D01*
X226853905Y-100179143D01*
X226806286Y-100226762D01*
X226711048Y-100274381D01*
X226615809Y-100274381D01*
X226520571Y-100226762D01*
X226472952Y-100179143D01*
X226425333Y-100083905D01*
X226377714Y-99893429D01*
X226377714Y-99655333D01*
X226425333Y-99464857D01*
X226472952Y-99369619D01*
X226520571Y-99322000D01*
X226615809Y-99274381D01*
X227949143Y-100179143D02*
X227901524Y-100226762D01*
X227758667Y-100274381D01*
X227663429Y-100274381D01*
X227520571Y-100226762D01*
X227425333Y-100131524D01*
X227377714Y-100036286D01*
X227330095Y-99845810D01*
X227330095Y-99702952D01*
X227377714Y-99512476D01*
X227425333Y-99417238D01*
X227520571Y-99322000D01*
X227663429Y-99274381D01*
X227758667Y-99274381D01*
X227901524Y-99322000D01*
X227949143Y-99369619D01*
X228901524Y-100274381D02*
X228330095Y-100274381D01*
X228615809Y-100274381D02*
X228615809Y-99274381D01*
X228520571Y-99417238D01*
X228425333Y-99512476D01*
X228330095Y-99560095D01*
X229806286Y-99274381D02*
X229330095Y-99274381D01*
X229282476Y-99750571D01*
X229330095Y-99702952D01*
X229425333Y-99655333D01*
X229663429Y-99655333D01*
X229758667Y-99702952D01*
X229806286Y-99750571D01*
X229853905Y-99845810D01*
X229853905Y-100083905D01*
X229806286Y-100179143D01*
X229758667Y-100226762D01*
X229663429Y-100274381D01*
X229425333Y-100274381D01*
X229330095Y-100226762D01*
X229282476Y-100179143D01*
X230472952Y-99274381D02*
X230568191Y-99274381D01*
X230663429Y-99322000D01*
X230711048Y-99369619D01*
X230758667Y-99464857D01*
X230806286Y-99655333D01*
X230806286Y-99893429D01*
X230758667Y-100083905D01*
X230711048Y-100179143D01*
X230663429Y-100226762D01*
X230568191Y-100274381D01*
X230472952Y-100274381D01*
X230377714Y-100226762D01*
X230330095Y-100179143D01*
X230282476Y-100083905D01*
X230234857Y-99893429D01*
X230234857Y-99655333D01*
X230282476Y-99464857D01*
X230330095Y-99369619D01*
X230377714Y-99322000D01*
X230472952Y-99274381D01*
X231425333Y-99274381D02*
X231520572Y-99274381D01*
X231615810Y-99322000D01*
X231663429Y-99369619D01*
X231711048Y-99464857D01*
X231758667Y-99655333D01*
X231758667Y-99893429D01*
X231711048Y-100083905D01*
X231663429Y-100179143D01*
X231615810Y-100226762D01*
X231520572Y-100274381D01*
X231425333Y-100274381D01*
X231330095Y-100226762D01*
X231282476Y-100179143D01*
X231234857Y-100083905D01*
X231187238Y-99893429D01*
X231187238Y-99655333D01*
X231234857Y-99464857D01*
X231282476Y-99369619D01*
X231330095Y-99322000D01*
X231425333Y-99274381D01*
D15*
D17*
X237259905Y-72080381D02*
X237259905Y-71080381D01*
X237498000Y-71080381D01*
X237640858Y-71128000D01*
X237736096Y-71223238D01*
X237783715Y-71318476D01*
X237831334Y-71508952D01*
X237831334Y-71651810D01*
X237783715Y-71842286D01*
X237736096Y-71937524D01*
X237640858Y-72032762D01*
X237498000Y-72080381D01*
X237259905Y-72080381D01*
X238212286Y-71175619D02*
X238259905Y-71128000D01*
X238355143Y-71080381D01*
X238593239Y-71080381D01*
X238688477Y-71128000D01*
X238736096Y-71175619D01*
X238783715Y-71270857D01*
X238783715Y-71366095D01*
X238736096Y-71508952D01*
X238164667Y-72080381D01*
X238783715Y-72080381D01*
X234236096Y-80446571D02*
X234378953Y-80494190D01*
X234426572Y-80541810D01*
X234474191Y-80637048D01*
X234474191Y-80779905D01*
X234426572Y-80875143D01*
X234378953Y-80922762D01*
X234283715Y-80970381D01*
X233902762Y-80970381D01*
X233902762Y-79970381D01*
X234236096Y-79970381D01*
X234331334Y-80018000D01*
X234378953Y-80065619D01*
X234426572Y-80160857D01*
X234426572Y-80256095D01*
X234378953Y-80351333D01*
X234331334Y-80398952D01*
X234236096Y-80446571D01*
X233902762Y-80446571D01*
X234807524Y-79970381D02*
X235426572Y-79970381D01*
X235093238Y-80351333D01*
X235236096Y-80351333D01*
X235331334Y-80398952D01*
X235378953Y-80446571D01*
X235426572Y-80541810D01*
X235426572Y-80779905D01*
X235378953Y-80875143D01*
X235331334Y-80922762D01*
X235236096Y-80970381D01*
X234950381Y-80970381D01*
X234855143Y-80922762D01*
X234807524Y-80875143D01*
X235998000Y-80398952D02*
X235902762Y-80351333D01*
X235855143Y-80303714D01*
X235807524Y-80208476D01*
X235807524Y-80160857D01*
X235855143Y-80065619D01*
X235902762Y-80018000D01*
X235998000Y-79970381D01*
X236188477Y-79970381D01*
X236283715Y-80018000D01*
X236331334Y-80065619D01*
X236378953Y-80160857D01*
X236378953Y-80208476D01*
X236331334Y-80303714D01*
X236283715Y-80351333D01*
X236188477Y-80398952D01*
X235998000Y-80398952D01*
X235902762Y-80446571D01*
X235855143Y-80494190D01*
X235807524Y-80589429D01*
X235807524Y-80779905D01*
X235855143Y-80875143D01*
X235902762Y-80922762D01*
X235998000Y-80970381D01*
X236188477Y-80970381D01*
X236283715Y-80922762D01*
X236331334Y-80875143D01*
X236378953Y-80779905D01*
X236378953Y-80589429D01*
X236331334Y-80494190D01*
X236283715Y-80446571D01*
X236188477Y-80398952D01*
X236998000Y-79970381D02*
X237093239Y-79970381D01*
X237188477Y-80018000D01*
X237236096Y-80065619D01*
X237283715Y-80160857D01*
X237331334Y-80351333D01*
X237331334Y-80589429D01*
X237283715Y-80779905D01*
X237236096Y-80875143D01*
X237188477Y-80922762D01*
X237093239Y-80970381D01*
X236998000Y-80970381D01*
X236902762Y-80922762D01*
X236855143Y-80875143D01*
X236807524Y-80779905D01*
X236759905Y-80589429D01*
X236759905Y-80351333D01*
X236807524Y-80160857D01*
X236855143Y-80065619D01*
X236902762Y-80018000D01*
X236998000Y-79970381D01*
X238331334Y-80875143D02*
X238283715Y-80922762D01*
X238140858Y-80970381D01*
X238045620Y-80970381D01*
X237902762Y-80922762D01*
X237807524Y-80827524D01*
X237759905Y-80732286D01*
X237712286Y-80541810D01*
X237712286Y-80398952D01*
X237759905Y-80208476D01*
X237807524Y-80113238D01*
X237902762Y-80018000D01*
X238045620Y-79970381D01*
X238140858Y-79970381D01*
X238283715Y-80018000D01*
X238331334Y-80065619D01*
X239283715Y-80970381D02*
X238712286Y-80970381D01*
X238998000Y-80970381D02*
X238998000Y-79970381D01*
X238902762Y-80113238D01*
X238807524Y-80208476D01*
X238712286Y-80256095D01*
X240188477Y-79970381D02*
X239712286Y-79970381D01*
X239664667Y-80446571D01*
X239712286Y-80398952D01*
X239807524Y-80351333D01*
X240045620Y-80351333D01*
X240140858Y-80398952D01*
X240188477Y-80446571D01*
X240236096Y-80541810D01*
X240236096Y-80779905D01*
X240188477Y-80875143D01*
X240140858Y-80922762D01*
X240045620Y-80970381D01*
X239807524Y-80970381D01*
X239712286Y-80922762D01*
X239664667Y-80875143D01*
X240855143Y-79970381D02*
X240950382Y-79970381D01*
X241045620Y-80018000D01*
X241093239Y-80065619D01*
X241140858Y-80160857D01*
X241188477Y-80351333D01*
X241188477Y-80589429D01*
X241140858Y-80779905D01*
X241093239Y-80875143D01*
X241045620Y-80922762D01*
X240950382Y-80970381D01*
X240855143Y-80970381D01*
X240759905Y-80922762D01*
X240712286Y-80875143D01*
X240664667Y-80779905D01*
X240617048Y-80589429D01*
X240617048Y-80351333D01*
X240664667Y-80160857D01*
X240712286Y-80065619D01*
X240759905Y-80018000D01*
X240855143Y-79970381D01*
X241807524Y-79970381D02*
X241902763Y-79970381D01*
X241998001Y-80018000D01*
X242045620Y-80065619D01*
X242093239Y-80160857D01*
X242140858Y-80351333D01*
X242140858Y-80589429D01*
X242093239Y-80779905D01*
X242045620Y-80875143D01*
X241998001Y-80922762D01*
X241902763Y-80970381D01*
X241807524Y-80970381D01*
X241712286Y-80922762D01*
X241664667Y-80875143D01*
X241617048Y-80779905D01*
X241569429Y-80589429D01*
X241569429Y-80351333D01*
X241617048Y-80160857D01*
X241664667Y-80065619D01*
X241712286Y-80018000D01*
X241807524Y-79970381D01*
D15*
D17*
X227607905Y-50490381D02*
X227607905Y-49490381D01*
X227846000Y-49490381D01*
X227988858Y-49538000D01*
X228084096Y-49633238D01*
X228131715Y-49728476D01*
X228179334Y-49918952D01*
X228179334Y-50061810D01*
X228131715Y-50252286D01*
X228084096Y-50347524D01*
X227988858Y-50442762D01*
X227846000Y-50490381D01*
X227607905Y-50490381D01*
X228512667Y-49490381D02*
X229131715Y-49490381D01*
X228798381Y-49871333D01*
X228941239Y-49871333D01*
X229036477Y-49918952D01*
X229084096Y-49966571D01*
X229131715Y-50061810D01*
X229131715Y-50299905D01*
X229084096Y-50395143D01*
X229036477Y-50442762D01*
X228941239Y-50490381D01*
X228655524Y-50490381D01*
X228560286Y-50442762D01*
X228512667Y-50395143D01*
X229124286Y-57840571D02*
X229267143Y-57888190D01*
X229314762Y-57935810D01*
X229362381Y-58031048D01*
X229362381Y-58173905D01*
X229314762Y-58269143D01*
X229267143Y-58316762D01*
X229171905Y-58364381D01*
X228790952Y-58364381D01*
X228790952Y-57364381D01*
X229124286Y-57364381D01*
X229219524Y-57412000D01*
X229267143Y-57459619D01*
X229314762Y-57554857D01*
X229314762Y-57650095D01*
X229267143Y-57745333D01*
X229219524Y-57792952D01*
X229124286Y-57840571D01*
X228790952Y-57840571D01*
X229933809Y-57792952D02*
X229838571Y-57745333D01*
X229790952Y-57697714D01*
X229743333Y-57602476D01*
X229743333Y-57554857D01*
X229790952Y-57459619D01*
X229838571Y-57412000D01*
X229933809Y-57364381D01*
X230124286Y-57364381D01*
X230219524Y-57412000D01*
X230267143Y-57459619D01*
X230314762Y-57554857D01*
X230314762Y-57602476D01*
X230267143Y-57697714D01*
X230219524Y-57745333D01*
X230124286Y-57792952D01*
X229933809Y-57792952D01*
X229838571Y-57840571D01*
X229790952Y-57888190D01*
X229743333Y-57983429D01*
X229743333Y-58173905D01*
X229790952Y-58269143D01*
X229838571Y-58316762D01*
X229933809Y-58364381D01*
X230124286Y-58364381D01*
X230219524Y-58316762D01*
X230267143Y-58269143D01*
X230314762Y-58173905D01*
X230314762Y-57983429D01*
X230267143Y-57888190D01*
X230219524Y-57840571D01*
X230124286Y-57792952D01*
X230933809Y-57364381D02*
X231029048Y-57364381D01*
X231124286Y-57412000D01*
X231171905Y-57459619D01*
X231219524Y-57554857D01*
X231267143Y-57745333D01*
X231267143Y-57983429D01*
X231219524Y-58173905D01*
X231171905Y-58269143D01*
X231124286Y-58316762D01*
X231029048Y-58364381D01*
X230933809Y-58364381D01*
X230838571Y-58316762D01*
X230790952Y-58269143D01*
X230743333Y-58173905D01*
X230695714Y-57983429D01*
X230695714Y-57745333D01*
X230743333Y-57554857D01*
X230790952Y-57459619D01*
X230838571Y-57412000D01*
X230933809Y-57364381D01*
X232267143Y-58269143D02*
X232219524Y-58316762D01*
X232076667Y-58364381D01*
X231981429Y-58364381D01*
X231838571Y-58316762D01*
X231743333Y-58221524D01*
X231695714Y-58126286D01*
X231648095Y-57935810D01*
X231648095Y-57792952D01*
X231695714Y-57602476D01*
X231743333Y-57507238D01*
X231838571Y-57412000D01*
X231981429Y-57364381D01*
X232076667Y-57364381D01*
X232219524Y-57412000D01*
X232267143Y-57459619D01*
X233219524Y-58364381D02*
X232648095Y-58364381D01*
X232933809Y-58364381D02*
X232933809Y-57364381D01*
X232838571Y-57507238D01*
X232743333Y-57602476D01*
X232648095Y-57650095D01*
X234124286Y-57364381D02*
X233648095Y-57364381D01*
X233600476Y-57840571D01*
X233648095Y-57792952D01*
X233743333Y-57745333D01*
X233981429Y-57745333D01*
X234076667Y-57792952D01*
X234124286Y-57840571D01*
X234171905Y-57935810D01*
X234171905Y-58173905D01*
X234124286Y-58269143D01*
X234076667Y-58316762D01*
X233981429Y-58364381D01*
X233743333Y-58364381D01*
X233648095Y-58316762D01*
X233600476Y-58269143D01*
X234790952Y-57364381D02*
X234886191Y-57364381D01*
X234981429Y-57412000D01*
X235029048Y-57459619D01*
X235076667Y-57554857D01*
X235124286Y-57745333D01*
X235124286Y-57983429D01*
X235076667Y-58173905D01*
X235029048Y-58269143D01*
X234981429Y-58316762D01*
X234886191Y-58364381D01*
X234790952Y-58364381D01*
X234695714Y-58316762D01*
X234648095Y-58269143D01*
X234600476Y-58173905D01*
X234552857Y-57983429D01*
X234552857Y-57745333D01*
X234600476Y-57554857D01*
X234648095Y-57459619D01*
X234695714Y-57412000D01*
X234790952Y-57364381D01*
X235743333Y-57364381D02*
X235838572Y-57364381D01*
X235933810Y-57412000D01*
X235981429Y-57459619D01*
X236029048Y-57554857D01*
X236076667Y-57745333D01*
X236076667Y-57983429D01*
X236029048Y-58173905D01*
X235981429Y-58269143D01*
X235933810Y-58316762D01*
X235838572Y-58364381D01*
X235743333Y-58364381D01*
X235648095Y-58316762D01*
X235600476Y-58269143D01*
X235552857Y-58173905D01*
X235505238Y-57983429D01*
X235505238Y-57745333D01*
X235552857Y-57554857D01*
X235600476Y-57459619D01*
X235648095Y-57412000D01*
X235743333Y-57364381D01*
D15*
D17*
X236751905Y-103068381D02*
X236751905Y-102068381D01*
X237132858Y-102068381D01*
X237228096Y-102116000D01*
X237275715Y-102163619D01*
X237323334Y-102258857D01*
X237323334Y-102401714D01*
X237275715Y-102496952D01*
X237228096Y-102544571D01*
X237132858Y-102592190D01*
X236751905Y-102592190D01*
X238275715Y-103068381D02*
X237704286Y-103068381D01*
X237990000Y-103068381D02*
X237990000Y-102068381D01*
X237894762Y-102211238D01*
X237799524Y-102306476D01*
X237704286Y-102354095D01*
X227528667Y-102068381D02*
X227338190Y-102068381D01*
X227242952Y-102116000D01*
X227195333Y-102163619D01*
X227100095Y-102306476D01*
X227052476Y-102496952D01*
X227052476Y-102877905D01*
X227100095Y-102973143D01*
X227147714Y-103020762D01*
X227242952Y-103068381D01*
X227433429Y-103068381D01*
X227528667Y-103020762D01*
X227576286Y-102973143D01*
X227623905Y-102877905D01*
X227623905Y-102639810D01*
X227576286Y-102544571D01*
X227528667Y-102496952D01*
X227433429Y-102449333D01*
X227242952Y-102449333D01*
X227147714Y-102496952D01*
X227100095Y-102544571D01*
X227052476Y-102639810D01*
X228052476Y-102973143D02*
X228100095Y-103020762D01*
X228052476Y-103068381D01*
X228004857Y-103020762D01*
X228052476Y-102973143D01*
X228052476Y-103068381D01*
X228433428Y-102068381D02*
X229052476Y-102068381D01*
X228719142Y-102449333D01*
X228862000Y-102449333D01*
X228957238Y-102496952D01*
X229004857Y-102544571D01*
X229052476Y-102639810D01*
X229052476Y-102877905D01*
X229004857Y-102973143D01*
X228957238Y-103020762D01*
X228862000Y-103068381D01*
X228576285Y-103068381D01*
X228481047Y-103020762D01*
X228433428Y-102973143D01*
X229242952Y-103163619D02*
X230004857Y-103163619D01*
X230195333Y-102782667D02*
X230671524Y-102782667D01*
X230100095Y-103068381D02*
X230433428Y-102068381D01*
X230766762Y-103068381D01*
X231671524Y-102973143D02*
X231623905Y-103020762D01*
X231481048Y-103068381D01*
X231385810Y-103068381D01*
X231242952Y-103020762D01*
X231147714Y-102925524D01*
X231100095Y-102830286D01*
X231052476Y-102639810D01*
X231052476Y-102496952D01*
X231100095Y-102306476D01*
X231147714Y-102211238D01*
X231242952Y-102116000D01*
X231385810Y-102068381D01*
X231481048Y-102068381D01*
X231623905Y-102116000D01*
X231671524Y-102163619D01*
X190079334Y-93416381D02*
X189746000Y-92940190D01*
X189507905Y-93416381D02*
X189507905Y-92416381D01*
X189888858Y-92416381D01*
X189984096Y-92464000D01*
X190031715Y-92511619D01*
X190079334Y-92606857D01*
X190079334Y-92749714D01*
X190031715Y-92844952D01*
X189984096Y-92892571D01*
X189888858Y-92940190D01*
X189507905Y-92940190D01*
X190984096Y-92416381D02*
X190507905Y-92416381D01*
X190460286Y-92892571D01*
X190507905Y-92844952D01*
X190603143Y-92797333D01*
X190841239Y-92797333D01*
X190936477Y-92844952D01*
X190984096Y-92892571D01*
X191031715Y-92987810D01*
X191031715Y-93225905D01*
X190984096Y-93321143D01*
X190936477Y-93368762D01*
X190841239Y-93416381D01*
X190603143Y-93416381D01*
X190507905Y-93368762D01*
X190460286Y-93321143D01*
X193682953Y-95194381D02*
X193111524Y-95194381D01*
X193397238Y-95194381D02*
X193397238Y-94194381D01*
X193302000Y-94337238D01*
X193206762Y-94432476D01*
X193111524Y-94480095D01*
X194111524Y-95194381D02*
X194111524Y-94194381D01*
X194206762Y-94813429D02*
X194492477Y-95194381D01*
X194492477Y-94527714D02*
X194111524Y-94908667D01*
X177919143Y-73509143D02*
X177871524Y-73556762D01*
X177728667Y-73604381D01*
X177633429Y-73604381D01*
X177490571Y-73556762D01*
X177395333Y-73461524D01*
X177347714Y-73366286D01*
X177300095Y-73175810D01*
X177300095Y-73032952D01*
X177347714Y-72842476D01*
X177395333Y-72747238D01*
X177490571Y-72652000D01*
X177633429Y-72604381D01*
X177728667Y-72604381D01*
X177871524Y-72652000D01*
X177919143Y-72699619D01*
X178871524Y-73604381D02*
X178300095Y-73604381D01*
X178585809Y-73604381D02*
X178585809Y-72604381D01*
X178490571Y-72747238D01*
X178395333Y-72842476D01*
X178300095Y-72890095D01*
X179204857Y-72604381D02*
X179823905Y-72604381D01*
X179490571Y-72985333D01*
X179633429Y-72985333D01*
X179728667Y-73032952D01*
X179776286Y-73080571D01*
X179823905Y-73175810D01*
X179823905Y-73413905D01*
X179776286Y-73509143D01*
X179728667Y-73556762D01*
X179633429Y-73604381D01*
X179347714Y-73604381D01*
X179252476Y-73556762D01*
X179204857Y-73509143D01*
X179014381Y-78589047D02*
X179014381Y-79160476D01*
X179014381Y-78874762D02*
X178014381Y-78874762D01*
X178157238Y-78970000D01*
X178252476Y-79065238D01*
X178300095Y-79160476D01*
X178014381Y-77970000D02*
X178014381Y-77874761D01*
X178062000Y-77779523D01*
X178109619Y-77731904D01*
X178204857Y-77684285D01*
X178395333Y-77636666D01*
X178633429Y-77636666D01*
X178823905Y-77684285D01*
X178919143Y-77731904D01*
X178966762Y-77779523D01*
X179014381Y-77874761D01*
X179014381Y-77970000D01*
X178966762Y-78065238D01*
X178919143Y-78112857D01*
X178823905Y-78160476D01*
X178633429Y-78208095D01*
X178395333Y-78208095D01*
X178204857Y-78160476D01*
X178109619Y-78112857D01*
X178062000Y-78065238D01*
X178014381Y-77970000D01*
X178014381Y-77017619D02*
X178014381Y-76922380D01*
X178062000Y-76827142D01*
X178109619Y-76779523D01*
X178204857Y-76731904D01*
X178395333Y-76684285D01*
X178633429Y-76684285D01*
X178823905Y-76731904D01*
X178919143Y-76779523D01*
X178966762Y-76827142D01*
X179014381Y-76922380D01*
X179014381Y-77017619D01*
X178966762Y-77112857D01*
X178919143Y-77160476D01*
X178823905Y-77208095D01*
X178633429Y-77255714D01*
X178395333Y-77255714D01*
X178204857Y-77208095D01*
X178109619Y-77160476D01*
X178062000Y-77112857D01*
X178014381Y-77017619D01*
X178347714Y-76255714D02*
X179014381Y-76255714D01*
X178442952Y-76255714D02*
X178395333Y-76208095D01*
X178347714Y-76112857D01*
X178347714Y-75969999D01*
X178395333Y-75874761D01*
X178490571Y-75827142D01*
X179014381Y-75827142D01*
X247340381Y-86844095D02*
X246340381Y-86844095D01*
X246340381Y-86463142D01*
X246388000Y-86367904D01*
X246435619Y-86320285D01*
X246530857Y-86272666D01*
X246673714Y-86272666D01*
X246768952Y-86320285D01*
X246816571Y-86367904D01*
X246864190Y-86463142D01*
X246864190Y-86844095D01*
X246340381Y-85939333D02*
X246340381Y-85320285D01*
X246721333Y-85653619D01*
X246721333Y-85510761D01*
X246768952Y-85415523D01*
X246816571Y-85367904D01*
X246911810Y-85320285D01*
X247149905Y-85320285D01*
X247245143Y-85367904D01*
X247292762Y-85415523D01*
X247340381Y-85510761D01*
X247340381Y-85796476D01*
X247292762Y-85891714D01*
X247245143Y-85939333D01*
X243546381Y-91693619D02*
X243546381Y-91122190D01*
X244546381Y-91407905D02*
X243546381Y-91407905D01*
X243546381Y-90598381D02*
X243546381Y-90407904D01*
X243594000Y-90312666D01*
X243689238Y-90217428D01*
X243879714Y-90169809D01*
X244213048Y-90169809D01*
X244403524Y-90217428D01*
X244498762Y-90312666D01*
X244546381Y-90407904D01*
X244546381Y-90598381D01*
X244498762Y-90693619D01*
X244403524Y-90788857D01*
X244213048Y-90836476D01*
X243879714Y-90836476D01*
X243689238Y-90788857D01*
X243594000Y-90693619D01*
X243546381Y-90598381D01*
X244641619Y-89979333D02*
X244641619Y-89217428D01*
X243546381Y-89122190D02*
X243546381Y-88550761D01*
X244546381Y-88836476D02*
X243546381Y-88836476D01*
X243546381Y-88217428D02*
X244355905Y-88217428D01*
X244451143Y-88169809D01*
X244498762Y-88122190D01*
X244546381Y-88026952D01*
X244546381Y-87836475D01*
X244498762Y-87741237D01*
X244451143Y-87693618D01*
X244355905Y-87645999D01*
X243546381Y-87645999D01*
X244022571Y-86836475D02*
X244070190Y-86693618D01*
X244117810Y-86645999D01*
X244213048Y-86598380D01*
X244355905Y-86598380D01*
X244451143Y-86645999D01*
X244498762Y-86693618D01*
X244546381Y-86788856D01*
X244546381Y-87169809D01*
X243546381Y-87169809D01*
X243546381Y-86836475D01*
X243594000Y-86741237D01*
X243641619Y-86693618D01*
X243736857Y-86645999D01*
X243832095Y-86645999D01*
X243927333Y-86693618D01*
X243974952Y-86741237D01*
X244022571Y-86836475D01*
X244022571Y-87169809D01*
X244022571Y-86169809D02*
X244022571Y-85836475D01*
X244546381Y-85693618D02*
X244546381Y-86169809D01*
X243546381Y-86169809D01*
X243546381Y-85693618D01*
X218527334Y-93067143D02*
X218479715Y-93114762D01*
X218336858Y-93162381D01*
X218241620Y-93162381D01*
X218098762Y-93114762D01*
X218003524Y-93019524D01*
X217955905Y-92924286D01*
X217908286Y-92733810D01*
X217908286Y-92590952D01*
X217955905Y-92400476D01*
X218003524Y-92305238D01*
X218098762Y-92210000D01*
X218241620Y-92162381D01*
X218336858Y-92162381D01*
X218479715Y-92210000D01*
X218527334Y-92257619D01*
X219479715Y-93162381D02*
X218908286Y-93162381D01*
X219194000Y-93162381D02*
X219194000Y-92162381D01*
X219098762Y-92305238D01*
X219003524Y-92400476D01*
X218908286Y-92448095D01*
X217535334Y-94686381D02*
X216963905Y-94686381D01*
X217249619Y-94686381D02*
X217249619Y-93686381D01*
X217154381Y-93829238D01*
X217059143Y-93924476D01*
X216963905Y-93972095D01*
X218154381Y-93686381D02*
X218249620Y-93686381D01*
X218344858Y-93734000D01*
X218392477Y-93781619D01*
X218440096Y-93876857D01*
X218487715Y-94067333D01*
X218487715Y-94305429D01*
X218440096Y-94495905D01*
X218392477Y-94591143D01*
X218344858Y-94638762D01*
X218249620Y-94686381D01*
X218154381Y-94686381D01*
X218059143Y-94638762D01*
X218011524Y-94591143D01*
X217963905Y-94495905D01*
X217916286Y-94305429D01*
X217916286Y-94067333D01*
X217963905Y-93876857D01*
X218011524Y-93781619D01*
X218059143Y-93734000D01*
X218154381Y-93686381D01*
X219106762Y-93686381D02*
X219202001Y-93686381D01*
X219297239Y-93734000D01*
X219344858Y-93781619D01*
X219392477Y-93876857D01*
X219440096Y-94067333D01*
X219440096Y-94305429D01*
X219392477Y-94495905D01*
X219344858Y-94591143D01*
X219297239Y-94638762D01*
X219202001Y-94686381D01*
X219106762Y-94686381D01*
X219011524Y-94638762D01*
X218963905Y-94591143D01*
X218916286Y-94495905D01*
X218868667Y-94305429D01*
X218868667Y-94067333D01*
X218916286Y-93876857D01*
X218963905Y-93781619D01*
X219011524Y-93734000D01*
X219106762Y-93686381D01*
X220059143Y-93686381D02*
X220154382Y-93686381D01*
X220249620Y-93734000D01*
X220297239Y-93781619D01*
X220344858Y-93876857D01*
X220392477Y-94067333D01*
X220392477Y-94305429D01*
X220344858Y-94495905D01*
X220297239Y-94591143D01*
X220249620Y-94638762D01*
X220154382Y-94686381D01*
X220059143Y-94686381D01*
X219963905Y-94638762D01*
X219916286Y-94591143D01*
X219868667Y-94495905D01*
X219821048Y-94305429D01*
X219821048Y-94067333D01*
X219868667Y-93876857D01*
X219916286Y-93781619D01*
X219963905Y-93734000D01*
X220059143Y-93686381D01*
X220821048Y-94019714D02*
X220821048Y-95019714D01*
X221297239Y-94543524D02*
X221344858Y-94638762D01*
X221440096Y-94686381D01*
X220821048Y-94543524D02*
X220868667Y-94638762D01*
X220963905Y-94686381D01*
X221154382Y-94686381D01*
X221249620Y-94638762D01*
X221297239Y-94543524D01*
X221297239Y-94019714D01*
X181697334Y-92305143D02*
X181649715Y-92352762D01*
X181506858Y-92400381D01*
X181411620Y-92400381D01*
X181268762Y-92352762D01*
X181173524Y-92257524D01*
X181125905Y-92162286D01*
X181078286Y-91971810D01*
X181078286Y-91828952D01*
X181125905Y-91638476D01*
X181173524Y-91543238D01*
X181268762Y-91448000D01*
X181411620Y-91400381D01*
X181506858Y-91400381D01*
X181649715Y-91448000D01*
X181697334Y-91495619D01*
X182078286Y-91495619D02*
X182125905Y-91448000D01*
X182221143Y-91400381D01*
X182459239Y-91400381D01*
X182554477Y-91448000D01*
X182602096Y-91495619D01*
X182649715Y-91590857D01*
X182649715Y-91686095D01*
X182602096Y-91828952D01*
X182030667Y-92400381D01*
X182649715Y-92400381D01*
X175838953Y-92400381D02*
X175267524Y-92400381D01*
X175553238Y-92400381D02*
X175553238Y-91400381D01*
X175458000Y-91543238D01*
X175362762Y-91638476D01*
X175267524Y-91686095D01*
X176458000Y-91400381D02*
X176553239Y-91400381D01*
X176648477Y-91448000D01*
X176696096Y-91495619D01*
X176743715Y-91590857D01*
X176791334Y-91781333D01*
X176791334Y-92019429D01*
X176743715Y-92209905D01*
X176696096Y-92305143D01*
X176648477Y-92352762D01*
X176553239Y-92400381D01*
X176458000Y-92400381D01*
X176362762Y-92352762D01*
X176315143Y-92305143D01*
X176267524Y-92209905D01*
X176219905Y-92019429D01*
X176219905Y-91781333D01*
X176267524Y-91590857D01*
X176315143Y-91495619D01*
X176362762Y-91448000D01*
X176458000Y-91400381D01*
X177410381Y-91400381D02*
X177505620Y-91400381D01*
X177600858Y-91448000D01*
X177648477Y-91495619D01*
X177696096Y-91590857D01*
X177743715Y-91781333D01*
X177743715Y-92019429D01*
X177696096Y-92209905D01*
X177648477Y-92305143D01*
X177600858Y-92352762D01*
X177505620Y-92400381D01*
X177410381Y-92400381D01*
X177315143Y-92352762D01*
X177267524Y-92305143D01*
X177219905Y-92209905D01*
X177172286Y-92019429D01*
X177172286Y-91781333D01*
X177219905Y-91590857D01*
X177267524Y-91495619D01*
X177315143Y-91448000D01*
X177410381Y-91400381D01*
X178172286Y-91733714D02*
X178172286Y-92400381D01*
X178172286Y-91828952D02*
X178219905Y-91781333D01*
X178315143Y-91733714D01*
X178458001Y-91733714D01*
X178553239Y-91781333D01*
X178600858Y-91876571D01*
X178600858Y-92400381D01*
X164171334Y-95353143D02*
X164123715Y-95400762D01*
X163980858Y-95448381D01*
X163885620Y-95448381D01*
X163742762Y-95400762D01*
X163647524Y-95305524D01*
X163599905Y-95210286D01*
X163552286Y-95019810D01*
X163552286Y-94876952D01*
X163599905Y-94686476D01*
X163647524Y-94591238D01*
X163742762Y-94496000D01*
X163885620Y-94448381D01*
X163980858Y-94448381D01*
X164123715Y-94496000D01*
X164171334Y-94543619D01*
X164504667Y-94448381D02*
X165123715Y-94448381D01*
X164790381Y-94829333D01*
X164933239Y-94829333D01*
X165028477Y-94876952D01*
X165076096Y-94924571D01*
X165123715Y-95019810D01*
X165123715Y-95257905D01*
X165076096Y-95353143D01*
X165028477Y-95400762D01*
X164933239Y-95448381D01*
X164647524Y-95448381D01*
X164552286Y-95400762D01*
X164504667Y-95353143D01*
X163218953Y-93416381D02*
X162647524Y-93416381D01*
X162933238Y-93416381D02*
X162933238Y-92416381D01*
X162838000Y-92559238D01*
X162742762Y-92654476D01*
X162647524Y-92702095D01*
X163838000Y-92416381D02*
X163933239Y-92416381D01*
X164028477Y-92464000D01*
X164076096Y-92511619D01*
X164123715Y-92606857D01*
X164171334Y-92797333D01*
X164171334Y-93035429D01*
X164123715Y-93225905D01*
X164076096Y-93321143D01*
X164028477Y-93368762D01*
X163933239Y-93416381D01*
X163838000Y-93416381D01*
X163742762Y-93368762D01*
X163695143Y-93321143D01*
X163647524Y-93225905D01*
X163599905Y-93035429D01*
X163599905Y-92797333D01*
X163647524Y-92606857D01*
X163695143Y-92511619D01*
X163742762Y-92464000D01*
X163838000Y-92416381D01*
X164790381Y-92416381D02*
X164885620Y-92416381D01*
X164980858Y-92464000D01*
X165028477Y-92511619D01*
X165076096Y-92606857D01*
X165123715Y-92797333D01*
X165123715Y-93035429D01*
X165076096Y-93225905D01*
X165028477Y-93321143D01*
X164980858Y-93368762D01*
X164885620Y-93416381D01*
X164790381Y-93416381D01*
X164695143Y-93368762D01*
X164647524Y-93321143D01*
X164599905Y-93225905D01*
X164552286Y-93035429D01*
X164552286Y-92797333D01*
X164599905Y-92606857D01*
X164647524Y-92511619D01*
X164695143Y-92464000D01*
X164790381Y-92416381D01*
X165552286Y-92749714D02*
X165552286Y-93416381D01*
X165552286Y-92844952D02*
X165599905Y-92797333D01*
X165695143Y-92749714D01*
X165838001Y-92749714D01*
X165933239Y-92797333D01*
X165980858Y-92892571D01*
X165980858Y-93416381D01*
X215225334Y-49379143D02*
X215177715Y-49426762D01*
X215034858Y-49474381D01*
X214939620Y-49474381D01*
X214796762Y-49426762D01*
X214701524Y-49331524D01*
X214653905Y-49236286D01*
X214606286Y-49045810D01*
X214606286Y-48902952D01*
X214653905Y-48712476D01*
X214701524Y-48617238D01*
X214796762Y-48522000D01*
X214939620Y-48474381D01*
X215034858Y-48474381D01*
X215177715Y-48522000D01*
X215225334Y-48569619D01*
X216082477Y-48474381D02*
X215892000Y-48474381D01*
X215796762Y-48522000D01*
X215749143Y-48569619D01*
X215653905Y-48712476D01*
X215606286Y-48902952D01*
X215606286Y-49283905D01*
X215653905Y-49379143D01*
X215701524Y-49426762D01*
X215796762Y-49474381D01*
X215987239Y-49474381D01*
X216082477Y-49426762D01*
X216130096Y-49379143D01*
X216177715Y-49283905D01*
X216177715Y-49045810D01*
X216130096Y-48950571D01*
X216082477Y-48902952D01*
X215987239Y-48855333D01*
X215796762Y-48855333D01*
X215701524Y-48902952D01*
X215653905Y-48950571D01*
X215606286Y-49045810D01*
X213122095Y-55427619D02*
X213169714Y-55380000D01*
X213264952Y-55332381D01*
X213503048Y-55332381D01*
X213598286Y-55380000D01*
X213645905Y-55427619D01*
X213693524Y-55522857D01*
X213693524Y-55618095D01*
X213645905Y-55760952D01*
X213074476Y-56332381D01*
X213693524Y-56332381D01*
X214074476Y-55427619D02*
X214122095Y-55380000D01*
X214217333Y-55332381D01*
X214455429Y-55332381D01*
X214550667Y-55380000D01*
X214598286Y-55427619D01*
X214645905Y-55522857D01*
X214645905Y-55618095D01*
X214598286Y-55760952D01*
X214026857Y-56332381D01*
X214645905Y-56332381D01*
X215264952Y-55332381D02*
X215360191Y-55332381D01*
X215455429Y-55380000D01*
X215503048Y-55427619D01*
X215550667Y-55522857D01*
X215598286Y-55713333D01*
X215598286Y-55951429D01*
X215550667Y-56141905D01*
X215503048Y-56237143D01*
X215455429Y-56284762D01*
X215360191Y-56332381D01*
X215264952Y-56332381D01*
X215169714Y-56284762D01*
X215122095Y-56237143D01*
X215074476Y-56141905D01*
X215026857Y-55951429D01*
X215026857Y-55713333D01*
X215074476Y-55522857D01*
X215122095Y-55427619D01*
X215169714Y-55380000D01*
X215264952Y-55332381D01*
X216026857Y-55665714D02*
X216026857Y-56665714D01*
X216503048Y-56189524D02*
X216550667Y-56284762D01*
X216645905Y-56332381D01*
X216026857Y-56189524D02*
X216074476Y-56284762D01*
X216169714Y-56332381D01*
X216360191Y-56332381D01*
X216455429Y-56284762D01*
X216503048Y-56189524D01*
X216503048Y-55665714D01*
X204303334Y-59539143D02*
X204255715Y-59586762D01*
X204112858Y-59634381D01*
X204017620Y-59634381D01*
X203874762Y-59586762D01*
X203779524Y-59491524D01*
X203731905Y-59396286D01*
X203684286Y-59205810D01*
X203684286Y-59062952D01*
X203731905Y-58872476D01*
X203779524Y-58777238D01*
X203874762Y-58682000D01*
X204017620Y-58634381D01*
X204112858Y-58634381D01*
X204255715Y-58682000D01*
X204303334Y-58729619D01*
X204636667Y-58634381D02*
X205303334Y-58634381D01*
X204874762Y-59634381D01*
X202517524Y-61412381D02*
X201946095Y-61412381D01*
X202231809Y-61412381D02*
X202231809Y-60412381D01*
X202136571Y-60555238D01*
X202041333Y-60650476D01*
X201946095Y-60698095D01*
X203136571Y-60412381D02*
X203231810Y-60412381D01*
X203327048Y-60460000D01*
X203374667Y-60507619D01*
X203422286Y-60602857D01*
X203469905Y-60793333D01*
X203469905Y-61031429D01*
X203422286Y-61221905D01*
X203374667Y-61317143D01*
X203327048Y-61364762D01*
X203231810Y-61412381D01*
X203136571Y-61412381D01*
X203041333Y-61364762D01*
X202993714Y-61317143D01*
X202946095Y-61221905D01*
X202898476Y-61031429D01*
X202898476Y-60793333D01*
X202946095Y-60602857D01*
X202993714Y-60507619D01*
X203041333Y-60460000D01*
X203136571Y-60412381D01*
X204088952Y-60412381D02*
X204184191Y-60412381D01*
X204279429Y-60460000D01*
X204327048Y-60507619D01*
X204374667Y-60602857D01*
X204422286Y-60793333D01*
X204422286Y-61031429D01*
X204374667Y-61221905D01*
X204327048Y-61317143D01*
X204279429Y-61364762D01*
X204184191Y-61412381D01*
X204088952Y-61412381D01*
X203993714Y-61364762D01*
X203946095Y-61317143D01*
X203898476Y-61221905D01*
X203850857Y-61031429D01*
X203850857Y-60793333D01*
X203898476Y-60602857D01*
X203946095Y-60507619D01*
X203993714Y-60460000D01*
X204088952Y-60412381D01*
X204850857Y-60745714D02*
X204850857Y-61745714D01*
X205327048Y-61269524D02*
X205374667Y-61364762D01*
X205469905Y-61412381D01*
X204850857Y-61269524D02*
X204898476Y-61364762D01*
X204993714Y-61412381D01*
X205184191Y-61412381D01*
X205279429Y-61364762D01*
X205327048Y-61269524D01*
X205327048Y-60745714D01*
X181729143Y-89765143D02*
X181681524Y-89812762D01*
X181538667Y-89860381D01*
X181443429Y-89860381D01*
X181300571Y-89812762D01*
X181205333Y-89717524D01*
X181157714Y-89622286D01*
X181110095Y-89431810D01*
X181110095Y-89288952D01*
X181157714Y-89098476D01*
X181205333Y-89003238D01*
X181300571Y-88908000D01*
X181443429Y-88860381D01*
X181538667Y-88860381D01*
X181681524Y-88908000D01*
X181729143Y-88955619D01*
X182681524Y-89860381D02*
X182110095Y-89860381D01*
X182395809Y-89860381D02*
X182395809Y-88860381D01*
X182300571Y-89003238D01*
X182205333Y-89098476D01*
X182110095Y-89146095D01*
X183300571Y-88860381D02*
X183395810Y-88860381D01*
X183491048Y-88908000D01*
X183538667Y-88955619D01*
X183586286Y-89050857D01*
X183633905Y-89241333D01*
X183633905Y-89479429D01*
X183586286Y-89669905D01*
X183538667Y-89765143D01*
X183491048Y-89812762D01*
X183395810Y-89860381D01*
X183300571Y-89860381D01*
X183205333Y-89812762D01*
X183157714Y-89765143D01*
X183110095Y-89669905D01*
X183062476Y-89479429D01*
X183062476Y-89241333D01*
X183110095Y-89050857D01*
X183157714Y-88955619D01*
X183205333Y-88908000D01*
X183300571Y-88860381D01*
X175918953Y-89860381D02*
X175347524Y-89860381D01*
X175633238Y-89860381D02*
X175633238Y-88860381D01*
X175538000Y-89003238D01*
X175442762Y-89098476D01*
X175347524Y-89146095D01*
X176538000Y-88860381D02*
X176633239Y-88860381D01*
X176728477Y-88908000D01*
X176776096Y-88955619D01*
X176823715Y-89050857D01*
X176871334Y-89241333D01*
X176871334Y-89479429D01*
X176823715Y-89669905D01*
X176776096Y-89765143D01*
X176728477Y-89812762D01*
X176633239Y-89860381D01*
X176538000Y-89860381D01*
X176442762Y-89812762D01*
X176395143Y-89765143D01*
X176347524Y-89669905D01*
X176299905Y-89479429D01*
X176299905Y-89241333D01*
X176347524Y-89050857D01*
X176395143Y-88955619D01*
X176442762Y-88908000D01*
X176538000Y-88860381D01*
X177490381Y-88860381D02*
X177585620Y-88860381D01*
X177680858Y-88908000D01*
X177728477Y-88955619D01*
X177776096Y-89050857D01*
X177823715Y-89241333D01*
X177823715Y-89479429D01*
X177776096Y-89669905D01*
X177728477Y-89765143D01*
X177680858Y-89812762D01*
X177585620Y-89860381D01*
X177490381Y-89860381D01*
X177395143Y-89812762D01*
X177347524Y-89765143D01*
X177299905Y-89669905D01*
X177252286Y-89479429D01*
X177252286Y-89241333D01*
X177299905Y-89050857D01*
X177347524Y-88955619D01*
X177395143Y-88908000D01*
X177490381Y-88860381D01*
X178252286Y-89193714D02*
X178252286Y-89860381D01*
X178252286Y-89288952D02*
X178299905Y-89241333D01*
X178395143Y-89193714D01*
X178538001Y-89193714D01*
X178633239Y-89241333D01*
X178680858Y-89336571D01*
X178680858Y-89860381D01*
X171315143Y-75287143D02*
X171267524Y-75334762D01*
X171124667Y-75382381D01*
X171029429Y-75382381D01*
X170886571Y-75334762D01*
X170791333Y-75239524D01*
X170743714Y-75144286D01*
X170696095Y-74953810D01*
X170696095Y-74810952D01*
X170743714Y-74620476D01*
X170791333Y-74525238D01*
X170886571Y-74430000D01*
X171029429Y-74382381D01*
X171124667Y-74382381D01*
X171267524Y-74430000D01*
X171315143Y-74477619D01*
X172267524Y-75382381D02*
X171696095Y-75382381D01*
X171981809Y-75382381D02*
X171981809Y-74382381D01*
X171886571Y-74525238D01*
X171791333Y-74620476D01*
X171696095Y-74668095D01*
X173219905Y-75382381D02*
X172648476Y-75382381D01*
X172934190Y-75382381D02*
X172934190Y-74382381D01*
X172838952Y-74525238D01*
X172743714Y-74620476D01*
X172648476Y-74668095D01*
X165798953Y-75382381D02*
X165227524Y-75382381D01*
X165513238Y-75382381D02*
X165513238Y-74382381D01*
X165418000Y-74525238D01*
X165322762Y-74620476D01*
X165227524Y-74668095D01*
X166418000Y-74382381D02*
X166513239Y-74382381D01*
X166608477Y-74430000D01*
X166656096Y-74477619D01*
X166703715Y-74572857D01*
X166751334Y-74763333D01*
X166751334Y-75001429D01*
X166703715Y-75191905D01*
X166656096Y-75287143D01*
X166608477Y-75334762D01*
X166513239Y-75382381D01*
X166418000Y-75382381D01*
X166322762Y-75334762D01*
X166275143Y-75287143D01*
X166227524Y-75191905D01*
X166179905Y-75001429D01*
X166179905Y-74763333D01*
X166227524Y-74572857D01*
X166275143Y-74477619D01*
X166322762Y-74430000D01*
X166418000Y-74382381D01*
X167370381Y-74382381D02*
X167465620Y-74382381D01*
X167560858Y-74430000D01*
X167608477Y-74477619D01*
X167656096Y-74572857D01*
X167703715Y-74763333D01*
X167703715Y-75001429D01*
X167656096Y-75191905D01*
X167608477Y-75287143D01*
X167560858Y-75334762D01*
X167465620Y-75382381D01*
X167370381Y-75382381D01*
X167275143Y-75334762D01*
X167227524Y-75287143D01*
X167179905Y-75191905D01*
X167132286Y-75001429D01*
X167132286Y-74763333D01*
X167179905Y-74572857D01*
X167227524Y-74477619D01*
X167275143Y-74430000D01*
X167370381Y-74382381D01*
X168132286Y-74715714D02*
X168132286Y-75382381D01*
X168132286Y-74810952D02*
X168179905Y-74763333D01*
X168275143Y-74715714D01*
X168418001Y-74715714D01*
X168513239Y-74763333D01*
X168560858Y-74858571D01*
X168560858Y-75382381D01*
X191889143Y-64873143D02*
X191841524Y-64920762D01*
X191698667Y-64968381D01*
X191603429Y-64968381D01*
X191460571Y-64920762D01*
X191365333Y-64825524D01*
X191317714Y-64730286D01*
X191270095Y-64539810D01*
X191270095Y-64396952D01*
X191317714Y-64206476D01*
X191365333Y-64111238D01*
X191460571Y-64016000D01*
X191603429Y-63968381D01*
X191698667Y-63968381D01*
X191841524Y-64016000D01*
X191889143Y-64063619D01*
X192841524Y-64968381D02*
X192270095Y-64968381D01*
X192555809Y-64968381D02*
X192555809Y-63968381D01*
X192460571Y-64111238D01*
X192365333Y-64206476D01*
X192270095Y-64254095D01*
X193698667Y-64301714D02*
X193698667Y-64968381D01*
X193460571Y-63920762D02*
X193222476Y-64635048D01*
X193841524Y-64635048D01*
X192984381Y-69953047D02*
X192984381Y-70524476D01*
X192984381Y-70238762D02*
X191984381Y-70238762D01*
X192127238Y-70334000D01*
X192222476Y-70429238D01*
X192270095Y-70524476D01*
X191984381Y-69334000D02*
X191984381Y-69238761D01*
X192032000Y-69143523D01*
X192079619Y-69095904D01*
X192174857Y-69048285D01*
X192365333Y-69000666D01*
X192603429Y-69000666D01*
X192793905Y-69048285D01*
X192889143Y-69095904D01*
X192936762Y-69143523D01*
X192984381Y-69238761D01*
X192984381Y-69334000D01*
X192936762Y-69429238D01*
X192889143Y-69476857D01*
X192793905Y-69524476D01*
X192603429Y-69572095D01*
X192365333Y-69572095D01*
X192174857Y-69524476D01*
X192079619Y-69476857D01*
X192032000Y-69429238D01*
X191984381Y-69334000D01*
X191984381Y-68381619D02*
X191984381Y-68286380D01*
X192032000Y-68191142D01*
X192079619Y-68143523D01*
X192174857Y-68095904D01*
X192365333Y-68048285D01*
X192603429Y-68048285D01*
X192793905Y-68095904D01*
X192889143Y-68143523D01*
X192936762Y-68191142D01*
X192984381Y-68286380D01*
X192984381Y-68381619D01*
X192936762Y-68476857D01*
X192889143Y-68524476D01*
X192793905Y-68572095D01*
X192603429Y-68619714D01*
X192365333Y-68619714D01*
X192174857Y-68572095D01*
X192079619Y-68524476D01*
X192032000Y-68476857D01*
X191984381Y-68381619D01*
X192317714Y-67619714D02*
X192984381Y-67619714D01*
X192412952Y-67619714D02*
X192365333Y-67572095D01*
X192317714Y-67476857D01*
X192317714Y-67333999D01*
X192365333Y-67238761D01*
X192460571Y-67191142D01*
X192984381Y-67191142D01*
X186087143Y-66687143D02*
X186039524Y-66734762D01*
X185896667Y-66782381D01*
X185801429Y-66782381D01*
X185658571Y-66734762D01*
X185563333Y-66639524D01*
X185515714Y-66544286D01*
X185468095Y-66353810D01*
X185468095Y-66210952D01*
X185515714Y-66020476D01*
X185563333Y-65925238D01*
X185658571Y-65830000D01*
X185801429Y-65782381D01*
X185896667Y-65782381D01*
X186039524Y-65830000D01*
X186087143Y-65877619D01*
X187039524Y-66782381D02*
X186468095Y-66782381D01*
X186753809Y-66782381D02*
X186753809Y-65782381D01*
X186658571Y-65925238D01*
X186563333Y-66020476D01*
X186468095Y-66068095D01*
X187944286Y-65782381D02*
X187468095Y-65782381D01*
X187420476Y-66258571D01*
X187468095Y-66210952D01*
X187563333Y-66163333D01*
X187801429Y-66163333D01*
X187896667Y-66210952D01*
X187944286Y-66258571D01*
X187991905Y-66353810D01*
X187991905Y-66591905D01*
X187944286Y-66687143D01*
X187896667Y-66734762D01*
X187801429Y-66782381D01*
X187563333Y-66782381D01*
X187468095Y-66734762D01*
X187420476Y-66687143D01*
X185610953Y-69032381D02*
X185039524Y-69032381D01*
X185325238Y-69032381D02*
X185325238Y-68032381D01*
X185230000Y-68175238D01*
X185134762Y-68270476D01*
X185039524Y-68318095D01*
X186230000Y-68032381D02*
X186325239Y-68032381D01*
X186420477Y-68080000D01*
X186468096Y-68127619D01*
X186515715Y-68222857D01*
X186563334Y-68413333D01*
X186563334Y-68651429D01*
X186515715Y-68841905D01*
X186468096Y-68937143D01*
X186420477Y-68984762D01*
X186325239Y-69032381D01*
X186230000Y-69032381D01*
X186134762Y-68984762D01*
X186087143Y-68937143D01*
X186039524Y-68841905D01*
X185991905Y-68651429D01*
X185991905Y-68413333D01*
X186039524Y-68222857D01*
X186087143Y-68127619D01*
X186134762Y-68080000D01*
X186230000Y-68032381D01*
X187182381Y-68032381D02*
X187277620Y-68032381D01*
X187372858Y-68080000D01*
X187420477Y-68127619D01*
X187468096Y-68222857D01*
X187515715Y-68413333D01*
X187515715Y-68651429D01*
X187468096Y-68841905D01*
X187420477Y-68937143D01*
X187372858Y-68984762D01*
X187277620Y-69032381D01*
X187182381Y-69032381D01*
X187087143Y-68984762D01*
X187039524Y-68937143D01*
X186991905Y-68841905D01*
X186944286Y-68651429D01*
X186944286Y-68413333D01*
X186991905Y-68222857D01*
X187039524Y-68127619D01*
X187087143Y-68080000D01*
X187182381Y-68032381D01*
X187944286Y-68365714D02*
X187944286Y-69032381D01*
X187944286Y-68460952D02*
X187991905Y-68413333D01*
X188087143Y-68365714D01*
X188230001Y-68365714D01*
X188325239Y-68413333D01*
X188372858Y-68508571D01*
X188372858Y-69032381D01*
X247594381Y-101830095D02*
X246594381Y-101830095D01*
X246594381Y-101449142D01*
X246642000Y-101353904D01*
X246689619Y-101306285D01*
X246784857Y-101258666D01*
X246927714Y-101258666D01*
X247022952Y-101306285D01*
X247070571Y-101353904D01*
X247118190Y-101449142D01*
X247118190Y-101830095D01*
X246689619Y-100877714D02*
X246642000Y-100830095D01*
X246594381Y-100734857D01*
X246594381Y-100496761D01*
X246642000Y-100401523D01*
X246689619Y-100353904D01*
X246784857Y-100306285D01*
X246880095Y-100306285D01*
X247022952Y-100353904D01*
X247594381Y-100925333D01*
X247594381Y-100306285D01*
X237784000Y-97734381D02*
X237784000Y-96734381D01*
X237784000Y-97210571D02*
X238355429Y-97210571D01*
X238355429Y-97734381D02*
X238355429Y-96734381D01*
X238831619Y-97210571D02*
X239164953Y-97210571D01*
X239307810Y-97734381D02*
X238831619Y-97734381D01*
X238831619Y-96734381D01*
X239307810Y-96734381D01*
X239688762Y-97448667D02*
X240164953Y-97448667D01*
X239593524Y-97734381D02*
X239926857Y-96734381D01*
X240260191Y-97734381D01*
X240450667Y-96734381D02*
X241022096Y-96734381D01*
X240736381Y-97734381D02*
X240736381Y-96734381D01*
X241355429Y-97210571D02*
X241688763Y-97210571D01*
X241831620Y-97734381D02*
X241355429Y-97734381D01*
X241355429Y-96734381D01*
X241831620Y-96734381D01*
X242831620Y-97734381D02*
X242498286Y-97258190D01*
X242260191Y-97734381D02*
X242260191Y-96734381D01*
X242641144Y-96734381D01*
X242736382Y-96782000D01*
X242784001Y-96829619D01*
X242831620Y-96924857D01*
X242831620Y-97067714D01*
X242784001Y-97162952D01*
X242736382Y-97210571D01*
X242641144Y-97258190D01*
X242260191Y-97258190D01*
X247340381Y-74906095D02*
X246340381Y-74906095D01*
X246340381Y-74525142D01*
X246388000Y-74429904D01*
X246435619Y-74382285D01*
X246530857Y-74334666D01*
X246673714Y-74334666D01*
X246768952Y-74382285D01*
X246816571Y-74429904D01*
X246864190Y-74525142D01*
X246864190Y-74906095D01*
X246673714Y-73477523D02*
X247340381Y-73477523D01*
X246292762Y-73715619D02*
X247007048Y-73953714D01*
X247007048Y-73334666D01*
X245308381Y-76144191D02*
X244308381Y-76144191D01*
X244784571Y-76144191D02*
X244784571Y-75572762D01*
X245308381Y-75572762D02*
X244308381Y-75572762D01*
X244308381Y-75239429D02*
X244308381Y-74668000D01*
X245308381Y-74953715D02*
X244308381Y-74953715D01*
X245403619Y-74572762D02*
X245403619Y-73810857D01*
X245022667Y-73620381D02*
X245022667Y-73144190D01*
X245308381Y-73715619D02*
X244308381Y-73382286D01*
X245308381Y-73048952D01*
X245213143Y-72144190D02*
X245260762Y-72191809D01*
X245308381Y-72334666D01*
X245308381Y-72429904D01*
X245260762Y-72572762D01*
X245165524Y-72668000D01*
X245070286Y-72715619D01*
X244879810Y-72763238D01*
X244736952Y-72763238D01*
X244546476Y-72715619D01*
X244451238Y-72668000D01*
X244356000Y-72572762D01*
X244308381Y-72429904D01*
X244308381Y-72334666D01*
X244356000Y-72191809D01*
X244403619Y-72144190D01*
X237767905Y-57602381D02*
X237767905Y-56602381D01*
X238148858Y-56602381D01*
X238244096Y-56650000D01*
X238291715Y-56697619D01*
X238339334Y-56792857D01*
X238339334Y-56935714D01*
X238291715Y-57030952D01*
X238244096Y-57078571D01*
X238148858Y-57126190D01*
X237767905Y-57126190D01*
X239244096Y-56602381D02*
X238767905Y-56602381D01*
X238720286Y-57078571D01*
X238767905Y-57030952D01*
X238863143Y-56983333D01*
X239101239Y-56983333D01*
X239196477Y-57030952D01*
X239244096Y-57078571D01*
X239291715Y-57173810D01*
X239291715Y-57411905D01*
X239244096Y-57507143D01*
X239196477Y-57554762D01*
X239101239Y-57602381D01*
X238863143Y-57602381D01*
X238767905Y-57554762D01*
X238720286Y-57507143D01*
X235958381Y-55316381D02*
X235958381Y-54316381D01*
X236529810Y-55316381D01*
X236529810Y-54316381D01*
X237006000Y-54792571D02*
X237339334Y-54792571D01*
X237482191Y-55316381D02*
X237006000Y-55316381D01*
X237006000Y-54316381D01*
X237482191Y-54316381D01*
X238434572Y-54364000D02*
X238339334Y-54316381D01*
X238196477Y-54316381D01*
X238053619Y-54364000D01*
X237958381Y-54459238D01*
X237910762Y-54554476D01*
X237863143Y-54744952D01*
X237863143Y-54887810D01*
X237910762Y-55078286D01*
X237958381Y-55173524D01*
X238053619Y-55268762D01*
X238196477Y-55316381D01*
X238291715Y-55316381D01*
X238434572Y-55268762D01*
X238482191Y-55221143D01*
X238482191Y-54887810D01*
X238291715Y-54887810D01*
X238672667Y-55411619D02*
X239434572Y-55411619D01*
X239625048Y-55030667D02*
X240101239Y-55030667D01*
X239529810Y-55316381D02*
X239863143Y-54316381D01*
X240196477Y-55316381D01*
X241101239Y-55221143D02*
X241053620Y-55268762D01*
X240910763Y-55316381D01*
X240815525Y-55316381D01*
X240672667Y-55268762D01*
X240577429Y-55173524D01*
X240529810Y-55078286D01*
X240482191Y-54887810D01*
X240482191Y-54744952D01*
X240529810Y-54554476D01*
X240577429Y-54459238D01*
X240672667Y-54364000D01*
X240815525Y-54316381D01*
X240910763Y-54316381D01*
X241053620Y-54364000D01*
X241101239Y-54411619D01*
X206589334Y-98496381D02*
X206256000Y-98020190D01*
X206017905Y-98496381D02*
X206017905Y-97496381D01*
X206398858Y-97496381D01*
X206494096Y-97544000D01*
X206541715Y-97591619D01*
X206589334Y-97686857D01*
X206589334Y-97829714D01*
X206541715Y-97924952D01*
X206494096Y-97972571D01*
X206398858Y-98020190D01*
X206017905Y-98020190D01*
X206970286Y-97591619D02*
X207017905Y-97544000D01*
X207113143Y-97496381D01*
X207351239Y-97496381D01*
X207446477Y-97544000D01*
X207494096Y-97591619D01*
X207541715Y-97686857D01*
X207541715Y-97782095D01*
X207494096Y-97924952D01*
X206922667Y-98496381D01*
X207541715Y-98496381D01*
X193635334Y-98496381D02*
X193302000Y-98020190D01*
X193063905Y-98496381D02*
X193063905Y-97496381D01*
X193444858Y-97496381D01*
X193540096Y-97544000D01*
X193587715Y-97591619D01*
X193635334Y-97686857D01*
X193635334Y-97829714D01*
X193587715Y-97924952D01*
X193540096Y-97972571D01*
X193444858Y-98020190D01*
X193063905Y-98020190D01*
X193968667Y-97496381D02*
X194587715Y-97496381D01*
X194254381Y-97877333D01*
X194397239Y-97877333D01*
X194492477Y-97924952D01*
X194540096Y-97972571D01*
X194587715Y-98067810D01*
X194587715Y-98305905D01*
X194540096Y-98401143D01*
X194492477Y-98448762D01*
X194397239Y-98496381D01*
X194111524Y-98496381D01*
X194016286Y-98448762D01*
X193968667Y-98401143D01*
X206589334Y-95194381D02*
X206256000Y-94718190D01*
X206017905Y-95194381D02*
X206017905Y-94194381D01*
X206398858Y-94194381D01*
X206494096Y-94242000D01*
X206541715Y-94289619D01*
X206589334Y-94384857D01*
X206589334Y-94527714D01*
X206541715Y-94622952D01*
X206494096Y-94670571D01*
X206398858Y-94718190D01*
X206017905Y-94718190D01*
X207446477Y-94527714D02*
X207446477Y-95194381D01*
X207208381Y-94146762D02*
X206970286Y-94861048D01*
X207589334Y-94861048D01*
X163155334Y-88336381D02*
X162822000Y-87860190D01*
X162583905Y-88336381D02*
X162583905Y-87336381D01*
X162964858Y-87336381D01*
X163060096Y-87384000D01*
X163107715Y-87431619D01*
X163155334Y-87526857D01*
X163155334Y-87669714D01*
X163107715Y-87764952D01*
X163060096Y-87812571D01*
X162964858Y-87860190D01*
X162583905Y-87860190D01*
X164012477Y-87336381D02*
X163822000Y-87336381D01*
X163726762Y-87384000D01*
X163679143Y-87431619D01*
X163583905Y-87574476D01*
X163536286Y-87764952D01*
X163536286Y-88145905D01*
X163583905Y-88241143D01*
X163631524Y-88288762D01*
X163726762Y-88336381D01*
X163917239Y-88336381D01*
X164012477Y-88288762D01*
X164060096Y-88241143D01*
X164107715Y-88145905D01*
X164107715Y-87907810D01*
X164060096Y-87812571D01*
X164012477Y-87764952D01*
X163917239Y-87717333D01*
X163726762Y-87717333D01*
X163631524Y-87764952D01*
X163583905Y-87812571D01*
X163536286Y-87907810D01*
X166282762Y-90114381D02*
X165711333Y-90114381D01*
X165997047Y-90114381D02*
X165997047Y-89114381D01*
X165901809Y-89257238D01*
X165806571Y-89352476D01*
X165711333Y-89400095D01*
X166901809Y-89114381D02*
X166997048Y-89114381D01*
X167092286Y-89162000D01*
X167139905Y-89209619D01*
X167187524Y-89304857D01*
X167235143Y-89495333D01*
X167235143Y-89733429D01*
X167187524Y-89923905D01*
X167139905Y-90019143D01*
X167092286Y-90066762D01*
X166997048Y-90114381D01*
X166901809Y-90114381D01*
X166806571Y-90066762D01*
X166758952Y-90019143D01*
X166711333Y-89923905D01*
X166663714Y-89733429D01*
X166663714Y-89495333D01*
X166711333Y-89304857D01*
X166758952Y-89209619D01*
X166806571Y-89162000D01*
X166901809Y-89114381D01*
X167663714Y-90114381D02*
X167663714Y-89114381D01*
X167758952Y-89733429D02*
X168044667Y-90114381D01*
X168044667Y-89447714D02*
X167663714Y-89828667D01*
X163155334Y-56840381D02*
X162822000Y-56364190D01*
X162583905Y-56840381D02*
X162583905Y-55840381D01*
X162964858Y-55840381D01*
X163060096Y-55888000D01*
X163107715Y-55935619D01*
X163155334Y-56030857D01*
X163155334Y-56173714D01*
X163107715Y-56268952D01*
X163060096Y-56316571D01*
X162964858Y-56364190D01*
X162583905Y-56364190D01*
X163488667Y-55840381D02*
X164155334Y-55840381D01*
X163726762Y-56840381D01*
X166282762Y-58618381D02*
X165711333Y-58618381D01*
X165997047Y-58618381D02*
X165997047Y-57618381D01*
X165901809Y-57761238D01*
X165806571Y-57856476D01*
X165711333Y-57904095D01*
X166901809Y-57618381D02*
X166997048Y-57618381D01*
X167092286Y-57666000D01*
X167139905Y-57713619D01*
X167187524Y-57808857D01*
X167235143Y-57999333D01*
X167235143Y-58237429D01*
X167187524Y-58427905D01*
X167139905Y-58523143D01*
X167092286Y-58570762D01*
X166997048Y-58618381D01*
X166901809Y-58618381D01*
X166806571Y-58570762D01*
X166758952Y-58523143D01*
X166711333Y-58427905D01*
X166663714Y-58237429D01*
X166663714Y-57999333D01*
X166711333Y-57808857D01*
X166758952Y-57713619D01*
X166806571Y-57666000D01*
X166901809Y-57618381D01*
X167663714Y-58618381D02*
X167663714Y-57618381D01*
X167758952Y-58237429D02*
X168044667Y-58618381D01*
X168044667Y-57951714D02*
X167663714Y-58332667D01*
X237069334Y-66492381D02*
X236736000Y-66016190D01*
X236497905Y-66492381D02*
X236497905Y-65492381D01*
X236878858Y-65492381D01*
X236974096Y-65540000D01*
X237021715Y-65587619D01*
X237069334Y-65682857D01*
X237069334Y-65825714D01*
X237021715Y-65920952D01*
X236974096Y-65968571D01*
X236878858Y-66016190D01*
X236497905Y-66016190D01*
X237640762Y-65920952D02*
X237545524Y-65873333D01*
X237497905Y-65825714D01*
X237450286Y-65730476D01*
X237450286Y-65682857D01*
X237497905Y-65587619D01*
X237545524Y-65540000D01*
X237640762Y-65492381D01*
X237831239Y-65492381D01*
X237926477Y-65540000D01*
X237974096Y-65587619D01*
X238021715Y-65682857D01*
X238021715Y-65730476D01*
X237974096Y-65825714D01*
X237926477Y-65873333D01*
X237831239Y-65920952D01*
X237640762Y-65920952D01*
X237545524Y-65968571D01*
X237497905Y-66016190D01*
X237450286Y-66111429D01*
X237450286Y-66301905D01*
X237497905Y-66397143D01*
X237545524Y-66444762D01*
X237640762Y-66492381D01*
X237831239Y-66492381D01*
X237926477Y-66444762D01*
X237974096Y-66397143D01*
X238021715Y-66301905D01*
X238021715Y-66111429D01*
X237974096Y-66016190D01*
X237926477Y-65968571D01*
X237831239Y-65920952D01*
X239212381Y-63555428D02*
X239212381Y-64126857D01*
X239212381Y-63841143D02*
X238212381Y-63841143D01*
X238355238Y-63936381D01*
X238450476Y-64031619D01*
X238498095Y-64126857D01*
X238212381Y-62936381D02*
X238212381Y-62841142D01*
X238260000Y-62745904D01*
X238307619Y-62698285D01*
X238402857Y-62650666D01*
X238593333Y-62603047D01*
X238831429Y-62603047D01*
X239021905Y-62650666D01*
X239117143Y-62698285D01*
X239164762Y-62745904D01*
X239212381Y-62841142D01*
X239212381Y-62936381D01*
X239164762Y-63031619D01*
X239117143Y-63079238D01*
X239021905Y-63126857D01*
X238831429Y-63174476D01*
X238593333Y-63174476D01*
X238402857Y-63126857D01*
X238307619Y-63079238D01*
X238260000Y-63031619D01*
X238212381Y-62936381D01*
X238212381Y-61984000D02*
X238212381Y-61888761D01*
X238260000Y-61793523D01*
X238307619Y-61745904D01*
X238402857Y-61698285D01*
X238593333Y-61650666D01*
X238831429Y-61650666D01*
X239021905Y-61698285D01*
X239117143Y-61745904D01*
X239164762Y-61793523D01*
X239212381Y-61888761D01*
X239212381Y-61984000D01*
X239164762Y-62079238D01*
X239117143Y-62126857D01*
X239021905Y-62174476D01*
X238831429Y-62222095D01*
X238593333Y-62222095D01*
X238402857Y-62174476D01*
X238307619Y-62126857D01*
X238260000Y-62079238D01*
X238212381Y-61984000D01*
X239212381Y-61222095D02*
X238212381Y-61222095D01*
X238831429Y-61126857D02*
X239212381Y-60841142D01*
X238545714Y-60841142D02*
X238926667Y-61222095D01*
X243419334Y-66492381D02*
X243086000Y-66016190D01*
X242847905Y-66492381D02*
X242847905Y-65492381D01*
X243228858Y-65492381D01*
X243324096Y-65540000D01*
X243371715Y-65587619D01*
X243419334Y-65682857D01*
X243419334Y-65825714D01*
X243371715Y-65920952D01*
X243324096Y-65968571D01*
X243228858Y-66016190D01*
X242847905Y-66016190D01*
X243895524Y-66492381D02*
X244086000Y-66492381D01*
X244181239Y-66444762D01*
X244228858Y-66397143D01*
X244324096Y-66254286D01*
X244371715Y-66063810D01*
X244371715Y-65682857D01*
X244324096Y-65587619D01*
X244276477Y-65540000D01*
X244181239Y-65492381D01*
X243990762Y-65492381D01*
X243895524Y-65540000D01*
X243847905Y-65587619D01*
X243800286Y-65682857D01*
X243800286Y-65920952D01*
X243847905Y-66016190D01*
X243895524Y-66063810D01*
X243990762Y-66111429D01*
X244181239Y-66111429D01*
X244276477Y-66063810D01*
X244324096Y-66016190D01*
X244371715Y-65920952D01*
X242514381Y-63555428D02*
X242514381Y-64126857D01*
X242514381Y-63841143D02*
X241514381Y-63841143D01*
X241657238Y-63936381D01*
X241752476Y-64031619D01*
X241800095Y-64126857D01*
X241514381Y-62936381D02*
X241514381Y-62841142D01*
X241562000Y-62745904D01*
X241609619Y-62698285D01*
X241704857Y-62650666D01*
X241895333Y-62603047D01*
X242133429Y-62603047D01*
X242323905Y-62650666D01*
X242419143Y-62698285D01*
X242466762Y-62745904D01*
X242514381Y-62841142D01*
X242514381Y-62936381D01*
X242466762Y-63031619D01*
X242419143Y-63079238D01*
X242323905Y-63126857D01*
X242133429Y-63174476D01*
X241895333Y-63174476D01*
X241704857Y-63126857D01*
X241609619Y-63079238D01*
X241562000Y-63031619D01*
X241514381Y-62936381D01*
X241514381Y-61984000D02*
X241514381Y-61888761D01*
X241562000Y-61793523D01*
X241609619Y-61745904D01*
X241704857Y-61698285D01*
X241895333Y-61650666D01*
X242133429Y-61650666D01*
X242323905Y-61698285D01*
X242419143Y-61745904D01*
X242466762Y-61793523D01*
X242514381Y-61888761D01*
X242514381Y-61984000D01*
X242466762Y-62079238D01*
X242419143Y-62126857D01*
X242323905Y-62174476D01*
X242133429Y-62222095D01*
X241895333Y-62222095D01*
X241704857Y-62174476D01*
X241609619Y-62126857D01*
X241562000Y-62079238D01*
X241514381Y-61984000D01*
X242514381Y-61222095D02*
X241514381Y-61222095D01*
X242133429Y-61126857D02*
X242514381Y-60841142D01*
X241847714Y-60841142D02*
X242228667Y-61222095D01*
X233799143Y-87066381D02*
X233465809Y-86590190D01*
X233227714Y-87066381D02*
X233227714Y-86066381D01*
X233608667Y-86066381D01*
X233703905Y-86114000D01*
X233751524Y-86161619D01*
X233799143Y-86256857D01*
X233799143Y-86399714D01*
X233751524Y-86494952D01*
X233703905Y-86542571D01*
X233608667Y-86590190D01*
X233227714Y-86590190D01*
X234751524Y-87066381D02*
X234180095Y-87066381D01*
X234465809Y-87066381D02*
X234465809Y-86066381D01*
X234370571Y-86209238D01*
X234275333Y-86304476D01*
X234180095Y-86352095D01*
X235370571Y-86066381D02*
X235465810Y-86066381D01*
X235561048Y-86114000D01*
X235608667Y-86161619D01*
X235656286Y-86256857D01*
X235703905Y-86447333D01*
X235703905Y-86685429D01*
X235656286Y-86875905D01*
X235608667Y-86971143D01*
X235561048Y-87018762D01*
X235465810Y-87066381D01*
X235370571Y-87066381D01*
X235275333Y-87018762D01*
X235227714Y-86971143D01*
X235180095Y-86875905D01*
X235132476Y-86685429D01*
X235132476Y-86447333D01*
X235180095Y-86256857D01*
X235227714Y-86161619D01*
X235275333Y-86114000D01*
X235370571Y-86066381D01*
X232799143Y-88447619D02*
X232846762Y-88400000D01*
X232942000Y-88352381D01*
X233180096Y-88352381D01*
X233275334Y-88400000D01*
X233322953Y-88447619D01*
X233370572Y-88542857D01*
X233370572Y-88638095D01*
X233322953Y-88780952D01*
X232751524Y-89352381D01*
X233370572Y-89352381D01*
X233751524Y-88447619D02*
X233799143Y-88400000D01*
X233894381Y-88352381D01*
X234132477Y-88352381D01*
X234227715Y-88400000D01*
X234275334Y-88447619D01*
X234322953Y-88542857D01*
X234322953Y-88638095D01*
X234275334Y-88780952D01*
X233703905Y-89352381D01*
X234322953Y-89352381D01*
X234942000Y-88352381D02*
X235037239Y-88352381D01*
X235132477Y-88400000D01*
X235180096Y-88447619D01*
X235227715Y-88542857D01*
X235275334Y-88733333D01*
X235275334Y-88971429D01*
X235227715Y-89161905D01*
X235180096Y-89257143D01*
X235132477Y-89304762D01*
X235037239Y-89352381D01*
X234942000Y-89352381D01*
X234846762Y-89304762D01*
X234799143Y-89257143D01*
X234751524Y-89161905D01*
X234703905Y-88971429D01*
X234703905Y-88733333D01*
X234751524Y-88542857D01*
X234799143Y-88447619D01*
X234846762Y-88400000D01*
X234942000Y-88352381D01*
X235703905Y-89352381D02*
X235703905Y-88352381D01*
X235799143Y-88971429D02*
X236084858Y-89352381D01*
X236084858Y-88685714D02*
X235703905Y-89066667D01*
X209494381Y-76842857D02*
X209018190Y-77176191D01*
X209494381Y-77414286D02*
X208494381Y-77414286D01*
X208494381Y-77033333D01*
X208542000Y-76938095D01*
X208589619Y-76890476D01*
X208684857Y-76842857D01*
X208827714Y-76842857D01*
X208922952Y-76890476D01*
X208970571Y-76938095D01*
X209018190Y-77033333D01*
X209018190Y-77414286D01*
X209494381Y-75890476D02*
X209494381Y-76461905D01*
X209494381Y-76176191D02*
X208494381Y-76176191D01*
X208637238Y-76271429D01*
X208732476Y-76366667D01*
X208780095Y-76461905D01*
X209494381Y-74938095D02*
X209494381Y-75509524D01*
X209494381Y-75223810D02*
X208494381Y-75223810D01*
X208637238Y-75319048D01*
X208732476Y-75414286D01*
X208780095Y-75509524D01*
X204335143Y-79700381D02*
X204001809Y-79224190D01*
X203763714Y-79700381D02*
X203763714Y-78700381D01*
X204144667Y-78700381D01*
X204239905Y-78748000D01*
X204287524Y-78795619D01*
X204335143Y-78890857D01*
X204335143Y-79033714D01*
X204287524Y-79128952D01*
X204239905Y-79176571D01*
X204144667Y-79224190D01*
X203763714Y-79224190D01*
X205287524Y-79700381D02*
X204716095Y-79700381D01*
X205001809Y-79700381D02*
X205001809Y-78700381D01*
X204906571Y-78843238D01*
X204811333Y-78938476D01*
X204716095Y-78986095D01*
X205668476Y-78795619D02*
X205716095Y-78748000D01*
X205811333Y-78700381D01*
X206049429Y-78700381D01*
X206144667Y-78748000D01*
X206192286Y-78795619D01*
X206239905Y-78890857D01*
X206239905Y-78986095D01*
X206192286Y-79128952D01*
X205620857Y-79700381D01*
X206239905Y-79700381D01*
X200699715Y-81478381D02*
X200128286Y-81478381D01*
X200414000Y-81478381D02*
X200414000Y-80478381D01*
X200318762Y-80621238D01*
X200223524Y-80716476D01*
X200128286Y-80764095D01*
X201699715Y-81478381D02*
X201366381Y-81002190D01*
X201128286Y-81478381D02*
X201128286Y-80478381D01*
X201509239Y-80478381D01*
X201604477Y-80526000D01*
X201652096Y-80573619D01*
X201699715Y-80668857D01*
X201699715Y-80811714D01*
X201652096Y-80906952D01*
X201604477Y-80954571D01*
X201509239Y-81002190D01*
X201128286Y-81002190D01*
X202557143Y-87066381D02*
X202223809Y-86590190D01*
X201985714Y-87066381D02*
X201985714Y-86066381D01*
X202366667Y-86066381D01*
X202461905Y-86114000D01*
X202509524Y-86161619D01*
X202557143Y-86256857D01*
X202557143Y-86399714D01*
X202509524Y-86494952D01*
X202461905Y-86542571D01*
X202366667Y-86590190D01*
X201985714Y-86590190D01*
X203509524Y-87066381D02*
X202938095Y-87066381D01*
X203223809Y-87066381D02*
X203223809Y-86066381D01*
X203128571Y-86209238D01*
X203033333Y-86304476D01*
X202938095Y-86352095D01*
X203842857Y-86066381D02*
X204461905Y-86066381D01*
X204128571Y-86447333D01*
X204271429Y-86447333D01*
X204366667Y-86494952D01*
X204414286Y-86542571D01*
X204461905Y-86637810D01*
X204461905Y-86875905D01*
X204414286Y-86971143D01*
X204366667Y-87018762D01*
X204271429Y-87066381D01*
X203985714Y-87066381D01*
X203890476Y-87018762D01*
X203842857Y-86971143D01*
X203334953Y-84780381D02*
X202763524Y-84780381D01*
X203049238Y-84780381D02*
X203049238Y-83780381D01*
X202954000Y-83923238D01*
X202858762Y-84018476D01*
X202763524Y-84066095D01*
X203763524Y-84780381D02*
X203763524Y-83780381D01*
X203858762Y-84399429D02*
X204144477Y-84780381D01*
X204144477Y-84113714D02*
X203763524Y-84494667D01*
X189857143Y-87066381D02*
X189523809Y-86590190D01*
X189285714Y-87066381D02*
X189285714Y-86066381D01*
X189666667Y-86066381D01*
X189761905Y-86114000D01*
X189809524Y-86161619D01*
X189857143Y-86256857D01*
X189857143Y-86399714D01*
X189809524Y-86494952D01*
X189761905Y-86542571D01*
X189666667Y-86590190D01*
X189285714Y-86590190D01*
X190809524Y-87066381D02*
X190238095Y-87066381D01*
X190523809Y-87066381D02*
X190523809Y-86066381D01*
X190428571Y-86209238D01*
X190333333Y-86304476D01*
X190238095Y-86352095D01*
X191666667Y-86399714D02*
X191666667Y-87066381D01*
X191428571Y-86018762D02*
X191190476Y-86733048D01*
X191809524Y-86733048D01*
X189904762Y-84780381D02*
X189333333Y-84780381D01*
X189619047Y-84780381D02*
X189619047Y-83780381D01*
X189523809Y-83923238D01*
X189428571Y-84018476D01*
X189333333Y-84066095D01*
X190523809Y-83780381D02*
X190619048Y-83780381D01*
X190714286Y-83828000D01*
X190761905Y-83875619D01*
X190809524Y-83970857D01*
X190857143Y-84161333D01*
X190857143Y-84399429D01*
X190809524Y-84589905D01*
X190761905Y-84685143D01*
X190714286Y-84732762D01*
X190619048Y-84780381D01*
X190523809Y-84780381D01*
X190428571Y-84732762D01*
X190380952Y-84685143D01*
X190333333Y-84589905D01*
X190285714Y-84399429D01*
X190285714Y-84161333D01*
X190333333Y-83970857D01*
X190380952Y-83875619D01*
X190428571Y-83828000D01*
X190523809Y-83780381D01*
X191285714Y-84780381D02*
X191285714Y-83780381D01*
X191380952Y-84399429D02*
X191666667Y-84780381D01*
X191666667Y-84113714D02*
X191285714Y-84494667D01*
X213479143Y-59380381D02*
X213145809Y-58904190D01*
X212907714Y-59380381D02*
X212907714Y-58380381D01*
X213288667Y-58380381D01*
X213383905Y-58428000D01*
X213431524Y-58475619D01*
X213479143Y-58570857D01*
X213479143Y-58713714D01*
X213431524Y-58808952D01*
X213383905Y-58856571D01*
X213288667Y-58904190D01*
X212907714Y-58904190D01*
X214431524Y-59380381D02*
X213860095Y-59380381D01*
X214145809Y-59380381D02*
X214145809Y-58380381D01*
X214050571Y-58523238D01*
X213955333Y-58618476D01*
X213860095Y-58666095D01*
X215336286Y-58380381D02*
X214860095Y-58380381D01*
X214812476Y-58856571D01*
X214860095Y-58808952D01*
X214955333Y-58761333D01*
X215193429Y-58761333D01*
X215288667Y-58808952D01*
X215336286Y-58856571D01*
X215383905Y-58951810D01*
X215383905Y-59189905D01*
X215336286Y-59285143D01*
X215288667Y-59332762D01*
X215193429Y-59380381D01*
X214955333Y-59380381D01*
X214860095Y-59332762D01*
X214812476Y-59285143D01*
X220845238Y-58475619D02*
X220892857Y-58428000D01*
X220988095Y-58380381D01*
X221226191Y-58380381D01*
X221321429Y-58428000D01*
X221369048Y-58475619D01*
X221416667Y-58570857D01*
X221416667Y-58666095D01*
X221369048Y-58808952D01*
X220797619Y-59380381D01*
X221416667Y-59380381D01*
X221845238Y-59285143D02*
X221892857Y-59332762D01*
X221845238Y-59380381D01*
X221797619Y-59332762D01*
X221845238Y-59285143D01*
X221845238Y-59380381D01*
X222750000Y-58713714D02*
X222750000Y-59380381D01*
X222511904Y-58332762D02*
X222273809Y-59047048D01*
X222892857Y-59047048D01*
X223273809Y-59380381D02*
X223273809Y-58380381D01*
X223369047Y-58999429D02*
X223654762Y-59380381D01*
X223654762Y-58713714D02*
X223273809Y-59094667D01*
X212463143Y-64460381D02*
X212129809Y-63984190D01*
X211891714Y-64460381D02*
X211891714Y-63460381D01*
X212272667Y-63460381D01*
X212367905Y-63508000D01*
X212415524Y-63555619D01*
X212463143Y-63650857D01*
X212463143Y-63793714D01*
X212415524Y-63888952D01*
X212367905Y-63936571D01*
X212272667Y-63984190D01*
X211891714Y-63984190D01*
X213415524Y-64460381D02*
X212844095Y-64460381D01*
X213129809Y-64460381D02*
X213129809Y-63460381D01*
X213034571Y-63603238D01*
X212939333Y-63698476D01*
X212844095Y-63746095D01*
X214272667Y-63460381D02*
X214082190Y-63460381D01*
X213986952Y-63508000D01*
X213939333Y-63555619D01*
X213844095Y-63698476D01*
X213796476Y-63888952D01*
X213796476Y-64269905D01*
X213844095Y-64365143D01*
X213891714Y-64412762D01*
X213986952Y-64460381D01*
X214177429Y-64460381D01*
X214272667Y-64412762D01*
X214320286Y-64365143D01*
X214367905Y-64269905D01*
X214367905Y-64031810D01*
X214320286Y-63936571D01*
X214272667Y-63888952D01*
X214177429Y-63841333D01*
X213986952Y-63841333D01*
X213891714Y-63888952D01*
X213844095Y-63936571D01*
X213796476Y-64031810D01*
X219051334Y-62682381D02*
X218479905Y-62682381D01*
X218765619Y-62682381D02*
X218765619Y-61682381D01*
X218670381Y-61825238D01*
X218575143Y-61920476D01*
X218479905Y-61968095D01*
X219432286Y-61777619D02*
X219479905Y-61730000D01*
X219575143Y-61682381D01*
X219813239Y-61682381D01*
X219908477Y-61730000D01*
X219956096Y-61777619D01*
X220003715Y-61872857D01*
X220003715Y-61968095D01*
X219956096Y-62110952D01*
X219384667Y-62682381D01*
X220003715Y-62682381D01*
X220622762Y-61682381D02*
X220718001Y-61682381D01*
X220813239Y-61730000D01*
X220860858Y-61777619D01*
X220908477Y-61872857D01*
X220956096Y-62063333D01*
X220956096Y-62301429D01*
X220908477Y-62491905D01*
X220860858Y-62587143D01*
X220813239Y-62634762D01*
X220718001Y-62682381D01*
X220622762Y-62682381D01*
X220527524Y-62634762D01*
X220479905Y-62587143D01*
X220432286Y-62491905D01*
X220384667Y-62301429D01*
X220384667Y-62063333D01*
X220432286Y-61872857D01*
X220479905Y-61777619D01*
X220527524Y-61730000D01*
X220622762Y-61682381D01*
X221956096Y-62682381D02*
X221622762Y-62206190D01*
X221384667Y-62682381D02*
X221384667Y-61682381D01*
X221765620Y-61682381D01*
X221860858Y-61730000D01*
X221908477Y-61777619D01*
X221956096Y-61872857D01*
X221956096Y-62015714D01*
X221908477Y-62110952D01*
X221860858Y-62158571D01*
X221765620Y-62206190D01*
X221384667Y-62206190D01*
X181102095Y-68540381D02*
X181102095Y-69349905D01*
X181149714Y-69445143D01*
X181197333Y-69492762D01*
X181292571Y-69540381D01*
X181483048Y-69540381D01*
X181578286Y-69492762D01*
X181625905Y-69445143D01*
X181673524Y-69349905D01*
X181673524Y-68540381D01*
X182673524Y-69540381D02*
X182102095Y-69540381D01*
X182387809Y-69540381D02*
X182387809Y-68540381D01*
X182292571Y-68683238D01*
X182197333Y-68778476D01*
X182102095Y-68826095D01*
X179490952Y-82764381D02*
X180062381Y-82764381D01*
X179776666Y-83764381D02*
X179776666Y-82764381D01*
X180871905Y-83764381D02*
X180395714Y-83764381D01*
X180395714Y-82764381D01*
X181395714Y-82764381D02*
X181490953Y-82764381D01*
X181586191Y-82812000D01*
X181633810Y-82859619D01*
X181681429Y-82954857D01*
X181729048Y-83145333D01*
X181729048Y-83383429D01*
X181681429Y-83573905D01*
X181633810Y-83669143D01*
X181586191Y-83716762D01*
X181490953Y-83764381D01*
X181395714Y-83764381D01*
X181300476Y-83716762D01*
X181252857Y-83669143D01*
X181205238Y-83573905D01*
X181157619Y-83383429D01*
X181157619Y-83145333D01*
X181205238Y-82954857D01*
X181252857Y-82859619D01*
X181300476Y-82812000D01*
X181395714Y-82764381D01*
X182062381Y-82764381D02*
X182729048Y-82764381D01*
X182300476Y-83764381D01*
X183062381Y-82859619D02*
X183110000Y-82812000D01*
X183205238Y-82764381D01*
X183443334Y-82764381D01*
X183538572Y-82812000D01*
X183586191Y-82859619D01*
X183633810Y-82954857D01*
X183633810Y-83050095D01*
X183586191Y-83192952D01*
X183014762Y-83764381D01*
X183633810Y-83764381D01*
X163830095Y-77430381D02*
X163830095Y-78239905D01*
X163877714Y-78335143D01*
X163925333Y-78382762D01*
X164020571Y-78430381D01*
X164211048Y-78430381D01*
X164306286Y-78382762D01*
X164353905Y-78335143D01*
X164401524Y-78239905D01*
X164401524Y-77430381D01*
X164830095Y-77525619D02*
X164877714Y-77478000D01*
X164972952Y-77430381D01*
X165211048Y-77430381D01*
X165306286Y-77478000D01*
X165353905Y-77525619D01*
X165401524Y-77620857D01*
X165401524Y-77716095D01*
X165353905Y-77858952D01*
X164782476Y-78430381D01*
X165401524Y-78430381D01*
X163028381Y-84415048D02*
X163028381Y-83843619D01*
X164028381Y-84129334D02*
X163028381Y-84129334D01*
X164028381Y-83034095D02*
X164028381Y-83510286D01*
X163028381Y-83510286D01*
X163028381Y-82510286D02*
X163028381Y-82415047D01*
X163076000Y-82319809D01*
X163123619Y-82272190D01*
X163218857Y-82224571D01*
X163409333Y-82176952D01*
X163647429Y-82176952D01*
X163837905Y-82224571D01*
X163933143Y-82272190D01*
X163980762Y-82319809D01*
X164028381Y-82415047D01*
X164028381Y-82510286D01*
X163980762Y-82605524D01*
X163933143Y-82653143D01*
X163837905Y-82700762D01*
X163647429Y-82748381D01*
X163409333Y-82748381D01*
X163218857Y-82700762D01*
X163123619Y-82653143D01*
X163076000Y-82605524D01*
X163028381Y-82510286D01*
X163028381Y-81843619D02*
X163028381Y-81176952D01*
X164028381Y-81605524D01*
X164028381Y-80272190D02*
X164028381Y-80843619D01*
X164028381Y-80557905D02*
X163028381Y-80557905D01*
X163171238Y-80653143D01*
X163266476Y-80748381D01*
X163314095Y-80843619D01*
X164338095Y-60920381D02*
X164338095Y-61729905D01*
X164385714Y-61825143D01*
X164433333Y-61872762D01*
X164528571Y-61920381D01*
X164719048Y-61920381D01*
X164814286Y-61872762D01*
X164861905Y-61825143D01*
X164909524Y-61729905D01*
X164909524Y-60920381D01*
X165290476Y-60920381D02*
X165909524Y-60920381D01*
X165576190Y-61301333D01*
X165719048Y-61301333D01*
X165814286Y-61348952D01*
X165861905Y-61396571D01*
X165909524Y-61491810D01*
X165909524Y-61729905D01*
X165861905Y-61825143D01*
X165814286Y-61872762D01*
X165719048Y-61920381D01*
X165433333Y-61920381D01*
X165338095Y-61872762D01*
X165290476Y-61825143D01*
X164536381Y-69278095D02*
X163536381Y-69278095D01*
X164250667Y-68944761D01*
X163536381Y-68611428D01*
X164536381Y-68611428D01*
X164441143Y-67563809D02*
X164488762Y-67611428D01*
X164536381Y-67754285D01*
X164536381Y-67849523D01*
X164488762Y-67992381D01*
X164393524Y-68087619D01*
X164298286Y-68135238D01*
X164107810Y-68182857D01*
X163964952Y-68182857D01*
X163774476Y-68135238D01*
X163679238Y-68087619D01*
X163584000Y-67992381D01*
X163536381Y-67849523D01*
X163536381Y-67754285D01*
X163584000Y-67611428D01*
X163631619Y-67563809D01*
X164536381Y-67135238D02*
X163536381Y-67135238D01*
X163536381Y-66754285D01*
X163584000Y-66659047D01*
X163631619Y-66611428D01*
X163726857Y-66563809D01*
X163869714Y-66563809D01*
X163964952Y-66611428D01*
X164012571Y-66659047D01*
X164060190Y-66754285D01*
X164060190Y-67135238D01*
X163869714Y-65706666D02*
X164536381Y-65706666D01*
X163488762Y-65944762D02*
X164203048Y-66182857D01*
X164203048Y-65563809D01*
X164536381Y-65135238D02*
X164536381Y-64944762D01*
X164488762Y-64849523D01*
X164441143Y-64801904D01*
X164298286Y-64706666D01*
X164107810Y-64659047D01*
X163726857Y-64659047D01*
X163631619Y-64706666D01*
X163584000Y-64754285D01*
X163536381Y-64849523D01*
X163536381Y-65040000D01*
X163584000Y-65135238D01*
X163631619Y-65182857D01*
X163726857Y-65230476D01*
X163964952Y-65230476D01*
X164060190Y-65182857D01*
X164107810Y-65135238D01*
X164155429Y-65040000D01*
X164155429Y-64849523D01*
X164107810Y-64754285D01*
X164060190Y-64706666D01*
X163964952Y-64659047D01*
X163631619Y-64278095D02*
X163584000Y-64230476D01*
X163536381Y-64135238D01*
X163536381Y-63897142D01*
X163584000Y-63801904D01*
X163631619Y-63754285D01*
X163726857Y-63706666D01*
X163822095Y-63706666D01*
X163964952Y-63754285D01*
X164536381Y-64325714D01*
X164536381Y-63706666D01*
X164536381Y-62754285D02*
X164536381Y-63325714D01*
X164536381Y-63040000D02*
X163536381Y-63040000D01*
X163679238Y-63135238D01*
X163774476Y-63230476D01*
X163822095Y-63325714D01*
X215138095Y-69302381D02*
X215138095Y-70111905D01*
X215185714Y-70207143D01*
X215233333Y-70254762D01*
X215328571Y-70302381D01*
X215519048Y-70302381D01*
X215614286Y-70254762D01*
X215661905Y-70207143D01*
X215709524Y-70111905D01*
X215709524Y-69302381D01*
X216614286Y-69635714D02*
X216614286Y-70302381D01*
X216376190Y-69254762D02*
X216138095Y-69969048D01*
X216757143Y-69969048D01*
X220686572Y-70302381D02*
X220210381Y-70302381D01*
X220210381Y-69302381D01*
X221019905Y-70302381D02*
X221019905Y-69302381D01*
X221353239Y-70016667D01*
X221686572Y-69302381D01*
X221686572Y-70302381D01*
X222067524Y-69302381D02*
X222686572Y-69302381D01*
X222353238Y-69683333D01*
X222496096Y-69683333D01*
X222591334Y-69730952D01*
X222638953Y-69778571D01*
X222686572Y-69873810D01*
X222686572Y-70111905D01*
X222638953Y-70207143D01*
X222591334Y-70254762D01*
X222496096Y-70302381D01*
X222210381Y-70302381D01*
X222115143Y-70254762D01*
X222067524Y-70207143D01*
X223019905Y-69302381D02*
X223638953Y-69302381D01*
X223305619Y-69683333D01*
X223448477Y-69683333D01*
X223543715Y-69730952D01*
X223591334Y-69778571D01*
X223638953Y-69873810D01*
X223638953Y-70111905D01*
X223591334Y-70207143D01*
X223543715Y-70254762D01*
X223448477Y-70302381D01*
X223162762Y-70302381D01*
X223067524Y-70254762D01*
X223019905Y-70207143D01*
X223972286Y-69302381D02*
X224638953Y-69302381D01*
X224210381Y-70302381D01*
X224877048Y-69302381D02*
X225448477Y-69302381D01*
X225162762Y-70302381D02*
X225162762Y-69302381D01*
X205232095Y-64730381D02*
X205232095Y-65539905D01*
X205279714Y-65635143D01*
X205327333Y-65682762D01*
X205422571Y-65730381D01*
X205613048Y-65730381D01*
X205708286Y-65682762D01*
X205755905Y-65635143D01*
X205803524Y-65539905D01*
X205803524Y-64730381D01*
X206755905Y-64730381D02*
X206279714Y-64730381D01*
X206232095Y-65206571D01*
X206279714Y-65158952D01*
X206374952Y-65111333D01*
X206613048Y-65111333D01*
X206708286Y-65158952D01*
X206755905Y-65206571D01*
X206803524Y-65301810D01*
X206803524Y-65539905D01*
X206755905Y-65635143D01*
X206708286Y-65682762D01*
X206613048Y-65730381D01*
X206374952Y-65730381D01*
X206279714Y-65682762D01*
X206232095Y-65635143D01*
X207716381Y-73088095D02*
X206716381Y-73088095D01*
X207430667Y-72754761D01*
X206716381Y-72421428D01*
X207716381Y-72421428D01*
X207621143Y-71373809D02*
X207668762Y-71421428D01*
X207716381Y-71564285D01*
X207716381Y-71659523D01*
X207668762Y-71802381D01*
X207573524Y-71897619D01*
X207478286Y-71945238D01*
X207287810Y-71992857D01*
X207144952Y-71992857D01*
X206954476Y-71945238D01*
X206859238Y-71897619D01*
X206764000Y-71802381D01*
X206716381Y-71659523D01*
X206716381Y-71564285D01*
X206764000Y-71421428D01*
X206811619Y-71373809D01*
X207716381Y-70945238D02*
X206716381Y-70945238D01*
X206716381Y-70564285D01*
X206764000Y-70469047D01*
X206811619Y-70421428D01*
X206906857Y-70373809D01*
X207049714Y-70373809D01*
X207144952Y-70421428D01*
X207192571Y-70469047D01*
X207240190Y-70564285D01*
X207240190Y-70945238D01*
X206716381Y-70040476D02*
X206716381Y-69421428D01*
X207097333Y-69754762D01*
X207097333Y-69611904D01*
X207144952Y-69516666D01*
X207192571Y-69469047D01*
X207287810Y-69421428D01*
X207525905Y-69421428D01*
X207621143Y-69469047D01*
X207668762Y-69516666D01*
X207716381Y-69611904D01*
X207716381Y-69897619D01*
X207668762Y-69992857D01*
X207621143Y-70040476D01*
X206811619Y-69040476D02*
X206764000Y-68992857D01*
X206716381Y-68897619D01*
X206716381Y-68659523D01*
X206764000Y-68564285D01*
X206811619Y-68516666D01*
X206906857Y-68469047D01*
X207002095Y-68469047D01*
X207144952Y-68516666D01*
X207716381Y-69088095D01*
X207716381Y-68469047D01*
X206716381Y-67850000D02*
X206716381Y-67754761D01*
X206764000Y-67659523D01*
X206811619Y-67611904D01*
X206906857Y-67564285D01*
X207097333Y-67516666D01*
X207335429Y-67516666D01*
X207525905Y-67564285D01*
X207621143Y-67611904D01*
X207668762Y-67659523D01*
X207716381Y-67754761D01*
X207716381Y-67850000D01*
X207668762Y-67945238D01*
X207621143Y-67992857D01*
X207525905Y-68040476D01*
X207335429Y-68088095D01*
X207097333Y-68088095D01*
X206906857Y-68040476D01*
X206811619Y-67992857D01*
X206764000Y-67945238D01*
X206716381Y-67850000D01*
X206811619Y-67135714D02*
X206764000Y-67088095D01*
X206716381Y-66992857D01*
X206716381Y-66754761D01*
X206764000Y-66659523D01*
X206811619Y-66611904D01*
X206906857Y-66564285D01*
X207002095Y-66564285D01*
X207144952Y-66611904D01*
X207716381Y-67183333D01*
X207716381Y-66564285D01*
X229957334Y-80367143D02*
X229909715Y-80414762D01*
X229766858Y-80462381D01*
X229671620Y-80462381D01*
X229528762Y-80414762D01*
X229433524Y-80319524D01*
X229385905Y-80224286D01*
X229338286Y-80033810D01*
X229338286Y-79890952D01*
X229385905Y-79700476D01*
X229433524Y-79605238D01*
X229528762Y-79510000D01*
X229671620Y-79462381D01*
X229766858Y-79462381D01*
X229909715Y-79510000D01*
X229957334Y-79557619D01*
X230814477Y-79795714D02*
X230814477Y-80462381D01*
X230576381Y-79414762D02*
X230338286Y-80129048D01*
X230957334Y-80129048D01*
X230576381Y-71223047D02*
X230576381Y-71794476D01*
X230576381Y-71508762D02*
X229576381Y-71508762D01*
X229719238Y-71604000D01*
X229814476Y-71699238D01*
X229862095Y-71794476D01*
X229576381Y-70604000D02*
X229576381Y-70508761D01*
X229624000Y-70413523D01*
X229671619Y-70365904D01*
X229766857Y-70318285D01*
X229957333Y-70270666D01*
X230195429Y-70270666D01*
X230385905Y-70318285D01*
X230481143Y-70365904D01*
X230528762Y-70413523D01*
X230576381Y-70508761D01*
X230576381Y-70604000D01*
X230528762Y-70699238D01*
X230481143Y-70746857D01*
X230385905Y-70794476D01*
X230195429Y-70842095D01*
X229957333Y-70842095D01*
X229766857Y-70794476D01*
X229671619Y-70746857D01*
X229624000Y-70699238D01*
X229576381Y-70604000D01*
X229576381Y-69651619D02*
X229576381Y-69556380D01*
X229624000Y-69461142D01*
X229671619Y-69413523D01*
X229766857Y-69365904D01*
X229957333Y-69318285D01*
X230195429Y-69318285D01*
X230385905Y-69365904D01*
X230481143Y-69413523D01*
X230528762Y-69461142D01*
X230576381Y-69556380D01*
X230576381Y-69651619D01*
X230528762Y-69746857D01*
X230481143Y-69794476D01*
X230385905Y-69842095D01*
X230195429Y-69889714D01*
X229957333Y-69889714D01*
X229766857Y-69842095D01*
X229671619Y-69794476D01*
X229624000Y-69746857D01*
X229576381Y-69651619D01*
X229909714Y-68889714D02*
X230576381Y-68889714D01*
X230004952Y-68889714D02*
X229957333Y-68842095D01*
X229909714Y-68746857D01*
X229909714Y-68603999D01*
X229957333Y-68508761D01*
X230052571Y-68461142D01*
X230576381Y-68461142D01*
X245451334Y-49379143D02*
X245403715Y-49426762D01*
X245260858Y-49474381D01*
X245165620Y-49474381D01*
X245022762Y-49426762D01*
X244927524Y-49331524D01*
X244879905Y-49236286D01*
X244832286Y-49045810D01*
X244832286Y-48902952D01*
X244879905Y-48712476D01*
X244927524Y-48617238D01*
X245022762Y-48522000D01*
X245165620Y-48474381D01*
X245260858Y-48474381D01*
X245403715Y-48522000D01*
X245451334Y-48569619D01*
X246356096Y-48474381D02*
X245879905Y-48474381D01*
X245832286Y-48950571D01*
X245879905Y-48902952D01*
X245975143Y-48855333D01*
X246213239Y-48855333D01*
X246308477Y-48902952D01*
X246356096Y-48950571D01*
X246403715Y-49045810D01*
X246403715Y-49283905D01*
X246356096Y-49379143D01*
X246308477Y-49426762D01*
X246213239Y-49474381D01*
X245975143Y-49474381D01*
X245879905Y-49426762D01*
X245832286Y-49379143D01*
X248102381Y-59031047D02*
X248102381Y-59602476D01*
X248102381Y-59316762D02*
X247102381Y-59316762D01*
X247245238Y-59412000D01*
X247340476Y-59507238D01*
X247388095Y-59602476D01*
X247102381Y-58412000D02*
X247102381Y-58316761D01*
X247150000Y-58221523D01*
X247197619Y-58173904D01*
X247292857Y-58126285D01*
X247483333Y-58078666D01*
X247721429Y-58078666D01*
X247911905Y-58126285D01*
X248007143Y-58173904D01*
X248054762Y-58221523D01*
X248102381Y-58316761D01*
X248102381Y-58412000D01*
X248054762Y-58507238D01*
X248007143Y-58554857D01*
X247911905Y-58602476D01*
X247721429Y-58650095D01*
X247483333Y-58650095D01*
X247292857Y-58602476D01*
X247197619Y-58554857D01*
X247150000Y-58507238D01*
X247102381Y-58412000D01*
X247102381Y-57459619D02*
X247102381Y-57364380D01*
X247150000Y-57269142D01*
X247197619Y-57221523D01*
X247292857Y-57173904D01*
X247483333Y-57126285D01*
X247721429Y-57126285D01*
X247911905Y-57173904D01*
X248007143Y-57221523D01*
X248054762Y-57269142D01*
X248102381Y-57364380D01*
X248102381Y-57459619D01*
X248054762Y-57554857D01*
X248007143Y-57602476D01*
X247911905Y-57650095D01*
X247721429Y-57697714D01*
X247483333Y-57697714D01*
X247292857Y-57650095D01*
X247197619Y-57602476D01*
X247150000Y-57554857D01*
X247102381Y-57459619D01*
X247435714Y-56697714D02*
X248102381Y-56697714D01*
X247530952Y-56697714D02*
X247483333Y-56650095D01*
X247435714Y-56554857D01*
X247435714Y-56411999D01*
X247483333Y-56316761D01*
X247578571Y-56269142D01*
X248102381Y-56269142D01*
M02*
