G04 #@! TF.FileFunction,Other,Fab,Top*
%FSLAX46Y46*%
G04 Gerber Fmt 4.6, Leading zero omitted, Abs format (unit mm)*
G04 Created by KiCad (PCBNEW 4.0.2+dfsg1-stable) date dim. 24 juil. 2016 14:49:54 CEST*
%MOMM*%
G01*
G04 APERTURE LIST*
%ADD10C,0.100000*%
%ADD11C,0.150000*%
G04 APERTURE END LIST*
D10*
D11*
X234894667Y-106386381D02*
X234704190Y-106386381D01*
X234608952Y-106434000D01*
X234561333Y-106481619D01*
X234466095Y-106624476D01*
X234418476Y-106814952D01*
X234418476Y-107195905D01*
X234466095Y-107291143D01*
X234513714Y-107338762D01*
X234608952Y-107386381D01*
X234799429Y-107386381D01*
X234894667Y-107338762D01*
X234942286Y-107291143D01*
X234989905Y-107195905D01*
X234989905Y-106957810D01*
X234942286Y-106862571D01*
X234894667Y-106814952D01*
X234799429Y-106767333D01*
X234608952Y-106767333D01*
X234513714Y-106814952D01*
X234466095Y-106862571D01*
X234418476Y-106957810D01*
X235418476Y-107291143D02*
X235466095Y-107338762D01*
X235418476Y-107386381D01*
X235370857Y-107338762D01*
X235418476Y-107291143D01*
X235418476Y-107386381D01*
X235799428Y-106386381D02*
X236418476Y-106386381D01*
X236085142Y-106767333D01*
X236228000Y-106767333D01*
X236323238Y-106814952D01*
X236370857Y-106862571D01*
X236418476Y-106957810D01*
X236418476Y-107195905D01*
X236370857Y-107291143D01*
X236323238Y-107338762D01*
X236228000Y-107386381D01*
X235942285Y-107386381D01*
X235847047Y-107338762D01*
X235799428Y-107291143D01*
X236608952Y-107481619D02*
X237370857Y-107481619D01*
X237561333Y-107100667D02*
X238037524Y-107100667D01*
X237466095Y-107386381D02*
X237799428Y-106386381D01*
X238132762Y-107386381D01*
X239037524Y-107291143D02*
X238989905Y-107338762D01*
X238847048Y-107386381D01*
X238751810Y-107386381D01*
X238608952Y-107338762D01*
X238513714Y-107243524D01*
X238466095Y-107148286D01*
X238418476Y-106957810D01*
X238418476Y-106814952D01*
X238466095Y-106624476D01*
X238513714Y-106529238D01*
X238608952Y-106434000D01*
X238751810Y-106386381D01*
X238847048Y-106386381D01*
X238989905Y-106434000D01*
X239037524Y-106481619D01*
X193682953Y-95194381D02*
X193111524Y-95194381D01*
X193397238Y-95194381D02*
X193397238Y-94194381D01*
X193302000Y-94337238D01*
X193206762Y-94432476D01*
X193111524Y-94480095D01*
X194111524Y-95194381D02*
X194111524Y-94194381D01*
X194206762Y-94813429D02*
X194492477Y-95194381D01*
X194492477Y-94527714D02*
X194111524Y-94908667D01*
X179014381Y-78589047D02*
X179014381Y-79160476D01*
X179014381Y-78874762D02*
X178014381Y-78874762D01*
X178157238Y-78970000D01*
X178252476Y-79065238D01*
X178300095Y-79160476D01*
X178014381Y-77970000D02*
X178014381Y-77874761D01*
X178062000Y-77779523D01*
X178109619Y-77731904D01*
X178204857Y-77684285D01*
X178395333Y-77636666D01*
X178633429Y-77636666D01*
X178823905Y-77684285D01*
X178919143Y-77731904D01*
X178966762Y-77779523D01*
X179014381Y-77874761D01*
X179014381Y-77970000D01*
X178966762Y-78065238D01*
X178919143Y-78112857D01*
X178823905Y-78160476D01*
X178633429Y-78208095D01*
X178395333Y-78208095D01*
X178204857Y-78160476D01*
X178109619Y-78112857D01*
X178062000Y-78065238D01*
X178014381Y-77970000D01*
X178014381Y-77017619D02*
X178014381Y-76922380D01*
X178062000Y-76827142D01*
X178109619Y-76779523D01*
X178204857Y-76731904D01*
X178395333Y-76684285D01*
X178633429Y-76684285D01*
X178823905Y-76731904D01*
X178919143Y-76779523D01*
X178966762Y-76827142D01*
X179014381Y-76922380D01*
X179014381Y-77017619D01*
X178966762Y-77112857D01*
X178919143Y-77160476D01*
X178823905Y-77208095D01*
X178633429Y-77255714D01*
X178395333Y-77255714D01*
X178204857Y-77208095D01*
X178109619Y-77160476D01*
X178062000Y-77112857D01*
X178014381Y-77017619D01*
X178347714Y-76255714D02*
X179014381Y-76255714D01*
X178442952Y-76255714D02*
X178395333Y-76208095D01*
X178347714Y-76112857D01*
X178347714Y-75969999D01*
X178395333Y-75874761D01*
X178490571Y-75827142D01*
X179014381Y-75827142D01*
X252071143Y-89495047D02*
X252118762Y-89542666D01*
X252166381Y-89685523D01*
X252166381Y-89780761D01*
X252118762Y-89923619D01*
X252023524Y-90018857D01*
X251928286Y-90066476D01*
X251737810Y-90114095D01*
X251594952Y-90114095D01*
X251404476Y-90066476D01*
X251309238Y-90018857D01*
X251214000Y-89923619D01*
X251166381Y-89780761D01*
X251166381Y-89685523D01*
X251214000Y-89542666D01*
X251261619Y-89495047D01*
X251166381Y-88876000D02*
X251166381Y-88685523D01*
X251214000Y-88590285D01*
X251309238Y-88495047D01*
X251499714Y-88447428D01*
X251833048Y-88447428D01*
X252023524Y-88495047D01*
X252118762Y-88590285D01*
X252166381Y-88685523D01*
X252166381Y-88876000D01*
X252118762Y-88971238D01*
X252023524Y-89066476D01*
X251833048Y-89114095D01*
X251499714Y-89114095D01*
X251309238Y-89066476D01*
X251214000Y-88971238D01*
X251166381Y-88876000D01*
X252166381Y-88018857D02*
X251166381Y-88018857D01*
X252166381Y-87447428D01*
X251166381Y-87447428D01*
X252166381Y-86971238D02*
X251166381Y-86971238D01*
X252166381Y-86399809D01*
X251166381Y-86399809D01*
X252261619Y-86161714D02*
X252261619Y-85399809D01*
X251166381Y-85256952D02*
X251166381Y-84637904D01*
X251547333Y-84971238D01*
X251547333Y-84828380D01*
X251594952Y-84733142D01*
X251642571Y-84685523D01*
X251737810Y-84637904D01*
X251975905Y-84637904D01*
X252071143Y-84685523D01*
X252118762Y-84733142D01*
X252166381Y-84828380D01*
X252166381Y-85114095D01*
X252118762Y-85209333D01*
X252071143Y-85256952D01*
X217575334Y-107082381D02*
X217003905Y-107082381D01*
X217289619Y-107082381D02*
X217289619Y-106082381D01*
X217194381Y-106225238D01*
X217099143Y-106320476D01*
X217003905Y-106368095D01*
X218194381Y-106082381D02*
X218289620Y-106082381D01*
X218384858Y-106130000D01*
X218432477Y-106177619D01*
X218480096Y-106272857D01*
X218527715Y-106463333D01*
X218527715Y-106701429D01*
X218480096Y-106891905D01*
X218432477Y-106987143D01*
X218384858Y-107034762D01*
X218289620Y-107082381D01*
X218194381Y-107082381D01*
X218099143Y-107034762D01*
X218051524Y-106987143D01*
X218003905Y-106891905D01*
X217956286Y-106701429D01*
X217956286Y-106463333D01*
X218003905Y-106272857D01*
X218051524Y-106177619D01*
X218099143Y-106130000D01*
X218194381Y-106082381D01*
X219146762Y-106082381D02*
X219242001Y-106082381D01*
X219337239Y-106130000D01*
X219384858Y-106177619D01*
X219432477Y-106272857D01*
X219480096Y-106463333D01*
X219480096Y-106701429D01*
X219432477Y-106891905D01*
X219384858Y-106987143D01*
X219337239Y-107034762D01*
X219242001Y-107082381D01*
X219146762Y-107082381D01*
X219051524Y-107034762D01*
X219003905Y-106987143D01*
X218956286Y-106891905D01*
X218908667Y-106701429D01*
X218908667Y-106463333D01*
X218956286Y-106272857D01*
X219003905Y-106177619D01*
X219051524Y-106130000D01*
X219146762Y-106082381D01*
X220099143Y-106082381D02*
X220194382Y-106082381D01*
X220289620Y-106130000D01*
X220337239Y-106177619D01*
X220384858Y-106272857D01*
X220432477Y-106463333D01*
X220432477Y-106701429D01*
X220384858Y-106891905D01*
X220337239Y-106987143D01*
X220289620Y-107034762D01*
X220194382Y-107082381D01*
X220099143Y-107082381D01*
X220003905Y-107034762D01*
X219956286Y-106987143D01*
X219908667Y-106891905D01*
X219861048Y-106701429D01*
X219861048Y-106463333D01*
X219908667Y-106272857D01*
X219956286Y-106177619D01*
X220003905Y-106130000D01*
X220099143Y-106082381D01*
X220861048Y-106415714D02*
X220861048Y-107415714D01*
X221337239Y-106939524D02*
X221384858Y-107034762D01*
X221480096Y-107082381D01*
X220861048Y-106939524D02*
X220908667Y-107034762D01*
X221003905Y-107082381D01*
X221194382Y-107082381D01*
X221289620Y-107034762D01*
X221337239Y-106939524D01*
X221337239Y-106415714D01*
X175838953Y-92400381D02*
X175267524Y-92400381D01*
X175553238Y-92400381D02*
X175553238Y-91400381D01*
X175458000Y-91543238D01*
X175362762Y-91638476D01*
X175267524Y-91686095D01*
X176458000Y-91400381D02*
X176553239Y-91400381D01*
X176648477Y-91448000D01*
X176696096Y-91495619D01*
X176743715Y-91590857D01*
X176791334Y-91781333D01*
X176791334Y-92019429D01*
X176743715Y-92209905D01*
X176696096Y-92305143D01*
X176648477Y-92352762D01*
X176553239Y-92400381D01*
X176458000Y-92400381D01*
X176362762Y-92352762D01*
X176315143Y-92305143D01*
X176267524Y-92209905D01*
X176219905Y-92019429D01*
X176219905Y-91781333D01*
X176267524Y-91590857D01*
X176315143Y-91495619D01*
X176362762Y-91448000D01*
X176458000Y-91400381D01*
X177410381Y-91400381D02*
X177505620Y-91400381D01*
X177600858Y-91448000D01*
X177648477Y-91495619D01*
X177696096Y-91590857D01*
X177743715Y-91781333D01*
X177743715Y-92019429D01*
X177696096Y-92209905D01*
X177648477Y-92305143D01*
X177600858Y-92352762D01*
X177505620Y-92400381D01*
X177410381Y-92400381D01*
X177315143Y-92352762D01*
X177267524Y-92305143D01*
X177219905Y-92209905D01*
X177172286Y-92019429D01*
X177172286Y-91781333D01*
X177219905Y-91590857D01*
X177267524Y-91495619D01*
X177315143Y-91448000D01*
X177410381Y-91400381D01*
X178172286Y-91733714D02*
X178172286Y-92400381D01*
X178172286Y-91828952D02*
X178219905Y-91781333D01*
X178315143Y-91733714D01*
X178458001Y-91733714D01*
X178553239Y-91781333D01*
X178600858Y-91876571D01*
X178600858Y-92400381D01*
X163472953Y-93416381D02*
X162901524Y-93416381D01*
X163187238Y-93416381D02*
X163187238Y-92416381D01*
X163092000Y-92559238D01*
X162996762Y-92654476D01*
X162901524Y-92702095D01*
X164092000Y-92416381D02*
X164187239Y-92416381D01*
X164282477Y-92464000D01*
X164330096Y-92511619D01*
X164377715Y-92606857D01*
X164425334Y-92797333D01*
X164425334Y-93035429D01*
X164377715Y-93225905D01*
X164330096Y-93321143D01*
X164282477Y-93368762D01*
X164187239Y-93416381D01*
X164092000Y-93416381D01*
X163996762Y-93368762D01*
X163949143Y-93321143D01*
X163901524Y-93225905D01*
X163853905Y-93035429D01*
X163853905Y-92797333D01*
X163901524Y-92606857D01*
X163949143Y-92511619D01*
X163996762Y-92464000D01*
X164092000Y-92416381D01*
X165044381Y-92416381D02*
X165139620Y-92416381D01*
X165234858Y-92464000D01*
X165282477Y-92511619D01*
X165330096Y-92606857D01*
X165377715Y-92797333D01*
X165377715Y-93035429D01*
X165330096Y-93225905D01*
X165282477Y-93321143D01*
X165234858Y-93368762D01*
X165139620Y-93416381D01*
X165044381Y-93416381D01*
X164949143Y-93368762D01*
X164901524Y-93321143D01*
X164853905Y-93225905D01*
X164806286Y-93035429D01*
X164806286Y-92797333D01*
X164853905Y-92606857D01*
X164901524Y-92511619D01*
X164949143Y-92464000D01*
X165044381Y-92416381D01*
X165806286Y-92749714D02*
X165806286Y-93416381D01*
X165806286Y-92844952D02*
X165853905Y-92797333D01*
X165949143Y-92749714D01*
X166092001Y-92749714D01*
X166187239Y-92797333D01*
X166234858Y-92892571D01*
X166234858Y-93416381D01*
X213649619Y-54359905D02*
X213602000Y-54312286D01*
X213554381Y-54217048D01*
X213554381Y-53978952D01*
X213602000Y-53883714D01*
X213649619Y-53836095D01*
X213744857Y-53788476D01*
X213840095Y-53788476D01*
X213982952Y-53836095D01*
X214554381Y-54407524D01*
X214554381Y-53788476D01*
X213649619Y-53407524D02*
X213602000Y-53359905D01*
X213554381Y-53264667D01*
X213554381Y-53026571D01*
X213602000Y-52931333D01*
X213649619Y-52883714D01*
X213744857Y-52836095D01*
X213840095Y-52836095D01*
X213982952Y-52883714D01*
X214554381Y-53455143D01*
X214554381Y-52836095D01*
X213554381Y-52217048D02*
X213554381Y-52121809D01*
X213602000Y-52026571D01*
X213649619Y-51978952D01*
X213744857Y-51931333D01*
X213935333Y-51883714D01*
X214173429Y-51883714D01*
X214363905Y-51931333D01*
X214459143Y-51978952D01*
X214506762Y-52026571D01*
X214554381Y-52121809D01*
X214554381Y-52217048D01*
X214506762Y-52312286D01*
X214459143Y-52359905D01*
X214363905Y-52407524D01*
X214173429Y-52455143D01*
X213935333Y-52455143D01*
X213744857Y-52407524D01*
X213649619Y-52359905D01*
X213602000Y-52312286D01*
X213554381Y-52217048D01*
X213887714Y-51455143D02*
X214887714Y-51455143D01*
X214411524Y-50978952D02*
X214506762Y-50931333D01*
X214554381Y-50836095D01*
X214411524Y-51455143D02*
X214506762Y-51407524D01*
X214554381Y-51312286D01*
X214554381Y-51121809D01*
X214506762Y-51026571D01*
X214411524Y-50978952D01*
X213887714Y-50978952D01*
X204840381Y-61662476D02*
X204840381Y-62233905D01*
X204840381Y-61948191D02*
X203840381Y-61948191D01*
X203983238Y-62043429D01*
X204078476Y-62138667D01*
X204126095Y-62233905D01*
X203840381Y-61043429D02*
X203840381Y-60948190D01*
X203888000Y-60852952D01*
X203935619Y-60805333D01*
X204030857Y-60757714D01*
X204221333Y-60710095D01*
X204459429Y-60710095D01*
X204649905Y-60757714D01*
X204745143Y-60805333D01*
X204792762Y-60852952D01*
X204840381Y-60948190D01*
X204840381Y-61043429D01*
X204792762Y-61138667D01*
X204745143Y-61186286D01*
X204649905Y-61233905D01*
X204459429Y-61281524D01*
X204221333Y-61281524D01*
X204030857Y-61233905D01*
X203935619Y-61186286D01*
X203888000Y-61138667D01*
X203840381Y-61043429D01*
X203840381Y-60091048D02*
X203840381Y-59995809D01*
X203888000Y-59900571D01*
X203935619Y-59852952D01*
X204030857Y-59805333D01*
X204221333Y-59757714D01*
X204459429Y-59757714D01*
X204649905Y-59805333D01*
X204745143Y-59852952D01*
X204792762Y-59900571D01*
X204840381Y-59995809D01*
X204840381Y-60091048D01*
X204792762Y-60186286D01*
X204745143Y-60233905D01*
X204649905Y-60281524D01*
X204459429Y-60329143D01*
X204221333Y-60329143D01*
X204030857Y-60281524D01*
X203935619Y-60233905D01*
X203888000Y-60186286D01*
X203840381Y-60091048D01*
X204173714Y-59329143D02*
X205173714Y-59329143D01*
X204697524Y-58852952D02*
X204792762Y-58805333D01*
X204840381Y-58710095D01*
X204697524Y-59329143D02*
X204792762Y-59281524D01*
X204840381Y-59186286D01*
X204840381Y-58995809D01*
X204792762Y-58900571D01*
X204697524Y-58852952D01*
X204173714Y-58852952D01*
X175918953Y-89860381D02*
X175347524Y-89860381D01*
X175633238Y-89860381D02*
X175633238Y-88860381D01*
X175538000Y-89003238D01*
X175442762Y-89098476D01*
X175347524Y-89146095D01*
X176538000Y-88860381D02*
X176633239Y-88860381D01*
X176728477Y-88908000D01*
X176776096Y-88955619D01*
X176823715Y-89050857D01*
X176871334Y-89241333D01*
X176871334Y-89479429D01*
X176823715Y-89669905D01*
X176776096Y-89765143D01*
X176728477Y-89812762D01*
X176633239Y-89860381D01*
X176538000Y-89860381D01*
X176442762Y-89812762D01*
X176395143Y-89765143D01*
X176347524Y-89669905D01*
X176299905Y-89479429D01*
X176299905Y-89241333D01*
X176347524Y-89050857D01*
X176395143Y-88955619D01*
X176442762Y-88908000D01*
X176538000Y-88860381D01*
X177490381Y-88860381D02*
X177585620Y-88860381D01*
X177680858Y-88908000D01*
X177728477Y-88955619D01*
X177776096Y-89050857D01*
X177823715Y-89241333D01*
X177823715Y-89479429D01*
X177776096Y-89669905D01*
X177728477Y-89765143D01*
X177680858Y-89812762D01*
X177585620Y-89860381D01*
X177490381Y-89860381D01*
X177395143Y-89812762D01*
X177347524Y-89765143D01*
X177299905Y-89669905D01*
X177252286Y-89479429D01*
X177252286Y-89241333D01*
X177299905Y-89050857D01*
X177347524Y-88955619D01*
X177395143Y-88908000D01*
X177490381Y-88860381D01*
X178252286Y-89193714D02*
X178252286Y-89860381D01*
X178252286Y-89288952D02*
X178299905Y-89241333D01*
X178395143Y-89193714D01*
X178538001Y-89193714D01*
X178633239Y-89241333D01*
X178680858Y-89336571D01*
X178680858Y-89860381D01*
X165798953Y-76144381D02*
X165227524Y-76144381D01*
X165513238Y-76144381D02*
X165513238Y-75144381D01*
X165418000Y-75287238D01*
X165322762Y-75382476D01*
X165227524Y-75430095D01*
X166418000Y-75144381D02*
X166513239Y-75144381D01*
X166608477Y-75192000D01*
X166656096Y-75239619D01*
X166703715Y-75334857D01*
X166751334Y-75525333D01*
X166751334Y-75763429D01*
X166703715Y-75953905D01*
X166656096Y-76049143D01*
X166608477Y-76096762D01*
X166513239Y-76144381D01*
X166418000Y-76144381D01*
X166322762Y-76096762D01*
X166275143Y-76049143D01*
X166227524Y-75953905D01*
X166179905Y-75763429D01*
X166179905Y-75525333D01*
X166227524Y-75334857D01*
X166275143Y-75239619D01*
X166322762Y-75192000D01*
X166418000Y-75144381D01*
X167370381Y-75144381D02*
X167465620Y-75144381D01*
X167560858Y-75192000D01*
X167608477Y-75239619D01*
X167656096Y-75334857D01*
X167703715Y-75525333D01*
X167703715Y-75763429D01*
X167656096Y-75953905D01*
X167608477Y-76049143D01*
X167560858Y-76096762D01*
X167465620Y-76144381D01*
X167370381Y-76144381D01*
X167275143Y-76096762D01*
X167227524Y-76049143D01*
X167179905Y-75953905D01*
X167132286Y-75763429D01*
X167132286Y-75525333D01*
X167179905Y-75334857D01*
X167227524Y-75239619D01*
X167275143Y-75192000D01*
X167370381Y-75144381D01*
X168132286Y-75477714D02*
X168132286Y-76144381D01*
X168132286Y-75572952D02*
X168179905Y-75525333D01*
X168275143Y-75477714D01*
X168418001Y-75477714D01*
X168513239Y-75525333D01*
X168560858Y-75620571D01*
X168560858Y-76144381D01*
X164028381Y-67373047D02*
X164028381Y-67944476D01*
X164028381Y-67658762D02*
X163028381Y-67658762D01*
X163171238Y-67754000D01*
X163266476Y-67849238D01*
X163314095Y-67944476D01*
X163028381Y-66754000D02*
X163028381Y-66658761D01*
X163076000Y-66563523D01*
X163123619Y-66515904D01*
X163218857Y-66468285D01*
X163409333Y-66420666D01*
X163647429Y-66420666D01*
X163837905Y-66468285D01*
X163933143Y-66515904D01*
X163980762Y-66563523D01*
X164028381Y-66658761D01*
X164028381Y-66754000D01*
X163980762Y-66849238D01*
X163933143Y-66896857D01*
X163837905Y-66944476D01*
X163647429Y-66992095D01*
X163409333Y-66992095D01*
X163218857Y-66944476D01*
X163123619Y-66896857D01*
X163076000Y-66849238D01*
X163028381Y-66754000D01*
X163028381Y-65801619D02*
X163028381Y-65706380D01*
X163076000Y-65611142D01*
X163123619Y-65563523D01*
X163218857Y-65515904D01*
X163409333Y-65468285D01*
X163647429Y-65468285D01*
X163837905Y-65515904D01*
X163933143Y-65563523D01*
X163980762Y-65611142D01*
X164028381Y-65706380D01*
X164028381Y-65801619D01*
X163980762Y-65896857D01*
X163933143Y-65944476D01*
X163837905Y-65992095D01*
X163647429Y-66039714D01*
X163409333Y-66039714D01*
X163218857Y-65992095D01*
X163123619Y-65944476D01*
X163076000Y-65896857D01*
X163028381Y-65801619D01*
X163361714Y-65039714D02*
X164028381Y-65039714D01*
X163456952Y-65039714D02*
X163409333Y-64992095D01*
X163361714Y-64896857D01*
X163361714Y-64753999D01*
X163409333Y-64658761D01*
X163504571Y-64611142D01*
X164028381Y-64611142D01*
X192984381Y-69953047D02*
X192984381Y-70524476D01*
X192984381Y-70238762D02*
X191984381Y-70238762D01*
X192127238Y-70334000D01*
X192222476Y-70429238D01*
X192270095Y-70524476D01*
X191984381Y-69334000D02*
X191984381Y-69238761D01*
X192032000Y-69143523D01*
X192079619Y-69095904D01*
X192174857Y-69048285D01*
X192365333Y-69000666D01*
X192603429Y-69000666D01*
X192793905Y-69048285D01*
X192889143Y-69095904D01*
X192936762Y-69143523D01*
X192984381Y-69238761D01*
X192984381Y-69334000D01*
X192936762Y-69429238D01*
X192889143Y-69476857D01*
X192793905Y-69524476D01*
X192603429Y-69572095D01*
X192365333Y-69572095D01*
X192174857Y-69524476D01*
X192079619Y-69476857D01*
X192032000Y-69429238D01*
X191984381Y-69334000D01*
X191984381Y-68381619D02*
X191984381Y-68286380D01*
X192032000Y-68191142D01*
X192079619Y-68143523D01*
X192174857Y-68095904D01*
X192365333Y-68048285D01*
X192603429Y-68048285D01*
X192793905Y-68095904D01*
X192889143Y-68143523D01*
X192936762Y-68191142D01*
X192984381Y-68286380D01*
X192984381Y-68381619D01*
X192936762Y-68476857D01*
X192889143Y-68524476D01*
X192793905Y-68572095D01*
X192603429Y-68619714D01*
X192365333Y-68619714D01*
X192174857Y-68572095D01*
X192079619Y-68524476D01*
X192032000Y-68476857D01*
X191984381Y-68381619D01*
X192317714Y-67619714D02*
X192984381Y-67619714D01*
X192412952Y-67619714D02*
X192365333Y-67572095D01*
X192317714Y-67476857D01*
X192317714Y-67333999D01*
X192365333Y-67238761D01*
X192460571Y-67191142D01*
X192984381Y-67191142D01*
X185610953Y-69032381D02*
X185039524Y-69032381D01*
X185325238Y-69032381D02*
X185325238Y-68032381D01*
X185230000Y-68175238D01*
X185134762Y-68270476D01*
X185039524Y-68318095D01*
X186230000Y-68032381D02*
X186325239Y-68032381D01*
X186420477Y-68080000D01*
X186468096Y-68127619D01*
X186515715Y-68222857D01*
X186563334Y-68413333D01*
X186563334Y-68651429D01*
X186515715Y-68841905D01*
X186468096Y-68937143D01*
X186420477Y-68984762D01*
X186325239Y-69032381D01*
X186230000Y-69032381D01*
X186134762Y-68984762D01*
X186087143Y-68937143D01*
X186039524Y-68841905D01*
X185991905Y-68651429D01*
X185991905Y-68413333D01*
X186039524Y-68222857D01*
X186087143Y-68127619D01*
X186134762Y-68080000D01*
X186230000Y-68032381D01*
X187182381Y-68032381D02*
X187277620Y-68032381D01*
X187372858Y-68080000D01*
X187420477Y-68127619D01*
X187468096Y-68222857D01*
X187515715Y-68413333D01*
X187515715Y-68651429D01*
X187468096Y-68841905D01*
X187420477Y-68937143D01*
X187372858Y-68984762D01*
X187277620Y-69032381D01*
X187182381Y-69032381D01*
X187087143Y-68984762D01*
X187039524Y-68937143D01*
X186991905Y-68841905D01*
X186944286Y-68651429D01*
X186944286Y-68413333D01*
X186991905Y-68222857D01*
X187039524Y-68127619D01*
X187087143Y-68080000D01*
X187182381Y-68032381D01*
X187944286Y-68365714D02*
X187944286Y-69032381D01*
X187944286Y-68460952D02*
X187991905Y-68413333D01*
X188087143Y-68365714D01*
X188230001Y-68365714D01*
X188325239Y-68413333D01*
X188372858Y-68508571D01*
X188372858Y-69032381D01*
X203974381Y-80350952D02*
X204688667Y-80350952D01*
X204831524Y-80398572D01*
X204926762Y-80493810D01*
X204974381Y-80636667D01*
X204974381Y-80731905D01*
X203974381Y-79874762D02*
X204783905Y-79874762D01*
X204879143Y-79827143D01*
X204926762Y-79779524D01*
X204974381Y-79684286D01*
X204974381Y-79493809D01*
X204926762Y-79398571D01*
X204879143Y-79350952D01*
X204783905Y-79303333D01*
X203974381Y-79303333D01*
X204974381Y-78827143D02*
X203974381Y-78827143D01*
X204688667Y-78493809D01*
X203974381Y-78160476D01*
X204974381Y-78160476D01*
X204974381Y-77684286D02*
X203974381Y-77684286D01*
X203974381Y-77303333D01*
X204022000Y-77208095D01*
X204069619Y-77160476D01*
X204164857Y-77112857D01*
X204307714Y-77112857D01*
X204402952Y-77160476D01*
X204450571Y-77208095D01*
X204498190Y-77303333D01*
X204498190Y-77684286D01*
X204450571Y-76684286D02*
X204450571Y-76350952D01*
X204974381Y-76208095D02*
X204974381Y-76684286D01*
X203974381Y-76684286D01*
X203974381Y-76208095D01*
X204974381Y-75208095D02*
X204498190Y-75541429D01*
X204974381Y-75779524D02*
X203974381Y-75779524D01*
X203974381Y-75398571D01*
X204022000Y-75303333D01*
X204069619Y-75255714D01*
X204164857Y-75208095D01*
X204307714Y-75208095D01*
X204402952Y-75255714D01*
X204450571Y-75303333D01*
X204498190Y-75398571D01*
X204498190Y-75779524D01*
X203974381Y-74874762D02*
X203974381Y-74255714D01*
X204355333Y-74589048D01*
X204355333Y-74446190D01*
X204402952Y-74350952D01*
X204450571Y-74303333D01*
X204545810Y-74255714D01*
X204783905Y-74255714D01*
X204879143Y-74303333D01*
X204926762Y-74350952D01*
X204974381Y-74446190D01*
X204974381Y-74731905D01*
X204926762Y-74827143D01*
X204879143Y-74874762D01*
X209562381Y-93812952D02*
X210276667Y-93812952D01*
X210419524Y-93860572D01*
X210514762Y-93955810D01*
X210562381Y-94098667D01*
X210562381Y-94193905D01*
X209562381Y-93336762D02*
X210371905Y-93336762D01*
X210467143Y-93289143D01*
X210514762Y-93241524D01*
X210562381Y-93146286D01*
X210562381Y-92955809D01*
X210514762Y-92860571D01*
X210467143Y-92812952D01*
X210371905Y-92765333D01*
X209562381Y-92765333D01*
X210562381Y-92289143D02*
X209562381Y-92289143D01*
X210276667Y-91955809D01*
X209562381Y-91622476D01*
X210562381Y-91622476D01*
X210562381Y-91146286D02*
X209562381Y-91146286D01*
X209562381Y-90765333D01*
X209610000Y-90670095D01*
X209657619Y-90622476D01*
X209752857Y-90574857D01*
X209895714Y-90574857D01*
X209990952Y-90622476D01*
X210038571Y-90670095D01*
X210086190Y-90765333D01*
X210086190Y-91146286D01*
X210038571Y-90146286D02*
X210038571Y-89812952D01*
X210562381Y-89670095D02*
X210562381Y-90146286D01*
X209562381Y-90146286D01*
X209562381Y-89670095D01*
X210562381Y-88670095D02*
X210086190Y-89003429D01*
X210562381Y-89241524D02*
X209562381Y-89241524D01*
X209562381Y-88860571D01*
X209610000Y-88765333D01*
X209657619Y-88717714D01*
X209752857Y-88670095D01*
X209895714Y-88670095D01*
X209990952Y-88717714D01*
X210038571Y-88765333D01*
X210086190Y-88860571D01*
X210086190Y-89241524D01*
X209562381Y-88336762D02*
X209562381Y-87717714D01*
X209943333Y-88051048D01*
X209943333Y-87908190D01*
X209990952Y-87812952D01*
X210038571Y-87765333D01*
X210133810Y-87717714D01*
X210371905Y-87717714D01*
X210467143Y-87765333D01*
X210514762Y-87812952D01*
X210562381Y-87908190D01*
X210562381Y-88193905D01*
X210514762Y-88289143D01*
X210467143Y-88336762D01*
X252166381Y-103084000D02*
X251166381Y-103084000D01*
X251642571Y-103084000D02*
X251642571Y-102512571D01*
X252166381Y-102512571D02*
X251166381Y-102512571D01*
X251642571Y-102036381D02*
X251642571Y-101703047D01*
X252166381Y-101560190D02*
X252166381Y-102036381D01*
X251166381Y-102036381D01*
X251166381Y-101560190D01*
X251880667Y-101179238D02*
X251880667Y-100703047D01*
X252166381Y-101274476D02*
X251166381Y-100941143D01*
X252166381Y-100607809D01*
X251166381Y-100417333D02*
X251166381Y-99845904D01*
X252166381Y-100131619D02*
X251166381Y-100131619D01*
X251642571Y-99512571D02*
X251642571Y-99179237D01*
X252166381Y-99036380D02*
X252166381Y-99512571D01*
X251166381Y-99512571D01*
X251166381Y-99036380D01*
X252166381Y-98036380D02*
X251690190Y-98369714D01*
X252166381Y-98607809D02*
X251166381Y-98607809D01*
X251166381Y-98226856D01*
X251214000Y-98131618D01*
X251261619Y-98083999D01*
X251356857Y-98036380D01*
X251499714Y-98036380D01*
X251594952Y-98083999D01*
X251642571Y-98131618D01*
X251690190Y-98226856D01*
X251690190Y-98607809D01*
X252166381Y-76144191D02*
X251166381Y-76144191D01*
X251642571Y-76144191D02*
X251642571Y-75572762D01*
X252166381Y-75572762D02*
X251166381Y-75572762D01*
X251166381Y-75239429D02*
X251166381Y-74668000D01*
X252166381Y-74953715D02*
X251166381Y-74953715D01*
X252261619Y-74572762D02*
X252261619Y-73810857D01*
X251880667Y-73620381D02*
X251880667Y-73144190D01*
X252166381Y-73715619D02*
X251166381Y-73382286D01*
X252166381Y-73048952D01*
X252071143Y-72144190D02*
X252118762Y-72191809D01*
X252166381Y-72334666D01*
X252166381Y-72429904D01*
X252118762Y-72572762D01*
X252023524Y-72668000D01*
X251928286Y-72715619D01*
X251737810Y-72763238D01*
X251594952Y-72763238D01*
X251404476Y-72715619D01*
X251309238Y-72668000D01*
X251214000Y-72572762D01*
X251166381Y-72429904D01*
X251166381Y-72334666D01*
X251214000Y-72191809D01*
X251261619Y-72144190D01*
X235958381Y-47442381D02*
X235958381Y-46442381D01*
X236529810Y-47442381D01*
X236529810Y-46442381D01*
X237006000Y-46918571D02*
X237339334Y-46918571D01*
X237482191Y-47442381D02*
X237006000Y-47442381D01*
X237006000Y-46442381D01*
X237482191Y-46442381D01*
X238434572Y-46490000D02*
X238339334Y-46442381D01*
X238196477Y-46442381D01*
X238053619Y-46490000D01*
X237958381Y-46585238D01*
X237910762Y-46680476D01*
X237863143Y-46870952D01*
X237863143Y-47013810D01*
X237910762Y-47204286D01*
X237958381Y-47299524D01*
X238053619Y-47394762D01*
X238196477Y-47442381D01*
X238291715Y-47442381D01*
X238434572Y-47394762D01*
X238482191Y-47347143D01*
X238482191Y-47013810D01*
X238291715Y-47013810D01*
X238672667Y-47537619D02*
X239434572Y-47537619D01*
X239625048Y-47156667D02*
X240101239Y-47156667D01*
X239529810Y-47442381D02*
X239863143Y-46442381D01*
X240196477Y-47442381D01*
X241101239Y-47347143D02*
X241053620Y-47394762D01*
X240910763Y-47442381D01*
X240815525Y-47442381D01*
X240672667Y-47394762D01*
X240577429Y-47299524D01*
X240529810Y-47204286D01*
X240482191Y-47013810D01*
X240482191Y-46870952D01*
X240529810Y-46680476D01*
X240577429Y-46585238D01*
X240672667Y-46490000D01*
X240815525Y-46442381D01*
X240910763Y-46442381D01*
X241053620Y-46490000D01*
X241101239Y-46537619D01*
X206589334Y-98496381D02*
X206256000Y-98020190D01*
X206017905Y-98496381D02*
X206017905Y-97496381D01*
X206398858Y-97496381D01*
X206494096Y-97544000D01*
X206541715Y-97591619D01*
X206589334Y-97686857D01*
X206589334Y-97829714D01*
X206541715Y-97924952D01*
X206494096Y-97972571D01*
X206398858Y-98020190D01*
X206017905Y-98020190D01*
X206970286Y-97591619D02*
X207017905Y-97544000D01*
X207113143Y-97496381D01*
X207351239Y-97496381D01*
X207446477Y-97544000D01*
X207494096Y-97591619D01*
X207541715Y-97686857D01*
X207541715Y-97782095D01*
X207494096Y-97924952D01*
X206922667Y-98496381D01*
X207541715Y-98496381D01*
X193635334Y-98496381D02*
X193302000Y-98020190D01*
X193063905Y-98496381D02*
X193063905Y-97496381D01*
X193444858Y-97496381D01*
X193540096Y-97544000D01*
X193587715Y-97591619D01*
X193635334Y-97686857D01*
X193635334Y-97829714D01*
X193587715Y-97924952D01*
X193540096Y-97972571D01*
X193444858Y-98020190D01*
X193063905Y-98020190D01*
X193968667Y-97496381D02*
X194587715Y-97496381D01*
X194254381Y-97877333D01*
X194397239Y-97877333D01*
X194492477Y-97924952D01*
X194540096Y-97972571D01*
X194587715Y-98067810D01*
X194587715Y-98305905D01*
X194540096Y-98401143D01*
X194492477Y-98448762D01*
X194397239Y-98496381D01*
X194111524Y-98496381D01*
X194016286Y-98448762D01*
X193968667Y-98401143D01*
X206589334Y-95194381D02*
X206256000Y-94718190D01*
X206017905Y-95194381D02*
X206017905Y-94194381D01*
X206398858Y-94194381D01*
X206494096Y-94242000D01*
X206541715Y-94289619D01*
X206589334Y-94384857D01*
X206589334Y-94527714D01*
X206541715Y-94622952D01*
X206494096Y-94670571D01*
X206398858Y-94718190D01*
X206017905Y-94718190D01*
X207446477Y-94527714D02*
X207446477Y-95194381D01*
X207208381Y-94146762D02*
X206970286Y-94861048D01*
X207589334Y-94861048D01*
X166282762Y-90114381D02*
X165711333Y-90114381D01*
X165997047Y-90114381D02*
X165997047Y-89114381D01*
X165901809Y-89257238D01*
X165806571Y-89352476D01*
X165711333Y-89400095D01*
X166901809Y-89114381D02*
X166997048Y-89114381D01*
X167092286Y-89162000D01*
X167139905Y-89209619D01*
X167187524Y-89304857D01*
X167235143Y-89495333D01*
X167235143Y-89733429D01*
X167187524Y-89923905D01*
X167139905Y-90019143D01*
X167092286Y-90066762D01*
X166997048Y-90114381D01*
X166901809Y-90114381D01*
X166806571Y-90066762D01*
X166758952Y-90019143D01*
X166711333Y-89923905D01*
X166663714Y-89733429D01*
X166663714Y-89495333D01*
X166711333Y-89304857D01*
X166758952Y-89209619D01*
X166806571Y-89162000D01*
X166901809Y-89114381D01*
X167663714Y-90114381D02*
X167663714Y-89114381D01*
X167758952Y-89733429D02*
X168044667Y-90114381D01*
X168044667Y-89447714D02*
X167663714Y-89828667D01*
X166282762Y-58618381D02*
X165711333Y-58618381D01*
X165997047Y-58618381D02*
X165997047Y-57618381D01*
X165901809Y-57761238D01*
X165806571Y-57856476D01*
X165711333Y-57904095D01*
X166901809Y-57618381D02*
X166997048Y-57618381D01*
X167092286Y-57666000D01*
X167139905Y-57713619D01*
X167187524Y-57808857D01*
X167235143Y-57999333D01*
X167235143Y-58237429D01*
X167187524Y-58427905D01*
X167139905Y-58523143D01*
X167092286Y-58570762D01*
X166997048Y-58618381D01*
X166901809Y-58618381D01*
X166806571Y-58570762D01*
X166758952Y-58523143D01*
X166711333Y-58427905D01*
X166663714Y-58237429D01*
X166663714Y-57999333D01*
X166711333Y-57808857D01*
X166758952Y-57713619D01*
X166806571Y-57666000D01*
X166901809Y-57618381D01*
X167663714Y-58618381D02*
X167663714Y-57618381D01*
X167758952Y-58237429D02*
X168044667Y-58618381D01*
X168044667Y-57951714D02*
X167663714Y-58332667D01*
X239212381Y-63555428D02*
X239212381Y-64126857D01*
X239212381Y-63841143D02*
X238212381Y-63841143D01*
X238355238Y-63936381D01*
X238450476Y-64031619D01*
X238498095Y-64126857D01*
X238212381Y-62936381D02*
X238212381Y-62841142D01*
X238260000Y-62745904D01*
X238307619Y-62698285D01*
X238402857Y-62650666D01*
X238593333Y-62603047D01*
X238831429Y-62603047D01*
X239021905Y-62650666D01*
X239117143Y-62698285D01*
X239164762Y-62745904D01*
X239212381Y-62841142D01*
X239212381Y-62936381D01*
X239164762Y-63031619D01*
X239117143Y-63079238D01*
X239021905Y-63126857D01*
X238831429Y-63174476D01*
X238593333Y-63174476D01*
X238402857Y-63126857D01*
X238307619Y-63079238D01*
X238260000Y-63031619D01*
X238212381Y-62936381D01*
X238212381Y-61984000D02*
X238212381Y-61888761D01*
X238260000Y-61793523D01*
X238307619Y-61745904D01*
X238402857Y-61698285D01*
X238593333Y-61650666D01*
X238831429Y-61650666D01*
X239021905Y-61698285D01*
X239117143Y-61745904D01*
X239164762Y-61793523D01*
X239212381Y-61888761D01*
X239212381Y-61984000D01*
X239164762Y-62079238D01*
X239117143Y-62126857D01*
X239021905Y-62174476D01*
X238831429Y-62222095D01*
X238593333Y-62222095D01*
X238402857Y-62174476D01*
X238307619Y-62126857D01*
X238260000Y-62079238D01*
X238212381Y-61984000D01*
X239212381Y-61222095D02*
X238212381Y-61222095D01*
X238831429Y-61126857D02*
X239212381Y-60841142D01*
X238545714Y-60841142D02*
X238926667Y-61222095D01*
X242514381Y-63555428D02*
X242514381Y-64126857D01*
X242514381Y-63841143D02*
X241514381Y-63841143D01*
X241657238Y-63936381D01*
X241752476Y-64031619D01*
X241800095Y-64126857D01*
X241514381Y-62936381D02*
X241514381Y-62841142D01*
X241562000Y-62745904D01*
X241609619Y-62698285D01*
X241704857Y-62650666D01*
X241895333Y-62603047D01*
X242133429Y-62603047D01*
X242323905Y-62650666D01*
X242419143Y-62698285D01*
X242466762Y-62745904D01*
X242514381Y-62841142D01*
X242514381Y-62936381D01*
X242466762Y-63031619D01*
X242419143Y-63079238D01*
X242323905Y-63126857D01*
X242133429Y-63174476D01*
X241895333Y-63174476D01*
X241704857Y-63126857D01*
X241609619Y-63079238D01*
X241562000Y-63031619D01*
X241514381Y-62936381D01*
X241514381Y-61984000D02*
X241514381Y-61888761D01*
X241562000Y-61793523D01*
X241609619Y-61745904D01*
X241704857Y-61698285D01*
X241895333Y-61650666D01*
X242133429Y-61650666D01*
X242323905Y-61698285D01*
X242419143Y-61745904D01*
X242466762Y-61793523D01*
X242514381Y-61888761D01*
X242514381Y-61984000D01*
X242466762Y-62079238D01*
X242419143Y-62126857D01*
X242323905Y-62174476D01*
X242133429Y-62222095D01*
X241895333Y-62222095D01*
X241704857Y-62174476D01*
X241609619Y-62126857D01*
X241562000Y-62079238D01*
X241514381Y-61984000D01*
X242514381Y-61222095D02*
X241514381Y-61222095D01*
X242133429Y-61126857D02*
X242514381Y-60841142D01*
X241847714Y-60841142D02*
X242228667Y-61222095D01*
X214177619Y-77842857D02*
X214130000Y-77795238D01*
X214082381Y-77700000D01*
X214082381Y-77461904D01*
X214130000Y-77366666D01*
X214177619Y-77319047D01*
X214272857Y-77271428D01*
X214368095Y-77271428D01*
X214510952Y-77319047D01*
X215082381Y-77890476D01*
X215082381Y-77271428D01*
X214177619Y-76890476D02*
X214130000Y-76842857D01*
X214082381Y-76747619D01*
X214082381Y-76509523D01*
X214130000Y-76414285D01*
X214177619Y-76366666D01*
X214272857Y-76319047D01*
X214368095Y-76319047D01*
X214510952Y-76366666D01*
X215082381Y-76938095D01*
X215082381Y-76319047D01*
X214082381Y-75700000D02*
X214082381Y-75604761D01*
X214130000Y-75509523D01*
X214177619Y-75461904D01*
X214272857Y-75414285D01*
X214463333Y-75366666D01*
X214701429Y-75366666D01*
X214891905Y-75414285D01*
X214987143Y-75461904D01*
X215034762Y-75509523D01*
X215082381Y-75604761D01*
X215082381Y-75700000D01*
X215034762Y-75795238D01*
X214987143Y-75842857D01*
X214891905Y-75890476D01*
X214701429Y-75938095D01*
X214463333Y-75938095D01*
X214272857Y-75890476D01*
X214177619Y-75842857D01*
X214130000Y-75795238D01*
X214082381Y-75700000D01*
X215082381Y-74938095D02*
X214082381Y-74938095D01*
X214701429Y-74842857D02*
X215082381Y-74557142D01*
X214415714Y-74557142D02*
X214796667Y-74938095D01*
X209494381Y-76842857D02*
X209018190Y-77176191D01*
X209494381Y-77414286D02*
X208494381Y-77414286D01*
X208494381Y-77033333D01*
X208542000Y-76938095D01*
X208589619Y-76890476D01*
X208684857Y-76842857D01*
X208827714Y-76842857D01*
X208922952Y-76890476D01*
X208970571Y-76938095D01*
X209018190Y-77033333D01*
X209018190Y-77414286D01*
X209494381Y-75890476D02*
X209494381Y-76461905D01*
X209494381Y-76176191D02*
X208494381Y-76176191D01*
X208637238Y-76271429D01*
X208732476Y-76366667D01*
X208780095Y-76461905D01*
X209494381Y-74938095D02*
X209494381Y-75509524D01*
X209494381Y-75223810D02*
X208494381Y-75223810D01*
X208637238Y-75319048D01*
X208732476Y-75414286D01*
X208780095Y-75509524D01*
X200699715Y-81478381D02*
X200128286Y-81478381D01*
X200414000Y-81478381D02*
X200414000Y-80478381D01*
X200318762Y-80621238D01*
X200223524Y-80716476D01*
X200128286Y-80764095D01*
X201699715Y-81478381D02*
X201366381Y-81002190D01*
X201128286Y-81478381D02*
X201128286Y-80478381D01*
X201509239Y-80478381D01*
X201604477Y-80526000D01*
X201652096Y-80573619D01*
X201699715Y-80668857D01*
X201699715Y-80811714D01*
X201652096Y-80906952D01*
X201604477Y-80954571D01*
X201509239Y-81002190D01*
X201128286Y-81002190D01*
X203334953Y-84780381D02*
X202763524Y-84780381D01*
X203049238Y-84780381D02*
X203049238Y-83780381D01*
X202954000Y-83923238D01*
X202858762Y-84018476D01*
X202763524Y-84066095D01*
X203763524Y-84780381D02*
X203763524Y-83780381D01*
X203858762Y-84399429D02*
X204144477Y-84780381D01*
X204144477Y-84113714D02*
X203763524Y-84494667D01*
X189904762Y-84780381D02*
X189333333Y-84780381D01*
X189619047Y-84780381D02*
X189619047Y-83780381D01*
X189523809Y-83923238D01*
X189428571Y-84018476D01*
X189333333Y-84066095D01*
X190523809Y-83780381D02*
X190619048Y-83780381D01*
X190714286Y-83828000D01*
X190761905Y-83875619D01*
X190809524Y-83970857D01*
X190857143Y-84161333D01*
X190857143Y-84399429D01*
X190809524Y-84589905D01*
X190761905Y-84685143D01*
X190714286Y-84732762D01*
X190619048Y-84780381D01*
X190523809Y-84780381D01*
X190428571Y-84732762D01*
X190380952Y-84685143D01*
X190333333Y-84589905D01*
X190285714Y-84399429D01*
X190285714Y-84161333D01*
X190333333Y-83970857D01*
X190380952Y-83875619D01*
X190428571Y-83828000D01*
X190523809Y-83780381D01*
X191285714Y-84780381D02*
X191285714Y-83780381D01*
X191380952Y-84399429D02*
X191666667Y-84780381D01*
X191666667Y-84113714D02*
X191285714Y-84494667D01*
X220845238Y-58475619D02*
X220892857Y-58428000D01*
X220988095Y-58380381D01*
X221226191Y-58380381D01*
X221321429Y-58428000D01*
X221369048Y-58475619D01*
X221416667Y-58570857D01*
X221416667Y-58666095D01*
X221369048Y-58808952D01*
X220797619Y-59380381D01*
X221416667Y-59380381D01*
X221845238Y-59285143D02*
X221892857Y-59332762D01*
X221845238Y-59380381D01*
X221797619Y-59332762D01*
X221845238Y-59285143D01*
X221845238Y-59380381D01*
X222750000Y-58713714D02*
X222750000Y-59380381D01*
X222511904Y-58332762D02*
X222273809Y-59047048D01*
X222892857Y-59047048D01*
X223273809Y-59380381D02*
X223273809Y-58380381D01*
X223369047Y-58999429D02*
X223654762Y-59380381D01*
X223654762Y-58713714D02*
X223273809Y-59094667D01*
X219051334Y-62682381D02*
X218479905Y-62682381D01*
X218765619Y-62682381D02*
X218765619Y-61682381D01*
X218670381Y-61825238D01*
X218575143Y-61920476D01*
X218479905Y-61968095D01*
X219432286Y-61777619D02*
X219479905Y-61730000D01*
X219575143Y-61682381D01*
X219813239Y-61682381D01*
X219908477Y-61730000D01*
X219956096Y-61777619D01*
X220003715Y-61872857D01*
X220003715Y-61968095D01*
X219956096Y-62110952D01*
X219384667Y-62682381D01*
X220003715Y-62682381D01*
X220622762Y-61682381D02*
X220718001Y-61682381D01*
X220813239Y-61730000D01*
X220860858Y-61777619D01*
X220908477Y-61872857D01*
X220956096Y-62063333D01*
X220956096Y-62301429D01*
X220908477Y-62491905D01*
X220860858Y-62587143D01*
X220813239Y-62634762D01*
X220718001Y-62682381D01*
X220622762Y-62682381D01*
X220527524Y-62634762D01*
X220479905Y-62587143D01*
X220432286Y-62491905D01*
X220384667Y-62301429D01*
X220384667Y-62063333D01*
X220432286Y-61872857D01*
X220479905Y-61777619D01*
X220527524Y-61730000D01*
X220622762Y-61682381D01*
X221956096Y-62682381D02*
X221622762Y-62206190D01*
X221384667Y-62682381D02*
X221384667Y-61682381D01*
X221765620Y-61682381D01*
X221860858Y-61730000D01*
X221908477Y-61777619D01*
X221956096Y-61872857D01*
X221956096Y-62015714D01*
X221908477Y-62110952D01*
X221860858Y-62158571D01*
X221765620Y-62206190D01*
X221384667Y-62206190D01*
X183300952Y-76922381D02*
X183872381Y-76922381D01*
X183586666Y-77922381D02*
X183586666Y-76922381D01*
X184681905Y-77922381D02*
X184205714Y-77922381D01*
X184205714Y-76922381D01*
X185205714Y-76922381D02*
X185300953Y-76922381D01*
X185396191Y-76970000D01*
X185443810Y-77017619D01*
X185491429Y-77112857D01*
X185539048Y-77303333D01*
X185539048Y-77541429D01*
X185491429Y-77731905D01*
X185443810Y-77827143D01*
X185396191Y-77874762D01*
X185300953Y-77922381D01*
X185205714Y-77922381D01*
X185110476Y-77874762D01*
X185062857Y-77827143D01*
X185015238Y-77731905D01*
X184967619Y-77541429D01*
X184967619Y-77303333D01*
X185015238Y-77112857D01*
X185062857Y-77017619D01*
X185110476Y-76970000D01*
X185205714Y-76922381D01*
X185872381Y-76922381D02*
X186539048Y-76922381D01*
X186110476Y-77922381D01*
X186872381Y-77017619D02*
X186920000Y-76970000D01*
X187015238Y-76922381D01*
X187253334Y-76922381D01*
X187348572Y-76970000D01*
X187396191Y-77017619D01*
X187443810Y-77112857D01*
X187443810Y-77208095D01*
X187396191Y-77350952D01*
X186824762Y-77922381D01*
X187443810Y-77922381D01*
X168568952Y-83018381D02*
X169140381Y-83018381D01*
X168854666Y-84018381D02*
X168854666Y-83018381D01*
X169949905Y-84018381D02*
X169473714Y-84018381D01*
X169473714Y-83018381D01*
X170473714Y-83018381D02*
X170568953Y-83018381D01*
X170664191Y-83066000D01*
X170711810Y-83113619D01*
X170759429Y-83208857D01*
X170807048Y-83399333D01*
X170807048Y-83637429D01*
X170759429Y-83827905D01*
X170711810Y-83923143D01*
X170664191Y-83970762D01*
X170568953Y-84018381D01*
X170473714Y-84018381D01*
X170378476Y-83970762D01*
X170330857Y-83923143D01*
X170283238Y-83827905D01*
X170235619Y-83637429D01*
X170235619Y-83399333D01*
X170283238Y-83208857D01*
X170330857Y-83113619D01*
X170378476Y-83066000D01*
X170473714Y-83018381D01*
X171140381Y-83018381D02*
X171807048Y-83018381D01*
X171378476Y-84018381D01*
X172711810Y-84018381D02*
X172140381Y-84018381D01*
X172426095Y-84018381D02*
X172426095Y-83018381D01*
X172330857Y-83161238D01*
X172235619Y-83256476D01*
X172140381Y-83304095D01*
X165862667Y-68270381D02*
X165862667Y-67270381D01*
X166196001Y-67984667D01*
X166529334Y-67270381D01*
X166529334Y-68270381D01*
X167576953Y-68175143D02*
X167529334Y-68222762D01*
X167386477Y-68270381D01*
X167291239Y-68270381D01*
X167148381Y-68222762D01*
X167053143Y-68127524D01*
X167005524Y-68032286D01*
X166957905Y-67841810D01*
X166957905Y-67698952D01*
X167005524Y-67508476D01*
X167053143Y-67413238D01*
X167148381Y-67318000D01*
X167291239Y-67270381D01*
X167386477Y-67270381D01*
X167529334Y-67318000D01*
X167576953Y-67365619D01*
X168005524Y-68270381D02*
X168005524Y-67270381D01*
X168386477Y-67270381D01*
X168481715Y-67318000D01*
X168529334Y-67365619D01*
X168576953Y-67460857D01*
X168576953Y-67603714D01*
X168529334Y-67698952D01*
X168481715Y-67746571D01*
X168386477Y-67794190D01*
X168005524Y-67794190D01*
X169434096Y-67603714D02*
X169434096Y-68270381D01*
X169196000Y-67222762D02*
X168957905Y-67937048D01*
X169576953Y-67937048D01*
X170005524Y-68270381D02*
X170196000Y-68270381D01*
X170291239Y-68222762D01*
X170338858Y-68175143D01*
X170434096Y-68032286D01*
X170481715Y-67841810D01*
X170481715Y-67460857D01*
X170434096Y-67365619D01*
X170386477Y-67318000D01*
X170291239Y-67270381D01*
X170100762Y-67270381D01*
X170005524Y-67318000D01*
X169957905Y-67365619D01*
X169910286Y-67460857D01*
X169910286Y-67698952D01*
X169957905Y-67794190D01*
X170005524Y-67841810D01*
X170100762Y-67889429D01*
X170291239Y-67889429D01*
X170386477Y-67841810D01*
X170434096Y-67794190D01*
X170481715Y-67698952D01*
X170862667Y-67365619D02*
X170910286Y-67318000D01*
X171005524Y-67270381D01*
X171243620Y-67270381D01*
X171338858Y-67318000D01*
X171386477Y-67365619D01*
X171434096Y-67460857D01*
X171434096Y-67556095D01*
X171386477Y-67698952D01*
X170815048Y-68270381D01*
X171434096Y-68270381D01*
X172386477Y-68270381D02*
X171815048Y-68270381D01*
X172100762Y-68270381D02*
X172100762Y-67270381D01*
X172005524Y-67413238D01*
X171910286Y-67508476D01*
X171815048Y-67556095D01*
X172815048Y-67889429D02*
X173576953Y-67889429D01*
X174053143Y-67746571D02*
X174386477Y-67746571D01*
X174529334Y-68270381D02*
X174053143Y-68270381D01*
X174053143Y-67270381D01*
X174529334Y-67270381D01*
X175672191Y-67222762D02*
X174815048Y-68508476D01*
X176005524Y-68270381D02*
X176005524Y-67270381D01*
X176386477Y-67270381D01*
X176481715Y-67318000D01*
X176529334Y-67365619D01*
X176576953Y-67460857D01*
X176576953Y-67603714D01*
X176529334Y-67698952D01*
X176481715Y-67746571D01*
X176386477Y-67794190D01*
X176005524Y-67794190D01*
X217892572Y-68524381D02*
X217416381Y-68524381D01*
X217416381Y-67524381D01*
X218225905Y-68524381D02*
X218225905Y-67524381D01*
X218559239Y-68238667D01*
X218892572Y-67524381D01*
X218892572Y-68524381D01*
X219273524Y-67524381D02*
X219892572Y-67524381D01*
X219559238Y-67905333D01*
X219702096Y-67905333D01*
X219797334Y-67952952D01*
X219844953Y-68000571D01*
X219892572Y-68095810D01*
X219892572Y-68333905D01*
X219844953Y-68429143D01*
X219797334Y-68476762D01*
X219702096Y-68524381D01*
X219416381Y-68524381D01*
X219321143Y-68476762D01*
X219273524Y-68429143D01*
X220225905Y-67524381D02*
X220844953Y-67524381D01*
X220511619Y-67905333D01*
X220654477Y-67905333D01*
X220749715Y-67952952D01*
X220797334Y-68000571D01*
X220844953Y-68095810D01*
X220844953Y-68333905D01*
X220797334Y-68429143D01*
X220749715Y-68476762D01*
X220654477Y-68524381D01*
X220368762Y-68524381D01*
X220273524Y-68476762D01*
X220225905Y-68429143D01*
X221178286Y-67524381D02*
X221844953Y-67524381D01*
X221416381Y-68524381D01*
X222083048Y-67524381D02*
X222654477Y-67524381D01*
X222368762Y-68524381D02*
X222368762Y-67524381D01*
X196913905Y-71826381D02*
X196913905Y-70826381D01*
X197247239Y-71540667D01*
X197580572Y-70826381D01*
X197580572Y-71826381D01*
X198628191Y-71731143D02*
X198580572Y-71778762D01*
X198437715Y-71826381D01*
X198342477Y-71826381D01*
X198199619Y-71778762D01*
X198104381Y-71683524D01*
X198056762Y-71588286D01*
X198009143Y-71397810D01*
X198009143Y-71254952D01*
X198056762Y-71064476D01*
X198104381Y-70969238D01*
X198199619Y-70874000D01*
X198342477Y-70826381D01*
X198437715Y-70826381D01*
X198580572Y-70874000D01*
X198628191Y-70921619D01*
X199056762Y-71826381D02*
X199056762Y-70826381D01*
X199437715Y-70826381D01*
X199532953Y-70874000D01*
X199580572Y-70921619D01*
X199628191Y-71016857D01*
X199628191Y-71159714D01*
X199580572Y-71254952D01*
X199532953Y-71302571D01*
X199437715Y-71350190D01*
X199056762Y-71350190D01*
X199961524Y-70826381D02*
X200580572Y-70826381D01*
X200247238Y-71207333D01*
X200390096Y-71207333D01*
X200485334Y-71254952D01*
X200532953Y-71302571D01*
X200580572Y-71397810D01*
X200580572Y-71635905D01*
X200532953Y-71731143D01*
X200485334Y-71778762D01*
X200390096Y-71826381D01*
X200104381Y-71826381D01*
X200009143Y-71778762D01*
X199961524Y-71731143D01*
X200961524Y-70921619D02*
X201009143Y-70874000D01*
X201104381Y-70826381D01*
X201342477Y-70826381D01*
X201437715Y-70874000D01*
X201485334Y-70921619D01*
X201532953Y-71016857D01*
X201532953Y-71112095D01*
X201485334Y-71254952D01*
X200913905Y-71826381D01*
X201532953Y-71826381D01*
X202152000Y-70826381D02*
X202247239Y-70826381D01*
X202342477Y-70874000D01*
X202390096Y-70921619D01*
X202437715Y-71016857D01*
X202485334Y-71207333D01*
X202485334Y-71445429D01*
X202437715Y-71635905D01*
X202390096Y-71731143D01*
X202342477Y-71778762D01*
X202247239Y-71826381D01*
X202152000Y-71826381D01*
X202056762Y-71778762D01*
X202009143Y-71731143D01*
X201961524Y-71635905D01*
X201913905Y-71445429D01*
X201913905Y-71207333D01*
X201961524Y-71016857D01*
X202009143Y-70921619D01*
X202056762Y-70874000D01*
X202152000Y-70826381D01*
X202866286Y-70921619D02*
X202913905Y-70874000D01*
X203009143Y-70826381D01*
X203247239Y-70826381D01*
X203342477Y-70874000D01*
X203390096Y-70921619D01*
X203437715Y-71016857D01*
X203437715Y-71112095D01*
X203390096Y-71254952D01*
X202818667Y-71826381D01*
X203437715Y-71826381D01*
X186407762Y-51918952D02*
X186455381Y-51776095D01*
X186455381Y-51537999D01*
X186407762Y-51442761D01*
X186360143Y-51395142D01*
X186264905Y-51347523D01*
X186169667Y-51347523D01*
X186074429Y-51395142D01*
X186026810Y-51442761D01*
X185979190Y-51537999D01*
X185931571Y-51728476D01*
X185883952Y-51823714D01*
X185836333Y-51871333D01*
X185741095Y-51918952D01*
X185645857Y-51918952D01*
X185550619Y-51871333D01*
X185503000Y-51823714D01*
X185455381Y-51728476D01*
X185455381Y-51490380D01*
X185503000Y-51347523D01*
X186455381Y-50918952D02*
X185455381Y-50918952D01*
X186455381Y-49966571D02*
X186455381Y-50442762D01*
X185455381Y-50442762D01*
X186455381Y-49109428D02*
X186455381Y-49680857D01*
X186455381Y-49395143D02*
X185455381Y-49395143D01*
X185598238Y-49490381D01*
X185693476Y-49585619D01*
X185741095Y-49680857D01*
X185455381Y-48490381D02*
X185455381Y-48395142D01*
X185503000Y-48299904D01*
X185550619Y-48252285D01*
X185645857Y-48204666D01*
X185836333Y-48157047D01*
X186074429Y-48157047D01*
X186264905Y-48204666D01*
X186360143Y-48252285D01*
X186407762Y-48299904D01*
X186455381Y-48395142D01*
X186455381Y-48490381D01*
X186407762Y-48585619D01*
X186360143Y-48633238D01*
X186264905Y-48680857D01*
X186074429Y-48728476D01*
X185836333Y-48728476D01*
X185645857Y-48680857D01*
X185550619Y-48633238D01*
X185503000Y-48585619D01*
X185455381Y-48490381D01*
X231338381Y-72373047D02*
X231338381Y-72944476D01*
X231338381Y-72658762D02*
X230338381Y-72658762D01*
X230481238Y-72754000D01*
X230576476Y-72849238D01*
X230624095Y-72944476D01*
X230338381Y-71754000D02*
X230338381Y-71658761D01*
X230386000Y-71563523D01*
X230433619Y-71515904D01*
X230528857Y-71468285D01*
X230719333Y-71420666D01*
X230957429Y-71420666D01*
X231147905Y-71468285D01*
X231243143Y-71515904D01*
X231290762Y-71563523D01*
X231338381Y-71658761D01*
X231338381Y-71754000D01*
X231290762Y-71849238D01*
X231243143Y-71896857D01*
X231147905Y-71944476D01*
X230957429Y-71992095D01*
X230719333Y-71992095D01*
X230528857Y-71944476D01*
X230433619Y-71896857D01*
X230386000Y-71849238D01*
X230338381Y-71754000D01*
X230338381Y-70801619D02*
X230338381Y-70706380D01*
X230386000Y-70611142D01*
X230433619Y-70563523D01*
X230528857Y-70515904D01*
X230719333Y-70468285D01*
X230957429Y-70468285D01*
X231147905Y-70515904D01*
X231243143Y-70563523D01*
X231290762Y-70611142D01*
X231338381Y-70706380D01*
X231338381Y-70801619D01*
X231290762Y-70896857D01*
X231243143Y-70944476D01*
X231147905Y-70992095D01*
X230957429Y-71039714D01*
X230719333Y-71039714D01*
X230528857Y-70992095D01*
X230433619Y-70944476D01*
X230386000Y-70896857D01*
X230338381Y-70801619D01*
X230671714Y-70039714D02*
X231338381Y-70039714D01*
X230766952Y-70039714D02*
X230719333Y-69992095D01*
X230671714Y-69896857D01*
X230671714Y-69753999D01*
X230719333Y-69658761D01*
X230814571Y-69611142D01*
X231338381Y-69611142D01*
X247594381Y-58777047D02*
X247594381Y-59348476D01*
X247594381Y-59062762D02*
X246594381Y-59062762D01*
X246737238Y-59158000D01*
X246832476Y-59253238D01*
X246880095Y-59348476D01*
X246594381Y-58158000D02*
X246594381Y-58062761D01*
X246642000Y-57967523D01*
X246689619Y-57919904D01*
X246784857Y-57872285D01*
X246975333Y-57824666D01*
X247213429Y-57824666D01*
X247403905Y-57872285D01*
X247499143Y-57919904D01*
X247546762Y-57967523D01*
X247594381Y-58062761D01*
X247594381Y-58158000D01*
X247546762Y-58253238D01*
X247499143Y-58300857D01*
X247403905Y-58348476D01*
X247213429Y-58396095D01*
X246975333Y-58396095D01*
X246784857Y-58348476D01*
X246689619Y-58300857D01*
X246642000Y-58253238D01*
X246594381Y-58158000D01*
X246594381Y-57205619D02*
X246594381Y-57110380D01*
X246642000Y-57015142D01*
X246689619Y-56967523D01*
X246784857Y-56919904D01*
X246975333Y-56872285D01*
X247213429Y-56872285D01*
X247403905Y-56919904D01*
X247499143Y-56967523D01*
X247546762Y-57015142D01*
X247594381Y-57110380D01*
X247594381Y-57205619D01*
X247546762Y-57300857D01*
X247499143Y-57348476D01*
X247403905Y-57396095D01*
X247213429Y-57443714D01*
X246975333Y-57443714D01*
X246784857Y-57396095D01*
X246689619Y-57348476D01*
X246642000Y-57300857D01*
X246594381Y-57205619D01*
X246927714Y-56443714D02*
X247594381Y-56443714D01*
X247022952Y-56443714D02*
X246975333Y-56396095D01*
X246927714Y-56300857D01*
X246927714Y-56157999D01*
X246975333Y-56062761D01*
X247070571Y-56015142D01*
X247594381Y-56015142D01*
M02*
