G04 #@! TF.FileFunction,Copper,L2,Bot,Signal*
%FSLAX46Y46*%
G04 Gerber Fmt 4.6, Leading zero omitted, Abs format (unit mm)*
G04 Created by KiCad (PCBNEW 4.0.2+dfsg1-stable) date dim. 24 juil. 2016 18:32:08 CEST*
%MOMM*%
G01*
G04 APERTURE LIST*
%ADD10C,0.100000*%
%ADD11C,2.540000*%
%ADD12O,1.524000X2.540000*%
%ADD13O,1.000000X2.000000*%
%ADD14R,2.540000X2.540000*%
%ADD15C,1.998980*%
%ADD16R,1.300000X1.300000*%
%ADD17C,1.300000*%
%ADD18R,1.727200X2.032000*%
%ADD19O,1.727200X2.032000*%
%ADD20O,2.300000X1.600000*%
%ADD21O,1.600000X2.300000*%
%ADD22O,1.501140X2.499360*%
%ADD23R,1.400000X1.400000*%
%ADD24C,1.400000*%
%ADD25C,1.000000*%
%ADD26C,0.500000*%
G04 APERTURE END LIST*
D10*
D11*
X226568000Y-91948000D03*
X226568000Y-97028000D03*
X231648000Y-97028000D03*
X231648000Y-91948000D03*
X240554919Y-77199081D03*
X240554919Y-72119081D03*
X235474919Y-72119081D03*
X235474919Y-77199081D03*
X230886000Y-55118000D03*
X230886000Y-50038000D03*
X225806000Y-50038000D03*
X225806000Y-55118000D03*
D12*
X212001100Y-102463600D03*
X209461100Y-102463600D03*
X206921100Y-102463600D03*
X199301100Y-102463600D03*
X201841100Y-102463600D03*
X204381100Y-102463600D03*
X194221100Y-102463600D03*
X191681100Y-102463600D03*
X189141100Y-102463600D03*
X184061100Y-102463600D03*
X181521100Y-102463600D03*
X212001100Y-54203600D03*
X209461100Y-54203600D03*
X206921100Y-54203600D03*
X204381100Y-54203600D03*
X201841100Y-54203600D03*
X199301100Y-54203600D03*
X196761100Y-54203600D03*
X194221100Y-54203600D03*
X190157100Y-54203600D03*
X187617100Y-54203600D03*
X185077100Y-54203600D03*
X182537100Y-54203600D03*
X179997100Y-54203600D03*
X177457100Y-54203600D03*
X174917100Y-54203600D03*
X172377100Y-54203600D03*
X186601100Y-102463600D03*
X169837100Y-54203600D03*
X167297100Y-54203600D03*
X178981100Y-102463600D03*
D13*
X175501100Y-103003600D03*
D14*
X234696000Y-102616000D03*
D11*
X239776000Y-102616000D03*
D15*
X188722000Y-94742000D03*
X198882000Y-94742000D03*
D16*
X178562000Y-80010000D03*
D17*
X178562000Y-75010000D03*
D14*
X246888000Y-93218000D03*
D11*
X246888000Y-88138000D03*
X246888000Y-83058000D03*
D16*
X216742000Y-100330000D03*
D17*
X221742000Y-100330000D03*
D16*
X179498000Y-91948000D03*
D17*
X174498000Y-91948000D03*
D16*
X161798000Y-92964000D03*
D17*
X166798000Y-92964000D03*
X219202000Y-53848000D03*
D16*
X219202000Y-51348000D03*
D17*
X208788000Y-61722000D03*
D16*
X208788000Y-59222000D03*
X174498000Y-89408000D03*
D17*
X179498000Y-89408000D03*
D16*
X164418000Y-75692000D03*
D17*
X169418000Y-75692000D03*
D16*
X163576000Y-63754000D03*
D17*
X163576000Y-68754000D03*
D16*
X192532000Y-71374000D03*
D17*
X192532000Y-66374000D03*
D16*
X184230000Y-68580000D03*
D17*
X189230000Y-68580000D03*
D18*
X201422000Y-77470000D03*
D19*
X198882000Y-77470000D03*
X196342000Y-77470000D03*
D18*
X207010000Y-90932000D03*
D19*
X204470000Y-90932000D03*
X201930000Y-90932000D03*
D14*
X246888000Y-103886000D03*
D11*
X246888000Y-98806000D03*
D14*
X246888000Y-76708000D03*
D11*
X246888000Y-71628000D03*
D14*
X241046000Y-52070000D03*
D11*
X235966000Y-52070000D03*
D15*
X201676000Y-98044000D03*
X211836000Y-98044000D03*
X188722000Y-98044000D03*
X198882000Y-98044000D03*
X201676000Y-94742000D03*
X211836000Y-94742000D03*
X161798000Y-89662000D03*
X171958000Y-89662000D03*
X171958000Y-58166000D03*
X161798000Y-58166000D03*
X238760000Y-67564000D03*
X238760000Y-57404000D03*
X242062000Y-67564000D03*
X242062000Y-57404000D03*
X239522000Y-88900000D03*
X229362000Y-88900000D03*
X209042000Y-71120000D03*
X209042000Y-81280000D03*
X195834000Y-81026000D03*
X205994000Y-81026000D03*
X208534000Y-84328000D03*
X198374000Y-84328000D03*
X185420000Y-84328000D03*
X195580000Y-84328000D03*
X216916000Y-58928000D03*
X227076000Y-58928000D03*
X225298000Y-62230000D03*
X215138000Y-62230000D03*
D20*
X181610000Y-72390000D03*
X181610000Y-74930000D03*
X181610000Y-77470000D03*
X181610000Y-80010000D03*
X189230000Y-80010000D03*
X189230000Y-77470000D03*
X189230000Y-74930000D03*
X189230000Y-72390000D03*
D21*
X166878000Y-86360000D03*
X169418000Y-86360000D03*
X171958000Y-86360000D03*
X174498000Y-86360000D03*
X174498000Y-78740000D03*
X171958000Y-78740000D03*
X169418000Y-78740000D03*
X166878000Y-78740000D03*
X167386000Y-70104000D03*
X169926000Y-70104000D03*
X172466000Y-70104000D03*
X175006000Y-70104000D03*
X175006000Y-62484000D03*
X172466000Y-62484000D03*
X169926000Y-62484000D03*
X167386000Y-62484000D03*
D22*
X220218000Y-65786000D03*
X222758000Y-65786000D03*
X217678000Y-65786000D03*
D21*
X196342000Y-73914000D03*
X198882000Y-73914000D03*
X201422000Y-73914000D03*
X203962000Y-73914000D03*
X203962000Y-66294000D03*
X201422000Y-66294000D03*
X198882000Y-66294000D03*
X196342000Y-66294000D03*
D18*
X189103000Y-50038000D03*
D19*
X191643000Y-50038000D03*
X194183000Y-50038000D03*
X196723000Y-50038000D03*
X199263000Y-50038000D03*
X201803000Y-50038000D03*
X204343000Y-50038000D03*
X206883000Y-50038000D03*
X209423000Y-50038000D03*
X211963000Y-50038000D03*
D23*
X230124000Y-62470000D03*
D24*
X230124000Y-77470000D03*
D23*
X247650000Y-51308000D03*
D24*
X247650000Y-66308000D03*
D25*
X200406000Y-70612000D03*
X212852000Y-75438000D03*
X212852000Y-82550000D03*
X203962000Y-84074000D03*
X191008000Y-89408000D03*
X183642000Y-89408000D03*
X223158255Y-81026000D03*
X215138000Y-89154000D03*
X185166000Y-58166000D03*
X175006000Y-58166000D03*
X183169674Y-62787792D03*
X179992345Y-59610464D03*
D26*
X178562000Y-72136000D02*
X182118000Y-68580000D01*
X193294000Y-70612000D02*
X200406000Y-70612000D01*
X178562000Y-75010000D02*
X178562000Y-72136000D01*
X182118000Y-68580000D02*
X184230000Y-68580000D01*
X192532000Y-71374000D02*
X193294000Y-70612000D01*
X171958000Y-89662000D02*
X171958000Y-91075492D01*
X171958000Y-91075492D02*
X172830508Y-91948000D01*
X172830508Y-91948000D02*
X174498000Y-91948000D01*
X171958000Y-86360000D02*
X171958000Y-89662000D01*
X161798000Y-89662000D02*
X161798000Y-58166000D01*
X161798000Y-89662000D02*
X161798000Y-92964000D01*
X167386000Y-62484000D02*
X167386000Y-62834000D01*
X171958000Y-74484628D02*
X171958000Y-78740000D01*
X167386000Y-62834000D02*
X165354000Y-64866000D01*
X165354000Y-64866000D02*
X165354000Y-71120000D01*
X170371372Y-72898000D02*
X171958000Y-74484628D01*
X165354000Y-71120000D02*
X167132000Y-72898000D01*
X167132000Y-72898000D02*
X170371372Y-72898000D01*
X188722000Y-94742000D02*
X168576000Y-94742000D01*
X168576000Y-94742000D02*
X166798000Y-92964000D01*
X188722000Y-94742000D02*
X190754000Y-94742000D01*
X190754000Y-94742000D02*
X198475600Y-102463600D01*
X198475600Y-102463600D02*
X199301100Y-102463600D01*
X169418000Y-86360000D02*
X169418000Y-90344000D01*
X169418000Y-90344000D02*
X166798000Y-92964000D01*
X169418000Y-86360000D02*
X169418000Y-84710000D01*
X171958000Y-80390000D02*
X171958000Y-78740000D01*
X169418000Y-84710000D02*
X171958000Y-82170000D01*
X171958000Y-82170000D02*
X171958000Y-80390000D01*
X230124000Y-62470000D02*
X233694000Y-62470000D01*
X233694000Y-62470000D02*
X238760000Y-57404000D01*
X235966000Y-52070000D02*
X228854000Y-52070000D01*
X228854000Y-52070000D02*
X225806000Y-55118000D01*
X238760000Y-57404000D02*
X238760000Y-54864000D01*
X238760000Y-54864000D02*
X235966000Y-52070000D01*
X235474919Y-77199081D02*
X235474919Y-78995132D01*
X235474919Y-78995132D02*
X237384324Y-80904537D01*
X242799065Y-80904537D02*
X244574920Y-79128682D01*
X237384324Y-80904537D02*
X242799065Y-80904537D01*
X244574920Y-79128682D02*
X244574920Y-77211610D01*
X244574920Y-77211610D02*
X245078530Y-76708000D01*
X245078530Y-76708000D02*
X246888000Y-76708000D01*
X246634000Y-76962000D02*
X246634000Y-76708000D01*
X235458000Y-77216000D02*
X230378000Y-77216000D01*
X230378000Y-77216000D02*
X230124000Y-77470000D01*
X246272398Y-76708000D02*
X246634000Y-76708000D01*
X230886000Y-50038000D02*
X240784000Y-50038000D01*
X240784000Y-50038000D02*
X241046000Y-50300000D01*
X241046000Y-50300000D02*
X241046000Y-52070000D01*
X242062000Y-57404000D02*
X242062000Y-53086000D01*
X242062000Y-53086000D02*
X241046000Y-52070000D01*
X241046000Y-52070000D02*
X246874000Y-52070000D01*
X246874000Y-52070000D02*
X247142000Y-51802000D01*
X247650000Y-66308000D02*
X247650000Y-70866000D01*
X247650000Y-70866000D02*
X246888000Y-71628000D01*
X240554919Y-72119081D02*
X246396919Y-72119081D01*
X246396919Y-72119081D02*
X246888000Y-71628000D01*
X246126000Y-72136000D02*
X246634000Y-71628000D01*
X220218000Y-65786000D02*
X220218000Y-54864000D01*
X220218000Y-54864000D02*
X219202000Y-53848000D01*
X225806000Y-50038000D02*
X221996000Y-53848000D01*
X221996000Y-53848000D02*
X219202000Y-53848000D01*
X217678000Y-65786000D02*
X217678000Y-64770000D01*
X217678000Y-64770000D02*
X215138000Y-62230000D01*
X226568000Y-97028000D02*
X232156000Y-102616000D01*
X232156000Y-102616000D02*
X234696000Y-102616000D01*
X246888000Y-93218000D02*
X243840000Y-93218000D01*
X243840000Y-93218000D02*
X239522000Y-88900000D01*
X218694000Y-88392000D02*
X218440000Y-88138000D01*
X218440000Y-88138000D02*
X212852000Y-82550000D01*
X229362000Y-88900000D02*
X219202000Y-88900000D01*
X219202000Y-88900000D02*
X218440000Y-88138000D01*
X212852000Y-73152000D02*
X210820000Y-71120000D01*
X210820000Y-71120000D02*
X209042000Y-71120000D01*
X212852000Y-75438000D02*
X212852000Y-73152000D01*
X209042000Y-71120000D02*
X203866000Y-71120000D01*
X203866000Y-71120000D02*
X201422000Y-73564000D01*
X201422000Y-73564000D02*
X201422000Y-73914000D01*
X201422000Y-77470000D02*
X201422000Y-73914000D01*
X203962000Y-84074000D02*
X209042000Y-89154000D01*
X209042000Y-89154000D02*
X209042000Y-99834700D01*
X209042000Y-99834700D02*
X206921100Y-101955600D01*
X206921100Y-101955600D02*
X206921100Y-102463600D01*
X196342000Y-77470000D02*
X196342000Y-73914000D01*
X189230000Y-74930000D02*
X191626002Y-74930000D01*
X197331990Y-72013990D02*
X198882000Y-73564000D01*
X191626002Y-74930000D02*
X194542012Y-72013990D01*
X194542012Y-72013990D02*
X197331990Y-72013990D01*
X198882000Y-73564000D02*
X198882000Y-73914000D01*
X207010000Y-90932000D02*
X207010000Y-89408000D01*
X207010000Y-89408000D02*
X205232000Y-87630000D01*
X205232000Y-87630000D02*
X188722000Y-87630000D01*
X188722000Y-87630000D02*
X185420000Y-84328000D01*
X185420000Y-75946000D02*
X186436000Y-74930000D01*
X186436000Y-74930000D02*
X189230000Y-74930000D01*
X185420000Y-84328000D02*
X185420000Y-75946000D01*
X204381100Y-102463600D02*
X204381100Y-91020900D01*
X204381100Y-91020900D02*
X204470000Y-90932000D01*
X204216000Y-102298500D02*
X204381100Y-102463600D01*
X191008000Y-89408000D02*
X200558400Y-89408000D01*
X200558400Y-89408000D02*
X201930000Y-90779600D01*
X201930000Y-90779600D02*
X201930000Y-90932000D01*
X176530000Y-82296000D02*
X183642000Y-89408000D01*
X176530000Y-76710045D02*
X176530000Y-82296000D01*
X169926000Y-70104000D02*
X169926000Y-70106045D01*
X169926000Y-70106045D02*
X176530000Y-76710045D01*
X195834000Y-81026000D02*
X201930000Y-81026000D01*
X201930000Y-81026000D02*
X204448133Y-78507867D01*
X204448133Y-78507867D02*
X214285496Y-78507867D01*
X214285496Y-78507867D02*
X220613629Y-84836000D01*
X220613629Y-84836000D02*
X243586000Y-84836000D01*
X243586000Y-84836000D02*
X246888000Y-88138000D01*
X195834000Y-81026000D02*
X190246000Y-81026000D01*
X190246000Y-81026000D02*
X189230000Y-80010000D01*
X223158255Y-81026000D02*
X225444255Y-83312000D01*
X211220255Y-69088000D02*
X223158255Y-81026000D01*
X181610000Y-72390000D02*
X183260000Y-72390000D01*
X190246000Y-70358000D02*
X191516000Y-69088000D01*
X183260000Y-72390000D02*
X185292000Y-70358000D01*
X185292000Y-70358000D02*
X190246000Y-70358000D01*
X191516000Y-69088000D02*
X211220255Y-69088000D01*
X225444255Y-83312000D02*
X246634000Y-83312000D01*
X246634000Y-83312000D02*
X246888000Y-83058000D01*
X246888000Y-83058000D02*
X246325215Y-83620785D01*
X211836000Y-92864984D02*
X211836000Y-92456000D01*
X211836000Y-92456000D02*
X215138000Y-89154000D01*
X211836000Y-94742000D02*
X211836000Y-92864984D01*
X211836000Y-98044000D02*
X211836000Y-94742000D01*
X201841100Y-102463600D02*
X201841100Y-98209100D01*
X201841100Y-98209100D02*
X201676000Y-98044000D01*
X198882000Y-98044000D02*
X201676000Y-98044000D01*
X198882000Y-94742000D02*
X196342000Y-92202000D01*
X196342000Y-92202000D02*
X189728020Y-92202000D01*
X189728020Y-92202000D02*
X183601279Y-86075259D01*
X183601279Y-86075259D02*
X183601279Y-76571279D01*
X183601279Y-76571279D02*
X181960000Y-74930000D01*
X181960000Y-74930000D02*
X181610000Y-74930000D01*
X198882000Y-94742000D02*
X201676000Y-94742000D01*
X185166000Y-58166000D02*
X185166000Y-54292500D01*
X185166000Y-54292500D02*
X185077100Y-54203600D01*
X171958000Y-58166000D02*
X175006000Y-58166000D01*
X185077100Y-54203600D02*
X185077100Y-54097295D01*
X195580000Y-84328000D02*
X198374000Y-84328000D01*
X186944000Y-82296000D02*
X188976000Y-84328000D01*
X188976000Y-84328000D02*
X195580000Y-84328000D01*
X186944000Y-78106000D02*
X186944000Y-82296000D01*
X189230000Y-77470000D02*
X187580000Y-77470000D01*
X187580000Y-77470000D02*
X186944000Y-78106000D01*
X225298000Y-62230000D02*
X225298000Y-60706000D01*
X225298000Y-60706000D02*
X227076000Y-58928000D01*
X222758000Y-65786000D02*
X222758000Y-64770000D01*
X222758000Y-64770000D02*
X225298000Y-62230000D01*
X201803000Y-50038000D02*
X201803000Y-54165500D01*
X201803000Y-54165500D02*
X201841100Y-54203600D01*
X199263000Y-50038000D02*
X199263000Y-54165500D01*
X199263000Y-54165500D02*
X199301100Y-54203600D01*
X196723000Y-50038000D02*
X196723000Y-54165500D01*
X196723000Y-54165500D02*
X196761100Y-54203600D01*
X175006000Y-70104000D02*
X175006000Y-68454000D01*
X175006000Y-68454000D02*
X182537100Y-60922900D01*
X203962000Y-66294000D02*
X203962000Y-64644000D01*
X203962000Y-64644000D02*
X200240900Y-60922900D01*
X200240900Y-60922900D02*
X182537100Y-60922900D01*
X182537100Y-60922900D02*
X182537100Y-55973600D01*
X182537100Y-55973600D02*
X182537100Y-54203600D01*
X201422000Y-66294000D02*
X201422000Y-65944000D01*
X198265792Y-62787792D02*
X183876780Y-62787792D01*
X201422000Y-65944000D02*
X198265792Y-62787792D01*
X183876780Y-62787792D02*
X183169674Y-62787792D01*
X179997100Y-59605709D02*
X179992345Y-59610464D01*
X179997100Y-54203600D02*
X179997100Y-59605709D01*
X198882000Y-66294000D02*
X198882000Y-65944000D01*
X198882000Y-65944000D02*
X197331990Y-64393990D01*
X197331990Y-64393990D02*
X184018010Y-64393990D01*
X184018010Y-64393990D02*
X176407990Y-72004010D01*
X172466000Y-70454000D02*
X172466000Y-70104000D01*
X176407990Y-72004010D02*
X174016010Y-72004010D01*
X174016010Y-72004010D02*
X172466000Y-70454000D01*
X172466000Y-70104000D02*
X172466000Y-68454000D01*
X172466000Y-68454000D02*
X177457100Y-63462900D01*
X177457100Y-63462900D02*
X177457100Y-55973600D01*
X177457100Y-55973600D02*
X177457100Y-54203600D01*
X167297100Y-54203600D02*
X167297100Y-53695600D01*
X167297100Y-53695600D02*
X170954700Y-50038000D01*
X170954700Y-50038000D02*
X187739400Y-50038000D01*
X187739400Y-50038000D02*
X189103000Y-50038000D01*
X169837100Y-54203600D02*
X169837100Y-53695600D01*
X169837100Y-53695600D02*
X171716700Y-51816000D01*
X171716700Y-51816000D02*
X191381000Y-51816000D01*
X191381000Y-51816000D02*
X191643000Y-51554000D01*
X191643000Y-51554000D02*
X191643000Y-50038000D01*
X194183000Y-50038000D02*
X194183000Y-54165500D01*
X194183000Y-54165500D02*
X194221100Y-54203600D01*
X204343000Y-50038000D02*
X204343000Y-54165500D01*
X204343000Y-54165500D02*
X204381100Y-54203600D01*
X206883000Y-50038000D02*
X206883000Y-54165500D01*
X206883000Y-54165500D02*
X206921100Y-54203600D01*
X231648000Y-91948000D02*
X233444051Y-91948000D01*
X233444051Y-91948000D02*
X239776000Y-98279949D01*
X239776000Y-98279949D02*
X239776000Y-100819949D01*
X239776000Y-100819949D02*
X239776000Y-102616000D01*
M02*
