G04 #@! TF.FileFunction,Copper,L1,Top,Signal*
%FSLAX46Y46*%
G04 Gerber Fmt 4.6, Leading zero omitted, Abs format (unit mm)*
G04 Created by KiCad (PCBNEW 4.0.2+dfsg1-stable) date dim. 24 juil. 2016 19:10:33 CEST*
%MOMM*%
G01*
G04 APERTURE LIST*
%ADD10C,0.100000*%
%ADD11O,1.524000X2.540000*%
%ADD12C,2.540000*%
%ADD13R,2.540000X2.540000*%
%ADD14C,1.998980*%
%ADD15R,1.300000X1.300000*%
%ADD16C,1.300000*%
%ADD17R,1.727200X2.032000*%
%ADD18O,1.727200X2.032000*%
%ADD19O,2.300000X1.600000*%
%ADD20O,1.600000X2.300000*%
%ADD21O,1.501140X2.499360*%
%ADD22R,1.400000X1.400000*%
%ADD23C,1.400000*%
%ADD24C,1.000000*%
%ADD25C,0.500000*%
%ADD26C,2.000000*%
G04 APERTURE END LIST*
D10*
D11*
X212001100Y-102463600D03*
X209461100Y-102463600D03*
X206921100Y-102463600D03*
X199301100Y-102463600D03*
X201841100Y-102463600D03*
X204381100Y-102463600D03*
X194221100Y-102463600D03*
X191681100Y-102463600D03*
X189141100Y-102463600D03*
X184061100Y-102463600D03*
X181521100Y-102463600D03*
X212001100Y-54203600D03*
X209461100Y-54203600D03*
X206921100Y-54203600D03*
X204381100Y-54203600D03*
X201841100Y-54203600D03*
X199301100Y-54203600D03*
X196761100Y-54203600D03*
X194221100Y-54203600D03*
X190157100Y-54203600D03*
X187617100Y-54203600D03*
X185077100Y-54203600D03*
X182537100Y-54203600D03*
X179997100Y-54203600D03*
X177457100Y-54203600D03*
X174917100Y-54203600D03*
X172377100Y-54203600D03*
X186601100Y-102463600D03*
X169837100Y-54203600D03*
X167297100Y-54203600D03*
X178981100Y-102463600D03*
D12*
X226568000Y-91948000D03*
X226568000Y-97028000D03*
X231648000Y-97028000D03*
X231648000Y-91948000D03*
X240554919Y-77199081D03*
X240554919Y-72119081D03*
X235474919Y-72119081D03*
X235474919Y-77199081D03*
X230886000Y-55118000D03*
X230886000Y-50038000D03*
X225806000Y-50038000D03*
X225806000Y-55118000D03*
D13*
X234696000Y-102616000D03*
D12*
X239776000Y-102616000D03*
D14*
X188722000Y-94742000D03*
X198882000Y-94742000D03*
D15*
X178562000Y-80010000D03*
D16*
X178562000Y-75010000D03*
D13*
X246888000Y-93218000D03*
D12*
X246888000Y-88138000D03*
X246888000Y-83058000D03*
D15*
X216742000Y-100330000D03*
D16*
X221742000Y-100330000D03*
D15*
X179498000Y-91948000D03*
D16*
X174498000Y-91948000D03*
D15*
X161798000Y-92964000D03*
D16*
X166798000Y-92964000D03*
X219202000Y-53848000D03*
D15*
X219202000Y-51348000D03*
D16*
X208788000Y-61722000D03*
D15*
X208788000Y-59222000D03*
X174498000Y-89408000D03*
D16*
X179498000Y-89408000D03*
D15*
X164418000Y-75692000D03*
D16*
X169418000Y-75692000D03*
D15*
X163576000Y-63754000D03*
D16*
X163576000Y-68754000D03*
D15*
X192532000Y-71374000D03*
D16*
X192532000Y-66374000D03*
D15*
X184230000Y-68580000D03*
D16*
X189230000Y-68580000D03*
D17*
X201422000Y-77470000D03*
D18*
X198882000Y-77470000D03*
X196342000Y-77470000D03*
D17*
X207010000Y-90932000D03*
D18*
X204470000Y-90932000D03*
X201930000Y-90932000D03*
D13*
X246888000Y-103886000D03*
D12*
X246888000Y-98806000D03*
D13*
X246888000Y-76708000D03*
D12*
X246888000Y-71628000D03*
D13*
X241046000Y-52070000D03*
D12*
X235966000Y-52070000D03*
D14*
X201676000Y-98044000D03*
X211836000Y-98044000D03*
X188722000Y-98044000D03*
X198882000Y-98044000D03*
X201676000Y-94742000D03*
X211836000Y-94742000D03*
X161798000Y-89662000D03*
X171958000Y-89662000D03*
X171958000Y-58166000D03*
X161798000Y-58166000D03*
X238760000Y-67564000D03*
X238760000Y-57404000D03*
X242062000Y-67564000D03*
X242062000Y-57404000D03*
X239522000Y-88900000D03*
X229362000Y-88900000D03*
X209042000Y-71120000D03*
X209042000Y-81280000D03*
X195834000Y-81026000D03*
X205994000Y-81026000D03*
X208534000Y-84328000D03*
X198374000Y-84328000D03*
X185420000Y-84328000D03*
X195580000Y-84328000D03*
X216916000Y-58928000D03*
X227076000Y-58928000D03*
X225298000Y-62230000D03*
X215138000Y-62230000D03*
D19*
X181610000Y-72390000D03*
X181610000Y-74930000D03*
X181610000Y-77470000D03*
X181610000Y-80010000D03*
X189230000Y-80010000D03*
X189230000Y-77470000D03*
X189230000Y-74930000D03*
X189230000Y-72390000D03*
D20*
X166878000Y-86360000D03*
X169418000Y-86360000D03*
X171958000Y-86360000D03*
X174498000Y-86360000D03*
X174498000Y-78740000D03*
X171958000Y-78740000D03*
X169418000Y-78740000D03*
X166878000Y-78740000D03*
X167386000Y-70104000D03*
X169926000Y-70104000D03*
X172466000Y-70104000D03*
X175006000Y-70104000D03*
X175006000Y-62484000D03*
X172466000Y-62484000D03*
X169926000Y-62484000D03*
X167386000Y-62484000D03*
D21*
X220218000Y-65786000D03*
X222758000Y-65786000D03*
X217678000Y-65786000D03*
D20*
X196342000Y-73914000D03*
X198882000Y-73914000D03*
X201422000Y-73914000D03*
X203962000Y-73914000D03*
X203962000Y-66294000D03*
X201422000Y-66294000D03*
X198882000Y-66294000D03*
X196342000Y-66294000D03*
D17*
X189103000Y-50038000D03*
D18*
X191643000Y-50038000D03*
X194183000Y-50038000D03*
X196723000Y-50038000D03*
X199263000Y-50038000D03*
X201803000Y-50038000D03*
X204343000Y-50038000D03*
X206883000Y-50038000D03*
X209423000Y-50038000D03*
X211963000Y-50038000D03*
D22*
X230124000Y-62470000D03*
D23*
X230124000Y-77470000D03*
D22*
X247650000Y-51308000D03*
D23*
X247650000Y-66308000D03*
D24*
X200406000Y-70612000D03*
X212852000Y-75438000D03*
X212852000Y-82550000D03*
X203962000Y-84074000D03*
X191008000Y-89408000D03*
X183642000Y-89408000D03*
X223158255Y-81026000D03*
X215138000Y-89154000D03*
X185166000Y-58166000D03*
X175006000Y-58166000D03*
X183169674Y-62787792D03*
X179992345Y-59610464D03*
D25*
X194221100Y-102463600D02*
X194221100Y-104233600D01*
X194221100Y-104233600D02*
X195583835Y-105596335D01*
X195583835Y-105596335D02*
X213628554Y-105596335D01*
X213628554Y-105596335D02*
X216742000Y-102482889D01*
X216742000Y-102482889D02*
X216742000Y-100330000D01*
X223974000Y-91948000D02*
X226568000Y-91948000D01*
X216742000Y-100330000D02*
X216742000Y-99180000D01*
X216742000Y-99180000D02*
X223974000Y-91948000D01*
X246380000Y-71882000D02*
X246634000Y-71628000D01*
X174498000Y-89408000D02*
X174498000Y-86360000D01*
X181610000Y-80010000D02*
X183260000Y-80010000D01*
X194728390Y-72985565D02*
X199519945Y-68194010D01*
X183260000Y-80010000D02*
X184810010Y-81560010D01*
X208788000Y-62641238D02*
X208788000Y-61722000D01*
X184810010Y-81560010D02*
X190222035Y-81560010D01*
X190222035Y-81560010D02*
X194728390Y-77053655D01*
X199519945Y-68194010D02*
X204604035Y-68194010D01*
X194728390Y-77053655D02*
X194728390Y-72985565D01*
X204604035Y-68194010D02*
X208788000Y-64010045D01*
X208788000Y-64010045D02*
X208788000Y-62641238D01*
X178562000Y-80010000D02*
X181610000Y-80010000D01*
X177704000Y-82804000D02*
X178466000Y-82804000D01*
X178466000Y-82804000D02*
X181260000Y-80010000D01*
X181260000Y-80010000D02*
X181610000Y-80010000D01*
X174498000Y-86360000D02*
X174498000Y-86010000D01*
X174498000Y-86010000D02*
X177704000Y-82804000D01*
X208788000Y-61722000D02*
X214630000Y-61722000D01*
X214630000Y-61722000D02*
X215138000Y-62230000D01*
X204344000Y-56642000D02*
X212209005Y-56642000D01*
X212209005Y-56642000D02*
X213513110Y-55337895D01*
X213513110Y-55337895D02*
X213513110Y-51740510D01*
X211963000Y-50190400D02*
X211963000Y-50038000D01*
X213513110Y-51740510D02*
X211963000Y-50190400D01*
X196342000Y-66294000D02*
X196342000Y-64644000D01*
X196342000Y-64644000D02*
X204344000Y-56642000D01*
X169418000Y-78740000D02*
X169418000Y-80390000D01*
X165327990Y-88302490D02*
X178981100Y-101955600D01*
X169418000Y-80390000D02*
X165327990Y-84480010D01*
X165327990Y-84480010D02*
X165327990Y-88302490D01*
X178981100Y-101955600D02*
X178981100Y-102463600D01*
X169418000Y-75692000D02*
X169418000Y-78740000D01*
X167386000Y-70104000D02*
X167386000Y-76358000D01*
X167386000Y-76358000D02*
X169418000Y-78390000D01*
X169418000Y-78390000D02*
X169418000Y-78740000D01*
X179578000Y-70612000D02*
X179578000Y-69946000D01*
X179578000Y-69946000D02*
X172466000Y-62834000D01*
X172466000Y-62834000D02*
X172466000Y-62484000D01*
X185802000Y-70612000D02*
X179578000Y-70612000D01*
X189230000Y-72390000D02*
X187580000Y-72390000D01*
X187580000Y-72390000D02*
X185802000Y-70612000D01*
X195834000Y-68834000D02*
X196342000Y-68326000D01*
X196342000Y-68326000D02*
X196342000Y-66294000D01*
X191486000Y-68834000D02*
X195834000Y-68834000D01*
X189230000Y-72390000D02*
X189230000Y-71090000D01*
X189230000Y-71090000D02*
X191486000Y-68834000D01*
X192532000Y-66374000D02*
X196262000Y-66374000D01*
X196262000Y-66374000D02*
X196342000Y-66294000D01*
X189230000Y-68580000D02*
X189230000Y-72390000D01*
X167386000Y-70104000D02*
X167386000Y-67914000D01*
X167386000Y-67914000D02*
X172466000Y-62834000D01*
X163576000Y-68754000D02*
X166036000Y-68754000D01*
X166036000Y-68754000D02*
X167386000Y-70104000D01*
X178981100Y-102463600D02*
X178981100Y-100693600D01*
X178981100Y-100693600D02*
X181630700Y-98044000D01*
X181630700Y-98044000D02*
X187308508Y-98044000D01*
X187308508Y-98044000D02*
X188722000Y-98044000D01*
D26*
X234696000Y-102616000D02*
X237466001Y-105386001D01*
X237466001Y-105386001D02*
X242117999Y-105386001D01*
X242117999Y-105386001D02*
X243618000Y-103886000D01*
X243618000Y-103886000D02*
X246888000Y-103886000D01*
D25*
X240554919Y-77199081D02*
X240554919Y-87867081D01*
X240554919Y-87867081D02*
X239522000Y-88900000D01*
X240538000Y-77216000D02*
X240554919Y-77199081D01*
X212852000Y-82550000D02*
X212852000Y-75438000D01*
X198882000Y-77470000D02*
X198882000Y-78994000D01*
X198882000Y-78994000D02*
X203962000Y-84074000D01*
X183642000Y-89408000D02*
X191008000Y-89408000D01*
X215138000Y-89154000D02*
X223158255Y-81133745D01*
X223158255Y-81133745D02*
X223158255Y-81026000D01*
X175006000Y-58166000D02*
X185166000Y-58166000D01*
X182669675Y-62287793D02*
X183169674Y-62787792D01*
X180492345Y-60110463D02*
X182669675Y-62287793D01*
X179992345Y-59610464D02*
X180492345Y-60110463D01*
D26*
X239776000Y-102616000D02*
X243586000Y-98806000D01*
X243586000Y-98806000D02*
X246888000Y-98806000D01*
D25*
G36*
X187700514Y-48468015D02*
X187527440Y-48721318D01*
X187466550Y-49022000D01*
X187466550Y-51054000D01*
X187519405Y-51334898D01*
X187685415Y-51592886D01*
X187938718Y-51765960D01*
X188239400Y-51826850D01*
X189966600Y-51826850D01*
X190247498Y-51773995D01*
X190505486Y-51607985D01*
X190613420Y-51450018D01*
X191022441Y-51723318D01*
X191643000Y-51846755D01*
X192263559Y-51723318D01*
X192789644Y-51371799D01*
X192913000Y-51187184D01*
X193036356Y-51371799D01*
X193562441Y-51723318D01*
X194183000Y-51846755D01*
X194803559Y-51723318D01*
X195329644Y-51371799D01*
X195453000Y-51187184D01*
X195576356Y-51371799D01*
X196102441Y-51723318D01*
X196723000Y-51846755D01*
X197343559Y-51723318D01*
X197869644Y-51371799D01*
X197993000Y-51187184D01*
X198116356Y-51371799D01*
X198642441Y-51723318D01*
X199263000Y-51846755D01*
X199883559Y-51723318D01*
X200409644Y-51371799D01*
X200533000Y-51187184D01*
X200656356Y-51371799D01*
X201182441Y-51723318D01*
X201803000Y-51846755D01*
X202423559Y-51723318D01*
X202949644Y-51371799D01*
X203073000Y-51187184D01*
X203196356Y-51371799D01*
X203722441Y-51723318D01*
X204343000Y-51846755D01*
X204963559Y-51723318D01*
X205489644Y-51371799D01*
X205613000Y-51187184D01*
X205736356Y-51371799D01*
X206262441Y-51723318D01*
X206883000Y-51846755D01*
X207503559Y-51723318D01*
X208029644Y-51371799D01*
X208164776Y-51169560D01*
X208279184Y-51339873D01*
X208806136Y-51690094D01*
X209165376Y-51791405D01*
X209419000Y-51622494D01*
X209419000Y-50042000D01*
X209399000Y-50042000D01*
X209399000Y-50034000D01*
X209419000Y-50034000D01*
X209419000Y-50014000D01*
X209427000Y-50014000D01*
X209427000Y-50034000D01*
X209447000Y-50034000D01*
X209447000Y-50042000D01*
X209427000Y-50042000D01*
X209427000Y-51622494D01*
X209680624Y-51791405D01*
X210039864Y-51690094D01*
X210566816Y-51339873D01*
X210681224Y-51169560D01*
X210816356Y-51371799D01*
X211342441Y-51723318D01*
X211963000Y-51846755D01*
X212155531Y-51808458D01*
X212505110Y-52158037D01*
X212505110Y-52236123D01*
X212001100Y-52135869D01*
X211419421Y-52251572D01*
X210926298Y-52581067D01*
X210731100Y-52873201D01*
X210535902Y-52581067D01*
X210042779Y-52251572D01*
X209461100Y-52135869D01*
X208879421Y-52251572D01*
X208386298Y-52581067D01*
X208191100Y-52873201D01*
X207995902Y-52581067D01*
X207502779Y-52251572D01*
X206921100Y-52135869D01*
X206339421Y-52251572D01*
X205846298Y-52581067D01*
X205651100Y-52873201D01*
X205455902Y-52581067D01*
X204962779Y-52251572D01*
X204381100Y-52135869D01*
X203799421Y-52251572D01*
X203306298Y-52581067D01*
X203111100Y-52873201D01*
X202915902Y-52581067D01*
X202422779Y-52251572D01*
X201841100Y-52135869D01*
X201259421Y-52251572D01*
X200766298Y-52581067D01*
X200571100Y-52873201D01*
X200375902Y-52581067D01*
X199882779Y-52251572D01*
X199301100Y-52135869D01*
X198719421Y-52251572D01*
X198226298Y-52581067D01*
X198031100Y-52873201D01*
X197835902Y-52581067D01*
X197342779Y-52251572D01*
X196761100Y-52135869D01*
X196179421Y-52251572D01*
X195686298Y-52581067D01*
X195491100Y-52873201D01*
X195295902Y-52581067D01*
X194802779Y-52251572D01*
X194221100Y-52135869D01*
X193639421Y-52251572D01*
X193146298Y-52581067D01*
X192816803Y-53074190D01*
X192701100Y-53655869D01*
X192701100Y-54751331D01*
X192816803Y-55333010D01*
X193146298Y-55826133D01*
X193639421Y-56155628D01*
X194221100Y-56271331D01*
X194802779Y-56155628D01*
X195295902Y-55826133D01*
X195491100Y-55533999D01*
X195686298Y-55826133D01*
X196179421Y-56155628D01*
X196761100Y-56271331D01*
X197342779Y-56155628D01*
X197835902Y-55826133D01*
X198031100Y-55533999D01*
X198226298Y-55826133D01*
X198719421Y-56155628D01*
X199301100Y-56271331D01*
X199882779Y-56155628D01*
X200375902Y-55826133D01*
X200571100Y-55533999D01*
X200766298Y-55826133D01*
X201259421Y-56155628D01*
X201841100Y-56271331D01*
X202422779Y-56155628D01*
X202915902Y-55826133D01*
X203111100Y-55533999D01*
X203306298Y-55826133D01*
X203562890Y-55997582D01*
X195629236Y-63931236D01*
X195410729Y-64258255D01*
X195333999Y-64644000D01*
X195334000Y-64644005D01*
X195334000Y-64742358D01*
X195240328Y-64804948D01*
X194902596Y-65310399D01*
X194891536Y-65366000D01*
X193515235Y-65366000D01*
X193330609Y-65181052D01*
X192813297Y-64966245D01*
X192253160Y-64965756D01*
X191735474Y-65179660D01*
X191339052Y-65575391D01*
X191124245Y-66092703D01*
X191123756Y-66652840D01*
X191337660Y-67170526D01*
X191733391Y-67566948D01*
X192250703Y-67781755D01*
X192810840Y-67782244D01*
X193328526Y-67568340D01*
X193515191Y-67382000D01*
X194972353Y-67382000D01*
X195240328Y-67783052D01*
X195304604Y-67826000D01*
X191486005Y-67826000D01*
X191486000Y-67825999D01*
X191100255Y-67902729D01*
X190773236Y-68121236D01*
X190773234Y-68121239D01*
X190625107Y-68269366D01*
X190424340Y-67783474D01*
X190028609Y-67387052D01*
X189511297Y-67172245D01*
X188951160Y-67171756D01*
X188433474Y-67385660D01*
X188037052Y-67781391D01*
X187822245Y-68298703D01*
X187821756Y-68858840D01*
X188035660Y-69376526D01*
X188222000Y-69563191D01*
X188222000Y-70966899D01*
X187838604Y-71223076D01*
X186514764Y-69899236D01*
X186187745Y-69680729D01*
X185802000Y-69603999D01*
X185801995Y-69604000D01*
X185545538Y-69604000D01*
X185638000Y-69380775D01*
X185638000Y-68773500D01*
X185448500Y-68584000D01*
X184234000Y-68584000D01*
X184234000Y-68604000D01*
X184226000Y-68604000D01*
X184226000Y-68584000D01*
X183011500Y-68584000D01*
X182822000Y-68773500D01*
X182822000Y-69380775D01*
X182914462Y-69604000D01*
X180517972Y-69604000D01*
X180509271Y-69560255D01*
X180290764Y-69233236D01*
X178836753Y-67779225D01*
X182822000Y-67779225D01*
X182822000Y-68386500D01*
X183011500Y-68576000D01*
X184226000Y-68576000D01*
X184226000Y-67361500D01*
X184234000Y-67361500D01*
X184234000Y-68576000D01*
X185448500Y-68576000D01*
X185638000Y-68386500D01*
X185638000Y-67779225D01*
X185522602Y-67500628D01*
X185309373Y-67287399D01*
X185030776Y-67172000D01*
X184423500Y-67172000D01*
X184234000Y-67361500D01*
X184226000Y-67361500D01*
X184036500Y-67172000D01*
X183429224Y-67172000D01*
X183150627Y-67287399D01*
X182937398Y-67500628D01*
X182822000Y-67779225D01*
X178836753Y-67779225D01*
X175390991Y-64333463D01*
X175598525Y-64274935D01*
X176104844Y-63938501D01*
X176443874Y-63433916D01*
X176564000Y-62838000D01*
X176564000Y-62488000D01*
X175010000Y-62488000D01*
X175010000Y-62508000D01*
X175002000Y-62508000D01*
X175002000Y-62488000D01*
X174982000Y-62488000D01*
X174982000Y-62480000D01*
X175002000Y-62480000D01*
X175002000Y-60765506D01*
X175010000Y-60765506D01*
X175010000Y-62480000D01*
X176564000Y-62480000D01*
X176564000Y-62130000D01*
X176443874Y-61534084D01*
X176104844Y-61029499D01*
X175598525Y-60693065D01*
X175253675Y-60595812D01*
X175010000Y-60765506D01*
X175002000Y-60765506D01*
X174758325Y-60595812D01*
X174413475Y-60693065D01*
X173907156Y-61029499D01*
X173748518Y-61265603D01*
X173567672Y-60994948D01*
X173062221Y-60657216D01*
X172466000Y-60538620D01*
X171869779Y-60657216D01*
X171364328Y-60994948D01*
X171183482Y-61265603D01*
X171024844Y-61029499D01*
X170518525Y-60693065D01*
X170173675Y-60595812D01*
X169930000Y-60765506D01*
X169930000Y-62480000D01*
X169950000Y-62480000D01*
X169950000Y-62488000D01*
X169930000Y-62488000D01*
X169930000Y-62508000D01*
X169922000Y-62508000D01*
X169922000Y-62488000D01*
X169902000Y-62488000D01*
X169902000Y-62480000D01*
X169922000Y-62480000D01*
X169922000Y-60765506D01*
X169678325Y-60595812D01*
X169333475Y-60693065D01*
X168827156Y-61029499D01*
X168668518Y-61265603D01*
X168487672Y-60994948D01*
X167982221Y-60657216D01*
X167386000Y-60538620D01*
X166789779Y-60657216D01*
X166284328Y-60994948D01*
X165946596Y-61500399D01*
X165828000Y-62096620D01*
X165828000Y-62871380D01*
X165946596Y-63467601D01*
X166284328Y-63973052D01*
X166789779Y-64310784D01*
X167386000Y-64429380D01*
X167982221Y-64310784D01*
X168487672Y-63973052D01*
X168668518Y-63702397D01*
X168827156Y-63938501D01*
X169333475Y-64274935D01*
X169541009Y-64333463D01*
X166673236Y-67201236D01*
X166454729Y-67528255D01*
X166397128Y-67817832D01*
X166036000Y-67745999D01*
X166035995Y-67746000D01*
X164559235Y-67746000D01*
X164374609Y-67561052D01*
X163857297Y-67346245D01*
X163297160Y-67345756D01*
X162779474Y-67559660D01*
X162383052Y-67955391D01*
X162168245Y-68472703D01*
X162167756Y-69032840D01*
X162381660Y-69550526D01*
X162777391Y-69946948D01*
X163294703Y-70161755D01*
X163854840Y-70162244D01*
X164372526Y-69948340D01*
X164559191Y-69762000D01*
X165618472Y-69762000D01*
X165828000Y-69971528D01*
X165828000Y-70491380D01*
X165946596Y-71087601D01*
X166284328Y-71593052D01*
X166378000Y-71655642D01*
X166378000Y-76357995D01*
X166377999Y-76358000D01*
X166454729Y-76743745D01*
X166534391Y-76862968D01*
X166281779Y-76913216D01*
X165776328Y-77250948D01*
X165438596Y-77756399D01*
X165320000Y-78352620D01*
X165320000Y-79127380D01*
X165438596Y-79723601D01*
X165776328Y-80229052D01*
X166281779Y-80566784D01*
X166878000Y-80685380D01*
X167474221Y-80566784D01*
X167979672Y-80229052D01*
X168148000Y-79977132D01*
X168251077Y-80131396D01*
X164615226Y-83767246D01*
X164396719Y-84094265D01*
X164319989Y-84480010D01*
X164319990Y-84480015D01*
X164319990Y-88302485D01*
X164319989Y-88302490D01*
X164396719Y-88688235D01*
X164615226Y-89015254D01*
X167210838Y-91610866D01*
X167079297Y-91556245D01*
X166519160Y-91555756D01*
X166001474Y-91769660D01*
X165605052Y-92165391D01*
X165390245Y-92682703D01*
X165389756Y-93242840D01*
X165603660Y-93760526D01*
X165999391Y-94156948D01*
X166516703Y-94371755D01*
X167076840Y-94372244D01*
X167594526Y-94158340D01*
X167990948Y-93762609D01*
X168205755Y-93245297D01*
X168206244Y-92685160D01*
X168150696Y-92550724D01*
X177470182Y-101870209D01*
X177461100Y-101915869D01*
X177461100Y-103011331D01*
X177576803Y-103593010D01*
X177906298Y-104086133D01*
X178399421Y-104415628D01*
X178981100Y-104531331D01*
X179562779Y-104415628D01*
X180055902Y-104086133D01*
X180251100Y-103793999D01*
X180446298Y-104086133D01*
X180939421Y-104415628D01*
X181521100Y-104531331D01*
X182102779Y-104415628D01*
X182595902Y-104086133D01*
X182791100Y-103793999D01*
X182986298Y-104086133D01*
X183479421Y-104415628D01*
X184061100Y-104531331D01*
X184642779Y-104415628D01*
X185135902Y-104086133D01*
X185331100Y-103793999D01*
X185526298Y-104086133D01*
X186019421Y-104415628D01*
X186601100Y-104531331D01*
X187182779Y-104415628D01*
X187675902Y-104086133D01*
X187884319Y-103774216D01*
X188069126Y-104049230D01*
X188563116Y-104377427D01*
X188899370Y-104472256D01*
X189137100Y-104302094D01*
X189137100Y-102467600D01*
X189145100Y-102467600D01*
X189145100Y-104302094D01*
X189382830Y-104472256D01*
X189719084Y-104377427D01*
X190213074Y-104049230D01*
X190411100Y-103754545D01*
X190609126Y-104049230D01*
X191103116Y-104377427D01*
X191439370Y-104472256D01*
X191677100Y-104302094D01*
X191677100Y-102467600D01*
X189145100Y-102467600D01*
X189137100Y-102467600D01*
X189117100Y-102467600D01*
X189117100Y-102459600D01*
X189137100Y-102459600D01*
X189137100Y-100625106D01*
X189145100Y-100625106D01*
X189145100Y-102459600D01*
X191677100Y-102459600D01*
X191677100Y-100625106D01*
X191685100Y-100625106D01*
X191685100Y-102459600D01*
X191705100Y-102459600D01*
X191705100Y-102467600D01*
X191685100Y-102467600D01*
X191685100Y-104302094D01*
X191922830Y-104472256D01*
X192259084Y-104377427D01*
X192753074Y-104049230D01*
X192937881Y-103774216D01*
X193146298Y-104086133D01*
X193213100Y-104130769D01*
X193213100Y-104233595D01*
X193213099Y-104233600D01*
X193289829Y-104619345D01*
X193508336Y-104946364D01*
X194871069Y-106309096D01*
X194871071Y-106309099D01*
X195198090Y-106527606D01*
X195583835Y-106604335D01*
X213628549Y-106604335D01*
X213628554Y-106604336D01*
X214014299Y-106527606D01*
X214341318Y-106309099D01*
X217454761Y-103195655D01*
X217454764Y-103195653D01*
X217673271Y-102868634D01*
X217677108Y-102849345D01*
X217750001Y-102482889D01*
X217750000Y-102482884D01*
X217750000Y-101650381D01*
X217930886Y-101533985D01*
X218103960Y-101280682D01*
X218117475Y-101213939D01*
X220863718Y-101213939D01*
X220901425Y-101493758D01*
X221410761Y-101726846D01*
X221970525Y-101747277D01*
X222495498Y-101551941D01*
X222582575Y-101493758D01*
X222620282Y-101213939D01*
X221742000Y-100335657D01*
X220863718Y-101213939D01*
X218117475Y-101213939D01*
X218164850Y-100980000D01*
X218164850Y-100558525D01*
X220324723Y-100558525D01*
X220520059Y-101083498D01*
X220578242Y-101170575D01*
X220858061Y-101208282D01*
X221736343Y-100330000D01*
X221747657Y-100330000D01*
X222625939Y-101208282D01*
X222905758Y-101170575D01*
X223138846Y-100661239D01*
X223159277Y-100101475D01*
X222963941Y-99576502D01*
X222905758Y-99489425D01*
X222625939Y-99451718D01*
X221747657Y-100330000D01*
X221736343Y-100330000D01*
X220858061Y-99451718D01*
X220578242Y-99489425D01*
X220345154Y-99998761D01*
X220324723Y-100558525D01*
X218164850Y-100558525D01*
X218164850Y-99680000D01*
X218120832Y-99446061D01*
X220863718Y-99446061D01*
X221742000Y-100324343D01*
X222620282Y-99446061D01*
X222582575Y-99166242D01*
X222073239Y-98933154D01*
X221513475Y-98912723D01*
X220988502Y-99108059D01*
X220901425Y-99166242D01*
X220863718Y-99446061D01*
X218120832Y-99446061D01*
X218111995Y-99399102D01*
X218047952Y-99299576D01*
X219917903Y-97429624D01*
X224539649Y-97429624D01*
X224847743Y-98175269D01*
X225417730Y-98746252D01*
X226162836Y-99055647D01*
X226969624Y-99056351D01*
X227715269Y-98748257D01*
X228105271Y-98358935D01*
X230322721Y-98358935D01*
X230435857Y-98703178D01*
X231169188Y-99039529D01*
X231975414Y-99069644D01*
X232731795Y-98788937D01*
X232860143Y-98703178D01*
X232973279Y-98358935D01*
X231648000Y-97033657D01*
X230322721Y-98358935D01*
X228105271Y-98358935D01*
X228286252Y-98178270D01*
X228595647Y-97433164D01*
X228595714Y-97355414D01*
X229606356Y-97355414D01*
X229887063Y-98111795D01*
X229972822Y-98240143D01*
X230317065Y-98353279D01*
X231642343Y-97028000D01*
X231653657Y-97028000D01*
X232978935Y-98353279D01*
X233323178Y-98240143D01*
X233659529Y-97506812D01*
X233689644Y-96700586D01*
X233408937Y-95944205D01*
X233323178Y-95815857D01*
X232978935Y-95702721D01*
X231653657Y-97028000D01*
X231642343Y-97028000D01*
X230317065Y-95702721D01*
X229972822Y-95815857D01*
X229636471Y-96549188D01*
X229606356Y-97355414D01*
X228595714Y-97355414D01*
X228596351Y-96626376D01*
X228288257Y-95880731D01*
X228104912Y-95697065D01*
X230322721Y-95697065D01*
X231648000Y-97022343D01*
X232973279Y-95697065D01*
X232860143Y-95352822D01*
X232126812Y-95016471D01*
X231320586Y-94986356D01*
X230564205Y-95267063D01*
X230435857Y-95352822D01*
X230322721Y-95697065D01*
X228104912Y-95697065D01*
X227718270Y-95309748D01*
X226973164Y-95000353D01*
X226166376Y-94999649D01*
X225420731Y-95307743D01*
X224849748Y-95877730D01*
X224540353Y-96622836D01*
X224539649Y-97429624D01*
X219917903Y-97429624D01*
X224391527Y-92956000D01*
X224790198Y-92956000D01*
X224847743Y-93095269D01*
X225417730Y-93666252D01*
X226162836Y-93975647D01*
X226969624Y-93976351D01*
X227715269Y-93668257D01*
X228286252Y-93098270D01*
X228595647Y-92353164D01*
X228596351Y-91546376D01*
X228288257Y-90800731D01*
X227718270Y-90229748D01*
X226973164Y-89920353D01*
X226166376Y-89919649D01*
X225420731Y-90227743D01*
X224849748Y-90797730D01*
X224790672Y-90940000D01*
X223974000Y-90940000D01*
X223588255Y-91016729D01*
X223261236Y-91235236D01*
X223261234Y-91235239D01*
X216029236Y-98467236D01*
X215810729Y-98794255D01*
X215772865Y-98984610D01*
X215553114Y-99126015D01*
X215380040Y-99379318D01*
X215319150Y-99680000D01*
X215319150Y-100980000D01*
X215372005Y-101260898D01*
X215538015Y-101518886D01*
X215734000Y-101652796D01*
X215734000Y-102065362D01*
X213211026Y-104588335D01*
X196001362Y-104588335D01*
X195377316Y-103964288D01*
X195625397Y-103593010D01*
X195741100Y-103011331D01*
X195741100Y-101915869D01*
X197781100Y-101915869D01*
X197781100Y-103011331D01*
X197896803Y-103593010D01*
X198226298Y-104086133D01*
X198719421Y-104415628D01*
X199301100Y-104531331D01*
X199882779Y-104415628D01*
X200375902Y-104086133D01*
X200571100Y-103793999D01*
X200766298Y-104086133D01*
X201259421Y-104415628D01*
X201841100Y-104531331D01*
X202422779Y-104415628D01*
X202915902Y-104086133D01*
X203111100Y-103793999D01*
X203306298Y-104086133D01*
X203799421Y-104415628D01*
X204381100Y-104531331D01*
X204962779Y-104415628D01*
X205455902Y-104086133D01*
X205651100Y-103793999D01*
X205846298Y-104086133D01*
X206339421Y-104415628D01*
X206921100Y-104531331D01*
X207502779Y-104415628D01*
X207995902Y-104086133D01*
X208191100Y-103793999D01*
X208386298Y-104086133D01*
X208879421Y-104415628D01*
X209461100Y-104531331D01*
X210042779Y-104415628D01*
X210535902Y-104086133D01*
X210731100Y-103793999D01*
X210926298Y-104086133D01*
X211419421Y-104415628D01*
X212001100Y-104531331D01*
X212582779Y-104415628D01*
X213075902Y-104086133D01*
X213405397Y-103593010D01*
X213521100Y-103011331D01*
X213521100Y-101915869D01*
X213405397Y-101334190D01*
X213075902Y-100841067D01*
X212582779Y-100511572D01*
X212001100Y-100395869D01*
X211419421Y-100511572D01*
X210926298Y-100841067D01*
X210731100Y-101133201D01*
X210535902Y-100841067D01*
X210042779Y-100511572D01*
X209461100Y-100395869D01*
X208879421Y-100511572D01*
X208386298Y-100841067D01*
X208191100Y-101133201D01*
X207995902Y-100841067D01*
X207502779Y-100511572D01*
X206921100Y-100395869D01*
X206339421Y-100511572D01*
X205846298Y-100841067D01*
X205651100Y-101133201D01*
X205455902Y-100841067D01*
X204962779Y-100511572D01*
X204381100Y-100395869D01*
X203799421Y-100511572D01*
X203306298Y-100841067D01*
X203111100Y-101133201D01*
X202915902Y-100841067D01*
X202422779Y-100511572D01*
X201841100Y-100395869D01*
X201259421Y-100511572D01*
X200766298Y-100841067D01*
X200571100Y-101133201D01*
X200375902Y-100841067D01*
X199882779Y-100511572D01*
X199301100Y-100395869D01*
X198719421Y-100511572D01*
X198226298Y-100841067D01*
X197896803Y-101334190D01*
X197781100Y-101915869D01*
X195741100Y-101915869D01*
X195625397Y-101334190D01*
X195295902Y-100841067D01*
X194802779Y-100511572D01*
X194221100Y-100395869D01*
X193639421Y-100511572D01*
X193146298Y-100841067D01*
X192937881Y-101152984D01*
X192753074Y-100877970D01*
X192259084Y-100549773D01*
X191922830Y-100454944D01*
X191685100Y-100625106D01*
X191677100Y-100625106D01*
X191439370Y-100454944D01*
X191103116Y-100549773D01*
X190609126Y-100877970D01*
X190411100Y-101172655D01*
X190213074Y-100877970D01*
X189719084Y-100549773D01*
X189382830Y-100454944D01*
X189145100Y-100625106D01*
X189137100Y-100625106D01*
X188899370Y-100454944D01*
X188563116Y-100549773D01*
X188069126Y-100877970D01*
X187884319Y-101152984D01*
X187675902Y-100841067D01*
X187182779Y-100511572D01*
X186601100Y-100395869D01*
X186019421Y-100511572D01*
X185526298Y-100841067D01*
X185331100Y-101133201D01*
X185135902Y-100841067D01*
X184642779Y-100511572D01*
X184061100Y-100395869D01*
X183479421Y-100511572D01*
X182986298Y-100841067D01*
X182791100Y-101133201D01*
X182595902Y-100841067D01*
X182102779Y-100511572D01*
X181521100Y-100395869D01*
X180939421Y-100511572D01*
X180446298Y-100841067D01*
X180251100Y-101133201D01*
X180137316Y-100962912D01*
X182048227Y-99052000D01*
X187244943Y-99052000D01*
X187725162Y-99533059D01*
X188370880Y-99801184D01*
X189070053Y-99801794D01*
X189716237Y-99534796D01*
X190211059Y-99040838D01*
X190479184Y-98395120D01*
X190479794Y-97695947D01*
X190212796Y-97049763D01*
X189718838Y-96554941D01*
X189328677Y-96392932D01*
X189716237Y-96232796D01*
X190211059Y-95738838D01*
X190479184Y-95093120D01*
X190479186Y-95090053D01*
X197124206Y-95090053D01*
X197391204Y-95736237D01*
X197885162Y-96231059D01*
X198275323Y-96393068D01*
X197887763Y-96553204D01*
X197392941Y-97047162D01*
X197124816Y-97692880D01*
X197124206Y-98392053D01*
X197391204Y-99038237D01*
X197885162Y-99533059D01*
X198530880Y-99801184D01*
X199230053Y-99801794D01*
X199876237Y-99534796D01*
X200279270Y-99132467D01*
X200679162Y-99533059D01*
X201324880Y-99801184D01*
X202024053Y-99801794D01*
X202670237Y-99534796D01*
X203165059Y-99040838D01*
X203433184Y-98395120D01*
X203433794Y-97695947D01*
X203166796Y-97049763D01*
X202672838Y-96554941D01*
X202282677Y-96392932D01*
X202670237Y-96232796D01*
X203165059Y-95738838D01*
X203433184Y-95093120D01*
X203433186Y-95090053D01*
X210078206Y-95090053D01*
X210345204Y-95736237D01*
X210839162Y-96231059D01*
X211229323Y-96393068D01*
X210841763Y-96553204D01*
X210346941Y-97047162D01*
X210078816Y-97692880D01*
X210078206Y-98392053D01*
X210345204Y-99038237D01*
X210839162Y-99533059D01*
X211484880Y-99801184D01*
X212184053Y-99801794D01*
X212830237Y-99534796D01*
X213325059Y-99040838D01*
X213593184Y-98395120D01*
X213593794Y-97695947D01*
X213326796Y-97049763D01*
X212832838Y-96554941D01*
X212442677Y-96392932D01*
X212830237Y-96232796D01*
X213325059Y-95738838D01*
X213593184Y-95093120D01*
X213593794Y-94393947D01*
X213326796Y-93747763D01*
X212832838Y-93252941D01*
X212187120Y-92984816D01*
X211487947Y-92984206D01*
X210841763Y-93251204D01*
X210346941Y-93745162D01*
X210078816Y-94390880D01*
X210078206Y-95090053D01*
X203433186Y-95090053D01*
X203433794Y-94393947D01*
X203166796Y-93747763D01*
X202672838Y-93252941D01*
X202027120Y-92984816D01*
X201327947Y-92984206D01*
X200681763Y-93251204D01*
X200278730Y-93653533D01*
X199878838Y-93252941D01*
X199233120Y-92984816D01*
X198533947Y-92984206D01*
X197887763Y-93251204D01*
X197392941Y-93745162D01*
X197124816Y-94390880D01*
X197124206Y-95090053D01*
X190479186Y-95090053D01*
X190479794Y-94393947D01*
X190212796Y-93747763D01*
X189718838Y-93252941D01*
X189073120Y-92984816D01*
X188373947Y-92984206D01*
X187727763Y-93251204D01*
X187232941Y-93745162D01*
X186964816Y-94390880D01*
X186964206Y-95090053D01*
X187231204Y-95736237D01*
X187725162Y-96231059D01*
X188115323Y-96393068D01*
X187727763Y-96553204D01*
X187244123Y-97036000D01*
X181630700Y-97036000D01*
X181244955Y-97112729D01*
X180917936Y-97331236D01*
X180917934Y-97331239D01*
X178350100Y-99899072D01*
X166726216Y-88275188D01*
X166878000Y-88305380D01*
X167474221Y-88186784D01*
X167979672Y-87849052D01*
X168148000Y-87597132D01*
X168316328Y-87849052D01*
X168821779Y-88186784D01*
X169418000Y-88305380D01*
X170014221Y-88186784D01*
X170519672Y-87849052D01*
X170688000Y-87597132D01*
X170856328Y-87849052D01*
X171195289Y-88075539D01*
X170963763Y-88171204D01*
X170468941Y-88665162D01*
X170200816Y-89310880D01*
X170200206Y-90010053D01*
X170467204Y-90656237D01*
X170961162Y-91151059D01*
X171606880Y-91419184D01*
X172306053Y-91419794D01*
X172952237Y-91152796D01*
X173421714Y-90684139D01*
X173547318Y-90769960D01*
X173661901Y-90793164D01*
X173305052Y-91149391D01*
X173090245Y-91666703D01*
X173089756Y-92226840D01*
X173303660Y-92744526D01*
X173699391Y-93140948D01*
X174216703Y-93355755D01*
X174776840Y-93356244D01*
X175294526Y-93142340D01*
X175690948Y-92746609D01*
X175905755Y-92229297D01*
X175905831Y-92141500D01*
X178090000Y-92141500D01*
X178090000Y-92748775D01*
X178205398Y-93027372D01*
X178418627Y-93240601D01*
X178697224Y-93356000D01*
X179304500Y-93356000D01*
X179494000Y-93166500D01*
X179494000Y-91952000D01*
X179502000Y-91952000D01*
X179502000Y-93166500D01*
X179691500Y-93356000D01*
X180298776Y-93356000D01*
X180577373Y-93240601D01*
X180790602Y-93027372D01*
X180906000Y-92748775D01*
X180906000Y-92141500D01*
X180716500Y-91952000D01*
X179502000Y-91952000D01*
X179494000Y-91952000D01*
X178279500Y-91952000D01*
X178090000Y-92141500D01*
X175905831Y-92141500D01*
X175906244Y-91669160D01*
X175692340Y-91151474D01*
X175688099Y-91147225D01*
X178090000Y-91147225D01*
X178090000Y-91754500D01*
X178279500Y-91944000D01*
X179494000Y-91944000D01*
X179494000Y-91924000D01*
X179502000Y-91924000D01*
X179502000Y-91944000D01*
X180716500Y-91944000D01*
X180906000Y-91754500D01*
X180906000Y-91147225D01*
X180790602Y-90868628D01*
X180666819Y-90744845D01*
X200308400Y-90744845D01*
X200308400Y-91119155D01*
X200431837Y-91739714D01*
X200783356Y-92265799D01*
X201309441Y-92617318D01*
X201930000Y-92740755D01*
X202550559Y-92617318D01*
X203076644Y-92265799D01*
X203200000Y-92081184D01*
X203323356Y-92265799D01*
X203849441Y-92617318D01*
X204470000Y-92740755D01*
X205090559Y-92617318D01*
X205500211Y-92343597D01*
X205592415Y-92486886D01*
X205845718Y-92659960D01*
X206146400Y-92720850D01*
X207873600Y-92720850D01*
X208154498Y-92667995D01*
X208412486Y-92501985D01*
X208585560Y-92248682D01*
X208646450Y-91948000D01*
X208646450Y-89916000D01*
X208593595Y-89635102D01*
X208444329Y-89403134D01*
X213879782Y-89403134D01*
X214070897Y-89865669D01*
X214424470Y-90219859D01*
X214886670Y-90411781D01*
X215387134Y-90412218D01*
X215849669Y-90221103D01*
X216203859Y-89867530D01*
X216395781Y-89405330D01*
X216395854Y-89321674D01*
X216469474Y-89248053D01*
X227604206Y-89248053D01*
X227871204Y-89894237D01*
X228365162Y-90389059D01*
X229010880Y-90657184D01*
X229710053Y-90657794D01*
X230324085Y-90404081D01*
X229929748Y-90797730D01*
X229620353Y-91542836D01*
X229619649Y-92349624D01*
X229927743Y-93095269D01*
X230497730Y-93666252D01*
X231242836Y-93975647D01*
X232049624Y-93976351D01*
X232795269Y-93668257D01*
X233366252Y-93098270D01*
X233675647Y-92353164D01*
X233676351Y-91546376D01*
X233368257Y-90800731D01*
X232798270Y-90229748D01*
X232053164Y-89920353D01*
X231246376Y-89919649D01*
X230532884Y-90214458D01*
X230851059Y-89896838D01*
X231119184Y-89251120D01*
X231119794Y-88551947D01*
X230852796Y-87905763D01*
X230358838Y-87410941D01*
X229713120Y-87142816D01*
X229013947Y-87142206D01*
X228367763Y-87409204D01*
X227872941Y-87903162D01*
X227604816Y-88548880D01*
X227604206Y-89248053D01*
X216469474Y-89248053D01*
X223451560Y-82265967D01*
X223869924Y-82093103D01*
X224224114Y-81739530D01*
X224416036Y-81277330D01*
X224416473Y-80776866D01*
X224225358Y-80314331D01*
X223871785Y-79960141D01*
X223409585Y-79768219D01*
X222909121Y-79767782D01*
X222446586Y-79958897D01*
X222092396Y-80312470D01*
X221900474Y-80774670D01*
X221900307Y-80966166D01*
X214970619Y-87895853D01*
X214888866Y-87895782D01*
X214426331Y-88086897D01*
X214072141Y-88440470D01*
X213880219Y-88902670D01*
X213879782Y-89403134D01*
X208444329Y-89403134D01*
X208427585Y-89377114D01*
X208174282Y-89204040D01*
X207873600Y-89143150D01*
X206146400Y-89143150D01*
X205865502Y-89196005D01*
X205607514Y-89362015D01*
X205499580Y-89519982D01*
X205090559Y-89246682D01*
X204470000Y-89123245D01*
X203849441Y-89246682D01*
X203323356Y-89598201D01*
X203200000Y-89782816D01*
X203076644Y-89598201D01*
X202550559Y-89246682D01*
X201930000Y-89123245D01*
X201309441Y-89246682D01*
X200783356Y-89598201D01*
X200431837Y-90124286D01*
X200308400Y-90744845D01*
X180666819Y-90744845D01*
X180577373Y-90655399D01*
X180340524Y-90557293D01*
X180376282Y-90291939D01*
X179498000Y-89413657D01*
X178619718Y-90291939D01*
X178655476Y-90557293D01*
X178418627Y-90655399D01*
X178205398Y-90868628D01*
X178090000Y-91147225D01*
X175688099Y-91147225D01*
X175336810Y-90795323D01*
X175428898Y-90777995D01*
X175686886Y-90611985D01*
X175859960Y-90358682D01*
X175920850Y-90058000D01*
X175920850Y-89636525D01*
X178080723Y-89636525D01*
X178276059Y-90161498D01*
X178334242Y-90248575D01*
X178614061Y-90286282D01*
X179492343Y-89408000D01*
X179503657Y-89408000D01*
X180381939Y-90286282D01*
X180661758Y-90248575D01*
X180894846Y-89739239D01*
X180897842Y-89657134D01*
X182383782Y-89657134D01*
X182574897Y-90119669D01*
X182928470Y-90473859D01*
X183390670Y-90665781D01*
X183891134Y-90666218D01*
X184353669Y-90475103D01*
X184412875Y-90416000D01*
X190236712Y-90416000D01*
X190294470Y-90473859D01*
X190756670Y-90665781D01*
X191257134Y-90666218D01*
X191719669Y-90475103D01*
X192073859Y-90121530D01*
X192265781Y-89659330D01*
X192266218Y-89158866D01*
X192075103Y-88696331D01*
X191721530Y-88342141D01*
X191259330Y-88150219D01*
X190758866Y-88149782D01*
X190296331Y-88340897D01*
X190237125Y-88400000D01*
X184413288Y-88400000D01*
X184355530Y-88342141D01*
X183893330Y-88150219D01*
X183392866Y-88149782D01*
X182930331Y-88340897D01*
X182576141Y-88694470D01*
X182384219Y-89156670D01*
X182383782Y-89657134D01*
X180897842Y-89657134D01*
X180915277Y-89179475D01*
X180719941Y-88654502D01*
X180661758Y-88567425D01*
X180381939Y-88529718D01*
X179503657Y-89408000D01*
X179492343Y-89408000D01*
X178614061Y-88529718D01*
X178334242Y-88567425D01*
X178101154Y-89076761D01*
X178080723Y-89636525D01*
X175920850Y-89636525D01*
X175920850Y-88758000D01*
X175876832Y-88524061D01*
X178619718Y-88524061D01*
X179498000Y-89402343D01*
X180376282Y-88524061D01*
X180338575Y-88244242D01*
X179829239Y-88011154D01*
X179269475Y-87990723D01*
X178744502Y-88186059D01*
X178657425Y-88244242D01*
X178619718Y-88524061D01*
X175876832Y-88524061D01*
X175867995Y-88477102D01*
X175701985Y-88219114D01*
X175506000Y-88085204D01*
X175506000Y-87911642D01*
X175599672Y-87849052D01*
X175937404Y-87343601D01*
X176056000Y-86747380D01*
X176056000Y-85972620D01*
X176040223Y-85893305D01*
X177257474Y-84676053D01*
X183662206Y-84676053D01*
X183929204Y-85322237D01*
X184423162Y-85817059D01*
X185068880Y-86085184D01*
X185768053Y-86085794D01*
X186414237Y-85818796D01*
X186909059Y-85324838D01*
X187177184Y-84679120D01*
X187177186Y-84676053D01*
X193822206Y-84676053D01*
X194089204Y-85322237D01*
X194583162Y-85817059D01*
X195228880Y-86085184D01*
X195928053Y-86085794D01*
X196574237Y-85818796D01*
X196977270Y-85416467D01*
X197377162Y-85817059D01*
X198022880Y-86085184D01*
X198722053Y-86085794D01*
X199368237Y-85818796D01*
X199723745Y-85463908D01*
X207403749Y-85463908D01*
X207483973Y-85780042D01*
X208119574Y-86071340D01*
X208818268Y-86097230D01*
X209473684Y-85853771D01*
X209584027Y-85780042D01*
X209664251Y-85463908D01*
X208534000Y-84333657D01*
X207403749Y-85463908D01*
X199723745Y-85463908D01*
X199863059Y-85324838D01*
X200131184Y-84679120D01*
X200131794Y-83979947D01*
X199864796Y-83333763D01*
X199370838Y-82838941D01*
X198725120Y-82570816D01*
X198025947Y-82570206D01*
X197379763Y-82837204D01*
X196976730Y-83239533D01*
X196576838Y-82838941D01*
X196313364Y-82729537D01*
X196828237Y-82516796D01*
X197323059Y-82022838D01*
X197591184Y-81377120D01*
X197591794Y-80677947D01*
X197324796Y-80031763D01*
X196830838Y-79536941D01*
X196185120Y-79268816D01*
X195485947Y-79268206D01*
X194839763Y-79535204D01*
X194344941Y-80029162D01*
X194076816Y-80674880D01*
X194076206Y-81374053D01*
X194343204Y-82020237D01*
X194837162Y-82515059D01*
X195100636Y-82624463D01*
X194585763Y-82837204D01*
X194090941Y-83331162D01*
X193822816Y-83976880D01*
X193822206Y-84676053D01*
X187177186Y-84676053D01*
X187177794Y-83979947D01*
X186910796Y-83333763D01*
X186416838Y-82838941D01*
X185771120Y-82570816D01*
X185071947Y-82570206D01*
X184425763Y-82837204D01*
X183930941Y-83331162D01*
X183662816Y-83976880D01*
X183662206Y-84676053D01*
X177257474Y-84676053D01*
X178121527Y-83812000D01*
X178465995Y-83812000D01*
X178466000Y-83812001D01*
X178851745Y-83735271D01*
X179178764Y-83516764D01*
X181143304Y-81552223D01*
X181222620Y-81568000D01*
X181997380Y-81568000D01*
X182593601Y-81449404D01*
X183001396Y-81176924D01*
X184097246Y-82272774D01*
X184424265Y-82491281D01*
X184810010Y-82568010D01*
X190222030Y-82568010D01*
X190222035Y-82568011D01*
X190607780Y-82491281D01*
X190934799Y-82272774D01*
X194878292Y-78329280D01*
X195195356Y-78803799D01*
X195721441Y-79155318D01*
X196342000Y-79278755D01*
X196962559Y-79155318D01*
X197488644Y-78803799D01*
X197612000Y-78619184D01*
X197735356Y-78803799D01*
X197874000Y-78896438D01*
X197874000Y-78993995D01*
X197873999Y-78994000D01*
X197950729Y-79379745D01*
X198169236Y-79706764D01*
X202703853Y-84241381D01*
X202703782Y-84323134D01*
X202894897Y-84785669D01*
X203248470Y-85139859D01*
X203710670Y-85331781D01*
X204211134Y-85332218D01*
X204673669Y-85141103D01*
X205027859Y-84787530D01*
X205100634Y-84612268D01*
X206764770Y-84612268D01*
X207008229Y-85267684D01*
X207081958Y-85378027D01*
X207398092Y-85458251D01*
X208528343Y-84328000D01*
X208539657Y-84328000D01*
X209669908Y-85458251D01*
X209986042Y-85378027D01*
X210277340Y-84742426D01*
X210303230Y-84043732D01*
X210059771Y-83388316D01*
X209986042Y-83277973D01*
X209669908Y-83197749D01*
X208539657Y-84328000D01*
X208528343Y-84328000D01*
X207398092Y-83197749D01*
X207081958Y-83277973D01*
X206790660Y-83913574D01*
X206764770Y-84612268D01*
X205100634Y-84612268D01*
X205219781Y-84325330D01*
X205220218Y-83824866D01*
X205029103Y-83362331D01*
X204859161Y-83192092D01*
X207403749Y-83192092D01*
X208534000Y-84322343D01*
X209664251Y-83192092D01*
X209602006Y-82946805D01*
X209981684Y-82805771D01*
X210092027Y-82732042D01*
X210172251Y-82415908D01*
X209042000Y-81285657D01*
X207911749Y-82415908D01*
X207973994Y-82661195D01*
X207594316Y-82802229D01*
X207483973Y-82875958D01*
X207403749Y-83192092D01*
X204859161Y-83192092D01*
X204675530Y-83008141D01*
X204213330Y-82816219D01*
X204129674Y-82816146D01*
X203475436Y-82161908D01*
X204863749Y-82161908D01*
X204943973Y-82478042D01*
X205579574Y-82769340D01*
X206278268Y-82795230D01*
X206933684Y-82551771D01*
X207044027Y-82478042D01*
X207124251Y-82161908D01*
X205994000Y-81031657D01*
X204863749Y-82161908D01*
X203475436Y-82161908D01*
X202623796Y-81310268D01*
X204224770Y-81310268D01*
X204468229Y-81965684D01*
X204541958Y-82076027D01*
X204858092Y-82156251D01*
X205988343Y-81026000D01*
X205999657Y-81026000D01*
X207129908Y-82156251D01*
X207446042Y-82076027D01*
X207455335Y-82055751D01*
X207516229Y-82219684D01*
X207589958Y-82330027D01*
X207906092Y-82410251D01*
X209036343Y-81280000D01*
X209047657Y-81280000D01*
X210177908Y-82410251D01*
X210494042Y-82330027D01*
X210785340Y-81694426D01*
X210811230Y-80995732D01*
X210567771Y-80340316D01*
X210494042Y-80229973D01*
X210177908Y-80149749D01*
X209047657Y-81280000D01*
X209036343Y-81280000D01*
X207906092Y-80149749D01*
X207589958Y-80229973D01*
X207580665Y-80250249D01*
X207541233Y-80144092D01*
X207911749Y-80144092D01*
X209042000Y-81274343D01*
X210172251Y-80144092D01*
X210092027Y-79827958D01*
X209456426Y-79536660D01*
X208757732Y-79510770D01*
X208102316Y-79754229D01*
X207991973Y-79827958D01*
X207911749Y-80144092D01*
X207541233Y-80144092D01*
X207519771Y-80086316D01*
X207446042Y-79975973D01*
X207129908Y-79895749D01*
X205999657Y-81026000D01*
X205988343Y-81026000D01*
X204858092Y-79895749D01*
X204541958Y-79975973D01*
X204250660Y-80611574D01*
X204224770Y-81310268D01*
X202623796Y-81310268D01*
X201203620Y-79890092D01*
X204863749Y-79890092D01*
X205994000Y-81020343D01*
X207124251Y-79890092D01*
X207044027Y-79573958D01*
X206408426Y-79282660D01*
X205709732Y-79256770D01*
X205054316Y-79500229D01*
X204943973Y-79573958D01*
X204863749Y-79890092D01*
X201203620Y-79890092D01*
X200572378Y-79258850D01*
X202285600Y-79258850D01*
X202566498Y-79205995D01*
X202824486Y-79039985D01*
X202997560Y-78786682D01*
X203058450Y-78486000D01*
X203058450Y-76454000D01*
X203005595Y-76173102D01*
X202839585Y-75915114D01*
X202586282Y-75742040D01*
X202285600Y-75681150D01*
X202107469Y-75681150D01*
X202523672Y-75403052D01*
X202704518Y-75132397D01*
X202863156Y-75368501D01*
X203369475Y-75704935D01*
X203714325Y-75802188D01*
X203958000Y-75632494D01*
X203958000Y-73918000D01*
X203966000Y-73918000D01*
X203966000Y-75632494D01*
X204209675Y-75802188D01*
X204554525Y-75704935D01*
X204581314Y-75687134D01*
X211593782Y-75687134D01*
X211784897Y-76149669D01*
X211844000Y-76208875D01*
X211844000Y-81778712D01*
X211786141Y-81836470D01*
X211594219Y-82298670D01*
X211593782Y-82799134D01*
X211784897Y-83261669D01*
X212138470Y-83615859D01*
X212600670Y-83807781D01*
X213101134Y-83808218D01*
X213563669Y-83617103D01*
X213917859Y-83263530D01*
X214109781Y-82801330D01*
X214110218Y-82300866D01*
X213919103Y-81838331D01*
X213860000Y-81779125D01*
X213860000Y-76209288D01*
X213917859Y-76151530D01*
X214109781Y-75689330D01*
X214110218Y-75188866D01*
X213919103Y-74726331D01*
X213565530Y-74372141D01*
X213103330Y-74180219D01*
X212602866Y-74179782D01*
X212140331Y-74370897D01*
X211786141Y-74724470D01*
X211594219Y-75186670D01*
X211593782Y-75687134D01*
X204581314Y-75687134D01*
X205060844Y-75368501D01*
X205399874Y-74863916D01*
X205520000Y-74268000D01*
X205520000Y-73918000D01*
X203966000Y-73918000D01*
X203958000Y-73918000D01*
X203938000Y-73918000D01*
X203938000Y-73910000D01*
X203958000Y-73910000D01*
X203958000Y-72195506D01*
X203966000Y-72195506D01*
X203966000Y-73910000D01*
X205520000Y-73910000D01*
X205520000Y-73560000D01*
X205399874Y-72964084D01*
X205060844Y-72459499D01*
X204554525Y-72123065D01*
X204209675Y-72025812D01*
X203966000Y-72195506D01*
X203958000Y-72195506D01*
X203714325Y-72025812D01*
X203369475Y-72123065D01*
X202863156Y-72459499D01*
X202704518Y-72695603D01*
X202523672Y-72424948D01*
X202018221Y-72087216D01*
X201422000Y-71968620D01*
X200825779Y-72087216D01*
X200320328Y-72424948D01*
X200152000Y-72676868D01*
X199983672Y-72424948D01*
X199478221Y-72087216D01*
X198882000Y-71968620D01*
X198285779Y-72087216D01*
X197780328Y-72424948D01*
X197612000Y-72676868D01*
X197443672Y-72424948D01*
X197006587Y-72132896D01*
X197671430Y-71468053D01*
X207284206Y-71468053D01*
X207551204Y-72114237D01*
X208045162Y-72609059D01*
X208690880Y-72877184D01*
X209390053Y-72877794D01*
X210036237Y-72610796D01*
X210531059Y-72116838D01*
X210799184Y-71471120D01*
X210799794Y-70771947D01*
X210532796Y-70125763D01*
X210038838Y-69630941D01*
X209393120Y-69362816D01*
X208693947Y-69362206D01*
X208047763Y-69629204D01*
X207552941Y-70123162D01*
X207284816Y-70768880D01*
X207284206Y-71468053D01*
X197671430Y-71468053D01*
X199937473Y-69202010D01*
X204604030Y-69202010D01*
X204604035Y-69202011D01*
X204989780Y-69125281D01*
X205316799Y-68906774D01*
X206375305Y-67848268D01*
X236990770Y-67848268D01*
X237234229Y-68503684D01*
X237307958Y-68614027D01*
X237624092Y-68694251D01*
X238754343Y-67564000D01*
X237624092Y-66433749D01*
X237307958Y-66513973D01*
X237016660Y-67149574D01*
X236990770Y-67848268D01*
X206375305Y-67848268D01*
X208976016Y-65247557D01*
X216169430Y-65247557D01*
X216169430Y-66324443D01*
X216284263Y-66901748D01*
X216611280Y-67391163D01*
X217100695Y-67718180D01*
X217678000Y-67833013D01*
X218255305Y-67718180D01*
X218744720Y-67391163D01*
X218948000Y-67086933D01*
X219151280Y-67391163D01*
X219640695Y-67718180D01*
X220218000Y-67833013D01*
X220795305Y-67718180D01*
X221284720Y-67391163D01*
X221488000Y-67086933D01*
X221691280Y-67391163D01*
X222180695Y-67718180D01*
X222758000Y-67833013D01*
X223335305Y-67718180D01*
X223824720Y-67391163D01*
X224151737Y-66901748D01*
X224245952Y-66428092D01*
X237629749Y-66428092D01*
X238760000Y-67558343D01*
X239890251Y-66428092D01*
X240931749Y-66428092D01*
X242062000Y-67558343D01*
X243192251Y-66428092D01*
X243112027Y-66111958D01*
X242476426Y-65820660D01*
X241777732Y-65794770D01*
X241122316Y-66038229D01*
X241011973Y-66111958D01*
X240931749Y-66428092D01*
X239890251Y-66428092D01*
X239810027Y-66111958D01*
X239174426Y-65820660D01*
X238475732Y-65794770D01*
X237820316Y-66038229D01*
X237709973Y-66111958D01*
X237629749Y-66428092D01*
X224245952Y-66428092D01*
X224266570Y-66324443D01*
X224266570Y-65247557D01*
X224151737Y-64670252D01*
X223824720Y-64180837D01*
X223335305Y-63853820D01*
X222758000Y-63738987D01*
X222180695Y-63853820D01*
X221691280Y-64180837D01*
X221488000Y-64485067D01*
X221284720Y-64180837D01*
X220795305Y-63853820D01*
X220218000Y-63738987D01*
X219640695Y-63853820D01*
X219151280Y-64180837D01*
X218948000Y-64485067D01*
X218744720Y-64180837D01*
X218255305Y-63853820D01*
X217678000Y-63738987D01*
X217100695Y-63853820D01*
X216611280Y-64180837D01*
X216284263Y-64670252D01*
X216169430Y-65247557D01*
X208976016Y-65247557D01*
X209500764Y-64722809D01*
X209719271Y-64395790D01*
X209796000Y-64010045D01*
X209796000Y-62730000D01*
X213442989Y-62730000D01*
X213647204Y-63224237D01*
X214141162Y-63719059D01*
X214786880Y-63987184D01*
X215486053Y-63987794D01*
X216132237Y-63720796D01*
X216627059Y-63226838D01*
X216895184Y-62581120D01*
X216895186Y-62578053D01*
X223540206Y-62578053D01*
X223807204Y-63224237D01*
X224301162Y-63719059D01*
X224946880Y-63987184D01*
X225646053Y-63987794D01*
X226292237Y-63720796D01*
X226787059Y-63226838D01*
X227055184Y-62581120D01*
X227055794Y-61881947D01*
X227009539Y-61770000D01*
X228651150Y-61770000D01*
X228651150Y-63170000D01*
X228704005Y-63450898D01*
X228870015Y-63708886D01*
X229123318Y-63881960D01*
X229424000Y-63942850D01*
X230824000Y-63942850D01*
X231104898Y-63889995D01*
X231362886Y-63723985D01*
X231535960Y-63470682D01*
X231596850Y-63170000D01*
X231596850Y-61770000D01*
X231543995Y-61489102D01*
X231377985Y-61231114D01*
X231124682Y-61058040D01*
X230824000Y-60997150D01*
X229424000Y-60997150D01*
X229143102Y-61050005D01*
X228885114Y-61216015D01*
X228712040Y-61469318D01*
X228651150Y-61770000D01*
X227009539Y-61770000D01*
X226788796Y-61235763D01*
X226294838Y-60740941D01*
X225649120Y-60472816D01*
X224949947Y-60472206D01*
X224303763Y-60739204D01*
X223808941Y-61233162D01*
X223540816Y-61878880D01*
X223540206Y-62578053D01*
X216895186Y-62578053D01*
X216895794Y-61881947D01*
X216628796Y-61235763D01*
X216134838Y-60740941D01*
X215489120Y-60472816D01*
X214789947Y-60472206D01*
X214204761Y-60714000D01*
X209771235Y-60714000D01*
X209658536Y-60601104D01*
X209867372Y-60514602D01*
X210080601Y-60301373D01*
X210178962Y-60063908D01*
X215785749Y-60063908D01*
X215865973Y-60380042D01*
X216501574Y-60671340D01*
X217200268Y-60697230D01*
X217855684Y-60453771D01*
X217966027Y-60380042D01*
X218046251Y-60063908D01*
X216916000Y-58933657D01*
X215785749Y-60063908D01*
X210178962Y-60063908D01*
X210196000Y-60022776D01*
X210196000Y-59415500D01*
X210006500Y-59226000D01*
X208792000Y-59226000D01*
X208792000Y-59246000D01*
X208784000Y-59246000D01*
X208784000Y-59226000D01*
X207569500Y-59226000D01*
X207380000Y-59415500D01*
X207380000Y-60022776D01*
X207495399Y-60301373D01*
X207708628Y-60514602D01*
X207917773Y-60601232D01*
X207595052Y-60923391D01*
X207380245Y-61440703D01*
X207379756Y-62000840D01*
X207593660Y-62518526D01*
X207780000Y-62705191D01*
X207780000Y-63592517D01*
X205511024Y-65861493D01*
X205401404Y-65310399D01*
X205063672Y-64804948D01*
X204558221Y-64467216D01*
X203962000Y-64348620D01*
X203365779Y-64467216D01*
X202860328Y-64804948D01*
X202692000Y-65056868D01*
X202523672Y-64804948D01*
X202018221Y-64467216D01*
X201422000Y-64348620D01*
X200825779Y-64467216D01*
X200320328Y-64804948D01*
X200152000Y-65056868D01*
X199983672Y-64804948D01*
X199478221Y-64467216D01*
X198882000Y-64348620D01*
X198285779Y-64467216D01*
X197780328Y-64804948D01*
X197612000Y-65056868D01*
X197508924Y-64902604D01*
X203990304Y-58421224D01*
X207380000Y-58421224D01*
X207380000Y-59028500D01*
X207569500Y-59218000D01*
X208784000Y-59218000D01*
X208784000Y-58003500D01*
X208792000Y-58003500D01*
X208792000Y-59218000D01*
X210006500Y-59218000D01*
X210012232Y-59212268D01*
X215146770Y-59212268D01*
X215390229Y-59867684D01*
X215463958Y-59978027D01*
X215780092Y-60058251D01*
X216910343Y-58928000D01*
X216921657Y-58928000D01*
X218051908Y-60058251D01*
X218368042Y-59978027D01*
X218659340Y-59342426D01*
X218661799Y-59276053D01*
X225318206Y-59276053D01*
X225585204Y-59922237D01*
X226079162Y-60417059D01*
X226724880Y-60685184D01*
X227424053Y-60685794D01*
X228070237Y-60418796D01*
X228565059Y-59924838D01*
X228833184Y-59279120D01*
X228833794Y-58579947D01*
X228566796Y-57933763D01*
X228385404Y-57752053D01*
X237002206Y-57752053D01*
X237269204Y-58398237D01*
X237763162Y-58893059D01*
X238408880Y-59161184D01*
X239108053Y-59161794D01*
X239754237Y-58894796D01*
X240249059Y-58400838D01*
X240411068Y-58010677D01*
X240571204Y-58398237D01*
X241065162Y-58893059D01*
X241710880Y-59161184D01*
X242410053Y-59161794D01*
X243056237Y-58894796D01*
X243551059Y-58400838D01*
X243819184Y-57755120D01*
X243819794Y-57055947D01*
X243552796Y-56409763D01*
X243058838Y-55914941D01*
X242413120Y-55646816D01*
X241713947Y-55646206D01*
X241067763Y-55913204D01*
X240572941Y-56407162D01*
X240410932Y-56797323D01*
X240250796Y-56409763D01*
X239756838Y-55914941D01*
X239111120Y-55646816D01*
X238411947Y-55646206D01*
X237765763Y-55913204D01*
X237270941Y-56407162D01*
X237002816Y-57052880D01*
X237002206Y-57752053D01*
X228385404Y-57752053D01*
X228072838Y-57438941D01*
X227427120Y-57170816D01*
X226727947Y-57170206D01*
X226081763Y-57437204D01*
X225586941Y-57931162D01*
X225318816Y-58576880D01*
X225318206Y-59276053D01*
X218661799Y-59276053D01*
X218685230Y-58643732D01*
X218441771Y-57988316D01*
X218368042Y-57877973D01*
X218051908Y-57797749D01*
X216921657Y-58928000D01*
X216910343Y-58928000D01*
X215780092Y-57797749D01*
X215463958Y-57877973D01*
X215172660Y-58513574D01*
X215146770Y-59212268D01*
X210012232Y-59212268D01*
X210196000Y-59028500D01*
X210196000Y-58421224D01*
X210080601Y-58142627D01*
X209867372Y-57929398D01*
X209588775Y-57814000D01*
X208981500Y-57814000D01*
X208792000Y-58003500D01*
X208784000Y-58003500D01*
X208594500Y-57814000D01*
X207987225Y-57814000D01*
X207708628Y-57929398D01*
X207495399Y-58142627D01*
X207380000Y-58421224D01*
X203990304Y-58421224D01*
X204619436Y-57792092D01*
X215785749Y-57792092D01*
X216916000Y-58922343D01*
X218046251Y-57792092D01*
X217966027Y-57475958D01*
X217330426Y-57184660D01*
X216631732Y-57158770D01*
X215976316Y-57402229D01*
X215865973Y-57475958D01*
X215785749Y-57792092D01*
X204619436Y-57792092D01*
X204761528Y-57650000D01*
X212209000Y-57650000D01*
X212209005Y-57650001D01*
X212594750Y-57573271D01*
X212921769Y-57354764D01*
X214225874Y-56050659D01*
X214444381Y-55723640D01*
X214484962Y-55519624D01*
X223777649Y-55519624D01*
X224085743Y-56265269D01*
X224655730Y-56836252D01*
X225400836Y-57145647D01*
X226207624Y-57146351D01*
X226953269Y-56838257D01*
X227343271Y-56448935D01*
X229560721Y-56448935D01*
X229673857Y-56793178D01*
X230407188Y-57129529D01*
X231213414Y-57159644D01*
X231969795Y-56878937D01*
X232098143Y-56793178D01*
X232211279Y-56448935D01*
X230886000Y-55123657D01*
X229560721Y-56448935D01*
X227343271Y-56448935D01*
X227524252Y-56268270D01*
X227833647Y-55523164D01*
X227833714Y-55445414D01*
X228844356Y-55445414D01*
X229125063Y-56201795D01*
X229210822Y-56330143D01*
X229555065Y-56443279D01*
X230880343Y-55118000D01*
X230891657Y-55118000D01*
X232216935Y-56443279D01*
X232561178Y-56330143D01*
X232897529Y-55596812D01*
X232927644Y-54790586D01*
X232646937Y-54034205D01*
X232561178Y-53905857D01*
X232216935Y-53792721D01*
X230891657Y-55118000D01*
X230880343Y-55118000D01*
X229555065Y-53792721D01*
X229210822Y-53905857D01*
X228874471Y-54639188D01*
X228844356Y-55445414D01*
X227833714Y-55445414D01*
X227834351Y-54716376D01*
X227526257Y-53970731D01*
X227342912Y-53787065D01*
X229560721Y-53787065D01*
X230886000Y-55112343D01*
X232211279Y-53787065D01*
X232098143Y-53442822D01*
X231364812Y-53106471D01*
X230558586Y-53076356D01*
X229802205Y-53357063D01*
X229673857Y-53442822D01*
X229560721Y-53787065D01*
X227342912Y-53787065D01*
X226956270Y-53399748D01*
X226211164Y-53090353D01*
X225404376Y-53089649D01*
X224658731Y-53397743D01*
X224087748Y-53967730D01*
X223778353Y-54712836D01*
X223777649Y-55519624D01*
X214484962Y-55519624D01*
X214521111Y-55337895D01*
X214521110Y-55337890D01*
X214521110Y-54126840D01*
X217793756Y-54126840D01*
X218007660Y-54644526D01*
X218403391Y-55040948D01*
X218920703Y-55255755D01*
X219480840Y-55256244D01*
X219998526Y-55042340D01*
X220394948Y-54646609D01*
X220609755Y-54129297D01*
X220610244Y-53569160D01*
X220396340Y-53051474D01*
X220072536Y-52727104D01*
X220281372Y-52640602D01*
X220450350Y-52471624D01*
X233937649Y-52471624D01*
X234245743Y-53217269D01*
X234815730Y-53788252D01*
X235560836Y-54097647D01*
X236367624Y-54098351D01*
X237113269Y-53790257D01*
X237684252Y-53220270D01*
X237993647Y-52475164D01*
X237994351Y-51668376D01*
X237686257Y-50922731D01*
X237563741Y-50800000D01*
X239003150Y-50800000D01*
X239003150Y-53340000D01*
X239056005Y-53620898D01*
X239222015Y-53878886D01*
X239475318Y-54051960D01*
X239776000Y-54112850D01*
X242316000Y-54112850D01*
X242596898Y-54059995D01*
X242854886Y-53893985D01*
X243027960Y-53640682D01*
X243088850Y-53340000D01*
X243088850Y-50800000D01*
X243052723Y-50608000D01*
X246177150Y-50608000D01*
X246177150Y-52008000D01*
X246230005Y-52288898D01*
X246396015Y-52546886D01*
X246649318Y-52719960D01*
X246950000Y-52780850D01*
X248350000Y-52780850D01*
X248630898Y-52727995D01*
X248888886Y-52561985D01*
X249061960Y-52308682D01*
X249122850Y-52008000D01*
X249122850Y-50608000D01*
X249069995Y-50327102D01*
X248903985Y-50069114D01*
X248650682Y-49896040D01*
X248350000Y-49835150D01*
X246950000Y-49835150D01*
X246669102Y-49888005D01*
X246411114Y-50054015D01*
X246238040Y-50307318D01*
X246177150Y-50608000D01*
X243052723Y-50608000D01*
X243035995Y-50519102D01*
X242869985Y-50261114D01*
X242616682Y-50088040D01*
X242316000Y-50027150D01*
X239776000Y-50027150D01*
X239495102Y-50080005D01*
X239237114Y-50246015D01*
X239064040Y-50499318D01*
X239003150Y-50800000D01*
X237563741Y-50800000D01*
X237116270Y-50351748D01*
X236371164Y-50042353D01*
X235564376Y-50041649D01*
X234818731Y-50349743D01*
X234247748Y-50919730D01*
X233938353Y-51664836D01*
X233937649Y-52471624D01*
X220450350Y-52471624D01*
X220494601Y-52427373D01*
X220610000Y-52148776D01*
X220610000Y-51541500D01*
X220420500Y-51352000D01*
X219206000Y-51352000D01*
X219206000Y-51372000D01*
X219198000Y-51372000D01*
X219198000Y-51352000D01*
X217983500Y-51352000D01*
X217794000Y-51541500D01*
X217794000Y-52148776D01*
X217909399Y-52427373D01*
X218122628Y-52640602D01*
X218331773Y-52727232D01*
X218009052Y-53049391D01*
X217794245Y-53566703D01*
X217793756Y-54126840D01*
X214521110Y-54126840D01*
X214521110Y-51740515D01*
X214521111Y-51740510D01*
X214444381Y-51354765D01*
X214339901Y-51198400D01*
X214225874Y-51027746D01*
X214225871Y-51027744D01*
X213745352Y-50547224D01*
X217794000Y-50547224D01*
X217794000Y-51154500D01*
X217983500Y-51344000D01*
X219198000Y-51344000D01*
X219198000Y-50129500D01*
X219206000Y-50129500D01*
X219206000Y-51344000D01*
X220420500Y-51344000D01*
X220610000Y-51154500D01*
X220610000Y-50547224D01*
X220494601Y-50268627D01*
X220281372Y-50055398D01*
X220002775Y-49940000D01*
X219395500Y-49940000D01*
X219206000Y-50129500D01*
X219198000Y-50129500D01*
X219008500Y-49940000D01*
X218401225Y-49940000D01*
X218122628Y-50055398D01*
X217909399Y-50268627D01*
X217794000Y-50547224D01*
X213745352Y-50547224D01*
X213557836Y-50359708D01*
X213584600Y-50225155D01*
X213584600Y-49850845D01*
X213461163Y-49230286D01*
X213109644Y-48704201D01*
X212583559Y-48352682D01*
X212348873Y-48306000D01*
X224687151Y-48306000D01*
X224658731Y-48317743D01*
X224087748Y-48887730D01*
X223778353Y-49632836D01*
X223777649Y-50439624D01*
X224085743Y-51185269D01*
X224655730Y-51756252D01*
X225400836Y-52065647D01*
X226207624Y-52066351D01*
X226953269Y-51758257D01*
X227524252Y-51188270D01*
X227833647Y-50443164D01*
X227834351Y-49636376D01*
X227526257Y-48890731D01*
X226956270Y-48319748D01*
X226923161Y-48306000D01*
X229767151Y-48306000D01*
X229738731Y-48317743D01*
X229167748Y-48887730D01*
X228858353Y-49632836D01*
X228857649Y-50439624D01*
X229165743Y-51185269D01*
X229735730Y-51756252D01*
X230480836Y-52065647D01*
X231287624Y-52066351D01*
X232033269Y-51758257D01*
X232604252Y-51188270D01*
X232913647Y-50443164D01*
X232914351Y-49636376D01*
X232606257Y-48890731D01*
X232036270Y-48319748D01*
X232003161Y-48306000D01*
X248585316Y-48306000D01*
X250652000Y-50372685D01*
X250652000Y-64539074D01*
X250576473Y-64356285D01*
X249606819Y-63384938D01*
X248339258Y-62858601D01*
X246966763Y-62857403D01*
X245698285Y-63381527D01*
X244726938Y-64351181D01*
X244200601Y-65618742D01*
X244199403Y-66991237D01*
X244692815Y-68185386D01*
X244613828Y-68218023D01*
X243481997Y-69347880D01*
X243478101Y-69357263D01*
X243117185Y-68995717D01*
X243192251Y-68699908D01*
X242062000Y-67569657D01*
X242047858Y-67583799D01*
X242042201Y-67578142D01*
X242056343Y-67564000D01*
X242067657Y-67564000D01*
X243197908Y-68694251D01*
X243514042Y-68614027D01*
X243805340Y-67978426D01*
X243831230Y-67279732D01*
X243587771Y-66624316D01*
X243514042Y-66513973D01*
X243197908Y-66433749D01*
X242067657Y-67564000D01*
X242056343Y-67564000D01*
X240926092Y-66433749D01*
X240609958Y-66513973D01*
X240408260Y-66954070D01*
X240285771Y-66624316D01*
X240212042Y-66513973D01*
X239895908Y-66433749D01*
X238765657Y-67564000D01*
X238779799Y-67578142D01*
X238774142Y-67583799D01*
X238760000Y-67569657D01*
X237629749Y-68699908D01*
X237709973Y-69016042D01*
X237890426Y-69098744D01*
X237148916Y-69838961D01*
X236780132Y-70727092D01*
X236687062Y-70443903D01*
X235953731Y-70107552D01*
X235147505Y-70077437D01*
X234391124Y-70358144D01*
X234262776Y-70443903D01*
X234149640Y-70788146D01*
X235474919Y-72113424D01*
X235489061Y-72099282D01*
X235494718Y-72104939D01*
X235480576Y-72119081D01*
X235494718Y-72133223D01*
X235489061Y-72138880D01*
X235474919Y-72124738D01*
X235460777Y-72138880D01*
X235455120Y-72133223D01*
X235469262Y-72119081D01*
X234143984Y-70793802D01*
X233799741Y-70906938D01*
X233463390Y-71640269D01*
X233433275Y-72446495D01*
X233713982Y-73202876D01*
X233799741Y-73331224D01*
X234083333Y-73424427D01*
X233200747Y-73789104D01*
X232260889Y-74727323D01*
X232080819Y-74546938D01*
X230813258Y-74020601D01*
X229440763Y-74019403D01*
X228172285Y-74543527D01*
X227200938Y-75513181D01*
X226674601Y-76780742D01*
X226673403Y-78153237D01*
X227197527Y-79421715D01*
X228167181Y-80393062D01*
X229434742Y-80919399D01*
X230807237Y-80920597D01*
X232075715Y-80396473D01*
X232531928Y-79941055D01*
X233194799Y-80605084D01*
X234671784Y-81218381D01*
X236271038Y-81219777D01*
X237554919Y-80689288D01*
X237554919Y-85655827D01*
X237400859Y-85719483D01*
X236345190Y-86773311D01*
X235773162Y-88150908D01*
X235771860Y-89642548D01*
X236341483Y-91021141D01*
X237395311Y-92076810D01*
X238772908Y-92648838D01*
X240264548Y-92650140D01*
X241643141Y-92080517D01*
X242698810Y-91026689D01*
X243270838Y-89649092D01*
X243271319Y-89097803D01*
X243326558Y-89015132D01*
X243390341Y-88694470D01*
X243554919Y-87867081D01*
X243554919Y-83459624D01*
X244859649Y-83459624D01*
X245167743Y-84205269D01*
X245737730Y-84776252D01*
X246482836Y-85085647D01*
X247289624Y-85086351D01*
X248035269Y-84778257D01*
X248606252Y-84208270D01*
X248915647Y-83463164D01*
X248916351Y-82656376D01*
X248608257Y-81910731D01*
X248038270Y-81339748D01*
X247293164Y-81030353D01*
X246486376Y-81029649D01*
X245740731Y-81337743D01*
X245169748Y-81907730D01*
X244860353Y-82652836D01*
X244859649Y-83459624D01*
X243554919Y-83459624D01*
X243554919Y-79884496D01*
X243568309Y-79871129D01*
X243608161Y-79933060D01*
X244527136Y-80560969D01*
X245618000Y-80781875D01*
X248158000Y-80781875D01*
X249177089Y-80590120D01*
X250113060Y-79987839D01*
X250652000Y-79199074D01*
X250652000Y-90745347D01*
X250167839Y-89992940D01*
X249248864Y-89365031D01*
X248626695Y-89239038D01*
X248915647Y-88543164D01*
X248916351Y-87736376D01*
X248608257Y-86990731D01*
X248038270Y-86419748D01*
X247293164Y-86110353D01*
X246486376Y-86109649D01*
X245740731Y-86417743D01*
X245169748Y-86987730D01*
X244860353Y-87732836D01*
X244859649Y-88539624D01*
X245146112Y-89232917D01*
X244598911Y-89335880D01*
X243662940Y-89938161D01*
X243035031Y-90857136D01*
X242814125Y-91948000D01*
X242814125Y-94488000D01*
X243005880Y-95507089D01*
X243608161Y-96443060D01*
X244493520Y-97048000D01*
X243586005Y-97048000D01*
X243586000Y-97047999D01*
X242913243Y-97181820D01*
X242342906Y-97562906D01*
X242342904Y-97562909D01*
X239278582Y-100627230D01*
X238628731Y-100895743D01*
X238057748Y-101465730D01*
X237748353Y-102210836D01*
X237747649Y-103017624D01*
X237863012Y-103296824D01*
X236738850Y-102172662D01*
X236738850Y-101346000D01*
X236685995Y-101065102D01*
X236519985Y-100807114D01*
X236266682Y-100634040D01*
X235966000Y-100573150D01*
X233426000Y-100573150D01*
X233145102Y-100626005D01*
X232887114Y-100792015D01*
X232714040Y-101045318D01*
X232653150Y-101346000D01*
X232653150Y-103886000D01*
X232706005Y-104166898D01*
X232872015Y-104424886D01*
X233125318Y-104597960D01*
X233426000Y-104658850D01*
X234252662Y-104658850D01*
X236222907Y-106629095D01*
X236230248Y-106634000D01*
X162894685Y-106634000D01*
X160828000Y-104567316D01*
X160828000Y-94312761D01*
X160847318Y-94325960D01*
X161148000Y-94386850D01*
X162448000Y-94386850D01*
X162728898Y-94333995D01*
X162986886Y-94167985D01*
X163159960Y-93914682D01*
X163220850Y-93614000D01*
X163220850Y-92314000D01*
X163167995Y-92033102D01*
X163001985Y-91775114D01*
X162748682Y-91602040D01*
X162448000Y-91541150D01*
X161148000Y-91541150D01*
X160867102Y-91594005D01*
X160828000Y-91619166D01*
X160828000Y-91162203D01*
X161446880Y-91419184D01*
X162146053Y-91419794D01*
X162792237Y-91152796D01*
X163287059Y-90658838D01*
X163555184Y-90013120D01*
X163555794Y-89313947D01*
X163288796Y-88667763D01*
X162794838Y-88172941D01*
X162149120Y-87904816D01*
X161449947Y-87904206D01*
X160828000Y-88161189D01*
X160828000Y-75885500D01*
X163010000Y-75885500D01*
X163010000Y-76492775D01*
X163125398Y-76771372D01*
X163338627Y-76984601D01*
X163617224Y-77100000D01*
X164224500Y-77100000D01*
X164414000Y-76910500D01*
X164414000Y-75696000D01*
X164422000Y-75696000D01*
X164422000Y-76910500D01*
X164611500Y-77100000D01*
X165218776Y-77100000D01*
X165497373Y-76984601D01*
X165710602Y-76771372D01*
X165826000Y-76492775D01*
X165826000Y-75885500D01*
X165636500Y-75696000D01*
X164422000Y-75696000D01*
X164414000Y-75696000D01*
X163199500Y-75696000D01*
X163010000Y-75885500D01*
X160828000Y-75885500D01*
X160828000Y-74891225D01*
X163010000Y-74891225D01*
X163010000Y-75498500D01*
X163199500Y-75688000D01*
X164414000Y-75688000D01*
X164414000Y-74473500D01*
X164422000Y-74473500D01*
X164422000Y-75688000D01*
X165636500Y-75688000D01*
X165826000Y-75498500D01*
X165826000Y-74891225D01*
X165710602Y-74612628D01*
X165497373Y-74399399D01*
X165218776Y-74284000D01*
X164611500Y-74284000D01*
X164422000Y-74473500D01*
X164414000Y-74473500D01*
X164224500Y-74284000D01*
X163617224Y-74284000D01*
X163338627Y-74399399D01*
X163125398Y-74612628D01*
X163010000Y-74891225D01*
X160828000Y-74891225D01*
X160828000Y-63947500D01*
X162168000Y-63947500D01*
X162168000Y-64554776D01*
X162283399Y-64833373D01*
X162496628Y-65046602D01*
X162775225Y-65162000D01*
X163382500Y-65162000D01*
X163572000Y-64972500D01*
X163572000Y-63758000D01*
X163580000Y-63758000D01*
X163580000Y-64972500D01*
X163769500Y-65162000D01*
X164376775Y-65162000D01*
X164655372Y-65046602D01*
X164868601Y-64833373D01*
X164984000Y-64554776D01*
X164984000Y-63947500D01*
X164794500Y-63758000D01*
X163580000Y-63758000D01*
X163572000Y-63758000D01*
X162357500Y-63758000D01*
X162168000Y-63947500D01*
X160828000Y-63947500D01*
X160828000Y-62953224D01*
X162168000Y-62953224D01*
X162168000Y-63560500D01*
X162357500Y-63750000D01*
X163572000Y-63750000D01*
X163572000Y-62535500D01*
X163580000Y-62535500D01*
X163580000Y-63750000D01*
X164794500Y-63750000D01*
X164984000Y-63560500D01*
X164984000Y-62953224D01*
X164868601Y-62674627D01*
X164655372Y-62461398D01*
X164376775Y-62346000D01*
X163769500Y-62346000D01*
X163580000Y-62535500D01*
X163572000Y-62535500D01*
X163382500Y-62346000D01*
X162775225Y-62346000D01*
X162496628Y-62461398D01*
X162283399Y-62674627D01*
X162168000Y-62953224D01*
X160828000Y-62953224D01*
X160828000Y-59666203D01*
X161446880Y-59923184D01*
X162146053Y-59923794D01*
X162792237Y-59656796D01*
X163287059Y-59162838D01*
X163555184Y-58517120D01*
X163555186Y-58514053D01*
X170200206Y-58514053D01*
X170467204Y-59160237D01*
X170961162Y-59655059D01*
X171606880Y-59923184D01*
X172306053Y-59923794D01*
X172952237Y-59656796D01*
X173447059Y-59162838D01*
X173715184Y-58517120D01*
X173715272Y-58415134D01*
X173747782Y-58415134D01*
X173938897Y-58877669D01*
X174292470Y-59231859D01*
X174754670Y-59423781D01*
X175255134Y-59424218D01*
X175717669Y-59233103D01*
X175776875Y-59174000D01*
X178811438Y-59174000D01*
X178734564Y-59359134D01*
X178734127Y-59859598D01*
X178925242Y-60322133D01*
X179278815Y-60676323D01*
X179741015Y-60868245D01*
X179824672Y-60868318D01*
X181911527Y-62955172D01*
X181911456Y-63036926D01*
X182102571Y-63499461D01*
X182456144Y-63853651D01*
X182918344Y-64045573D01*
X183418808Y-64046010D01*
X183881343Y-63854895D01*
X184235533Y-63501322D01*
X184427455Y-63039122D01*
X184427892Y-62538658D01*
X184236777Y-62076123D01*
X183883204Y-61721933D01*
X183421004Y-61530011D01*
X183337347Y-61529938D01*
X181250492Y-59443082D01*
X181250563Y-59361330D01*
X181173160Y-59174000D01*
X184394712Y-59174000D01*
X184452470Y-59231859D01*
X184914670Y-59423781D01*
X185415134Y-59424218D01*
X185877669Y-59233103D01*
X186231859Y-58879530D01*
X186423781Y-58417330D01*
X186424218Y-57916866D01*
X186233103Y-57454331D01*
X185879530Y-57100141D01*
X185417330Y-56908219D01*
X184916866Y-56907782D01*
X184454331Y-57098897D01*
X184395125Y-57158000D01*
X175777288Y-57158000D01*
X175719530Y-57100141D01*
X175257330Y-56908219D01*
X174756866Y-56907782D01*
X174294331Y-57098897D01*
X173940141Y-57452470D01*
X173748219Y-57914670D01*
X173747782Y-58415134D01*
X173715272Y-58415134D01*
X173715794Y-57817947D01*
X173448796Y-57171763D01*
X172954838Y-56676941D01*
X172309120Y-56408816D01*
X171609947Y-56408206D01*
X170963763Y-56675204D01*
X170468941Y-57169162D01*
X170200816Y-57814880D01*
X170200206Y-58514053D01*
X163555186Y-58514053D01*
X163555794Y-57817947D01*
X163288796Y-57171763D01*
X162794838Y-56676941D01*
X162149120Y-56408816D01*
X161449947Y-56408206D01*
X160828000Y-56665189D01*
X160828000Y-53655869D01*
X165777100Y-53655869D01*
X165777100Y-54751331D01*
X165892803Y-55333010D01*
X166222298Y-55826133D01*
X166715421Y-56155628D01*
X167297100Y-56271331D01*
X167878779Y-56155628D01*
X168371902Y-55826133D01*
X168567100Y-55533999D01*
X168762298Y-55826133D01*
X169255421Y-56155628D01*
X169837100Y-56271331D01*
X170418779Y-56155628D01*
X170911902Y-55826133D01*
X171107100Y-55533999D01*
X171302298Y-55826133D01*
X171795421Y-56155628D01*
X172377100Y-56271331D01*
X172958779Y-56155628D01*
X173451902Y-55826133D01*
X173647100Y-55533999D01*
X173842298Y-55826133D01*
X174335421Y-56155628D01*
X174917100Y-56271331D01*
X175498779Y-56155628D01*
X175991902Y-55826133D01*
X176187100Y-55533999D01*
X176382298Y-55826133D01*
X176875421Y-56155628D01*
X177457100Y-56271331D01*
X178038779Y-56155628D01*
X178531902Y-55826133D01*
X178727100Y-55533999D01*
X178922298Y-55826133D01*
X179415421Y-56155628D01*
X179997100Y-56271331D01*
X180578779Y-56155628D01*
X181071902Y-55826133D01*
X181267100Y-55533999D01*
X181462298Y-55826133D01*
X181955421Y-56155628D01*
X182537100Y-56271331D01*
X183118779Y-56155628D01*
X183611902Y-55826133D01*
X183807100Y-55533999D01*
X184002298Y-55826133D01*
X184495421Y-56155628D01*
X185077100Y-56271331D01*
X185658779Y-56155628D01*
X186151902Y-55826133D01*
X186347100Y-55533999D01*
X186542298Y-55826133D01*
X187035421Y-56155628D01*
X187617100Y-56271331D01*
X188198779Y-56155628D01*
X188691902Y-55826133D01*
X188887100Y-55533999D01*
X189082298Y-55826133D01*
X189575421Y-56155628D01*
X190157100Y-56271331D01*
X190738779Y-56155628D01*
X191231902Y-55826133D01*
X191561397Y-55333010D01*
X191677100Y-54751331D01*
X191677100Y-53655869D01*
X191561397Y-53074190D01*
X191231902Y-52581067D01*
X190738779Y-52251572D01*
X190157100Y-52135869D01*
X189575421Y-52251572D01*
X189082298Y-52581067D01*
X188887100Y-52873201D01*
X188691902Y-52581067D01*
X188198779Y-52251572D01*
X187617100Y-52135869D01*
X187035421Y-52251572D01*
X186542298Y-52581067D01*
X186347100Y-52873201D01*
X186151902Y-52581067D01*
X185658779Y-52251572D01*
X185077100Y-52135869D01*
X184495421Y-52251572D01*
X184002298Y-52581067D01*
X183807100Y-52873201D01*
X183611902Y-52581067D01*
X183118779Y-52251572D01*
X182537100Y-52135869D01*
X181955421Y-52251572D01*
X181462298Y-52581067D01*
X181267100Y-52873201D01*
X181071902Y-52581067D01*
X180578779Y-52251572D01*
X179997100Y-52135869D01*
X179415421Y-52251572D01*
X178922298Y-52581067D01*
X178727100Y-52873201D01*
X178531902Y-52581067D01*
X178038779Y-52251572D01*
X177457100Y-52135869D01*
X176875421Y-52251572D01*
X176382298Y-52581067D01*
X176187100Y-52873201D01*
X175991902Y-52581067D01*
X175498779Y-52251572D01*
X174917100Y-52135869D01*
X174335421Y-52251572D01*
X173842298Y-52581067D01*
X173647100Y-52873201D01*
X173451902Y-52581067D01*
X172958779Y-52251572D01*
X172377100Y-52135869D01*
X171795421Y-52251572D01*
X171302298Y-52581067D01*
X171107100Y-52873201D01*
X170911902Y-52581067D01*
X170418779Y-52251572D01*
X169837100Y-52135869D01*
X169255421Y-52251572D01*
X168762298Y-52581067D01*
X168567100Y-52873201D01*
X168371902Y-52581067D01*
X167878779Y-52251572D01*
X167297100Y-52135869D01*
X166715421Y-52251572D01*
X166222298Y-52581067D01*
X165892803Y-53074190D01*
X165777100Y-53655869D01*
X160828000Y-53655869D01*
X160828000Y-51896684D01*
X164418684Y-48306000D01*
X187952294Y-48306000D01*
X187700514Y-48468015D01*
X187700514Y-48468015D01*
G37*
X187700514Y-48468015D02*
X187527440Y-48721318D01*
X187466550Y-49022000D01*
X187466550Y-51054000D01*
X187519405Y-51334898D01*
X187685415Y-51592886D01*
X187938718Y-51765960D01*
X188239400Y-51826850D01*
X189966600Y-51826850D01*
X190247498Y-51773995D01*
X190505486Y-51607985D01*
X190613420Y-51450018D01*
X191022441Y-51723318D01*
X191643000Y-51846755D01*
X192263559Y-51723318D01*
X192789644Y-51371799D01*
X192913000Y-51187184D01*
X193036356Y-51371799D01*
X193562441Y-51723318D01*
X194183000Y-51846755D01*
X194803559Y-51723318D01*
X195329644Y-51371799D01*
X195453000Y-51187184D01*
X195576356Y-51371799D01*
X196102441Y-51723318D01*
X196723000Y-51846755D01*
X197343559Y-51723318D01*
X197869644Y-51371799D01*
X197993000Y-51187184D01*
X198116356Y-51371799D01*
X198642441Y-51723318D01*
X199263000Y-51846755D01*
X199883559Y-51723318D01*
X200409644Y-51371799D01*
X200533000Y-51187184D01*
X200656356Y-51371799D01*
X201182441Y-51723318D01*
X201803000Y-51846755D01*
X202423559Y-51723318D01*
X202949644Y-51371799D01*
X203073000Y-51187184D01*
X203196356Y-51371799D01*
X203722441Y-51723318D01*
X204343000Y-51846755D01*
X204963559Y-51723318D01*
X205489644Y-51371799D01*
X205613000Y-51187184D01*
X205736356Y-51371799D01*
X206262441Y-51723318D01*
X206883000Y-51846755D01*
X207503559Y-51723318D01*
X208029644Y-51371799D01*
X208164776Y-51169560D01*
X208279184Y-51339873D01*
X208806136Y-51690094D01*
X209165376Y-51791405D01*
X209419000Y-51622494D01*
X209419000Y-50042000D01*
X209399000Y-50042000D01*
X209399000Y-50034000D01*
X209419000Y-50034000D01*
X209419000Y-50014000D01*
X209427000Y-50014000D01*
X209427000Y-50034000D01*
X209447000Y-50034000D01*
X209447000Y-50042000D01*
X209427000Y-50042000D01*
X209427000Y-51622494D01*
X209680624Y-51791405D01*
X210039864Y-51690094D01*
X210566816Y-51339873D01*
X210681224Y-51169560D01*
X210816356Y-51371799D01*
X211342441Y-51723318D01*
X211963000Y-51846755D01*
X212155531Y-51808458D01*
X212505110Y-52158037D01*
X212505110Y-52236123D01*
X212001100Y-52135869D01*
X211419421Y-52251572D01*
X210926298Y-52581067D01*
X210731100Y-52873201D01*
X210535902Y-52581067D01*
X210042779Y-52251572D01*
X209461100Y-52135869D01*
X208879421Y-52251572D01*
X208386298Y-52581067D01*
X208191100Y-52873201D01*
X207995902Y-52581067D01*
X207502779Y-52251572D01*
X206921100Y-52135869D01*
X206339421Y-52251572D01*
X205846298Y-52581067D01*
X205651100Y-52873201D01*
X205455902Y-52581067D01*
X204962779Y-52251572D01*
X204381100Y-52135869D01*
X203799421Y-52251572D01*
X203306298Y-52581067D01*
X203111100Y-52873201D01*
X202915902Y-52581067D01*
X202422779Y-52251572D01*
X201841100Y-52135869D01*
X201259421Y-52251572D01*
X200766298Y-52581067D01*
X200571100Y-52873201D01*
X200375902Y-52581067D01*
X199882779Y-52251572D01*
X199301100Y-52135869D01*
X198719421Y-52251572D01*
X198226298Y-52581067D01*
X198031100Y-52873201D01*
X197835902Y-52581067D01*
X197342779Y-52251572D01*
X196761100Y-52135869D01*
X196179421Y-52251572D01*
X195686298Y-52581067D01*
X195491100Y-52873201D01*
X195295902Y-52581067D01*
X194802779Y-52251572D01*
X194221100Y-52135869D01*
X193639421Y-52251572D01*
X193146298Y-52581067D01*
X192816803Y-53074190D01*
X192701100Y-53655869D01*
X192701100Y-54751331D01*
X192816803Y-55333010D01*
X193146298Y-55826133D01*
X193639421Y-56155628D01*
X194221100Y-56271331D01*
X194802779Y-56155628D01*
X195295902Y-55826133D01*
X195491100Y-55533999D01*
X195686298Y-55826133D01*
X196179421Y-56155628D01*
X196761100Y-56271331D01*
X197342779Y-56155628D01*
X197835902Y-55826133D01*
X198031100Y-55533999D01*
X198226298Y-55826133D01*
X198719421Y-56155628D01*
X199301100Y-56271331D01*
X199882779Y-56155628D01*
X200375902Y-55826133D01*
X200571100Y-55533999D01*
X200766298Y-55826133D01*
X201259421Y-56155628D01*
X201841100Y-56271331D01*
X202422779Y-56155628D01*
X202915902Y-55826133D01*
X203111100Y-55533999D01*
X203306298Y-55826133D01*
X203562890Y-55997582D01*
X195629236Y-63931236D01*
X195410729Y-64258255D01*
X195333999Y-64644000D01*
X195334000Y-64644005D01*
X195334000Y-64742358D01*
X195240328Y-64804948D01*
X194902596Y-65310399D01*
X194891536Y-65366000D01*
X193515235Y-65366000D01*
X193330609Y-65181052D01*
X192813297Y-64966245D01*
X192253160Y-64965756D01*
X191735474Y-65179660D01*
X191339052Y-65575391D01*
X191124245Y-66092703D01*
X191123756Y-66652840D01*
X191337660Y-67170526D01*
X191733391Y-67566948D01*
X192250703Y-67781755D01*
X192810840Y-67782244D01*
X193328526Y-67568340D01*
X193515191Y-67382000D01*
X194972353Y-67382000D01*
X195240328Y-67783052D01*
X195304604Y-67826000D01*
X191486005Y-67826000D01*
X191486000Y-67825999D01*
X191100255Y-67902729D01*
X190773236Y-68121236D01*
X190773234Y-68121239D01*
X190625107Y-68269366D01*
X190424340Y-67783474D01*
X190028609Y-67387052D01*
X189511297Y-67172245D01*
X188951160Y-67171756D01*
X188433474Y-67385660D01*
X188037052Y-67781391D01*
X187822245Y-68298703D01*
X187821756Y-68858840D01*
X188035660Y-69376526D01*
X188222000Y-69563191D01*
X188222000Y-70966899D01*
X187838604Y-71223076D01*
X186514764Y-69899236D01*
X186187745Y-69680729D01*
X185802000Y-69603999D01*
X185801995Y-69604000D01*
X185545538Y-69604000D01*
X185638000Y-69380775D01*
X185638000Y-68773500D01*
X185448500Y-68584000D01*
X184234000Y-68584000D01*
X184234000Y-68604000D01*
X184226000Y-68604000D01*
X184226000Y-68584000D01*
X183011500Y-68584000D01*
X182822000Y-68773500D01*
X182822000Y-69380775D01*
X182914462Y-69604000D01*
X180517972Y-69604000D01*
X180509271Y-69560255D01*
X180290764Y-69233236D01*
X178836753Y-67779225D01*
X182822000Y-67779225D01*
X182822000Y-68386500D01*
X183011500Y-68576000D01*
X184226000Y-68576000D01*
X184226000Y-67361500D01*
X184234000Y-67361500D01*
X184234000Y-68576000D01*
X185448500Y-68576000D01*
X185638000Y-68386500D01*
X185638000Y-67779225D01*
X185522602Y-67500628D01*
X185309373Y-67287399D01*
X185030776Y-67172000D01*
X184423500Y-67172000D01*
X184234000Y-67361500D01*
X184226000Y-67361500D01*
X184036500Y-67172000D01*
X183429224Y-67172000D01*
X183150627Y-67287399D01*
X182937398Y-67500628D01*
X182822000Y-67779225D01*
X178836753Y-67779225D01*
X175390991Y-64333463D01*
X175598525Y-64274935D01*
X176104844Y-63938501D01*
X176443874Y-63433916D01*
X176564000Y-62838000D01*
X176564000Y-62488000D01*
X175010000Y-62488000D01*
X175010000Y-62508000D01*
X175002000Y-62508000D01*
X175002000Y-62488000D01*
X174982000Y-62488000D01*
X174982000Y-62480000D01*
X175002000Y-62480000D01*
X175002000Y-60765506D01*
X175010000Y-60765506D01*
X175010000Y-62480000D01*
X176564000Y-62480000D01*
X176564000Y-62130000D01*
X176443874Y-61534084D01*
X176104844Y-61029499D01*
X175598525Y-60693065D01*
X175253675Y-60595812D01*
X175010000Y-60765506D01*
X175002000Y-60765506D01*
X174758325Y-60595812D01*
X174413475Y-60693065D01*
X173907156Y-61029499D01*
X173748518Y-61265603D01*
X173567672Y-60994948D01*
X173062221Y-60657216D01*
X172466000Y-60538620D01*
X171869779Y-60657216D01*
X171364328Y-60994948D01*
X171183482Y-61265603D01*
X171024844Y-61029499D01*
X170518525Y-60693065D01*
X170173675Y-60595812D01*
X169930000Y-60765506D01*
X169930000Y-62480000D01*
X169950000Y-62480000D01*
X169950000Y-62488000D01*
X169930000Y-62488000D01*
X169930000Y-62508000D01*
X169922000Y-62508000D01*
X169922000Y-62488000D01*
X169902000Y-62488000D01*
X169902000Y-62480000D01*
X169922000Y-62480000D01*
X169922000Y-60765506D01*
X169678325Y-60595812D01*
X169333475Y-60693065D01*
X168827156Y-61029499D01*
X168668518Y-61265603D01*
X168487672Y-60994948D01*
X167982221Y-60657216D01*
X167386000Y-60538620D01*
X166789779Y-60657216D01*
X166284328Y-60994948D01*
X165946596Y-61500399D01*
X165828000Y-62096620D01*
X165828000Y-62871380D01*
X165946596Y-63467601D01*
X166284328Y-63973052D01*
X166789779Y-64310784D01*
X167386000Y-64429380D01*
X167982221Y-64310784D01*
X168487672Y-63973052D01*
X168668518Y-63702397D01*
X168827156Y-63938501D01*
X169333475Y-64274935D01*
X169541009Y-64333463D01*
X166673236Y-67201236D01*
X166454729Y-67528255D01*
X166397128Y-67817832D01*
X166036000Y-67745999D01*
X166035995Y-67746000D01*
X164559235Y-67746000D01*
X164374609Y-67561052D01*
X163857297Y-67346245D01*
X163297160Y-67345756D01*
X162779474Y-67559660D01*
X162383052Y-67955391D01*
X162168245Y-68472703D01*
X162167756Y-69032840D01*
X162381660Y-69550526D01*
X162777391Y-69946948D01*
X163294703Y-70161755D01*
X163854840Y-70162244D01*
X164372526Y-69948340D01*
X164559191Y-69762000D01*
X165618472Y-69762000D01*
X165828000Y-69971528D01*
X165828000Y-70491380D01*
X165946596Y-71087601D01*
X166284328Y-71593052D01*
X166378000Y-71655642D01*
X166378000Y-76357995D01*
X166377999Y-76358000D01*
X166454729Y-76743745D01*
X166534391Y-76862968D01*
X166281779Y-76913216D01*
X165776328Y-77250948D01*
X165438596Y-77756399D01*
X165320000Y-78352620D01*
X165320000Y-79127380D01*
X165438596Y-79723601D01*
X165776328Y-80229052D01*
X166281779Y-80566784D01*
X166878000Y-80685380D01*
X167474221Y-80566784D01*
X167979672Y-80229052D01*
X168148000Y-79977132D01*
X168251077Y-80131396D01*
X164615226Y-83767246D01*
X164396719Y-84094265D01*
X164319989Y-84480010D01*
X164319990Y-84480015D01*
X164319990Y-88302485D01*
X164319989Y-88302490D01*
X164396719Y-88688235D01*
X164615226Y-89015254D01*
X167210838Y-91610866D01*
X167079297Y-91556245D01*
X166519160Y-91555756D01*
X166001474Y-91769660D01*
X165605052Y-92165391D01*
X165390245Y-92682703D01*
X165389756Y-93242840D01*
X165603660Y-93760526D01*
X165999391Y-94156948D01*
X166516703Y-94371755D01*
X167076840Y-94372244D01*
X167594526Y-94158340D01*
X167990948Y-93762609D01*
X168205755Y-93245297D01*
X168206244Y-92685160D01*
X168150696Y-92550724D01*
X177470182Y-101870209D01*
X177461100Y-101915869D01*
X177461100Y-103011331D01*
X177576803Y-103593010D01*
X177906298Y-104086133D01*
X178399421Y-104415628D01*
X178981100Y-104531331D01*
X179562779Y-104415628D01*
X180055902Y-104086133D01*
X180251100Y-103793999D01*
X180446298Y-104086133D01*
X180939421Y-104415628D01*
X181521100Y-104531331D01*
X182102779Y-104415628D01*
X182595902Y-104086133D01*
X182791100Y-103793999D01*
X182986298Y-104086133D01*
X183479421Y-104415628D01*
X184061100Y-104531331D01*
X184642779Y-104415628D01*
X185135902Y-104086133D01*
X185331100Y-103793999D01*
X185526298Y-104086133D01*
X186019421Y-104415628D01*
X186601100Y-104531331D01*
X187182779Y-104415628D01*
X187675902Y-104086133D01*
X187884319Y-103774216D01*
X188069126Y-104049230D01*
X188563116Y-104377427D01*
X188899370Y-104472256D01*
X189137100Y-104302094D01*
X189137100Y-102467600D01*
X189145100Y-102467600D01*
X189145100Y-104302094D01*
X189382830Y-104472256D01*
X189719084Y-104377427D01*
X190213074Y-104049230D01*
X190411100Y-103754545D01*
X190609126Y-104049230D01*
X191103116Y-104377427D01*
X191439370Y-104472256D01*
X191677100Y-104302094D01*
X191677100Y-102467600D01*
X189145100Y-102467600D01*
X189137100Y-102467600D01*
X189117100Y-102467600D01*
X189117100Y-102459600D01*
X189137100Y-102459600D01*
X189137100Y-100625106D01*
X189145100Y-100625106D01*
X189145100Y-102459600D01*
X191677100Y-102459600D01*
X191677100Y-100625106D01*
X191685100Y-100625106D01*
X191685100Y-102459600D01*
X191705100Y-102459600D01*
X191705100Y-102467600D01*
X191685100Y-102467600D01*
X191685100Y-104302094D01*
X191922830Y-104472256D01*
X192259084Y-104377427D01*
X192753074Y-104049230D01*
X192937881Y-103774216D01*
X193146298Y-104086133D01*
X193213100Y-104130769D01*
X193213100Y-104233595D01*
X193213099Y-104233600D01*
X193289829Y-104619345D01*
X193508336Y-104946364D01*
X194871069Y-106309096D01*
X194871071Y-106309099D01*
X195198090Y-106527606D01*
X195583835Y-106604335D01*
X213628549Y-106604335D01*
X213628554Y-106604336D01*
X214014299Y-106527606D01*
X214341318Y-106309099D01*
X217454761Y-103195655D01*
X217454764Y-103195653D01*
X217673271Y-102868634D01*
X217677108Y-102849345D01*
X217750001Y-102482889D01*
X217750000Y-102482884D01*
X217750000Y-101650381D01*
X217930886Y-101533985D01*
X218103960Y-101280682D01*
X218117475Y-101213939D01*
X220863718Y-101213939D01*
X220901425Y-101493758D01*
X221410761Y-101726846D01*
X221970525Y-101747277D01*
X222495498Y-101551941D01*
X222582575Y-101493758D01*
X222620282Y-101213939D01*
X221742000Y-100335657D01*
X220863718Y-101213939D01*
X218117475Y-101213939D01*
X218164850Y-100980000D01*
X218164850Y-100558525D01*
X220324723Y-100558525D01*
X220520059Y-101083498D01*
X220578242Y-101170575D01*
X220858061Y-101208282D01*
X221736343Y-100330000D01*
X221747657Y-100330000D01*
X222625939Y-101208282D01*
X222905758Y-101170575D01*
X223138846Y-100661239D01*
X223159277Y-100101475D01*
X222963941Y-99576502D01*
X222905758Y-99489425D01*
X222625939Y-99451718D01*
X221747657Y-100330000D01*
X221736343Y-100330000D01*
X220858061Y-99451718D01*
X220578242Y-99489425D01*
X220345154Y-99998761D01*
X220324723Y-100558525D01*
X218164850Y-100558525D01*
X218164850Y-99680000D01*
X218120832Y-99446061D01*
X220863718Y-99446061D01*
X221742000Y-100324343D01*
X222620282Y-99446061D01*
X222582575Y-99166242D01*
X222073239Y-98933154D01*
X221513475Y-98912723D01*
X220988502Y-99108059D01*
X220901425Y-99166242D01*
X220863718Y-99446061D01*
X218120832Y-99446061D01*
X218111995Y-99399102D01*
X218047952Y-99299576D01*
X219917903Y-97429624D01*
X224539649Y-97429624D01*
X224847743Y-98175269D01*
X225417730Y-98746252D01*
X226162836Y-99055647D01*
X226969624Y-99056351D01*
X227715269Y-98748257D01*
X228105271Y-98358935D01*
X230322721Y-98358935D01*
X230435857Y-98703178D01*
X231169188Y-99039529D01*
X231975414Y-99069644D01*
X232731795Y-98788937D01*
X232860143Y-98703178D01*
X232973279Y-98358935D01*
X231648000Y-97033657D01*
X230322721Y-98358935D01*
X228105271Y-98358935D01*
X228286252Y-98178270D01*
X228595647Y-97433164D01*
X228595714Y-97355414D01*
X229606356Y-97355414D01*
X229887063Y-98111795D01*
X229972822Y-98240143D01*
X230317065Y-98353279D01*
X231642343Y-97028000D01*
X231653657Y-97028000D01*
X232978935Y-98353279D01*
X233323178Y-98240143D01*
X233659529Y-97506812D01*
X233689644Y-96700586D01*
X233408937Y-95944205D01*
X233323178Y-95815857D01*
X232978935Y-95702721D01*
X231653657Y-97028000D01*
X231642343Y-97028000D01*
X230317065Y-95702721D01*
X229972822Y-95815857D01*
X229636471Y-96549188D01*
X229606356Y-97355414D01*
X228595714Y-97355414D01*
X228596351Y-96626376D01*
X228288257Y-95880731D01*
X228104912Y-95697065D01*
X230322721Y-95697065D01*
X231648000Y-97022343D01*
X232973279Y-95697065D01*
X232860143Y-95352822D01*
X232126812Y-95016471D01*
X231320586Y-94986356D01*
X230564205Y-95267063D01*
X230435857Y-95352822D01*
X230322721Y-95697065D01*
X228104912Y-95697065D01*
X227718270Y-95309748D01*
X226973164Y-95000353D01*
X226166376Y-94999649D01*
X225420731Y-95307743D01*
X224849748Y-95877730D01*
X224540353Y-96622836D01*
X224539649Y-97429624D01*
X219917903Y-97429624D01*
X224391527Y-92956000D01*
X224790198Y-92956000D01*
X224847743Y-93095269D01*
X225417730Y-93666252D01*
X226162836Y-93975647D01*
X226969624Y-93976351D01*
X227715269Y-93668257D01*
X228286252Y-93098270D01*
X228595647Y-92353164D01*
X228596351Y-91546376D01*
X228288257Y-90800731D01*
X227718270Y-90229748D01*
X226973164Y-89920353D01*
X226166376Y-89919649D01*
X225420731Y-90227743D01*
X224849748Y-90797730D01*
X224790672Y-90940000D01*
X223974000Y-90940000D01*
X223588255Y-91016729D01*
X223261236Y-91235236D01*
X223261234Y-91235239D01*
X216029236Y-98467236D01*
X215810729Y-98794255D01*
X215772865Y-98984610D01*
X215553114Y-99126015D01*
X215380040Y-99379318D01*
X215319150Y-99680000D01*
X215319150Y-100980000D01*
X215372005Y-101260898D01*
X215538015Y-101518886D01*
X215734000Y-101652796D01*
X215734000Y-102065362D01*
X213211026Y-104588335D01*
X196001362Y-104588335D01*
X195377316Y-103964288D01*
X195625397Y-103593010D01*
X195741100Y-103011331D01*
X195741100Y-101915869D01*
X197781100Y-101915869D01*
X197781100Y-103011331D01*
X197896803Y-103593010D01*
X198226298Y-104086133D01*
X198719421Y-104415628D01*
X199301100Y-104531331D01*
X199882779Y-104415628D01*
X200375902Y-104086133D01*
X200571100Y-103793999D01*
X200766298Y-104086133D01*
X201259421Y-104415628D01*
X201841100Y-104531331D01*
X202422779Y-104415628D01*
X202915902Y-104086133D01*
X203111100Y-103793999D01*
X203306298Y-104086133D01*
X203799421Y-104415628D01*
X204381100Y-104531331D01*
X204962779Y-104415628D01*
X205455902Y-104086133D01*
X205651100Y-103793999D01*
X205846298Y-104086133D01*
X206339421Y-104415628D01*
X206921100Y-104531331D01*
X207502779Y-104415628D01*
X207995902Y-104086133D01*
X208191100Y-103793999D01*
X208386298Y-104086133D01*
X208879421Y-104415628D01*
X209461100Y-104531331D01*
X210042779Y-104415628D01*
X210535902Y-104086133D01*
X210731100Y-103793999D01*
X210926298Y-104086133D01*
X211419421Y-104415628D01*
X212001100Y-104531331D01*
X212582779Y-104415628D01*
X213075902Y-104086133D01*
X213405397Y-103593010D01*
X213521100Y-103011331D01*
X213521100Y-101915869D01*
X213405397Y-101334190D01*
X213075902Y-100841067D01*
X212582779Y-100511572D01*
X212001100Y-100395869D01*
X211419421Y-100511572D01*
X210926298Y-100841067D01*
X210731100Y-101133201D01*
X210535902Y-100841067D01*
X210042779Y-100511572D01*
X209461100Y-100395869D01*
X208879421Y-100511572D01*
X208386298Y-100841067D01*
X208191100Y-101133201D01*
X207995902Y-100841067D01*
X207502779Y-100511572D01*
X206921100Y-100395869D01*
X206339421Y-100511572D01*
X205846298Y-100841067D01*
X205651100Y-101133201D01*
X205455902Y-100841067D01*
X204962779Y-100511572D01*
X204381100Y-100395869D01*
X203799421Y-100511572D01*
X203306298Y-100841067D01*
X203111100Y-101133201D01*
X202915902Y-100841067D01*
X202422779Y-100511572D01*
X201841100Y-100395869D01*
X201259421Y-100511572D01*
X200766298Y-100841067D01*
X200571100Y-101133201D01*
X200375902Y-100841067D01*
X199882779Y-100511572D01*
X199301100Y-100395869D01*
X198719421Y-100511572D01*
X198226298Y-100841067D01*
X197896803Y-101334190D01*
X197781100Y-101915869D01*
X195741100Y-101915869D01*
X195625397Y-101334190D01*
X195295902Y-100841067D01*
X194802779Y-100511572D01*
X194221100Y-100395869D01*
X193639421Y-100511572D01*
X193146298Y-100841067D01*
X192937881Y-101152984D01*
X192753074Y-100877970D01*
X192259084Y-100549773D01*
X191922830Y-100454944D01*
X191685100Y-100625106D01*
X191677100Y-100625106D01*
X191439370Y-100454944D01*
X191103116Y-100549773D01*
X190609126Y-100877970D01*
X190411100Y-101172655D01*
X190213074Y-100877970D01*
X189719084Y-100549773D01*
X189382830Y-100454944D01*
X189145100Y-100625106D01*
X189137100Y-100625106D01*
X188899370Y-100454944D01*
X188563116Y-100549773D01*
X188069126Y-100877970D01*
X187884319Y-101152984D01*
X187675902Y-100841067D01*
X187182779Y-100511572D01*
X186601100Y-100395869D01*
X186019421Y-100511572D01*
X185526298Y-100841067D01*
X185331100Y-101133201D01*
X185135902Y-100841067D01*
X184642779Y-100511572D01*
X184061100Y-100395869D01*
X183479421Y-100511572D01*
X182986298Y-100841067D01*
X182791100Y-101133201D01*
X182595902Y-100841067D01*
X182102779Y-100511572D01*
X181521100Y-100395869D01*
X180939421Y-100511572D01*
X180446298Y-100841067D01*
X180251100Y-101133201D01*
X180137316Y-100962912D01*
X182048227Y-99052000D01*
X187244943Y-99052000D01*
X187725162Y-99533059D01*
X188370880Y-99801184D01*
X189070053Y-99801794D01*
X189716237Y-99534796D01*
X190211059Y-99040838D01*
X190479184Y-98395120D01*
X190479794Y-97695947D01*
X190212796Y-97049763D01*
X189718838Y-96554941D01*
X189328677Y-96392932D01*
X189716237Y-96232796D01*
X190211059Y-95738838D01*
X190479184Y-95093120D01*
X190479186Y-95090053D01*
X197124206Y-95090053D01*
X197391204Y-95736237D01*
X197885162Y-96231059D01*
X198275323Y-96393068D01*
X197887763Y-96553204D01*
X197392941Y-97047162D01*
X197124816Y-97692880D01*
X197124206Y-98392053D01*
X197391204Y-99038237D01*
X197885162Y-99533059D01*
X198530880Y-99801184D01*
X199230053Y-99801794D01*
X199876237Y-99534796D01*
X200279270Y-99132467D01*
X200679162Y-99533059D01*
X201324880Y-99801184D01*
X202024053Y-99801794D01*
X202670237Y-99534796D01*
X203165059Y-99040838D01*
X203433184Y-98395120D01*
X203433794Y-97695947D01*
X203166796Y-97049763D01*
X202672838Y-96554941D01*
X202282677Y-96392932D01*
X202670237Y-96232796D01*
X203165059Y-95738838D01*
X203433184Y-95093120D01*
X203433186Y-95090053D01*
X210078206Y-95090053D01*
X210345204Y-95736237D01*
X210839162Y-96231059D01*
X211229323Y-96393068D01*
X210841763Y-96553204D01*
X210346941Y-97047162D01*
X210078816Y-97692880D01*
X210078206Y-98392053D01*
X210345204Y-99038237D01*
X210839162Y-99533059D01*
X211484880Y-99801184D01*
X212184053Y-99801794D01*
X212830237Y-99534796D01*
X213325059Y-99040838D01*
X213593184Y-98395120D01*
X213593794Y-97695947D01*
X213326796Y-97049763D01*
X212832838Y-96554941D01*
X212442677Y-96392932D01*
X212830237Y-96232796D01*
X213325059Y-95738838D01*
X213593184Y-95093120D01*
X213593794Y-94393947D01*
X213326796Y-93747763D01*
X212832838Y-93252941D01*
X212187120Y-92984816D01*
X211487947Y-92984206D01*
X210841763Y-93251204D01*
X210346941Y-93745162D01*
X210078816Y-94390880D01*
X210078206Y-95090053D01*
X203433186Y-95090053D01*
X203433794Y-94393947D01*
X203166796Y-93747763D01*
X202672838Y-93252941D01*
X202027120Y-92984816D01*
X201327947Y-92984206D01*
X200681763Y-93251204D01*
X200278730Y-93653533D01*
X199878838Y-93252941D01*
X199233120Y-92984816D01*
X198533947Y-92984206D01*
X197887763Y-93251204D01*
X197392941Y-93745162D01*
X197124816Y-94390880D01*
X197124206Y-95090053D01*
X190479186Y-95090053D01*
X190479794Y-94393947D01*
X190212796Y-93747763D01*
X189718838Y-93252941D01*
X189073120Y-92984816D01*
X188373947Y-92984206D01*
X187727763Y-93251204D01*
X187232941Y-93745162D01*
X186964816Y-94390880D01*
X186964206Y-95090053D01*
X187231204Y-95736237D01*
X187725162Y-96231059D01*
X188115323Y-96393068D01*
X187727763Y-96553204D01*
X187244123Y-97036000D01*
X181630700Y-97036000D01*
X181244955Y-97112729D01*
X180917936Y-97331236D01*
X180917934Y-97331239D01*
X178350100Y-99899072D01*
X166726216Y-88275188D01*
X166878000Y-88305380D01*
X167474221Y-88186784D01*
X167979672Y-87849052D01*
X168148000Y-87597132D01*
X168316328Y-87849052D01*
X168821779Y-88186784D01*
X169418000Y-88305380D01*
X170014221Y-88186784D01*
X170519672Y-87849052D01*
X170688000Y-87597132D01*
X170856328Y-87849052D01*
X171195289Y-88075539D01*
X170963763Y-88171204D01*
X170468941Y-88665162D01*
X170200816Y-89310880D01*
X170200206Y-90010053D01*
X170467204Y-90656237D01*
X170961162Y-91151059D01*
X171606880Y-91419184D01*
X172306053Y-91419794D01*
X172952237Y-91152796D01*
X173421714Y-90684139D01*
X173547318Y-90769960D01*
X173661901Y-90793164D01*
X173305052Y-91149391D01*
X173090245Y-91666703D01*
X173089756Y-92226840D01*
X173303660Y-92744526D01*
X173699391Y-93140948D01*
X174216703Y-93355755D01*
X174776840Y-93356244D01*
X175294526Y-93142340D01*
X175690948Y-92746609D01*
X175905755Y-92229297D01*
X175905831Y-92141500D01*
X178090000Y-92141500D01*
X178090000Y-92748775D01*
X178205398Y-93027372D01*
X178418627Y-93240601D01*
X178697224Y-93356000D01*
X179304500Y-93356000D01*
X179494000Y-93166500D01*
X179494000Y-91952000D01*
X179502000Y-91952000D01*
X179502000Y-93166500D01*
X179691500Y-93356000D01*
X180298776Y-93356000D01*
X180577373Y-93240601D01*
X180790602Y-93027372D01*
X180906000Y-92748775D01*
X180906000Y-92141500D01*
X180716500Y-91952000D01*
X179502000Y-91952000D01*
X179494000Y-91952000D01*
X178279500Y-91952000D01*
X178090000Y-92141500D01*
X175905831Y-92141500D01*
X175906244Y-91669160D01*
X175692340Y-91151474D01*
X175688099Y-91147225D01*
X178090000Y-91147225D01*
X178090000Y-91754500D01*
X178279500Y-91944000D01*
X179494000Y-91944000D01*
X179494000Y-91924000D01*
X179502000Y-91924000D01*
X179502000Y-91944000D01*
X180716500Y-91944000D01*
X180906000Y-91754500D01*
X180906000Y-91147225D01*
X180790602Y-90868628D01*
X180666819Y-90744845D01*
X200308400Y-90744845D01*
X200308400Y-91119155D01*
X200431837Y-91739714D01*
X200783356Y-92265799D01*
X201309441Y-92617318D01*
X201930000Y-92740755D01*
X202550559Y-92617318D01*
X203076644Y-92265799D01*
X203200000Y-92081184D01*
X203323356Y-92265799D01*
X203849441Y-92617318D01*
X204470000Y-92740755D01*
X205090559Y-92617318D01*
X205500211Y-92343597D01*
X205592415Y-92486886D01*
X205845718Y-92659960D01*
X206146400Y-92720850D01*
X207873600Y-92720850D01*
X208154498Y-92667995D01*
X208412486Y-92501985D01*
X208585560Y-92248682D01*
X208646450Y-91948000D01*
X208646450Y-89916000D01*
X208593595Y-89635102D01*
X208444329Y-89403134D01*
X213879782Y-89403134D01*
X214070897Y-89865669D01*
X214424470Y-90219859D01*
X214886670Y-90411781D01*
X215387134Y-90412218D01*
X215849669Y-90221103D01*
X216203859Y-89867530D01*
X216395781Y-89405330D01*
X216395854Y-89321674D01*
X216469474Y-89248053D01*
X227604206Y-89248053D01*
X227871204Y-89894237D01*
X228365162Y-90389059D01*
X229010880Y-90657184D01*
X229710053Y-90657794D01*
X230324085Y-90404081D01*
X229929748Y-90797730D01*
X229620353Y-91542836D01*
X229619649Y-92349624D01*
X229927743Y-93095269D01*
X230497730Y-93666252D01*
X231242836Y-93975647D01*
X232049624Y-93976351D01*
X232795269Y-93668257D01*
X233366252Y-93098270D01*
X233675647Y-92353164D01*
X233676351Y-91546376D01*
X233368257Y-90800731D01*
X232798270Y-90229748D01*
X232053164Y-89920353D01*
X231246376Y-89919649D01*
X230532884Y-90214458D01*
X230851059Y-89896838D01*
X231119184Y-89251120D01*
X231119794Y-88551947D01*
X230852796Y-87905763D01*
X230358838Y-87410941D01*
X229713120Y-87142816D01*
X229013947Y-87142206D01*
X228367763Y-87409204D01*
X227872941Y-87903162D01*
X227604816Y-88548880D01*
X227604206Y-89248053D01*
X216469474Y-89248053D01*
X223451560Y-82265967D01*
X223869924Y-82093103D01*
X224224114Y-81739530D01*
X224416036Y-81277330D01*
X224416473Y-80776866D01*
X224225358Y-80314331D01*
X223871785Y-79960141D01*
X223409585Y-79768219D01*
X222909121Y-79767782D01*
X222446586Y-79958897D01*
X222092396Y-80312470D01*
X221900474Y-80774670D01*
X221900307Y-80966166D01*
X214970619Y-87895853D01*
X214888866Y-87895782D01*
X214426331Y-88086897D01*
X214072141Y-88440470D01*
X213880219Y-88902670D01*
X213879782Y-89403134D01*
X208444329Y-89403134D01*
X208427585Y-89377114D01*
X208174282Y-89204040D01*
X207873600Y-89143150D01*
X206146400Y-89143150D01*
X205865502Y-89196005D01*
X205607514Y-89362015D01*
X205499580Y-89519982D01*
X205090559Y-89246682D01*
X204470000Y-89123245D01*
X203849441Y-89246682D01*
X203323356Y-89598201D01*
X203200000Y-89782816D01*
X203076644Y-89598201D01*
X202550559Y-89246682D01*
X201930000Y-89123245D01*
X201309441Y-89246682D01*
X200783356Y-89598201D01*
X200431837Y-90124286D01*
X200308400Y-90744845D01*
X180666819Y-90744845D01*
X180577373Y-90655399D01*
X180340524Y-90557293D01*
X180376282Y-90291939D01*
X179498000Y-89413657D01*
X178619718Y-90291939D01*
X178655476Y-90557293D01*
X178418627Y-90655399D01*
X178205398Y-90868628D01*
X178090000Y-91147225D01*
X175688099Y-91147225D01*
X175336810Y-90795323D01*
X175428898Y-90777995D01*
X175686886Y-90611985D01*
X175859960Y-90358682D01*
X175920850Y-90058000D01*
X175920850Y-89636525D01*
X178080723Y-89636525D01*
X178276059Y-90161498D01*
X178334242Y-90248575D01*
X178614061Y-90286282D01*
X179492343Y-89408000D01*
X179503657Y-89408000D01*
X180381939Y-90286282D01*
X180661758Y-90248575D01*
X180894846Y-89739239D01*
X180897842Y-89657134D01*
X182383782Y-89657134D01*
X182574897Y-90119669D01*
X182928470Y-90473859D01*
X183390670Y-90665781D01*
X183891134Y-90666218D01*
X184353669Y-90475103D01*
X184412875Y-90416000D01*
X190236712Y-90416000D01*
X190294470Y-90473859D01*
X190756670Y-90665781D01*
X191257134Y-90666218D01*
X191719669Y-90475103D01*
X192073859Y-90121530D01*
X192265781Y-89659330D01*
X192266218Y-89158866D01*
X192075103Y-88696331D01*
X191721530Y-88342141D01*
X191259330Y-88150219D01*
X190758866Y-88149782D01*
X190296331Y-88340897D01*
X190237125Y-88400000D01*
X184413288Y-88400000D01*
X184355530Y-88342141D01*
X183893330Y-88150219D01*
X183392866Y-88149782D01*
X182930331Y-88340897D01*
X182576141Y-88694470D01*
X182384219Y-89156670D01*
X182383782Y-89657134D01*
X180897842Y-89657134D01*
X180915277Y-89179475D01*
X180719941Y-88654502D01*
X180661758Y-88567425D01*
X180381939Y-88529718D01*
X179503657Y-89408000D01*
X179492343Y-89408000D01*
X178614061Y-88529718D01*
X178334242Y-88567425D01*
X178101154Y-89076761D01*
X178080723Y-89636525D01*
X175920850Y-89636525D01*
X175920850Y-88758000D01*
X175876832Y-88524061D01*
X178619718Y-88524061D01*
X179498000Y-89402343D01*
X180376282Y-88524061D01*
X180338575Y-88244242D01*
X179829239Y-88011154D01*
X179269475Y-87990723D01*
X178744502Y-88186059D01*
X178657425Y-88244242D01*
X178619718Y-88524061D01*
X175876832Y-88524061D01*
X175867995Y-88477102D01*
X175701985Y-88219114D01*
X175506000Y-88085204D01*
X175506000Y-87911642D01*
X175599672Y-87849052D01*
X175937404Y-87343601D01*
X176056000Y-86747380D01*
X176056000Y-85972620D01*
X176040223Y-85893305D01*
X177257474Y-84676053D01*
X183662206Y-84676053D01*
X183929204Y-85322237D01*
X184423162Y-85817059D01*
X185068880Y-86085184D01*
X185768053Y-86085794D01*
X186414237Y-85818796D01*
X186909059Y-85324838D01*
X187177184Y-84679120D01*
X187177186Y-84676053D01*
X193822206Y-84676053D01*
X194089204Y-85322237D01*
X194583162Y-85817059D01*
X195228880Y-86085184D01*
X195928053Y-86085794D01*
X196574237Y-85818796D01*
X196977270Y-85416467D01*
X197377162Y-85817059D01*
X198022880Y-86085184D01*
X198722053Y-86085794D01*
X199368237Y-85818796D01*
X199723745Y-85463908D01*
X207403749Y-85463908D01*
X207483973Y-85780042D01*
X208119574Y-86071340D01*
X208818268Y-86097230D01*
X209473684Y-85853771D01*
X209584027Y-85780042D01*
X209664251Y-85463908D01*
X208534000Y-84333657D01*
X207403749Y-85463908D01*
X199723745Y-85463908D01*
X199863059Y-85324838D01*
X200131184Y-84679120D01*
X200131794Y-83979947D01*
X199864796Y-83333763D01*
X199370838Y-82838941D01*
X198725120Y-82570816D01*
X198025947Y-82570206D01*
X197379763Y-82837204D01*
X196976730Y-83239533D01*
X196576838Y-82838941D01*
X196313364Y-82729537D01*
X196828237Y-82516796D01*
X197323059Y-82022838D01*
X197591184Y-81377120D01*
X197591794Y-80677947D01*
X197324796Y-80031763D01*
X196830838Y-79536941D01*
X196185120Y-79268816D01*
X195485947Y-79268206D01*
X194839763Y-79535204D01*
X194344941Y-80029162D01*
X194076816Y-80674880D01*
X194076206Y-81374053D01*
X194343204Y-82020237D01*
X194837162Y-82515059D01*
X195100636Y-82624463D01*
X194585763Y-82837204D01*
X194090941Y-83331162D01*
X193822816Y-83976880D01*
X193822206Y-84676053D01*
X187177186Y-84676053D01*
X187177794Y-83979947D01*
X186910796Y-83333763D01*
X186416838Y-82838941D01*
X185771120Y-82570816D01*
X185071947Y-82570206D01*
X184425763Y-82837204D01*
X183930941Y-83331162D01*
X183662816Y-83976880D01*
X183662206Y-84676053D01*
X177257474Y-84676053D01*
X178121527Y-83812000D01*
X178465995Y-83812000D01*
X178466000Y-83812001D01*
X178851745Y-83735271D01*
X179178764Y-83516764D01*
X181143304Y-81552223D01*
X181222620Y-81568000D01*
X181997380Y-81568000D01*
X182593601Y-81449404D01*
X183001396Y-81176924D01*
X184097246Y-82272774D01*
X184424265Y-82491281D01*
X184810010Y-82568010D01*
X190222030Y-82568010D01*
X190222035Y-82568011D01*
X190607780Y-82491281D01*
X190934799Y-82272774D01*
X194878292Y-78329280D01*
X195195356Y-78803799D01*
X195721441Y-79155318D01*
X196342000Y-79278755D01*
X196962559Y-79155318D01*
X197488644Y-78803799D01*
X197612000Y-78619184D01*
X197735356Y-78803799D01*
X197874000Y-78896438D01*
X197874000Y-78993995D01*
X197873999Y-78994000D01*
X197950729Y-79379745D01*
X198169236Y-79706764D01*
X202703853Y-84241381D01*
X202703782Y-84323134D01*
X202894897Y-84785669D01*
X203248470Y-85139859D01*
X203710670Y-85331781D01*
X204211134Y-85332218D01*
X204673669Y-85141103D01*
X205027859Y-84787530D01*
X205100634Y-84612268D01*
X206764770Y-84612268D01*
X207008229Y-85267684D01*
X207081958Y-85378027D01*
X207398092Y-85458251D01*
X208528343Y-84328000D01*
X208539657Y-84328000D01*
X209669908Y-85458251D01*
X209986042Y-85378027D01*
X210277340Y-84742426D01*
X210303230Y-84043732D01*
X210059771Y-83388316D01*
X209986042Y-83277973D01*
X209669908Y-83197749D01*
X208539657Y-84328000D01*
X208528343Y-84328000D01*
X207398092Y-83197749D01*
X207081958Y-83277973D01*
X206790660Y-83913574D01*
X206764770Y-84612268D01*
X205100634Y-84612268D01*
X205219781Y-84325330D01*
X205220218Y-83824866D01*
X205029103Y-83362331D01*
X204859161Y-83192092D01*
X207403749Y-83192092D01*
X208534000Y-84322343D01*
X209664251Y-83192092D01*
X209602006Y-82946805D01*
X209981684Y-82805771D01*
X210092027Y-82732042D01*
X210172251Y-82415908D01*
X209042000Y-81285657D01*
X207911749Y-82415908D01*
X207973994Y-82661195D01*
X207594316Y-82802229D01*
X207483973Y-82875958D01*
X207403749Y-83192092D01*
X204859161Y-83192092D01*
X204675530Y-83008141D01*
X204213330Y-82816219D01*
X204129674Y-82816146D01*
X203475436Y-82161908D01*
X204863749Y-82161908D01*
X204943973Y-82478042D01*
X205579574Y-82769340D01*
X206278268Y-82795230D01*
X206933684Y-82551771D01*
X207044027Y-82478042D01*
X207124251Y-82161908D01*
X205994000Y-81031657D01*
X204863749Y-82161908D01*
X203475436Y-82161908D01*
X202623796Y-81310268D01*
X204224770Y-81310268D01*
X204468229Y-81965684D01*
X204541958Y-82076027D01*
X204858092Y-82156251D01*
X205988343Y-81026000D01*
X205999657Y-81026000D01*
X207129908Y-82156251D01*
X207446042Y-82076027D01*
X207455335Y-82055751D01*
X207516229Y-82219684D01*
X207589958Y-82330027D01*
X207906092Y-82410251D01*
X209036343Y-81280000D01*
X209047657Y-81280000D01*
X210177908Y-82410251D01*
X210494042Y-82330027D01*
X210785340Y-81694426D01*
X210811230Y-80995732D01*
X210567771Y-80340316D01*
X210494042Y-80229973D01*
X210177908Y-80149749D01*
X209047657Y-81280000D01*
X209036343Y-81280000D01*
X207906092Y-80149749D01*
X207589958Y-80229973D01*
X207580665Y-80250249D01*
X207541233Y-80144092D01*
X207911749Y-80144092D01*
X209042000Y-81274343D01*
X210172251Y-80144092D01*
X210092027Y-79827958D01*
X209456426Y-79536660D01*
X208757732Y-79510770D01*
X208102316Y-79754229D01*
X207991973Y-79827958D01*
X207911749Y-80144092D01*
X207541233Y-80144092D01*
X207519771Y-80086316D01*
X207446042Y-79975973D01*
X207129908Y-79895749D01*
X205999657Y-81026000D01*
X205988343Y-81026000D01*
X204858092Y-79895749D01*
X204541958Y-79975973D01*
X204250660Y-80611574D01*
X204224770Y-81310268D01*
X202623796Y-81310268D01*
X201203620Y-79890092D01*
X204863749Y-79890092D01*
X205994000Y-81020343D01*
X207124251Y-79890092D01*
X207044027Y-79573958D01*
X206408426Y-79282660D01*
X205709732Y-79256770D01*
X205054316Y-79500229D01*
X204943973Y-79573958D01*
X204863749Y-79890092D01*
X201203620Y-79890092D01*
X200572378Y-79258850D01*
X202285600Y-79258850D01*
X202566498Y-79205995D01*
X202824486Y-79039985D01*
X202997560Y-78786682D01*
X203058450Y-78486000D01*
X203058450Y-76454000D01*
X203005595Y-76173102D01*
X202839585Y-75915114D01*
X202586282Y-75742040D01*
X202285600Y-75681150D01*
X202107469Y-75681150D01*
X202523672Y-75403052D01*
X202704518Y-75132397D01*
X202863156Y-75368501D01*
X203369475Y-75704935D01*
X203714325Y-75802188D01*
X203958000Y-75632494D01*
X203958000Y-73918000D01*
X203966000Y-73918000D01*
X203966000Y-75632494D01*
X204209675Y-75802188D01*
X204554525Y-75704935D01*
X204581314Y-75687134D01*
X211593782Y-75687134D01*
X211784897Y-76149669D01*
X211844000Y-76208875D01*
X211844000Y-81778712D01*
X211786141Y-81836470D01*
X211594219Y-82298670D01*
X211593782Y-82799134D01*
X211784897Y-83261669D01*
X212138470Y-83615859D01*
X212600670Y-83807781D01*
X213101134Y-83808218D01*
X213563669Y-83617103D01*
X213917859Y-83263530D01*
X214109781Y-82801330D01*
X214110218Y-82300866D01*
X213919103Y-81838331D01*
X213860000Y-81779125D01*
X213860000Y-76209288D01*
X213917859Y-76151530D01*
X214109781Y-75689330D01*
X214110218Y-75188866D01*
X213919103Y-74726331D01*
X213565530Y-74372141D01*
X213103330Y-74180219D01*
X212602866Y-74179782D01*
X212140331Y-74370897D01*
X211786141Y-74724470D01*
X211594219Y-75186670D01*
X211593782Y-75687134D01*
X204581314Y-75687134D01*
X205060844Y-75368501D01*
X205399874Y-74863916D01*
X205520000Y-74268000D01*
X205520000Y-73918000D01*
X203966000Y-73918000D01*
X203958000Y-73918000D01*
X203938000Y-73918000D01*
X203938000Y-73910000D01*
X203958000Y-73910000D01*
X203958000Y-72195506D01*
X203966000Y-72195506D01*
X203966000Y-73910000D01*
X205520000Y-73910000D01*
X205520000Y-73560000D01*
X205399874Y-72964084D01*
X205060844Y-72459499D01*
X204554525Y-72123065D01*
X204209675Y-72025812D01*
X203966000Y-72195506D01*
X203958000Y-72195506D01*
X203714325Y-72025812D01*
X203369475Y-72123065D01*
X202863156Y-72459499D01*
X202704518Y-72695603D01*
X202523672Y-72424948D01*
X202018221Y-72087216D01*
X201422000Y-71968620D01*
X200825779Y-72087216D01*
X200320328Y-72424948D01*
X200152000Y-72676868D01*
X199983672Y-72424948D01*
X199478221Y-72087216D01*
X198882000Y-71968620D01*
X198285779Y-72087216D01*
X197780328Y-72424948D01*
X197612000Y-72676868D01*
X197443672Y-72424948D01*
X197006587Y-72132896D01*
X197671430Y-71468053D01*
X207284206Y-71468053D01*
X207551204Y-72114237D01*
X208045162Y-72609059D01*
X208690880Y-72877184D01*
X209390053Y-72877794D01*
X210036237Y-72610796D01*
X210531059Y-72116838D01*
X210799184Y-71471120D01*
X210799794Y-70771947D01*
X210532796Y-70125763D01*
X210038838Y-69630941D01*
X209393120Y-69362816D01*
X208693947Y-69362206D01*
X208047763Y-69629204D01*
X207552941Y-70123162D01*
X207284816Y-70768880D01*
X207284206Y-71468053D01*
X197671430Y-71468053D01*
X199937473Y-69202010D01*
X204604030Y-69202010D01*
X204604035Y-69202011D01*
X204989780Y-69125281D01*
X205316799Y-68906774D01*
X206375305Y-67848268D01*
X236990770Y-67848268D01*
X237234229Y-68503684D01*
X237307958Y-68614027D01*
X237624092Y-68694251D01*
X238754343Y-67564000D01*
X237624092Y-66433749D01*
X237307958Y-66513973D01*
X237016660Y-67149574D01*
X236990770Y-67848268D01*
X206375305Y-67848268D01*
X208976016Y-65247557D01*
X216169430Y-65247557D01*
X216169430Y-66324443D01*
X216284263Y-66901748D01*
X216611280Y-67391163D01*
X217100695Y-67718180D01*
X217678000Y-67833013D01*
X218255305Y-67718180D01*
X218744720Y-67391163D01*
X218948000Y-67086933D01*
X219151280Y-67391163D01*
X219640695Y-67718180D01*
X220218000Y-67833013D01*
X220795305Y-67718180D01*
X221284720Y-67391163D01*
X221488000Y-67086933D01*
X221691280Y-67391163D01*
X222180695Y-67718180D01*
X222758000Y-67833013D01*
X223335305Y-67718180D01*
X223824720Y-67391163D01*
X224151737Y-66901748D01*
X224245952Y-66428092D01*
X237629749Y-66428092D01*
X238760000Y-67558343D01*
X239890251Y-66428092D01*
X240931749Y-66428092D01*
X242062000Y-67558343D01*
X243192251Y-66428092D01*
X243112027Y-66111958D01*
X242476426Y-65820660D01*
X241777732Y-65794770D01*
X241122316Y-66038229D01*
X241011973Y-66111958D01*
X240931749Y-66428092D01*
X239890251Y-66428092D01*
X239810027Y-66111958D01*
X239174426Y-65820660D01*
X238475732Y-65794770D01*
X237820316Y-66038229D01*
X237709973Y-66111958D01*
X237629749Y-66428092D01*
X224245952Y-66428092D01*
X224266570Y-66324443D01*
X224266570Y-65247557D01*
X224151737Y-64670252D01*
X223824720Y-64180837D01*
X223335305Y-63853820D01*
X222758000Y-63738987D01*
X222180695Y-63853820D01*
X221691280Y-64180837D01*
X221488000Y-64485067D01*
X221284720Y-64180837D01*
X220795305Y-63853820D01*
X220218000Y-63738987D01*
X219640695Y-63853820D01*
X219151280Y-64180837D01*
X218948000Y-64485067D01*
X218744720Y-64180837D01*
X218255305Y-63853820D01*
X217678000Y-63738987D01*
X217100695Y-63853820D01*
X216611280Y-64180837D01*
X216284263Y-64670252D01*
X216169430Y-65247557D01*
X208976016Y-65247557D01*
X209500764Y-64722809D01*
X209719271Y-64395790D01*
X209796000Y-64010045D01*
X209796000Y-62730000D01*
X213442989Y-62730000D01*
X213647204Y-63224237D01*
X214141162Y-63719059D01*
X214786880Y-63987184D01*
X215486053Y-63987794D01*
X216132237Y-63720796D01*
X216627059Y-63226838D01*
X216895184Y-62581120D01*
X216895186Y-62578053D01*
X223540206Y-62578053D01*
X223807204Y-63224237D01*
X224301162Y-63719059D01*
X224946880Y-63987184D01*
X225646053Y-63987794D01*
X226292237Y-63720796D01*
X226787059Y-63226838D01*
X227055184Y-62581120D01*
X227055794Y-61881947D01*
X227009539Y-61770000D01*
X228651150Y-61770000D01*
X228651150Y-63170000D01*
X228704005Y-63450898D01*
X228870015Y-63708886D01*
X229123318Y-63881960D01*
X229424000Y-63942850D01*
X230824000Y-63942850D01*
X231104898Y-63889995D01*
X231362886Y-63723985D01*
X231535960Y-63470682D01*
X231596850Y-63170000D01*
X231596850Y-61770000D01*
X231543995Y-61489102D01*
X231377985Y-61231114D01*
X231124682Y-61058040D01*
X230824000Y-60997150D01*
X229424000Y-60997150D01*
X229143102Y-61050005D01*
X228885114Y-61216015D01*
X228712040Y-61469318D01*
X228651150Y-61770000D01*
X227009539Y-61770000D01*
X226788796Y-61235763D01*
X226294838Y-60740941D01*
X225649120Y-60472816D01*
X224949947Y-60472206D01*
X224303763Y-60739204D01*
X223808941Y-61233162D01*
X223540816Y-61878880D01*
X223540206Y-62578053D01*
X216895186Y-62578053D01*
X216895794Y-61881947D01*
X216628796Y-61235763D01*
X216134838Y-60740941D01*
X215489120Y-60472816D01*
X214789947Y-60472206D01*
X214204761Y-60714000D01*
X209771235Y-60714000D01*
X209658536Y-60601104D01*
X209867372Y-60514602D01*
X210080601Y-60301373D01*
X210178962Y-60063908D01*
X215785749Y-60063908D01*
X215865973Y-60380042D01*
X216501574Y-60671340D01*
X217200268Y-60697230D01*
X217855684Y-60453771D01*
X217966027Y-60380042D01*
X218046251Y-60063908D01*
X216916000Y-58933657D01*
X215785749Y-60063908D01*
X210178962Y-60063908D01*
X210196000Y-60022776D01*
X210196000Y-59415500D01*
X210006500Y-59226000D01*
X208792000Y-59226000D01*
X208792000Y-59246000D01*
X208784000Y-59246000D01*
X208784000Y-59226000D01*
X207569500Y-59226000D01*
X207380000Y-59415500D01*
X207380000Y-60022776D01*
X207495399Y-60301373D01*
X207708628Y-60514602D01*
X207917773Y-60601232D01*
X207595052Y-60923391D01*
X207380245Y-61440703D01*
X207379756Y-62000840D01*
X207593660Y-62518526D01*
X207780000Y-62705191D01*
X207780000Y-63592517D01*
X205511024Y-65861493D01*
X205401404Y-65310399D01*
X205063672Y-64804948D01*
X204558221Y-64467216D01*
X203962000Y-64348620D01*
X203365779Y-64467216D01*
X202860328Y-64804948D01*
X202692000Y-65056868D01*
X202523672Y-64804948D01*
X202018221Y-64467216D01*
X201422000Y-64348620D01*
X200825779Y-64467216D01*
X200320328Y-64804948D01*
X200152000Y-65056868D01*
X199983672Y-64804948D01*
X199478221Y-64467216D01*
X198882000Y-64348620D01*
X198285779Y-64467216D01*
X197780328Y-64804948D01*
X197612000Y-65056868D01*
X197508924Y-64902604D01*
X203990304Y-58421224D01*
X207380000Y-58421224D01*
X207380000Y-59028500D01*
X207569500Y-59218000D01*
X208784000Y-59218000D01*
X208784000Y-58003500D01*
X208792000Y-58003500D01*
X208792000Y-59218000D01*
X210006500Y-59218000D01*
X210012232Y-59212268D01*
X215146770Y-59212268D01*
X215390229Y-59867684D01*
X215463958Y-59978027D01*
X215780092Y-60058251D01*
X216910343Y-58928000D01*
X216921657Y-58928000D01*
X218051908Y-60058251D01*
X218368042Y-59978027D01*
X218659340Y-59342426D01*
X218661799Y-59276053D01*
X225318206Y-59276053D01*
X225585204Y-59922237D01*
X226079162Y-60417059D01*
X226724880Y-60685184D01*
X227424053Y-60685794D01*
X228070237Y-60418796D01*
X228565059Y-59924838D01*
X228833184Y-59279120D01*
X228833794Y-58579947D01*
X228566796Y-57933763D01*
X228385404Y-57752053D01*
X237002206Y-57752053D01*
X237269204Y-58398237D01*
X237763162Y-58893059D01*
X238408880Y-59161184D01*
X239108053Y-59161794D01*
X239754237Y-58894796D01*
X240249059Y-58400838D01*
X240411068Y-58010677D01*
X240571204Y-58398237D01*
X241065162Y-58893059D01*
X241710880Y-59161184D01*
X242410053Y-59161794D01*
X243056237Y-58894796D01*
X243551059Y-58400838D01*
X243819184Y-57755120D01*
X243819794Y-57055947D01*
X243552796Y-56409763D01*
X243058838Y-55914941D01*
X242413120Y-55646816D01*
X241713947Y-55646206D01*
X241067763Y-55913204D01*
X240572941Y-56407162D01*
X240410932Y-56797323D01*
X240250796Y-56409763D01*
X239756838Y-55914941D01*
X239111120Y-55646816D01*
X238411947Y-55646206D01*
X237765763Y-55913204D01*
X237270941Y-56407162D01*
X237002816Y-57052880D01*
X237002206Y-57752053D01*
X228385404Y-57752053D01*
X228072838Y-57438941D01*
X227427120Y-57170816D01*
X226727947Y-57170206D01*
X226081763Y-57437204D01*
X225586941Y-57931162D01*
X225318816Y-58576880D01*
X225318206Y-59276053D01*
X218661799Y-59276053D01*
X218685230Y-58643732D01*
X218441771Y-57988316D01*
X218368042Y-57877973D01*
X218051908Y-57797749D01*
X216921657Y-58928000D01*
X216910343Y-58928000D01*
X215780092Y-57797749D01*
X215463958Y-57877973D01*
X215172660Y-58513574D01*
X215146770Y-59212268D01*
X210012232Y-59212268D01*
X210196000Y-59028500D01*
X210196000Y-58421224D01*
X210080601Y-58142627D01*
X209867372Y-57929398D01*
X209588775Y-57814000D01*
X208981500Y-57814000D01*
X208792000Y-58003500D01*
X208784000Y-58003500D01*
X208594500Y-57814000D01*
X207987225Y-57814000D01*
X207708628Y-57929398D01*
X207495399Y-58142627D01*
X207380000Y-58421224D01*
X203990304Y-58421224D01*
X204619436Y-57792092D01*
X215785749Y-57792092D01*
X216916000Y-58922343D01*
X218046251Y-57792092D01*
X217966027Y-57475958D01*
X217330426Y-57184660D01*
X216631732Y-57158770D01*
X215976316Y-57402229D01*
X215865973Y-57475958D01*
X215785749Y-57792092D01*
X204619436Y-57792092D01*
X204761528Y-57650000D01*
X212209000Y-57650000D01*
X212209005Y-57650001D01*
X212594750Y-57573271D01*
X212921769Y-57354764D01*
X214225874Y-56050659D01*
X214444381Y-55723640D01*
X214484962Y-55519624D01*
X223777649Y-55519624D01*
X224085743Y-56265269D01*
X224655730Y-56836252D01*
X225400836Y-57145647D01*
X226207624Y-57146351D01*
X226953269Y-56838257D01*
X227343271Y-56448935D01*
X229560721Y-56448935D01*
X229673857Y-56793178D01*
X230407188Y-57129529D01*
X231213414Y-57159644D01*
X231969795Y-56878937D01*
X232098143Y-56793178D01*
X232211279Y-56448935D01*
X230886000Y-55123657D01*
X229560721Y-56448935D01*
X227343271Y-56448935D01*
X227524252Y-56268270D01*
X227833647Y-55523164D01*
X227833714Y-55445414D01*
X228844356Y-55445414D01*
X229125063Y-56201795D01*
X229210822Y-56330143D01*
X229555065Y-56443279D01*
X230880343Y-55118000D01*
X230891657Y-55118000D01*
X232216935Y-56443279D01*
X232561178Y-56330143D01*
X232897529Y-55596812D01*
X232927644Y-54790586D01*
X232646937Y-54034205D01*
X232561178Y-53905857D01*
X232216935Y-53792721D01*
X230891657Y-55118000D01*
X230880343Y-55118000D01*
X229555065Y-53792721D01*
X229210822Y-53905857D01*
X228874471Y-54639188D01*
X228844356Y-55445414D01*
X227833714Y-55445414D01*
X227834351Y-54716376D01*
X227526257Y-53970731D01*
X227342912Y-53787065D01*
X229560721Y-53787065D01*
X230886000Y-55112343D01*
X232211279Y-53787065D01*
X232098143Y-53442822D01*
X231364812Y-53106471D01*
X230558586Y-53076356D01*
X229802205Y-53357063D01*
X229673857Y-53442822D01*
X229560721Y-53787065D01*
X227342912Y-53787065D01*
X226956270Y-53399748D01*
X226211164Y-53090353D01*
X225404376Y-53089649D01*
X224658731Y-53397743D01*
X224087748Y-53967730D01*
X223778353Y-54712836D01*
X223777649Y-55519624D01*
X214484962Y-55519624D01*
X214521111Y-55337895D01*
X214521110Y-55337890D01*
X214521110Y-54126840D01*
X217793756Y-54126840D01*
X218007660Y-54644526D01*
X218403391Y-55040948D01*
X218920703Y-55255755D01*
X219480840Y-55256244D01*
X219998526Y-55042340D01*
X220394948Y-54646609D01*
X220609755Y-54129297D01*
X220610244Y-53569160D01*
X220396340Y-53051474D01*
X220072536Y-52727104D01*
X220281372Y-52640602D01*
X220450350Y-52471624D01*
X233937649Y-52471624D01*
X234245743Y-53217269D01*
X234815730Y-53788252D01*
X235560836Y-54097647D01*
X236367624Y-54098351D01*
X237113269Y-53790257D01*
X237684252Y-53220270D01*
X237993647Y-52475164D01*
X237994351Y-51668376D01*
X237686257Y-50922731D01*
X237563741Y-50800000D01*
X239003150Y-50800000D01*
X239003150Y-53340000D01*
X239056005Y-53620898D01*
X239222015Y-53878886D01*
X239475318Y-54051960D01*
X239776000Y-54112850D01*
X242316000Y-54112850D01*
X242596898Y-54059995D01*
X242854886Y-53893985D01*
X243027960Y-53640682D01*
X243088850Y-53340000D01*
X243088850Y-50800000D01*
X243052723Y-50608000D01*
X246177150Y-50608000D01*
X246177150Y-52008000D01*
X246230005Y-52288898D01*
X246396015Y-52546886D01*
X246649318Y-52719960D01*
X246950000Y-52780850D01*
X248350000Y-52780850D01*
X248630898Y-52727995D01*
X248888886Y-52561985D01*
X249061960Y-52308682D01*
X249122850Y-52008000D01*
X249122850Y-50608000D01*
X249069995Y-50327102D01*
X248903985Y-50069114D01*
X248650682Y-49896040D01*
X248350000Y-49835150D01*
X246950000Y-49835150D01*
X246669102Y-49888005D01*
X246411114Y-50054015D01*
X246238040Y-50307318D01*
X246177150Y-50608000D01*
X243052723Y-50608000D01*
X243035995Y-50519102D01*
X242869985Y-50261114D01*
X242616682Y-50088040D01*
X242316000Y-50027150D01*
X239776000Y-50027150D01*
X239495102Y-50080005D01*
X239237114Y-50246015D01*
X239064040Y-50499318D01*
X239003150Y-50800000D01*
X237563741Y-50800000D01*
X237116270Y-50351748D01*
X236371164Y-50042353D01*
X235564376Y-50041649D01*
X234818731Y-50349743D01*
X234247748Y-50919730D01*
X233938353Y-51664836D01*
X233937649Y-52471624D01*
X220450350Y-52471624D01*
X220494601Y-52427373D01*
X220610000Y-52148776D01*
X220610000Y-51541500D01*
X220420500Y-51352000D01*
X219206000Y-51352000D01*
X219206000Y-51372000D01*
X219198000Y-51372000D01*
X219198000Y-51352000D01*
X217983500Y-51352000D01*
X217794000Y-51541500D01*
X217794000Y-52148776D01*
X217909399Y-52427373D01*
X218122628Y-52640602D01*
X218331773Y-52727232D01*
X218009052Y-53049391D01*
X217794245Y-53566703D01*
X217793756Y-54126840D01*
X214521110Y-54126840D01*
X214521110Y-51740515D01*
X214521111Y-51740510D01*
X214444381Y-51354765D01*
X214339901Y-51198400D01*
X214225874Y-51027746D01*
X214225871Y-51027744D01*
X213745352Y-50547224D01*
X217794000Y-50547224D01*
X217794000Y-51154500D01*
X217983500Y-51344000D01*
X219198000Y-51344000D01*
X219198000Y-50129500D01*
X219206000Y-50129500D01*
X219206000Y-51344000D01*
X220420500Y-51344000D01*
X220610000Y-51154500D01*
X220610000Y-50547224D01*
X220494601Y-50268627D01*
X220281372Y-50055398D01*
X220002775Y-49940000D01*
X219395500Y-49940000D01*
X219206000Y-50129500D01*
X219198000Y-50129500D01*
X219008500Y-49940000D01*
X218401225Y-49940000D01*
X218122628Y-50055398D01*
X217909399Y-50268627D01*
X217794000Y-50547224D01*
X213745352Y-50547224D01*
X213557836Y-50359708D01*
X213584600Y-50225155D01*
X213584600Y-49850845D01*
X213461163Y-49230286D01*
X213109644Y-48704201D01*
X212583559Y-48352682D01*
X212348873Y-48306000D01*
X224687151Y-48306000D01*
X224658731Y-48317743D01*
X224087748Y-48887730D01*
X223778353Y-49632836D01*
X223777649Y-50439624D01*
X224085743Y-51185269D01*
X224655730Y-51756252D01*
X225400836Y-52065647D01*
X226207624Y-52066351D01*
X226953269Y-51758257D01*
X227524252Y-51188270D01*
X227833647Y-50443164D01*
X227834351Y-49636376D01*
X227526257Y-48890731D01*
X226956270Y-48319748D01*
X226923161Y-48306000D01*
X229767151Y-48306000D01*
X229738731Y-48317743D01*
X229167748Y-48887730D01*
X228858353Y-49632836D01*
X228857649Y-50439624D01*
X229165743Y-51185269D01*
X229735730Y-51756252D01*
X230480836Y-52065647D01*
X231287624Y-52066351D01*
X232033269Y-51758257D01*
X232604252Y-51188270D01*
X232913647Y-50443164D01*
X232914351Y-49636376D01*
X232606257Y-48890731D01*
X232036270Y-48319748D01*
X232003161Y-48306000D01*
X248585316Y-48306000D01*
X250652000Y-50372685D01*
X250652000Y-64539074D01*
X250576473Y-64356285D01*
X249606819Y-63384938D01*
X248339258Y-62858601D01*
X246966763Y-62857403D01*
X245698285Y-63381527D01*
X244726938Y-64351181D01*
X244200601Y-65618742D01*
X244199403Y-66991237D01*
X244692815Y-68185386D01*
X244613828Y-68218023D01*
X243481997Y-69347880D01*
X243478101Y-69357263D01*
X243117185Y-68995717D01*
X243192251Y-68699908D01*
X242062000Y-67569657D01*
X242047858Y-67583799D01*
X242042201Y-67578142D01*
X242056343Y-67564000D01*
X242067657Y-67564000D01*
X243197908Y-68694251D01*
X243514042Y-68614027D01*
X243805340Y-67978426D01*
X243831230Y-67279732D01*
X243587771Y-66624316D01*
X243514042Y-66513973D01*
X243197908Y-66433749D01*
X242067657Y-67564000D01*
X242056343Y-67564000D01*
X240926092Y-66433749D01*
X240609958Y-66513973D01*
X240408260Y-66954070D01*
X240285771Y-66624316D01*
X240212042Y-66513973D01*
X239895908Y-66433749D01*
X238765657Y-67564000D01*
X238779799Y-67578142D01*
X238774142Y-67583799D01*
X238760000Y-67569657D01*
X237629749Y-68699908D01*
X237709973Y-69016042D01*
X237890426Y-69098744D01*
X237148916Y-69838961D01*
X236780132Y-70727092D01*
X236687062Y-70443903D01*
X235953731Y-70107552D01*
X235147505Y-70077437D01*
X234391124Y-70358144D01*
X234262776Y-70443903D01*
X234149640Y-70788146D01*
X235474919Y-72113424D01*
X235489061Y-72099282D01*
X235494718Y-72104939D01*
X235480576Y-72119081D01*
X235494718Y-72133223D01*
X235489061Y-72138880D01*
X235474919Y-72124738D01*
X235460777Y-72138880D01*
X235455120Y-72133223D01*
X235469262Y-72119081D01*
X234143984Y-70793802D01*
X233799741Y-70906938D01*
X233463390Y-71640269D01*
X233433275Y-72446495D01*
X233713982Y-73202876D01*
X233799741Y-73331224D01*
X234083333Y-73424427D01*
X233200747Y-73789104D01*
X232260889Y-74727323D01*
X232080819Y-74546938D01*
X230813258Y-74020601D01*
X229440763Y-74019403D01*
X228172285Y-74543527D01*
X227200938Y-75513181D01*
X226674601Y-76780742D01*
X226673403Y-78153237D01*
X227197527Y-79421715D01*
X228167181Y-80393062D01*
X229434742Y-80919399D01*
X230807237Y-80920597D01*
X232075715Y-80396473D01*
X232531928Y-79941055D01*
X233194799Y-80605084D01*
X234671784Y-81218381D01*
X236271038Y-81219777D01*
X237554919Y-80689288D01*
X237554919Y-85655827D01*
X237400859Y-85719483D01*
X236345190Y-86773311D01*
X235773162Y-88150908D01*
X235771860Y-89642548D01*
X236341483Y-91021141D01*
X237395311Y-92076810D01*
X238772908Y-92648838D01*
X240264548Y-92650140D01*
X241643141Y-92080517D01*
X242698810Y-91026689D01*
X243270838Y-89649092D01*
X243271319Y-89097803D01*
X243326558Y-89015132D01*
X243390341Y-88694470D01*
X243554919Y-87867081D01*
X243554919Y-83459624D01*
X244859649Y-83459624D01*
X245167743Y-84205269D01*
X245737730Y-84776252D01*
X246482836Y-85085647D01*
X247289624Y-85086351D01*
X248035269Y-84778257D01*
X248606252Y-84208270D01*
X248915647Y-83463164D01*
X248916351Y-82656376D01*
X248608257Y-81910731D01*
X248038270Y-81339748D01*
X247293164Y-81030353D01*
X246486376Y-81029649D01*
X245740731Y-81337743D01*
X245169748Y-81907730D01*
X244860353Y-82652836D01*
X244859649Y-83459624D01*
X243554919Y-83459624D01*
X243554919Y-79884496D01*
X243568309Y-79871129D01*
X243608161Y-79933060D01*
X244527136Y-80560969D01*
X245618000Y-80781875D01*
X248158000Y-80781875D01*
X249177089Y-80590120D01*
X250113060Y-79987839D01*
X250652000Y-79199074D01*
X250652000Y-90745347D01*
X250167839Y-89992940D01*
X249248864Y-89365031D01*
X248626695Y-89239038D01*
X248915647Y-88543164D01*
X248916351Y-87736376D01*
X248608257Y-86990731D01*
X248038270Y-86419748D01*
X247293164Y-86110353D01*
X246486376Y-86109649D01*
X245740731Y-86417743D01*
X245169748Y-86987730D01*
X244860353Y-87732836D01*
X244859649Y-88539624D01*
X245146112Y-89232917D01*
X244598911Y-89335880D01*
X243662940Y-89938161D01*
X243035031Y-90857136D01*
X242814125Y-91948000D01*
X242814125Y-94488000D01*
X243005880Y-95507089D01*
X243608161Y-96443060D01*
X244493520Y-97048000D01*
X243586005Y-97048000D01*
X243586000Y-97047999D01*
X242913243Y-97181820D01*
X242342906Y-97562906D01*
X242342904Y-97562909D01*
X239278582Y-100627230D01*
X238628731Y-100895743D01*
X238057748Y-101465730D01*
X237748353Y-102210836D01*
X237747649Y-103017624D01*
X237863012Y-103296824D01*
X236738850Y-102172662D01*
X236738850Y-101346000D01*
X236685995Y-101065102D01*
X236519985Y-100807114D01*
X236266682Y-100634040D01*
X235966000Y-100573150D01*
X233426000Y-100573150D01*
X233145102Y-100626005D01*
X232887114Y-100792015D01*
X232714040Y-101045318D01*
X232653150Y-101346000D01*
X232653150Y-103886000D01*
X232706005Y-104166898D01*
X232872015Y-104424886D01*
X233125318Y-104597960D01*
X233426000Y-104658850D01*
X234252662Y-104658850D01*
X236222907Y-106629095D01*
X236230248Y-106634000D01*
X162894685Y-106634000D01*
X160828000Y-104567316D01*
X160828000Y-94312761D01*
X160847318Y-94325960D01*
X161148000Y-94386850D01*
X162448000Y-94386850D01*
X162728898Y-94333995D01*
X162986886Y-94167985D01*
X163159960Y-93914682D01*
X163220850Y-93614000D01*
X163220850Y-92314000D01*
X163167995Y-92033102D01*
X163001985Y-91775114D01*
X162748682Y-91602040D01*
X162448000Y-91541150D01*
X161148000Y-91541150D01*
X160867102Y-91594005D01*
X160828000Y-91619166D01*
X160828000Y-91162203D01*
X161446880Y-91419184D01*
X162146053Y-91419794D01*
X162792237Y-91152796D01*
X163287059Y-90658838D01*
X163555184Y-90013120D01*
X163555794Y-89313947D01*
X163288796Y-88667763D01*
X162794838Y-88172941D01*
X162149120Y-87904816D01*
X161449947Y-87904206D01*
X160828000Y-88161189D01*
X160828000Y-75885500D01*
X163010000Y-75885500D01*
X163010000Y-76492775D01*
X163125398Y-76771372D01*
X163338627Y-76984601D01*
X163617224Y-77100000D01*
X164224500Y-77100000D01*
X164414000Y-76910500D01*
X164414000Y-75696000D01*
X164422000Y-75696000D01*
X164422000Y-76910500D01*
X164611500Y-77100000D01*
X165218776Y-77100000D01*
X165497373Y-76984601D01*
X165710602Y-76771372D01*
X165826000Y-76492775D01*
X165826000Y-75885500D01*
X165636500Y-75696000D01*
X164422000Y-75696000D01*
X164414000Y-75696000D01*
X163199500Y-75696000D01*
X163010000Y-75885500D01*
X160828000Y-75885500D01*
X160828000Y-74891225D01*
X163010000Y-74891225D01*
X163010000Y-75498500D01*
X163199500Y-75688000D01*
X164414000Y-75688000D01*
X164414000Y-74473500D01*
X164422000Y-74473500D01*
X164422000Y-75688000D01*
X165636500Y-75688000D01*
X165826000Y-75498500D01*
X165826000Y-74891225D01*
X165710602Y-74612628D01*
X165497373Y-74399399D01*
X165218776Y-74284000D01*
X164611500Y-74284000D01*
X164422000Y-74473500D01*
X164414000Y-74473500D01*
X164224500Y-74284000D01*
X163617224Y-74284000D01*
X163338627Y-74399399D01*
X163125398Y-74612628D01*
X163010000Y-74891225D01*
X160828000Y-74891225D01*
X160828000Y-63947500D01*
X162168000Y-63947500D01*
X162168000Y-64554776D01*
X162283399Y-64833373D01*
X162496628Y-65046602D01*
X162775225Y-65162000D01*
X163382500Y-65162000D01*
X163572000Y-64972500D01*
X163572000Y-63758000D01*
X163580000Y-63758000D01*
X163580000Y-64972500D01*
X163769500Y-65162000D01*
X164376775Y-65162000D01*
X164655372Y-65046602D01*
X164868601Y-64833373D01*
X164984000Y-64554776D01*
X164984000Y-63947500D01*
X164794500Y-63758000D01*
X163580000Y-63758000D01*
X163572000Y-63758000D01*
X162357500Y-63758000D01*
X162168000Y-63947500D01*
X160828000Y-63947500D01*
X160828000Y-62953224D01*
X162168000Y-62953224D01*
X162168000Y-63560500D01*
X162357500Y-63750000D01*
X163572000Y-63750000D01*
X163572000Y-62535500D01*
X163580000Y-62535500D01*
X163580000Y-63750000D01*
X164794500Y-63750000D01*
X164984000Y-63560500D01*
X164984000Y-62953224D01*
X164868601Y-62674627D01*
X164655372Y-62461398D01*
X164376775Y-62346000D01*
X163769500Y-62346000D01*
X163580000Y-62535500D01*
X163572000Y-62535500D01*
X163382500Y-62346000D01*
X162775225Y-62346000D01*
X162496628Y-62461398D01*
X162283399Y-62674627D01*
X162168000Y-62953224D01*
X160828000Y-62953224D01*
X160828000Y-59666203D01*
X161446880Y-59923184D01*
X162146053Y-59923794D01*
X162792237Y-59656796D01*
X163287059Y-59162838D01*
X163555184Y-58517120D01*
X163555186Y-58514053D01*
X170200206Y-58514053D01*
X170467204Y-59160237D01*
X170961162Y-59655059D01*
X171606880Y-59923184D01*
X172306053Y-59923794D01*
X172952237Y-59656796D01*
X173447059Y-59162838D01*
X173715184Y-58517120D01*
X173715272Y-58415134D01*
X173747782Y-58415134D01*
X173938897Y-58877669D01*
X174292470Y-59231859D01*
X174754670Y-59423781D01*
X175255134Y-59424218D01*
X175717669Y-59233103D01*
X175776875Y-59174000D01*
X178811438Y-59174000D01*
X178734564Y-59359134D01*
X178734127Y-59859598D01*
X178925242Y-60322133D01*
X179278815Y-60676323D01*
X179741015Y-60868245D01*
X179824672Y-60868318D01*
X181911527Y-62955172D01*
X181911456Y-63036926D01*
X182102571Y-63499461D01*
X182456144Y-63853651D01*
X182918344Y-64045573D01*
X183418808Y-64046010D01*
X183881343Y-63854895D01*
X184235533Y-63501322D01*
X184427455Y-63039122D01*
X184427892Y-62538658D01*
X184236777Y-62076123D01*
X183883204Y-61721933D01*
X183421004Y-61530011D01*
X183337347Y-61529938D01*
X181250492Y-59443082D01*
X181250563Y-59361330D01*
X181173160Y-59174000D01*
X184394712Y-59174000D01*
X184452470Y-59231859D01*
X184914670Y-59423781D01*
X185415134Y-59424218D01*
X185877669Y-59233103D01*
X186231859Y-58879530D01*
X186423781Y-58417330D01*
X186424218Y-57916866D01*
X186233103Y-57454331D01*
X185879530Y-57100141D01*
X185417330Y-56908219D01*
X184916866Y-56907782D01*
X184454331Y-57098897D01*
X184395125Y-57158000D01*
X175777288Y-57158000D01*
X175719530Y-57100141D01*
X175257330Y-56908219D01*
X174756866Y-56907782D01*
X174294331Y-57098897D01*
X173940141Y-57452470D01*
X173748219Y-57914670D01*
X173747782Y-58415134D01*
X173715272Y-58415134D01*
X173715794Y-57817947D01*
X173448796Y-57171763D01*
X172954838Y-56676941D01*
X172309120Y-56408816D01*
X171609947Y-56408206D01*
X170963763Y-56675204D01*
X170468941Y-57169162D01*
X170200816Y-57814880D01*
X170200206Y-58514053D01*
X163555186Y-58514053D01*
X163555794Y-57817947D01*
X163288796Y-57171763D01*
X162794838Y-56676941D01*
X162149120Y-56408816D01*
X161449947Y-56408206D01*
X160828000Y-56665189D01*
X160828000Y-53655869D01*
X165777100Y-53655869D01*
X165777100Y-54751331D01*
X165892803Y-55333010D01*
X166222298Y-55826133D01*
X166715421Y-56155628D01*
X167297100Y-56271331D01*
X167878779Y-56155628D01*
X168371902Y-55826133D01*
X168567100Y-55533999D01*
X168762298Y-55826133D01*
X169255421Y-56155628D01*
X169837100Y-56271331D01*
X170418779Y-56155628D01*
X170911902Y-55826133D01*
X171107100Y-55533999D01*
X171302298Y-55826133D01*
X171795421Y-56155628D01*
X172377100Y-56271331D01*
X172958779Y-56155628D01*
X173451902Y-55826133D01*
X173647100Y-55533999D01*
X173842298Y-55826133D01*
X174335421Y-56155628D01*
X174917100Y-56271331D01*
X175498779Y-56155628D01*
X175991902Y-55826133D01*
X176187100Y-55533999D01*
X176382298Y-55826133D01*
X176875421Y-56155628D01*
X177457100Y-56271331D01*
X178038779Y-56155628D01*
X178531902Y-55826133D01*
X178727100Y-55533999D01*
X178922298Y-55826133D01*
X179415421Y-56155628D01*
X179997100Y-56271331D01*
X180578779Y-56155628D01*
X181071902Y-55826133D01*
X181267100Y-55533999D01*
X181462298Y-55826133D01*
X181955421Y-56155628D01*
X182537100Y-56271331D01*
X183118779Y-56155628D01*
X183611902Y-55826133D01*
X183807100Y-55533999D01*
X184002298Y-55826133D01*
X184495421Y-56155628D01*
X185077100Y-56271331D01*
X185658779Y-56155628D01*
X186151902Y-55826133D01*
X186347100Y-55533999D01*
X186542298Y-55826133D01*
X187035421Y-56155628D01*
X187617100Y-56271331D01*
X188198779Y-56155628D01*
X188691902Y-55826133D01*
X188887100Y-55533999D01*
X189082298Y-55826133D01*
X189575421Y-56155628D01*
X190157100Y-56271331D01*
X190738779Y-56155628D01*
X191231902Y-55826133D01*
X191561397Y-55333010D01*
X191677100Y-54751331D01*
X191677100Y-53655869D01*
X191561397Y-53074190D01*
X191231902Y-52581067D01*
X190738779Y-52251572D01*
X190157100Y-52135869D01*
X189575421Y-52251572D01*
X189082298Y-52581067D01*
X188887100Y-52873201D01*
X188691902Y-52581067D01*
X188198779Y-52251572D01*
X187617100Y-52135869D01*
X187035421Y-52251572D01*
X186542298Y-52581067D01*
X186347100Y-52873201D01*
X186151902Y-52581067D01*
X185658779Y-52251572D01*
X185077100Y-52135869D01*
X184495421Y-52251572D01*
X184002298Y-52581067D01*
X183807100Y-52873201D01*
X183611902Y-52581067D01*
X183118779Y-52251572D01*
X182537100Y-52135869D01*
X181955421Y-52251572D01*
X181462298Y-52581067D01*
X181267100Y-52873201D01*
X181071902Y-52581067D01*
X180578779Y-52251572D01*
X179997100Y-52135869D01*
X179415421Y-52251572D01*
X178922298Y-52581067D01*
X178727100Y-52873201D01*
X178531902Y-52581067D01*
X178038779Y-52251572D01*
X177457100Y-52135869D01*
X176875421Y-52251572D01*
X176382298Y-52581067D01*
X176187100Y-52873201D01*
X175991902Y-52581067D01*
X175498779Y-52251572D01*
X174917100Y-52135869D01*
X174335421Y-52251572D01*
X173842298Y-52581067D01*
X173647100Y-52873201D01*
X173451902Y-52581067D01*
X172958779Y-52251572D01*
X172377100Y-52135869D01*
X171795421Y-52251572D01*
X171302298Y-52581067D01*
X171107100Y-52873201D01*
X170911902Y-52581067D01*
X170418779Y-52251572D01*
X169837100Y-52135869D01*
X169255421Y-52251572D01*
X168762298Y-52581067D01*
X168567100Y-52873201D01*
X168371902Y-52581067D01*
X167878779Y-52251572D01*
X167297100Y-52135869D01*
X166715421Y-52251572D01*
X166222298Y-52581067D01*
X165892803Y-53074190D01*
X165777100Y-53655869D01*
X160828000Y-53655869D01*
X160828000Y-51896684D01*
X164418684Y-48306000D01*
X187952294Y-48306000D01*
X187700514Y-48468015D01*
G36*
X178570000Y-70363528D02*
X178570000Y-70612000D01*
X178646729Y-70997745D01*
X178865236Y-71324764D01*
X179192255Y-71543271D01*
X179578000Y-71620000D01*
X179899332Y-71620000D01*
X179783216Y-71793779D01*
X179664620Y-72390000D01*
X179783216Y-72986221D01*
X180120948Y-73491672D01*
X180372868Y-73660000D01*
X180120948Y-73828328D01*
X179802151Y-74305441D01*
X179783941Y-74256502D01*
X179725758Y-74169425D01*
X179445939Y-74131718D01*
X178567657Y-75010000D01*
X179445939Y-75888282D01*
X179725758Y-75850575D01*
X179837211Y-75607031D01*
X180120948Y-76031672D01*
X180391603Y-76212518D01*
X180155499Y-76371156D01*
X179819065Y-76877475D01*
X179721812Y-77222325D01*
X179891506Y-77466000D01*
X181606000Y-77466000D01*
X181606000Y-77446000D01*
X181614000Y-77446000D01*
X181614000Y-77466000D01*
X183328494Y-77466000D01*
X183498188Y-77222325D01*
X183400935Y-76877475D01*
X183064501Y-76371156D01*
X182828397Y-76212518D01*
X183099052Y-76031672D01*
X183436784Y-75526221D01*
X183555380Y-74930000D01*
X183436784Y-74333779D01*
X183099052Y-73828328D01*
X182847132Y-73660000D01*
X183099052Y-73491672D01*
X183436784Y-72986221D01*
X183555380Y-72390000D01*
X183436784Y-71793779D01*
X183320668Y-71620000D01*
X185384472Y-71620000D01*
X186867234Y-73102761D01*
X186867236Y-73102764D01*
X187194255Y-73321271D01*
X187580000Y-73398001D01*
X187580005Y-73398000D01*
X187678358Y-73398000D01*
X187740948Y-73491672D01*
X187992868Y-73660000D01*
X187740948Y-73828328D01*
X187403216Y-74333779D01*
X187284620Y-74930000D01*
X187403216Y-75526221D01*
X187740948Y-76031672D01*
X187992868Y-76200000D01*
X187740948Y-76368328D01*
X187403216Y-76873779D01*
X187284620Y-77470000D01*
X187403216Y-78066221D01*
X187740948Y-78571672D01*
X187992868Y-78740000D01*
X187740948Y-78908328D01*
X187403216Y-79413779D01*
X187284620Y-80010000D01*
X187392433Y-80552010D01*
X185227538Y-80552010D01*
X183972764Y-79297236D01*
X183645745Y-79078729D01*
X183260000Y-79001999D01*
X183259995Y-79002000D01*
X183161642Y-79002000D01*
X183099052Y-78908328D01*
X182828397Y-78727482D01*
X183064501Y-78568844D01*
X183400935Y-78062525D01*
X183498188Y-77717675D01*
X183328494Y-77474000D01*
X181614000Y-77474000D01*
X181614000Y-77494000D01*
X181606000Y-77494000D01*
X181606000Y-77474000D01*
X179891506Y-77474000D01*
X179721812Y-77717675D01*
X179819065Y-78062525D01*
X180155499Y-78568844D01*
X180391603Y-78727482D01*
X180120948Y-78908328D01*
X180058358Y-79002000D01*
X179882381Y-79002000D01*
X179765985Y-78821114D01*
X179512682Y-78648040D01*
X179212000Y-78587150D01*
X177912000Y-78587150D01*
X177631102Y-78640005D01*
X177373114Y-78806015D01*
X177200040Y-79059318D01*
X177139150Y-79360000D01*
X177139150Y-80660000D01*
X177192005Y-80940898D01*
X177358015Y-81198886D01*
X177611318Y-81371960D01*
X177912000Y-81432850D01*
X178411622Y-81432850D01*
X178048472Y-81796000D01*
X177704005Y-81796000D01*
X177704000Y-81795999D01*
X177318255Y-81872729D01*
X176991236Y-82091236D01*
X176991234Y-82091239D01*
X174639672Y-84442800D01*
X174498000Y-84414620D01*
X173901779Y-84533216D01*
X173396328Y-84870948D01*
X173228000Y-85122868D01*
X173059672Y-84870948D01*
X172554221Y-84533216D01*
X171958000Y-84414620D01*
X171361779Y-84533216D01*
X170856328Y-84870948D01*
X170688000Y-85122868D01*
X170519672Y-84870948D01*
X170014221Y-84533216D01*
X169418000Y-84414620D01*
X168821779Y-84533216D01*
X168316328Y-84870948D01*
X168148000Y-85122868D01*
X167979672Y-84870948D01*
X167474221Y-84533216D01*
X166878000Y-84414620D01*
X166804235Y-84429293D01*
X170130761Y-81102766D01*
X170130764Y-81102764D01*
X170349271Y-80775745D01*
X170372294Y-80660000D01*
X170426001Y-80390000D01*
X170426000Y-80389995D01*
X170426000Y-80291642D01*
X170519672Y-80229052D01*
X170688000Y-79977132D01*
X170856328Y-80229052D01*
X171361779Y-80566784D01*
X171958000Y-80685380D01*
X172554221Y-80566784D01*
X173059672Y-80229052D01*
X173228000Y-79977132D01*
X173396328Y-80229052D01*
X173901779Y-80566784D01*
X174498000Y-80685380D01*
X175094221Y-80566784D01*
X175599672Y-80229052D01*
X175937404Y-79723601D01*
X176056000Y-79127380D01*
X176056000Y-78352620D01*
X175937404Y-77756399D01*
X175599672Y-77250948D01*
X175094221Y-76913216D01*
X174498000Y-76794620D01*
X173901779Y-76913216D01*
X173396328Y-77250948D01*
X173228000Y-77502868D01*
X173059672Y-77250948D01*
X172554221Y-76913216D01*
X171958000Y-76794620D01*
X171361779Y-76913216D01*
X170856328Y-77250948D01*
X170688000Y-77502868D01*
X170519672Y-77250948D01*
X170426000Y-77188358D01*
X170426000Y-76675235D01*
X170610948Y-76490609D01*
X170825755Y-75973297D01*
X170825824Y-75893939D01*
X177683718Y-75893939D01*
X177721425Y-76173758D01*
X178230761Y-76406846D01*
X178790525Y-76427277D01*
X179315498Y-76231941D01*
X179402575Y-76173758D01*
X179440282Y-75893939D01*
X178562000Y-75015657D01*
X177683718Y-75893939D01*
X170825824Y-75893939D01*
X170826244Y-75413160D01*
X170754087Y-75238525D01*
X177144723Y-75238525D01*
X177340059Y-75763498D01*
X177398242Y-75850575D01*
X177678061Y-75888282D01*
X178556343Y-75010000D01*
X177678061Y-74131718D01*
X177398242Y-74169425D01*
X177165154Y-74678761D01*
X177144723Y-75238525D01*
X170754087Y-75238525D01*
X170612340Y-74895474D01*
X170216609Y-74499052D01*
X169699297Y-74284245D01*
X169139160Y-74283756D01*
X168621474Y-74497660D01*
X168394000Y-74724737D01*
X168394000Y-74126061D01*
X177683718Y-74126061D01*
X178562000Y-75004343D01*
X179440282Y-74126061D01*
X179402575Y-73846242D01*
X178893239Y-73613154D01*
X178333475Y-73592723D01*
X177808502Y-73788059D01*
X177721425Y-73846242D01*
X177683718Y-74126061D01*
X168394000Y-74126061D01*
X168394000Y-71655642D01*
X168487672Y-71593052D01*
X168656000Y-71341132D01*
X168824328Y-71593052D01*
X169329779Y-71930784D01*
X169926000Y-72049380D01*
X170522221Y-71930784D01*
X171027672Y-71593052D01*
X171196000Y-71341132D01*
X171364328Y-71593052D01*
X171869779Y-71930784D01*
X172466000Y-72049380D01*
X173062221Y-71930784D01*
X173567672Y-71593052D01*
X173736000Y-71341132D01*
X173904328Y-71593052D01*
X174409779Y-71930784D01*
X175006000Y-72049380D01*
X175602221Y-71930784D01*
X176107672Y-71593052D01*
X176445404Y-71087601D01*
X176564000Y-70491380D01*
X176564000Y-69716620D01*
X176445404Y-69120399D01*
X176107672Y-68614948D01*
X175602221Y-68277216D01*
X175006000Y-68158620D01*
X174409779Y-68277216D01*
X173904328Y-68614948D01*
X173736000Y-68866868D01*
X173567672Y-68614948D01*
X173062221Y-68277216D01*
X172466000Y-68158620D01*
X171869779Y-68277216D01*
X171364328Y-68614948D01*
X171196000Y-68866868D01*
X171027672Y-68614948D01*
X170522221Y-68277216D01*
X169926000Y-68158620D01*
X169329779Y-68277216D01*
X168824328Y-68614948D01*
X168656000Y-68866868D01*
X168487672Y-68614948D01*
X168394000Y-68552358D01*
X168394000Y-68331528D01*
X172324328Y-64401200D01*
X172466000Y-64429380D01*
X172607672Y-64401200D01*
X178570000Y-70363528D01*
X178570000Y-70363528D01*
G37*
X178570000Y-70363528D02*
X178570000Y-70612000D01*
X178646729Y-70997745D01*
X178865236Y-71324764D01*
X179192255Y-71543271D01*
X179578000Y-71620000D01*
X179899332Y-71620000D01*
X179783216Y-71793779D01*
X179664620Y-72390000D01*
X179783216Y-72986221D01*
X180120948Y-73491672D01*
X180372868Y-73660000D01*
X180120948Y-73828328D01*
X179802151Y-74305441D01*
X179783941Y-74256502D01*
X179725758Y-74169425D01*
X179445939Y-74131718D01*
X178567657Y-75010000D01*
X179445939Y-75888282D01*
X179725758Y-75850575D01*
X179837211Y-75607031D01*
X180120948Y-76031672D01*
X180391603Y-76212518D01*
X180155499Y-76371156D01*
X179819065Y-76877475D01*
X179721812Y-77222325D01*
X179891506Y-77466000D01*
X181606000Y-77466000D01*
X181606000Y-77446000D01*
X181614000Y-77446000D01*
X181614000Y-77466000D01*
X183328494Y-77466000D01*
X183498188Y-77222325D01*
X183400935Y-76877475D01*
X183064501Y-76371156D01*
X182828397Y-76212518D01*
X183099052Y-76031672D01*
X183436784Y-75526221D01*
X183555380Y-74930000D01*
X183436784Y-74333779D01*
X183099052Y-73828328D01*
X182847132Y-73660000D01*
X183099052Y-73491672D01*
X183436784Y-72986221D01*
X183555380Y-72390000D01*
X183436784Y-71793779D01*
X183320668Y-71620000D01*
X185384472Y-71620000D01*
X186867234Y-73102761D01*
X186867236Y-73102764D01*
X187194255Y-73321271D01*
X187580000Y-73398001D01*
X187580005Y-73398000D01*
X187678358Y-73398000D01*
X187740948Y-73491672D01*
X187992868Y-73660000D01*
X187740948Y-73828328D01*
X187403216Y-74333779D01*
X187284620Y-74930000D01*
X187403216Y-75526221D01*
X187740948Y-76031672D01*
X187992868Y-76200000D01*
X187740948Y-76368328D01*
X187403216Y-76873779D01*
X187284620Y-77470000D01*
X187403216Y-78066221D01*
X187740948Y-78571672D01*
X187992868Y-78740000D01*
X187740948Y-78908328D01*
X187403216Y-79413779D01*
X187284620Y-80010000D01*
X187392433Y-80552010D01*
X185227538Y-80552010D01*
X183972764Y-79297236D01*
X183645745Y-79078729D01*
X183260000Y-79001999D01*
X183259995Y-79002000D01*
X183161642Y-79002000D01*
X183099052Y-78908328D01*
X182828397Y-78727482D01*
X183064501Y-78568844D01*
X183400935Y-78062525D01*
X183498188Y-77717675D01*
X183328494Y-77474000D01*
X181614000Y-77474000D01*
X181614000Y-77494000D01*
X181606000Y-77494000D01*
X181606000Y-77474000D01*
X179891506Y-77474000D01*
X179721812Y-77717675D01*
X179819065Y-78062525D01*
X180155499Y-78568844D01*
X180391603Y-78727482D01*
X180120948Y-78908328D01*
X180058358Y-79002000D01*
X179882381Y-79002000D01*
X179765985Y-78821114D01*
X179512682Y-78648040D01*
X179212000Y-78587150D01*
X177912000Y-78587150D01*
X177631102Y-78640005D01*
X177373114Y-78806015D01*
X177200040Y-79059318D01*
X177139150Y-79360000D01*
X177139150Y-80660000D01*
X177192005Y-80940898D01*
X177358015Y-81198886D01*
X177611318Y-81371960D01*
X177912000Y-81432850D01*
X178411622Y-81432850D01*
X178048472Y-81796000D01*
X177704005Y-81796000D01*
X177704000Y-81795999D01*
X177318255Y-81872729D01*
X176991236Y-82091236D01*
X176991234Y-82091239D01*
X174639672Y-84442800D01*
X174498000Y-84414620D01*
X173901779Y-84533216D01*
X173396328Y-84870948D01*
X173228000Y-85122868D01*
X173059672Y-84870948D01*
X172554221Y-84533216D01*
X171958000Y-84414620D01*
X171361779Y-84533216D01*
X170856328Y-84870948D01*
X170688000Y-85122868D01*
X170519672Y-84870948D01*
X170014221Y-84533216D01*
X169418000Y-84414620D01*
X168821779Y-84533216D01*
X168316328Y-84870948D01*
X168148000Y-85122868D01*
X167979672Y-84870948D01*
X167474221Y-84533216D01*
X166878000Y-84414620D01*
X166804235Y-84429293D01*
X170130761Y-81102766D01*
X170130764Y-81102764D01*
X170349271Y-80775745D01*
X170372294Y-80660000D01*
X170426001Y-80390000D01*
X170426000Y-80389995D01*
X170426000Y-80291642D01*
X170519672Y-80229052D01*
X170688000Y-79977132D01*
X170856328Y-80229052D01*
X171361779Y-80566784D01*
X171958000Y-80685380D01*
X172554221Y-80566784D01*
X173059672Y-80229052D01*
X173228000Y-79977132D01*
X173396328Y-80229052D01*
X173901779Y-80566784D01*
X174498000Y-80685380D01*
X175094221Y-80566784D01*
X175599672Y-80229052D01*
X175937404Y-79723601D01*
X176056000Y-79127380D01*
X176056000Y-78352620D01*
X175937404Y-77756399D01*
X175599672Y-77250948D01*
X175094221Y-76913216D01*
X174498000Y-76794620D01*
X173901779Y-76913216D01*
X173396328Y-77250948D01*
X173228000Y-77502868D01*
X173059672Y-77250948D01*
X172554221Y-76913216D01*
X171958000Y-76794620D01*
X171361779Y-76913216D01*
X170856328Y-77250948D01*
X170688000Y-77502868D01*
X170519672Y-77250948D01*
X170426000Y-77188358D01*
X170426000Y-76675235D01*
X170610948Y-76490609D01*
X170825755Y-75973297D01*
X170825824Y-75893939D01*
X177683718Y-75893939D01*
X177721425Y-76173758D01*
X178230761Y-76406846D01*
X178790525Y-76427277D01*
X179315498Y-76231941D01*
X179402575Y-76173758D01*
X179440282Y-75893939D01*
X178562000Y-75015657D01*
X177683718Y-75893939D01*
X170825824Y-75893939D01*
X170826244Y-75413160D01*
X170754087Y-75238525D01*
X177144723Y-75238525D01*
X177340059Y-75763498D01*
X177398242Y-75850575D01*
X177678061Y-75888282D01*
X178556343Y-75010000D01*
X177678061Y-74131718D01*
X177398242Y-74169425D01*
X177165154Y-74678761D01*
X177144723Y-75238525D01*
X170754087Y-75238525D01*
X170612340Y-74895474D01*
X170216609Y-74499052D01*
X169699297Y-74284245D01*
X169139160Y-74283756D01*
X168621474Y-74497660D01*
X168394000Y-74724737D01*
X168394000Y-74126061D01*
X177683718Y-74126061D01*
X178562000Y-75004343D01*
X179440282Y-74126061D01*
X179402575Y-73846242D01*
X178893239Y-73613154D01*
X178333475Y-73592723D01*
X177808502Y-73788059D01*
X177721425Y-73846242D01*
X177683718Y-74126061D01*
X168394000Y-74126061D01*
X168394000Y-71655642D01*
X168487672Y-71593052D01*
X168656000Y-71341132D01*
X168824328Y-71593052D01*
X169329779Y-71930784D01*
X169926000Y-72049380D01*
X170522221Y-71930784D01*
X171027672Y-71593052D01*
X171196000Y-71341132D01*
X171364328Y-71593052D01*
X171869779Y-71930784D01*
X172466000Y-72049380D01*
X173062221Y-71930784D01*
X173567672Y-71593052D01*
X173736000Y-71341132D01*
X173904328Y-71593052D01*
X174409779Y-71930784D01*
X175006000Y-72049380D01*
X175602221Y-71930784D01*
X176107672Y-71593052D01*
X176445404Y-71087601D01*
X176564000Y-70491380D01*
X176564000Y-69716620D01*
X176445404Y-69120399D01*
X176107672Y-68614948D01*
X175602221Y-68277216D01*
X175006000Y-68158620D01*
X174409779Y-68277216D01*
X173904328Y-68614948D01*
X173736000Y-68866868D01*
X173567672Y-68614948D01*
X173062221Y-68277216D01*
X172466000Y-68158620D01*
X171869779Y-68277216D01*
X171364328Y-68614948D01*
X171196000Y-68866868D01*
X171027672Y-68614948D01*
X170522221Y-68277216D01*
X169926000Y-68158620D01*
X169329779Y-68277216D01*
X168824328Y-68614948D01*
X168656000Y-68866868D01*
X168487672Y-68614948D01*
X168394000Y-68552358D01*
X168394000Y-68331528D01*
X172324328Y-64401200D01*
X172466000Y-64429380D01*
X172607672Y-64401200D01*
X178570000Y-70363528D01*
G36*
X197780328Y-67783052D02*
X198214962Y-68073465D01*
X194015626Y-72272801D01*
X193797119Y-72599820D01*
X193720389Y-72985565D01*
X193720390Y-72985570D01*
X193720390Y-76636128D01*
X191011104Y-79345414D01*
X190719052Y-78908328D01*
X190467132Y-78740000D01*
X190719052Y-78571672D01*
X191056784Y-78066221D01*
X191175380Y-77470000D01*
X191056784Y-76873779D01*
X190719052Y-76368328D01*
X190467132Y-76200000D01*
X190719052Y-76031672D01*
X191056784Y-75526221D01*
X191175380Y-74930000D01*
X191056784Y-74333779D01*
X190719052Y-73828328D01*
X190467132Y-73660000D01*
X190719052Y-73491672D01*
X191056784Y-72986221D01*
X191175380Y-72390000D01*
X191140486Y-72214577D01*
X191239399Y-72453373D01*
X191452628Y-72666602D01*
X191731225Y-72782000D01*
X192338500Y-72782000D01*
X192528000Y-72592500D01*
X192528000Y-71378000D01*
X192536000Y-71378000D01*
X192536000Y-72592500D01*
X192725500Y-72782000D01*
X193332775Y-72782000D01*
X193611372Y-72666602D01*
X193824601Y-72453373D01*
X193940000Y-72174776D01*
X193940000Y-71567500D01*
X193750500Y-71378000D01*
X192536000Y-71378000D01*
X192528000Y-71378000D01*
X191313500Y-71378000D01*
X191124000Y-71567500D01*
X191124000Y-72131696D01*
X191056784Y-71793779D01*
X190719052Y-71288328D01*
X190562083Y-71183445D01*
X191124000Y-70621527D01*
X191124000Y-71180500D01*
X191313500Y-71370000D01*
X192528000Y-71370000D01*
X192528000Y-70155500D01*
X192536000Y-70155500D01*
X192536000Y-71370000D01*
X193750500Y-71370000D01*
X193940000Y-71180500D01*
X193940000Y-70573224D01*
X193824601Y-70294627D01*
X193611372Y-70081398D01*
X193332775Y-69966000D01*
X192725500Y-69966000D01*
X192536000Y-70155500D01*
X192528000Y-70155500D01*
X192338500Y-69966000D01*
X191779527Y-69966000D01*
X191903527Y-69842000D01*
X195833995Y-69842000D01*
X195834000Y-69842001D01*
X196219745Y-69765271D01*
X196546764Y-69546764D01*
X197054761Y-69038766D01*
X197054764Y-69038764D01*
X197273271Y-68711745D01*
X197350000Y-68326000D01*
X197350000Y-67845642D01*
X197443672Y-67783052D01*
X197612000Y-67531132D01*
X197780328Y-67783052D01*
X197780328Y-67783052D01*
G37*
X197780328Y-67783052D02*
X198214962Y-68073465D01*
X194015626Y-72272801D01*
X193797119Y-72599820D01*
X193720389Y-72985565D01*
X193720390Y-72985570D01*
X193720390Y-76636128D01*
X191011104Y-79345414D01*
X190719052Y-78908328D01*
X190467132Y-78740000D01*
X190719052Y-78571672D01*
X191056784Y-78066221D01*
X191175380Y-77470000D01*
X191056784Y-76873779D01*
X190719052Y-76368328D01*
X190467132Y-76200000D01*
X190719052Y-76031672D01*
X191056784Y-75526221D01*
X191175380Y-74930000D01*
X191056784Y-74333779D01*
X190719052Y-73828328D01*
X190467132Y-73660000D01*
X190719052Y-73491672D01*
X191056784Y-72986221D01*
X191175380Y-72390000D01*
X191140486Y-72214577D01*
X191239399Y-72453373D01*
X191452628Y-72666602D01*
X191731225Y-72782000D01*
X192338500Y-72782000D01*
X192528000Y-72592500D01*
X192528000Y-71378000D01*
X192536000Y-71378000D01*
X192536000Y-72592500D01*
X192725500Y-72782000D01*
X193332775Y-72782000D01*
X193611372Y-72666602D01*
X193824601Y-72453373D01*
X193940000Y-72174776D01*
X193940000Y-71567500D01*
X193750500Y-71378000D01*
X192536000Y-71378000D01*
X192528000Y-71378000D01*
X191313500Y-71378000D01*
X191124000Y-71567500D01*
X191124000Y-72131696D01*
X191056784Y-71793779D01*
X190719052Y-71288328D01*
X190562083Y-71183445D01*
X191124000Y-70621527D01*
X191124000Y-71180500D01*
X191313500Y-71370000D01*
X192528000Y-71370000D01*
X192528000Y-70155500D01*
X192536000Y-70155500D01*
X192536000Y-71370000D01*
X193750500Y-71370000D01*
X193940000Y-71180500D01*
X193940000Y-70573224D01*
X193824601Y-70294627D01*
X193611372Y-70081398D01*
X193332775Y-69966000D01*
X192725500Y-69966000D01*
X192536000Y-70155500D01*
X192528000Y-70155500D01*
X192338500Y-69966000D01*
X191779527Y-69966000D01*
X191903527Y-69842000D01*
X195833995Y-69842000D01*
X195834000Y-69842001D01*
X196219745Y-69765271D01*
X196546764Y-69546764D01*
X197054761Y-69038766D01*
X197054764Y-69038764D01*
X197273271Y-68711745D01*
X197350000Y-68326000D01*
X197350000Y-67845642D01*
X197443672Y-67783052D01*
X197612000Y-67531132D01*
X197780328Y-67783052D01*
M02*
