%FSLAX45Y45*%
G04 Gerber Fmt 4.5, Leading zero omitted, Abs format (unit mm)*
G04 Created by KiCad (PCBNEW 4.0.2+dfsg1-stable) date dim. 24 juil. 2016 18:32:00 CEST*
%MOMM*%
G01*
G04 APERTURE LIST*
%ADD10C,0.127000*%
%ADD11C,0.100000*%
%ADD12C,0.200000*%
%ADD13C,0.300000*%
G04 APERTURE END LIST*
D10*
D11*
X16002000Y-10490200D02*
X16002000Y-5156200D01*
X16256000Y-10744200D02*
X16002000Y-10490200D01*
X18542000Y-10744200D02*
X16256000Y-10744200D01*
X18796000Y-10744200D02*
X18542000Y-10744200D01*
X24892000Y-10744200D02*
X18796000Y-10744200D01*
X25146000Y-10490200D02*
X24892000Y-10744200D01*
X25146000Y-5003800D02*
X25146000Y-10490200D01*
X24892000Y-4749800D02*
X25146000Y-5003800D01*
X16408400Y-4749800D02*
X24892000Y-4749800D01*
X16002000Y-5156200D02*
X16408400Y-4749800D01*
D12*
X17969235Y-5931046D02*
X18029235Y-5991046D01*
X18029235Y-5931046D02*
X17969235Y-5991046D01*
X18286967Y-6248779D02*
X18346967Y-6308779D01*
X18346967Y-6248779D02*
X18286967Y-6308779D01*
X20010600Y-7031200D02*
X20070600Y-7091200D01*
X20070600Y-7031200D02*
X20010600Y-7091200D01*
X21255200Y-7513800D02*
X21315200Y-7573800D01*
X21315200Y-7513800D02*
X21255200Y-7573800D01*
X21255200Y-8225000D02*
X21315200Y-8285000D01*
X21315200Y-8225000D02*
X21255200Y-8285000D01*
X21483800Y-8885400D02*
X21543800Y-8945400D01*
X21543800Y-8885400D02*
X21483800Y-8945400D01*
X22285826Y-8072600D02*
X22345826Y-8132600D01*
X22345826Y-8072600D02*
X22285826Y-8132600D01*
X16219800Y-9296400D02*
G75*
G03X16219800Y-9296400I-40000J0D01*
G01*
X16397600Y-6375400D02*
G75*
G03X16397600Y-6375400I-40000J0D01*
G01*
X16397600Y-6875400D02*
G75*
G03X16397600Y-6875400I-40000J0D01*
G01*
X16481800Y-7569200D02*
G75*
G03X16481800Y-7569200I-40000J0D01*
G01*
X16719800Y-9296400D02*
G75*
G03X16719800Y-9296400I-40000J0D01*
G01*
X16727800Y-7874000D02*
G75*
G03X16727800Y-7874000I-40000J0D01*
G01*
X16727800Y-8636000D02*
G75*
G03X16727800Y-8636000I-40000J0D01*
G01*
X16778600Y-6248400D02*
G75*
G03X16778600Y-6248400I-40000J0D01*
G01*
X16778600Y-7010400D02*
G75*
G03X16778600Y-7010400I-40000J0D01*
G01*
X16981800Y-7569200D02*
G75*
G03X16981800Y-7569200I-40000J0D01*
G01*
X16981800Y-7874000D02*
G75*
G03X16981800Y-7874000I-40000J0D01*
G01*
X16981800Y-8636000D02*
G75*
G03X16981800Y-8636000I-40000J0D01*
G01*
X17032600Y-6248400D02*
G75*
G03X17032600Y-6248400I-40000J0D01*
G01*
X17032600Y-7010400D02*
G75*
G03X17032600Y-7010400I-40000J0D01*
G01*
X17235800Y-7874000D02*
G75*
G03X17235800Y-7874000I-40000J0D01*
G01*
X17235800Y-8636000D02*
G75*
G03X17235800Y-8636000I-40000J0D01*
G01*
X17286600Y-6248400D02*
G75*
G03X17286600Y-6248400I-40000J0D01*
G01*
X17286600Y-7010400D02*
G75*
G03X17286600Y-7010400I-40000J0D01*
G01*
X17489800Y-7874000D02*
G75*
G03X17489800Y-7874000I-40000J0D01*
G01*
X17489800Y-8636000D02*
G75*
G03X17489800Y-8636000I-40000J0D01*
G01*
X17489800Y-8940800D02*
G75*
G03X17489800Y-8940800I-40000J0D01*
G01*
X17489800Y-9194800D02*
G75*
G03X17489800Y-9194800I-40000J0D01*
G01*
X17540600Y-5816600D02*
G75*
G03X17540600Y-5816600I-40000J0D01*
G01*
X17540600Y-6248400D02*
G75*
G03X17540600Y-6248400I-40000J0D01*
G01*
X17540600Y-7010400D02*
G75*
G03X17540600Y-7010400I-40000J0D01*
G01*
X17896200Y-7501000D02*
G75*
G03X17896200Y-7501000I-40000J0D01*
G01*
X17896200Y-8001000D02*
G75*
G03X17896200Y-8001000I-40000J0D01*
G01*
X17989800Y-8940800D02*
G75*
G03X17989800Y-8940800I-40000J0D01*
G01*
X17989800Y-9194800D02*
G75*
G03X17989800Y-9194800I-40000J0D01*
G01*
X18201000Y-7239000D02*
G75*
G03X18201000Y-7239000I-40000J0D01*
G01*
X18201000Y-7493000D02*
G75*
G03X18201000Y-7493000I-40000J0D01*
G01*
X18201000Y-7747000D02*
G75*
G03X18201000Y-7747000I-40000J0D01*
G01*
X18201000Y-8001000D02*
G75*
G03X18201000Y-8001000I-40000J0D01*
G01*
X18404200Y-8940800D02*
G75*
G03X18404200Y-8940800I-40000J0D01*
G01*
X18463000Y-6858000D02*
G75*
G03X18463000Y-6858000I-40000J0D01*
G01*
X18556600Y-5816600D02*
G75*
G03X18556600Y-5816600I-40000J0D01*
G01*
X18963000Y-6858000D02*
G75*
G03X18963000Y-6858000I-40000J0D01*
G01*
X18963000Y-7239000D02*
G75*
G03X18963000Y-7239000I-40000J0D01*
G01*
X18963000Y-7493000D02*
G75*
G03X18963000Y-7493000I-40000J0D01*
G01*
X18963000Y-7747000D02*
G75*
G03X18963000Y-7747000I-40000J0D01*
G01*
X18963000Y-8001000D02*
G75*
G03X18963000Y-8001000I-40000J0D01*
G01*
X19140800Y-8940800D02*
G75*
G03X19140800Y-8940800I-40000J0D01*
G01*
X19293200Y-6637400D02*
G75*
G03X19293200Y-6637400I-40000J0D01*
G01*
X19293200Y-7137400D02*
G75*
G03X19293200Y-7137400I-40000J0D01*
G01*
X19674200Y-6629400D02*
G75*
G03X19674200Y-6629400I-40000J0D01*
G01*
X19674200Y-7391400D02*
G75*
G03X19674200Y-7391400I-40000J0D01*
G01*
X19928200Y-6629400D02*
G75*
G03X19928200Y-6629400I-40000J0D01*
G01*
X19928200Y-7391400D02*
G75*
G03X19928200Y-7391400I-40000J0D01*
G01*
X20182200Y-6629400D02*
G75*
G03X20182200Y-6629400I-40000J0D01*
G01*
X20182200Y-7391400D02*
G75*
G03X20182200Y-7391400I-40000J0D01*
G01*
X20436200Y-6629400D02*
G75*
G03X20436200Y-6629400I-40000J0D01*
G01*
X20436200Y-7391400D02*
G75*
G03X20436200Y-7391400I-40000J0D01*
G01*
X20436200Y-8407400D02*
G75*
G03X20436200Y-8407400I-40000J0D01*
G01*
X20918800Y-5922200D02*
G75*
G03X20918800Y-5922200I-40000J0D01*
G01*
X20918800Y-6172200D02*
G75*
G03X20918800Y-6172200I-40000J0D01*
G01*
X21714200Y-10033000D02*
G75*
G03X21714200Y-10033000I-40000J0D01*
G01*
X21960200Y-5134800D02*
G75*
G03X21960200Y-5134800I-40000J0D01*
G01*
X21960200Y-5384800D02*
G75*
G03X21960200Y-5384800I-40000J0D01*
G01*
X22214200Y-10033000D02*
G75*
G03X22214200Y-10033000I-40000J0D01*
G01*
X23012400Y-6202000D02*
X23012400Y-6292000D01*
X22967400Y-6247000D02*
X23057400Y-6247000D01*
X23012400Y-7702000D02*
X23012400Y-7792000D01*
X22967400Y-7747000D02*
X23057400Y-7747000D01*
X24765000Y-5085800D02*
X24765000Y-5175800D01*
X24720000Y-5130800D02*
X24810000Y-5130800D01*
X24765000Y-6585800D02*
X24765000Y-6675800D01*
X24720000Y-6630800D02*
X24810000Y-6630800D01*
X17585466Y-10335716D02*
X17585466Y-10265004D01*
X17514754Y-10265004D01*
X17514754Y-10335716D01*
X17585466Y-10335716D01*
X16179800Y-5866638D02*
X16229838Y-5816600D01*
X16179800Y-5766562D01*
X16129762Y-5816600D01*
X16179800Y-5866638D01*
X16179800Y-9016238D02*
X16229838Y-8966200D01*
X16179800Y-8916162D01*
X16129762Y-8966200D01*
X16179800Y-9016238D01*
X17195800Y-5866638D02*
X17245838Y-5816600D01*
X17195800Y-5766562D01*
X17145762Y-5816600D01*
X17195800Y-5866638D01*
X17195800Y-9016238D02*
X17245838Y-8966200D01*
X17195800Y-8916162D01*
X17145762Y-8966200D01*
X17195800Y-9016238D01*
X18542000Y-8482838D02*
X18592038Y-8432800D01*
X18542000Y-8382762D01*
X18491962Y-8432800D01*
X18542000Y-8482838D01*
X18872200Y-9524238D02*
X18922238Y-9474200D01*
X18872200Y-9424162D01*
X18822162Y-9474200D01*
X18872200Y-9524238D01*
X18872200Y-9854438D02*
X18922238Y-9804400D01*
X18872200Y-9754362D01*
X18822162Y-9804400D01*
X18872200Y-9854438D01*
X19558000Y-8482838D02*
X19608038Y-8432800D01*
X19558000Y-8382762D01*
X19507962Y-8432800D01*
X19558000Y-8482838D01*
X19583400Y-8152638D02*
X19633438Y-8102600D01*
X19583400Y-8052562D01*
X19533362Y-8102600D01*
X19583400Y-8152638D01*
X19837400Y-8482838D02*
X19887438Y-8432800D01*
X19837400Y-8382762D01*
X19787362Y-8432800D01*
X19837400Y-8482838D01*
X19888200Y-9524238D02*
X19938238Y-9474200D01*
X19888200Y-9424162D01*
X19838162Y-9474200D01*
X19888200Y-9524238D01*
X19888200Y-9854438D02*
X19938238Y-9804400D01*
X19888200Y-9754362D01*
X19838162Y-9804400D01*
X19888200Y-9854438D01*
X20167600Y-9524238D02*
X20217638Y-9474200D01*
X20167600Y-9424162D01*
X20117562Y-9474200D01*
X20167600Y-9524238D01*
X20167600Y-9854438D02*
X20217638Y-9804400D01*
X20167600Y-9754362D01*
X20117562Y-9804400D01*
X20167600Y-9854438D01*
X20599400Y-8152638D02*
X20649438Y-8102600D01*
X20599400Y-8052562D01*
X20549362Y-8102600D01*
X20599400Y-8152638D01*
X20853400Y-8482838D02*
X20903438Y-8432800D01*
X20853400Y-8382762D01*
X20803362Y-8432800D01*
X20853400Y-8482838D01*
X20904200Y-7162038D02*
X20954238Y-7112000D01*
X20904200Y-7061962D01*
X20854162Y-7112000D01*
X20904200Y-7162038D01*
X20904200Y-8178038D02*
X20954238Y-8128000D01*
X20904200Y-8077962D01*
X20854162Y-8128000D01*
X20904200Y-8178038D01*
X21183600Y-9524238D02*
X21233638Y-9474200D01*
X21183600Y-9424162D01*
X21133562Y-9474200D01*
X21183600Y-9524238D01*
X21183600Y-9854438D02*
X21233638Y-9804400D01*
X21183600Y-9754362D01*
X21133562Y-9804400D01*
X21183600Y-9854438D01*
X21513800Y-6273038D02*
X21563838Y-6223000D01*
X21513800Y-6172962D01*
X21463762Y-6223000D01*
X21513800Y-6273038D01*
X21691600Y-5942838D02*
X21741638Y-5892800D01*
X21691600Y-5842762D01*
X21641562Y-5892800D01*
X21691600Y-5942838D01*
X21767800Y-6628638D02*
X21817838Y-6578600D01*
X21767800Y-6528562D01*
X21717762Y-6578600D01*
X21767800Y-6628638D01*
X22021800Y-6628638D02*
X22071838Y-6578600D01*
X22021800Y-6528562D01*
X21971762Y-6578600D01*
X22021800Y-6628638D01*
X22275800Y-6628638D02*
X22325838Y-6578600D01*
X22275800Y-6528562D01*
X22225762Y-6578600D01*
X22275800Y-6628638D01*
X22529800Y-6273038D02*
X22579838Y-6223000D01*
X22529800Y-6172962D01*
X22479762Y-6223000D01*
X22529800Y-6273038D01*
X22580600Y-5053838D02*
X22630638Y-5003800D01*
X22580600Y-4953762D01*
X22530562Y-5003800D01*
X22580600Y-5053838D01*
X22580600Y-5561838D02*
X22630638Y-5511800D01*
X22580600Y-5461762D01*
X22530562Y-5511800D01*
X22580600Y-5561838D01*
X22656800Y-9244838D02*
X22706838Y-9194800D01*
X22656800Y-9144762D01*
X22606762Y-9194800D01*
X22656800Y-9244838D01*
X22656800Y-9752838D02*
X22706838Y-9702800D01*
X22656800Y-9652762D01*
X22606762Y-9702800D01*
X22656800Y-9752838D01*
X22707600Y-5942838D02*
X22757638Y-5892800D01*
X22707600Y-5842762D01*
X22657562Y-5892800D01*
X22707600Y-5942838D01*
X22936200Y-8940038D02*
X22986238Y-8890000D01*
X22936200Y-8839962D01*
X22886162Y-8890000D01*
X22936200Y-8940038D01*
X23088600Y-5053838D02*
X23138638Y-5003800D01*
X23088600Y-4953762D01*
X23038562Y-5003800D01*
X23088600Y-5053838D01*
X23088600Y-5561838D02*
X23138638Y-5511800D01*
X23088600Y-5461762D01*
X23038562Y-5511800D01*
X23088600Y-5561838D01*
X23164800Y-9244838D02*
X23214838Y-9194800D01*
X23164800Y-9144762D01*
X23114762Y-9194800D01*
X23164800Y-9244838D01*
X23164800Y-9752838D02*
X23214838Y-9702800D01*
X23164800Y-9652762D01*
X23114762Y-9702800D01*
X23164800Y-9752838D01*
X23547492Y-7261946D02*
X23597530Y-7211908D01*
X23547492Y-7161870D01*
X23497454Y-7211908D01*
X23547492Y-7261946D01*
X23547492Y-7769946D02*
X23597530Y-7719908D01*
X23547492Y-7669870D01*
X23497454Y-7719908D01*
X23547492Y-7769946D01*
X23876000Y-5790438D02*
X23926038Y-5740400D01*
X23876000Y-5690362D01*
X23825962Y-5740400D01*
X23876000Y-5790438D01*
X23876000Y-6806438D02*
X23926038Y-6756400D01*
X23876000Y-6706362D01*
X23825962Y-6756400D01*
X23876000Y-6806438D01*
X23952200Y-8940038D02*
X24002238Y-8890000D01*
X23952200Y-8839962D01*
X23902162Y-8890000D01*
X23952200Y-8940038D01*
X24055492Y-7261946D02*
X24105530Y-7211908D01*
X24055492Y-7161870D01*
X24005454Y-7211908D01*
X24055492Y-7261946D01*
X24055492Y-7769946D02*
X24105530Y-7719908D01*
X24055492Y-7669870D01*
X24005454Y-7719908D01*
X24055492Y-7769946D01*
X24206200Y-5790438D02*
X24256238Y-5740400D01*
X24206200Y-5690362D01*
X24156162Y-5740400D01*
X24206200Y-5790438D01*
X24206200Y-6806438D02*
X24256238Y-6756400D01*
X24206200Y-6706362D01*
X24156162Y-6756400D01*
X24206200Y-6806438D01*
X16678910Y-5369560D02*
X16780510Y-5471160D01*
X16780510Y-5369560D02*
X16678910Y-5471160D01*
X16780510Y-5420360D02*
G75*
G03X16780510Y-5420360I-50800J0D01*
G01*
X16932910Y-5369560D02*
X17034510Y-5471160D01*
X17034510Y-5369560D02*
X16932910Y-5471160D01*
X17034510Y-5420360D02*
G75*
G03X17034510Y-5420360I-50800J0D01*
G01*
X17186910Y-5369560D02*
X17288510Y-5471160D01*
X17288510Y-5369560D02*
X17186910Y-5471160D01*
X17288510Y-5420360D02*
G75*
G03X17288510Y-5420360I-50800J0D01*
G01*
X17440910Y-5369560D02*
X17542510Y-5471160D01*
X17542510Y-5369560D02*
X17440910Y-5471160D01*
X17542510Y-5420360D02*
G75*
G03X17542510Y-5420360I-50800J0D01*
G01*
X17694910Y-5369560D02*
X17796510Y-5471160D01*
X17796510Y-5369560D02*
X17694910Y-5471160D01*
X17796510Y-5420360D02*
G75*
G03X17796510Y-5420360I-50800J0D01*
G01*
X17847310Y-10195560D02*
X17948910Y-10297160D01*
X17948910Y-10195560D02*
X17847310Y-10297160D01*
X17948910Y-10246360D02*
G75*
G03X17948910Y-10246360I-50800J0D01*
G01*
X17948910Y-5369560D02*
X18050510Y-5471160D01*
X18050510Y-5369560D02*
X17948910Y-5471160D01*
X18050510Y-5420360D02*
G75*
G03X18050510Y-5420360I-50800J0D01*
G01*
X18101310Y-10195560D02*
X18202910Y-10297160D01*
X18202910Y-10195560D02*
X18101310Y-10297160D01*
X18202910Y-10246360D02*
G75*
G03X18202910Y-10246360I-50800J0D01*
G01*
X18202910Y-5369560D02*
X18304510Y-5471160D01*
X18304510Y-5369560D02*
X18202910Y-5471160D01*
X18304510Y-5420360D02*
G75*
G03X18304510Y-5420360I-50800J0D01*
G01*
X18355310Y-10195560D02*
X18456910Y-10297160D01*
X18456910Y-10195560D02*
X18355310Y-10297160D01*
X18456910Y-10246360D02*
G75*
G03X18456910Y-10246360I-50800J0D01*
G01*
X18456910Y-5369560D02*
X18558510Y-5471160D01*
X18558510Y-5369560D02*
X18456910Y-5471160D01*
X18558510Y-5420360D02*
G75*
G03X18558510Y-5420360I-50800J0D01*
G01*
X18609310Y-10195560D02*
X18710910Y-10297160D01*
X18710910Y-10195560D02*
X18609310Y-10297160D01*
X18710910Y-10246360D02*
G75*
G03X18710910Y-10246360I-50800J0D01*
G01*
X18710910Y-5369560D02*
X18812510Y-5471160D01*
X18812510Y-5369560D02*
X18710910Y-5471160D01*
X18812510Y-5420360D02*
G75*
G03X18812510Y-5420360I-50800J0D01*
G01*
X18859500Y-4953000D02*
X18961100Y-5054600D01*
X18961100Y-4953000D02*
X18859500Y-5054600D01*
X18961100Y-5003800D02*
G75*
G03X18961100Y-5003800I-50800J0D01*
G01*
X18863310Y-10195560D02*
X18964910Y-10297160D01*
X18964910Y-10195560D02*
X18863310Y-10297160D01*
X18964910Y-10246360D02*
G75*
G03X18964910Y-10246360I-50800J0D01*
G01*
X18964910Y-5369560D02*
X19066510Y-5471160D01*
X19066510Y-5369560D02*
X18964910Y-5471160D01*
X19066510Y-5420360D02*
G75*
G03X19066510Y-5420360I-50800J0D01*
G01*
X19113500Y-4953000D02*
X19215100Y-5054600D01*
X19215100Y-4953000D02*
X19113500Y-5054600D01*
X19215100Y-5003800D02*
G75*
G03X19215100Y-5003800I-50800J0D01*
G01*
X19117310Y-10195560D02*
X19218910Y-10297160D01*
X19218910Y-10195560D02*
X19117310Y-10297160D01*
X19218910Y-10246360D02*
G75*
G03X19218910Y-10246360I-50800J0D01*
G01*
X19367500Y-4953000D02*
X19469100Y-5054600D01*
X19469100Y-4953000D02*
X19367500Y-5054600D01*
X19469100Y-5003800D02*
G75*
G03X19469100Y-5003800I-50800J0D01*
G01*
X19371310Y-5369560D02*
X19472910Y-5471160D01*
X19472910Y-5369560D02*
X19371310Y-5471160D01*
X19472910Y-5420360D02*
G75*
G03X19472910Y-5420360I-50800J0D01*
G01*
X19371310Y-10195560D02*
X19472910Y-10297160D01*
X19472910Y-10195560D02*
X19371310Y-10297160D01*
X19472910Y-10246360D02*
G75*
G03X19472910Y-10246360I-50800J0D01*
G01*
X19583400Y-7696200D02*
X19685000Y-7797800D01*
X19685000Y-7696200D02*
X19583400Y-7797800D01*
X19685000Y-7747000D02*
G75*
G03X19685000Y-7747000I-50800J0D01*
G01*
X19621500Y-4953000D02*
X19723100Y-5054600D01*
X19723100Y-4953000D02*
X19621500Y-5054600D01*
X19723100Y-5003800D02*
G75*
G03X19723100Y-5003800I-50800J0D01*
G01*
X19625310Y-5369560D02*
X19726910Y-5471160D01*
X19726910Y-5369560D02*
X19625310Y-5471160D01*
X19726910Y-5420360D02*
G75*
G03X19726910Y-5420360I-50800J0D01*
G01*
X19837400Y-7696200D02*
X19939000Y-7797800D01*
X19939000Y-7696200D02*
X19837400Y-7797800D01*
X19939000Y-7747000D02*
G75*
G03X19939000Y-7747000I-50800J0D01*
G01*
X19875500Y-4953000D02*
X19977100Y-5054600D01*
X19977100Y-4953000D02*
X19875500Y-5054600D01*
X19977100Y-5003800D02*
G75*
G03X19977100Y-5003800I-50800J0D01*
G01*
X19879310Y-5369560D02*
X19980910Y-5471160D01*
X19980910Y-5369560D02*
X19879310Y-5471160D01*
X19980910Y-5420360D02*
G75*
G03X19980910Y-5420360I-50800J0D01*
G01*
X19879310Y-10195560D02*
X19980910Y-10297160D01*
X19980910Y-10195560D02*
X19879310Y-10297160D01*
X19980910Y-10246360D02*
G75*
G03X19980910Y-10246360I-50800J0D01*
G01*
X20091400Y-7696200D02*
X20193000Y-7797800D01*
X20193000Y-7696200D02*
X20091400Y-7797800D01*
X20193000Y-7747000D02*
G75*
G03X20193000Y-7747000I-50800J0D01*
G01*
X20129500Y-4953000D02*
X20231100Y-5054600D01*
X20231100Y-4953000D02*
X20129500Y-5054600D01*
X20231100Y-5003800D02*
G75*
G03X20231100Y-5003800I-50800J0D01*
G01*
X20133310Y-5369560D02*
X20234910Y-5471160D01*
X20234910Y-5369560D02*
X20133310Y-5471160D01*
X20234910Y-5420360D02*
G75*
G03X20234910Y-5420360I-50800J0D01*
G01*
X20133310Y-10195560D02*
X20234910Y-10297160D01*
X20234910Y-10195560D02*
X20133310Y-10297160D01*
X20234910Y-10246360D02*
G75*
G03X20234910Y-10246360I-50800J0D01*
G01*
X20142200Y-9042400D02*
X20243800Y-9144000D01*
X20243800Y-9042400D02*
X20142200Y-9144000D01*
X20243800Y-9093200D02*
G75*
G03X20243800Y-9093200I-50800J0D01*
G01*
X20383500Y-4953000D02*
X20485100Y-5054600D01*
X20485100Y-4953000D02*
X20383500Y-5054600D01*
X20485100Y-5003800D02*
G75*
G03X20485100Y-5003800I-50800J0D01*
G01*
X20387310Y-5369560D02*
X20488910Y-5471160D01*
X20488910Y-5369560D02*
X20387310Y-5471160D01*
X20488910Y-5420360D02*
G75*
G03X20488910Y-5420360I-50800J0D01*
G01*
X20387310Y-10195560D02*
X20488910Y-10297160D01*
X20488910Y-10195560D02*
X20387310Y-10297160D01*
X20488910Y-10246360D02*
G75*
G03X20488910Y-10246360I-50800J0D01*
G01*
X20396200Y-9042400D02*
X20497800Y-9144000D01*
X20497800Y-9042400D02*
X20396200Y-9144000D01*
X20497800Y-9093200D02*
G75*
G03X20497800Y-9093200I-50800J0D01*
G01*
X20637500Y-4953000D02*
X20739100Y-5054600D01*
X20739100Y-4953000D02*
X20637500Y-5054600D01*
X20739100Y-5003800D02*
G75*
G03X20739100Y-5003800I-50800J0D01*
G01*
X20641310Y-5369560D02*
X20742910Y-5471160D01*
X20742910Y-5369560D02*
X20641310Y-5471160D01*
X20742910Y-5420360D02*
G75*
G03X20742910Y-5420360I-50800J0D01*
G01*
X20641310Y-10195560D02*
X20742910Y-10297160D01*
X20742910Y-10195560D02*
X20641310Y-10297160D01*
X20742910Y-10246360D02*
G75*
G03X20742910Y-10246360I-50800J0D01*
G01*
X20650200Y-9042400D02*
X20751800Y-9144000D01*
X20751800Y-9042400D02*
X20650200Y-9144000D01*
X20751800Y-9093200D02*
G75*
G03X20751800Y-9093200I-50800J0D01*
G01*
X20891500Y-4953000D02*
X20993100Y-5054600D01*
X20993100Y-4953000D02*
X20891500Y-5054600D01*
X20993100Y-5003800D02*
G75*
G03X20993100Y-5003800I-50800J0D01*
G01*
X20895310Y-5369560D02*
X20996910Y-5471160D01*
X20996910Y-5369560D02*
X20895310Y-5471160D01*
X20996910Y-5420360D02*
G75*
G03X20996910Y-5420360I-50800J0D01*
G01*
X20895310Y-10195560D02*
X20996910Y-10297160D01*
X20996910Y-10195560D02*
X20895310Y-10297160D01*
X20996910Y-10246360D02*
G75*
G03X20996910Y-10246360I-50800J0D01*
G01*
X21145500Y-4953000D02*
X21247100Y-5054600D01*
X21247100Y-4953000D02*
X21145500Y-5054600D01*
X21247100Y-5003800D02*
G75*
G03X21247100Y-5003800I-50800J0D01*
G01*
X21149310Y-5369560D02*
X21250910Y-5471160D01*
X21250910Y-5369560D02*
X21149310Y-5471160D01*
X21250910Y-5420360D02*
G75*
G03X21250910Y-5420360I-50800J0D01*
G01*
X21149310Y-10195560D02*
X21250910Y-10297160D01*
X21250910Y-10195560D02*
X21149310Y-10297160D01*
X21250910Y-10246360D02*
G75*
G03X21250910Y-10246360I-50800J0D01*
G01*
X23393400Y-10185400D02*
X23545800Y-10337800D01*
X23545800Y-10185400D02*
X23393400Y-10337800D01*
X23469600Y-10185400D02*
X23469600Y-10337800D01*
X23393400Y-10261600D02*
X23545800Y-10261600D01*
X23520400Y-5130800D02*
X23672800Y-5283200D01*
X23672800Y-5130800D02*
X23520400Y-5283200D01*
X23596600Y-5130800D02*
X23596600Y-5283200D01*
X23520400Y-5207000D02*
X23672800Y-5207000D01*
X23901400Y-10185400D02*
X24053800Y-10337800D01*
X24053800Y-10185400D02*
X23901400Y-10337800D01*
X23977600Y-10185400D02*
X23977600Y-10337800D01*
X23901400Y-10261600D02*
X24053800Y-10261600D01*
X24028400Y-5130800D02*
X24180800Y-5283200D01*
X24180800Y-5130800D02*
X24028400Y-5283200D01*
X24104600Y-5130800D02*
X24104600Y-5283200D01*
X24028400Y-5207000D02*
X24180800Y-5207000D01*
X24612600Y-7086600D02*
X24765000Y-7239000D01*
X24765000Y-7086600D02*
X24612600Y-7239000D01*
X24688800Y-7086600D02*
X24688800Y-7239000D01*
X24612600Y-7162800D02*
X24765000Y-7162800D01*
X24612600Y-7594600D02*
X24765000Y-7747000D01*
X24765000Y-7594600D02*
X24612600Y-7747000D01*
X24688800Y-7594600D02*
X24688800Y-7747000D01*
X24612600Y-7670800D02*
X24765000Y-7670800D01*
X24612600Y-8229600D02*
X24765000Y-8382000D01*
X24765000Y-8229600D02*
X24612600Y-8382000D01*
X24688800Y-8229600D02*
X24688800Y-8382000D01*
X24612600Y-8305800D02*
X24765000Y-8305800D01*
X24612600Y-8737600D02*
X24765000Y-8890000D01*
X24765000Y-8737600D02*
X24612600Y-8890000D01*
X24688800Y-8737600D02*
X24688800Y-8890000D01*
X24612600Y-8813800D02*
X24765000Y-8813800D01*
X24612600Y-9245600D02*
X24765000Y-9398000D01*
X24765000Y-9245600D02*
X24612600Y-9398000D01*
X24688800Y-9245600D02*
X24688800Y-9398000D01*
X24612600Y-9321800D02*
X24765000Y-9321800D01*
X24612600Y-9804400D02*
X24765000Y-9956800D01*
X24765000Y-9804400D02*
X24612600Y-9956800D01*
X24688800Y-9804400D02*
X24688800Y-9956800D01*
X24612600Y-9880600D02*
X24765000Y-9880600D01*
X24612600Y-10312400D02*
X24765000Y-10464800D01*
X24765000Y-10312400D02*
X24612600Y-10464800D01*
X24688800Y-10312400D02*
X24688800Y-10464800D01*
X24612600Y-10388600D02*
X24765000Y-10388600D01*
D13*
X16268428Y-11214914D02*
X16268428Y-10914914D01*
X16339857Y-10914914D01*
X16382714Y-10929200D01*
X16411286Y-10957772D01*
X16425571Y-10986343D01*
X16439857Y-11043486D01*
X16439857Y-11086343D01*
X16425571Y-11143486D01*
X16411286Y-11172057D01*
X16382714Y-11200629D01*
X16339857Y-11214914D01*
X16268428Y-11214914D01*
X16568428Y-11214914D02*
X16568428Y-11014914D01*
X16568428Y-11072057D02*
X16582714Y-11043486D01*
X16597000Y-11029200D01*
X16625571Y-11014914D01*
X16654143Y-11014914D01*
X16754143Y-11214914D02*
X16754143Y-11014914D01*
X16754143Y-10914914D02*
X16739857Y-10929200D01*
X16754143Y-10943486D01*
X16768428Y-10929200D01*
X16754143Y-10914914D01*
X16754143Y-10943486D01*
X16939857Y-11214914D02*
X16911286Y-11200629D01*
X16897000Y-11172057D01*
X16897000Y-10914914D01*
X17097000Y-11214914D02*
X17068429Y-11200629D01*
X17054143Y-11172057D01*
X17054143Y-10914914D01*
X17439857Y-11214914D02*
X17439857Y-10914914D01*
X17539857Y-11129200D01*
X17639857Y-10914914D01*
X17639857Y-11214914D01*
X17911286Y-11214914D02*
X17911286Y-11057772D01*
X17897000Y-11029200D01*
X17868429Y-11014914D01*
X17811286Y-11014914D01*
X17782714Y-11029200D01*
X17911286Y-11200629D02*
X17882714Y-11214914D01*
X17811286Y-11214914D01*
X17782714Y-11200629D01*
X17768429Y-11172057D01*
X17768429Y-11143486D01*
X17782714Y-11114914D01*
X17811286Y-11100629D01*
X17882714Y-11100629D01*
X17911286Y-11086343D01*
X18054143Y-11014914D02*
X18054143Y-11314914D01*
X18054143Y-11029200D02*
X18082714Y-11014914D01*
X18139857Y-11014914D01*
X18168429Y-11029200D01*
X18182714Y-11043486D01*
X18197000Y-11072057D01*
X18197000Y-11157772D01*
X18182714Y-11186343D01*
X18168429Y-11200629D01*
X18139857Y-11214914D01*
X18082714Y-11214914D01*
X18054143Y-11200629D01*
X18325571Y-11186343D02*
X18339857Y-11200629D01*
X18325571Y-11214914D01*
X18311286Y-11200629D01*
X18325571Y-11186343D01*
X18325571Y-11214914D01*
X18325571Y-11029200D02*
X18339857Y-11043486D01*
X18325571Y-11057772D01*
X18311286Y-11043486D01*
X18325571Y-11029200D01*
X18325571Y-11057772D01*
X15937000Y-11679200D02*
X15997000Y-11739200D01*
X15997000Y-11679200D02*
X15937000Y-11739200D01*
X16325571Y-11544914D02*
X16354143Y-11544914D01*
X16382714Y-11559200D01*
X16397000Y-11573486D01*
X16411286Y-11602057D01*
X16425571Y-11659200D01*
X16425571Y-11730629D01*
X16411286Y-11787771D01*
X16397000Y-11816343D01*
X16382714Y-11830629D01*
X16354143Y-11844914D01*
X16325571Y-11844914D01*
X16297000Y-11830629D01*
X16282714Y-11816343D01*
X16268428Y-11787771D01*
X16254143Y-11730629D01*
X16254143Y-11659200D01*
X16268428Y-11602057D01*
X16282714Y-11573486D01*
X16297000Y-11559200D01*
X16325571Y-11544914D01*
X16554143Y-11816343D02*
X16568428Y-11830629D01*
X16554143Y-11844914D01*
X16539857Y-11830629D01*
X16554143Y-11816343D01*
X16554143Y-11844914D01*
X16825571Y-11544914D02*
X16768428Y-11544914D01*
X16739857Y-11559200D01*
X16725571Y-11573486D01*
X16697000Y-11616343D01*
X16682714Y-11673486D01*
X16682714Y-11787771D01*
X16697000Y-11816343D01*
X16711286Y-11830629D01*
X16739857Y-11844914D01*
X16797000Y-11844914D01*
X16825571Y-11830629D01*
X16839857Y-11816343D01*
X16854143Y-11787771D01*
X16854143Y-11716343D01*
X16839857Y-11687771D01*
X16825571Y-11673486D01*
X16797000Y-11659200D01*
X16739857Y-11659200D01*
X16711286Y-11673486D01*
X16697000Y-11687771D01*
X16682714Y-11716343D01*
X17039857Y-11544914D02*
X17068429Y-11544914D01*
X17097000Y-11559200D01*
X17111286Y-11573486D01*
X17125571Y-11602057D01*
X17139857Y-11659200D01*
X17139857Y-11730629D01*
X17125571Y-11787771D01*
X17111286Y-11816343D01*
X17097000Y-11830629D01*
X17068429Y-11844914D01*
X17039857Y-11844914D01*
X17011286Y-11830629D01*
X16997000Y-11816343D01*
X16982714Y-11787771D01*
X16968429Y-11730629D01*
X16968429Y-11659200D01*
X16982714Y-11602057D01*
X16997000Y-11573486D01*
X17011286Y-11559200D01*
X17039857Y-11544914D01*
X17268429Y-11844914D02*
X17268429Y-11644914D01*
X17268429Y-11673486D02*
X17282714Y-11659200D01*
X17311286Y-11644914D01*
X17354143Y-11644914D01*
X17382714Y-11659200D01*
X17397000Y-11687771D01*
X17397000Y-11844914D01*
X17397000Y-11687771D02*
X17411286Y-11659200D01*
X17439857Y-11644914D01*
X17482714Y-11644914D01*
X17511286Y-11659200D01*
X17525571Y-11687771D01*
X17525571Y-11844914D01*
X17668429Y-11844914D02*
X17668429Y-11644914D01*
X17668429Y-11673486D02*
X17682714Y-11659200D01*
X17711286Y-11644914D01*
X17754143Y-11644914D01*
X17782714Y-11659200D01*
X17797000Y-11687771D01*
X17797000Y-11844914D01*
X17797000Y-11687771D02*
X17811286Y-11659200D01*
X17839857Y-11644914D01*
X17882714Y-11644914D01*
X17911286Y-11659200D01*
X17925571Y-11687771D01*
X17925571Y-11844914D01*
X18511286Y-11530629D02*
X18254143Y-11916343D01*
X18897000Y-11544914D02*
X18925571Y-11544914D01*
X18954143Y-11559200D01*
X18968428Y-11573486D01*
X18982714Y-11602057D01*
X18997000Y-11659200D01*
X18997000Y-11730629D01*
X18982714Y-11787771D01*
X18968428Y-11816343D01*
X18954143Y-11830629D01*
X18925571Y-11844914D01*
X18897000Y-11844914D01*
X18868428Y-11830629D01*
X18854143Y-11816343D01*
X18839857Y-11787771D01*
X18825571Y-11730629D01*
X18825571Y-11659200D01*
X18839857Y-11602057D01*
X18854143Y-11573486D01*
X18868428Y-11559200D01*
X18897000Y-11544914D01*
X19125571Y-11816343D02*
X19139857Y-11830629D01*
X19125571Y-11844914D01*
X19111286Y-11830629D01*
X19125571Y-11816343D01*
X19125571Y-11844914D01*
X19325571Y-11544914D02*
X19354143Y-11544914D01*
X19382714Y-11559200D01*
X19397000Y-11573486D01*
X19411286Y-11602057D01*
X19425571Y-11659200D01*
X19425571Y-11730629D01*
X19411286Y-11787771D01*
X19397000Y-11816343D01*
X19382714Y-11830629D01*
X19354143Y-11844914D01*
X19325571Y-11844914D01*
X19297000Y-11830629D01*
X19282714Y-11816343D01*
X19268428Y-11787771D01*
X19254143Y-11730629D01*
X19254143Y-11659200D01*
X19268428Y-11602057D01*
X19282714Y-11573486D01*
X19297000Y-11559200D01*
X19325571Y-11544914D01*
X19539857Y-11573486D02*
X19554143Y-11559200D01*
X19582714Y-11544914D01*
X19654143Y-11544914D01*
X19682714Y-11559200D01*
X19697000Y-11573486D01*
X19711286Y-11602057D01*
X19711286Y-11630629D01*
X19697000Y-11673486D01*
X19525571Y-11844914D01*
X19711286Y-11844914D01*
X19968428Y-11644914D02*
X19968428Y-11844914D01*
X19897000Y-11530629D02*
X19825571Y-11744914D01*
X20011286Y-11744914D01*
X20111286Y-11544914D02*
X20111286Y-11602057D01*
X20225571Y-11544914D02*
X20225571Y-11602057D01*
X20668428Y-11959200D02*
X20654143Y-11944914D01*
X20625571Y-11902057D01*
X20611286Y-11873486D01*
X20597000Y-11830629D01*
X20582714Y-11759200D01*
X20582714Y-11702057D01*
X20597000Y-11630629D01*
X20611286Y-11587771D01*
X20625571Y-11559200D01*
X20654143Y-11516343D01*
X20668428Y-11502057D01*
X20754143Y-11544914D02*
X20954143Y-11544914D01*
X20825571Y-11844914D01*
X21297000Y-11844914D02*
X21297000Y-11544914D01*
X21425571Y-11844914D02*
X21425571Y-11687771D01*
X21411286Y-11659200D01*
X21382714Y-11644914D01*
X21339857Y-11644914D01*
X21311286Y-11659200D01*
X21297000Y-11673486D01*
X21611286Y-11844914D02*
X21582714Y-11830629D01*
X21568428Y-11816343D01*
X21554143Y-11787771D01*
X21554143Y-11702057D01*
X21568428Y-11673486D01*
X21582714Y-11659200D01*
X21611286Y-11644914D01*
X21654143Y-11644914D01*
X21682714Y-11659200D01*
X21697000Y-11673486D01*
X21711286Y-11702057D01*
X21711286Y-11787771D01*
X21697000Y-11816343D01*
X21682714Y-11830629D01*
X21654143Y-11844914D01*
X21611286Y-11844914D01*
X21882714Y-11844914D02*
X21854143Y-11830629D01*
X21839857Y-11802057D01*
X21839857Y-11544914D01*
X22111286Y-11830629D02*
X22082714Y-11844914D01*
X22025571Y-11844914D01*
X21997000Y-11830629D01*
X21982714Y-11802057D01*
X21982714Y-11687771D01*
X21997000Y-11659200D01*
X22025571Y-11644914D01*
X22082714Y-11644914D01*
X22111286Y-11659200D01*
X22125571Y-11687771D01*
X22125571Y-11716343D01*
X21982714Y-11744914D01*
X22239857Y-11830629D02*
X22268429Y-11844914D01*
X22325571Y-11844914D01*
X22354143Y-11830629D01*
X22368429Y-11802057D01*
X22368429Y-11787771D01*
X22354143Y-11759200D01*
X22325571Y-11744914D01*
X22282714Y-11744914D01*
X22254143Y-11730629D01*
X22239857Y-11702057D01*
X22239857Y-11687771D01*
X22254143Y-11659200D01*
X22282714Y-11644914D01*
X22325571Y-11644914D01*
X22354143Y-11659200D01*
X22468428Y-11959200D02*
X22482714Y-11944914D01*
X22511286Y-11902057D01*
X22525571Y-11873486D01*
X22539857Y-11830629D01*
X22554143Y-11759200D01*
X22554143Y-11702057D01*
X22539857Y-11630629D01*
X22525571Y-11587771D01*
X22511286Y-11559200D01*
X22482714Y-11516343D01*
X22468428Y-11502057D01*
X15997000Y-12105200D02*
G75*
G03X15997000Y-12105200I-40000J0D01*
G01*
X16325571Y-11940914D02*
X16354143Y-11940914D01*
X16382714Y-11955200D01*
X16397000Y-11969486D01*
X16411286Y-11998057D01*
X16425571Y-12055200D01*
X16425571Y-12126629D01*
X16411286Y-12183771D01*
X16397000Y-12212343D01*
X16382714Y-12226629D01*
X16354143Y-12240914D01*
X16325571Y-12240914D01*
X16297000Y-12226629D01*
X16282714Y-12212343D01*
X16268428Y-12183771D01*
X16254143Y-12126629D01*
X16254143Y-12055200D01*
X16268428Y-11998057D01*
X16282714Y-11969486D01*
X16297000Y-11955200D01*
X16325571Y-11940914D01*
X16554143Y-12212343D02*
X16568428Y-12226629D01*
X16554143Y-12240914D01*
X16539857Y-12226629D01*
X16554143Y-12212343D01*
X16554143Y-12240914D01*
X16739857Y-12069486D02*
X16711286Y-12055200D01*
X16697000Y-12040914D01*
X16682714Y-12012343D01*
X16682714Y-11998057D01*
X16697000Y-11969486D01*
X16711286Y-11955200D01*
X16739857Y-11940914D01*
X16797000Y-11940914D01*
X16825571Y-11955200D01*
X16839857Y-11969486D01*
X16854143Y-11998057D01*
X16854143Y-12012343D01*
X16839857Y-12040914D01*
X16825571Y-12055200D01*
X16797000Y-12069486D01*
X16739857Y-12069486D01*
X16711286Y-12083771D01*
X16697000Y-12098057D01*
X16682714Y-12126629D01*
X16682714Y-12183771D01*
X16697000Y-12212343D01*
X16711286Y-12226629D01*
X16739857Y-12240914D01*
X16797000Y-12240914D01*
X16825571Y-12226629D01*
X16839857Y-12212343D01*
X16854143Y-12183771D01*
X16854143Y-12126629D01*
X16839857Y-12098057D01*
X16825571Y-12083771D01*
X16797000Y-12069486D01*
X17039857Y-11940914D02*
X17068429Y-11940914D01*
X17097000Y-11955200D01*
X17111286Y-11969486D01*
X17125571Y-11998057D01*
X17139857Y-12055200D01*
X17139857Y-12126629D01*
X17125571Y-12183771D01*
X17111286Y-12212343D01*
X17097000Y-12226629D01*
X17068429Y-12240914D01*
X17039857Y-12240914D01*
X17011286Y-12226629D01*
X16997000Y-12212343D01*
X16982714Y-12183771D01*
X16968429Y-12126629D01*
X16968429Y-12055200D01*
X16982714Y-11998057D01*
X16997000Y-11969486D01*
X17011286Y-11955200D01*
X17039857Y-11940914D01*
X17268429Y-12240914D02*
X17268429Y-12040914D01*
X17268429Y-12069486D02*
X17282714Y-12055200D01*
X17311286Y-12040914D01*
X17354143Y-12040914D01*
X17382714Y-12055200D01*
X17397000Y-12083771D01*
X17397000Y-12240914D01*
X17397000Y-12083771D02*
X17411286Y-12055200D01*
X17439857Y-12040914D01*
X17482714Y-12040914D01*
X17511286Y-12055200D01*
X17525571Y-12083771D01*
X17525571Y-12240914D01*
X17668429Y-12240914D02*
X17668429Y-12040914D01*
X17668429Y-12069486D02*
X17682714Y-12055200D01*
X17711286Y-12040914D01*
X17754143Y-12040914D01*
X17782714Y-12055200D01*
X17797000Y-12083771D01*
X17797000Y-12240914D01*
X17797000Y-12083771D02*
X17811286Y-12055200D01*
X17839857Y-12040914D01*
X17882714Y-12040914D01*
X17911286Y-12055200D01*
X17925571Y-12083771D01*
X17925571Y-12240914D01*
X18511286Y-11926629D02*
X18254143Y-12312343D01*
X18897000Y-11940914D02*
X18925571Y-11940914D01*
X18954143Y-11955200D01*
X18968428Y-11969486D01*
X18982714Y-11998057D01*
X18997000Y-12055200D01*
X18997000Y-12126629D01*
X18982714Y-12183771D01*
X18968428Y-12212343D01*
X18954143Y-12226629D01*
X18925571Y-12240914D01*
X18897000Y-12240914D01*
X18868428Y-12226629D01*
X18854143Y-12212343D01*
X18839857Y-12183771D01*
X18825571Y-12126629D01*
X18825571Y-12055200D01*
X18839857Y-11998057D01*
X18854143Y-11969486D01*
X18868428Y-11955200D01*
X18897000Y-11940914D01*
X19125571Y-12212343D02*
X19139857Y-12226629D01*
X19125571Y-12240914D01*
X19111286Y-12226629D01*
X19125571Y-12212343D01*
X19125571Y-12240914D01*
X19325571Y-11940914D02*
X19354143Y-11940914D01*
X19382714Y-11955200D01*
X19397000Y-11969486D01*
X19411286Y-11998057D01*
X19425571Y-12055200D01*
X19425571Y-12126629D01*
X19411286Y-12183771D01*
X19397000Y-12212343D01*
X19382714Y-12226629D01*
X19354143Y-12240914D01*
X19325571Y-12240914D01*
X19297000Y-12226629D01*
X19282714Y-12212343D01*
X19268428Y-12183771D01*
X19254143Y-12126629D01*
X19254143Y-12055200D01*
X19268428Y-11998057D01*
X19282714Y-11969486D01*
X19297000Y-11955200D01*
X19325571Y-11940914D01*
X19525571Y-11940914D02*
X19711286Y-11940914D01*
X19611286Y-12055200D01*
X19654143Y-12055200D01*
X19682714Y-12069486D01*
X19697000Y-12083771D01*
X19711286Y-12112343D01*
X19711286Y-12183771D01*
X19697000Y-12212343D01*
X19682714Y-12226629D01*
X19654143Y-12240914D01*
X19568428Y-12240914D01*
X19539857Y-12226629D01*
X19525571Y-12212343D01*
X19997000Y-12240914D02*
X19825571Y-12240914D01*
X19911286Y-12240914D02*
X19911286Y-11940914D01*
X19882714Y-11983771D01*
X19854143Y-12012343D01*
X19825571Y-12026629D01*
X20111286Y-11940914D02*
X20111286Y-11998057D01*
X20225571Y-11940914D02*
X20225571Y-11998057D01*
X20668428Y-12355200D02*
X20654143Y-12340914D01*
X20625571Y-12298057D01*
X20611286Y-12269486D01*
X20597000Y-12226629D01*
X20582714Y-12155200D01*
X20582714Y-12098057D01*
X20597000Y-12026629D01*
X20611286Y-11983771D01*
X20625571Y-11955200D01*
X20654143Y-11912343D01*
X20668428Y-11898057D01*
X20925571Y-11940914D02*
X20782714Y-11940914D01*
X20768428Y-12083771D01*
X20782714Y-12069486D01*
X20811286Y-12055200D01*
X20882714Y-12055200D01*
X20911286Y-12069486D01*
X20925571Y-12083771D01*
X20939857Y-12112343D01*
X20939857Y-12183771D01*
X20925571Y-12212343D01*
X20911286Y-12226629D01*
X20882714Y-12240914D01*
X20811286Y-12240914D01*
X20782714Y-12226629D01*
X20768428Y-12212343D01*
X21082714Y-12240914D02*
X21139857Y-12240914D01*
X21168428Y-12226629D01*
X21182714Y-12212343D01*
X21211286Y-12169486D01*
X21225571Y-12112343D01*
X21225571Y-11998057D01*
X21211286Y-11969486D01*
X21197000Y-11955200D01*
X21168428Y-11940914D01*
X21111286Y-11940914D01*
X21082714Y-11955200D01*
X21068428Y-11969486D01*
X21054143Y-11998057D01*
X21054143Y-12069486D01*
X21068428Y-12098057D01*
X21082714Y-12112343D01*
X21111286Y-12126629D01*
X21168428Y-12126629D01*
X21197000Y-12112343D01*
X21211286Y-12098057D01*
X21225571Y-12069486D01*
X21582714Y-12240914D02*
X21582714Y-11940914D01*
X21711286Y-12240914D02*
X21711286Y-12083771D01*
X21697000Y-12055200D01*
X21668428Y-12040914D01*
X21625571Y-12040914D01*
X21597000Y-12055200D01*
X21582714Y-12069486D01*
X21897000Y-12240914D02*
X21868428Y-12226629D01*
X21854143Y-12212343D01*
X21839857Y-12183771D01*
X21839857Y-12098057D01*
X21854143Y-12069486D01*
X21868428Y-12055200D01*
X21897000Y-12040914D01*
X21939857Y-12040914D01*
X21968428Y-12055200D01*
X21982714Y-12069486D01*
X21997000Y-12098057D01*
X21997000Y-12183771D01*
X21982714Y-12212343D01*
X21968428Y-12226629D01*
X21939857Y-12240914D01*
X21897000Y-12240914D01*
X22168428Y-12240914D02*
X22139857Y-12226629D01*
X22125571Y-12198057D01*
X22125571Y-11940914D01*
X22397000Y-12226629D02*
X22368429Y-12240914D01*
X22311286Y-12240914D01*
X22282714Y-12226629D01*
X22268429Y-12198057D01*
X22268429Y-12083771D01*
X22282714Y-12055200D01*
X22311286Y-12040914D01*
X22368429Y-12040914D01*
X22397000Y-12055200D01*
X22411286Y-12083771D01*
X22411286Y-12112343D01*
X22268429Y-12140914D01*
X22525571Y-12226629D02*
X22554143Y-12240914D01*
X22611286Y-12240914D01*
X22639857Y-12226629D01*
X22654143Y-12198057D01*
X22654143Y-12183771D01*
X22639857Y-12155200D01*
X22611286Y-12140914D01*
X22568428Y-12140914D01*
X22539857Y-12126629D01*
X22525571Y-12098057D01*
X22525571Y-12083771D01*
X22539857Y-12055200D01*
X22568428Y-12040914D01*
X22611286Y-12040914D01*
X22639857Y-12055200D01*
X22754143Y-12355200D02*
X22768428Y-12340914D01*
X22797000Y-12298057D01*
X22811286Y-12269486D01*
X22825571Y-12226629D01*
X22839857Y-12155200D01*
X22839857Y-12098057D01*
X22825571Y-12026629D01*
X22811286Y-11983771D01*
X22797000Y-11955200D01*
X22768428Y-11912343D01*
X22754143Y-11898057D01*
X15952000Y-12456200D02*
X15952000Y-12546200D01*
X15907000Y-12501200D02*
X15997000Y-12501200D01*
X16325571Y-12336914D02*
X16354143Y-12336914D01*
X16382714Y-12351200D01*
X16397000Y-12365486D01*
X16411286Y-12394057D01*
X16425571Y-12451200D01*
X16425571Y-12522629D01*
X16411286Y-12579771D01*
X16397000Y-12608343D01*
X16382714Y-12622629D01*
X16354143Y-12636914D01*
X16325571Y-12636914D01*
X16297000Y-12622629D01*
X16282714Y-12608343D01*
X16268428Y-12579771D01*
X16254143Y-12522629D01*
X16254143Y-12451200D01*
X16268428Y-12394057D01*
X16282714Y-12365486D01*
X16297000Y-12351200D01*
X16325571Y-12336914D01*
X16554143Y-12608343D02*
X16568428Y-12622629D01*
X16554143Y-12636914D01*
X16539857Y-12622629D01*
X16554143Y-12608343D01*
X16554143Y-12636914D01*
X16711286Y-12636914D02*
X16768428Y-12636914D01*
X16797000Y-12622629D01*
X16811286Y-12608343D01*
X16839857Y-12565486D01*
X16854143Y-12508343D01*
X16854143Y-12394057D01*
X16839857Y-12365486D01*
X16825571Y-12351200D01*
X16797000Y-12336914D01*
X16739857Y-12336914D01*
X16711286Y-12351200D01*
X16697000Y-12365486D01*
X16682714Y-12394057D01*
X16682714Y-12465486D01*
X16697000Y-12494057D01*
X16711286Y-12508343D01*
X16739857Y-12522629D01*
X16797000Y-12522629D01*
X16825571Y-12508343D01*
X16839857Y-12494057D01*
X16854143Y-12465486D01*
X17039857Y-12336914D02*
X17068429Y-12336914D01*
X17097000Y-12351200D01*
X17111286Y-12365486D01*
X17125571Y-12394057D01*
X17139857Y-12451200D01*
X17139857Y-12522629D01*
X17125571Y-12579771D01*
X17111286Y-12608343D01*
X17097000Y-12622629D01*
X17068429Y-12636914D01*
X17039857Y-12636914D01*
X17011286Y-12622629D01*
X16997000Y-12608343D01*
X16982714Y-12579771D01*
X16968429Y-12522629D01*
X16968429Y-12451200D01*
X16982714Y-12394057D01*
X16997000Y-12365486D01*
X17011286Y-12351200D01*
X17039857Y-12336914D01*
X17268429Y-12636914D02*
X17268429Y-12436914D01*
X17268429Y-12465486D02*
X17282714Y-12451200D01*
X17311286Y-12436914D01*
X17354143Y-12436914D01*
X17382714Y-12451200D01*
X17397000Y-12479771D01*
X17397000Y-12636914D01*
X17397000Y-12479771D02*
X17411286Y-12451200D01*
X17439857Y-12436914D01*
X17482714Y-12436914D01*
X17511286Y-12451200D01*
X17525571Y-12479771D01*
X17525571Y-12636914D01*
X17668429Y-12636914D02*
X17668429Y-12436914D01*
X17668429Y-12465486D02*
X17682714Y-12451200D01*
X17711286Y-12436914D01*
X17754143Y-12436914D01*
X17782714Y-12451200D01*
X17797000Y-12479771D01*
X17797000Y-12636914D01*
X17797000Y-12479771D02*
X17811286Y-12451200D01*
X17839857Y-12436914D01*
X17882714Y-12436914D01*
X17911286Y-12451200D01*
X17925571Y-12479771D01*
X17925571Y-12636914D01*
X18511286Y-12322629D02*
X18254143Y-12708343D01*
X18897000Y-12336914D02*
X18925571Y-12336914D01*
X18954143Y-12351200D01*
X18968428Y-12365486D01*
X18982714Y-12394057D01*
X18997000Y-12451200D01*
X18997000Y-12522629D01*
X18982714Y-12579771D01*
X18968428Y-12608343D01*
X18954143Y-12622629D01*
X18925571Y-12636914D01*
X18897000Y-12636914D01*
X18868428Y-12622629D01*
X18854143Y-12608343D01*
X18839857Y-12579771D01*
X18825571Y-12522629D01*
X18825571Y-12451200D01*
X18839857Y-12394057D01*
X18854143Y-12365486D01*
X18868428Y-12351200D01*
X18897000Y-12336914D01*
X19125571Y-12608343D02*
X19139857Y-12622629D01*
X19125571Y-12636914D01*
X19111286Y-12622629D01*
X19125571Y-12608343D01*
X19125571Y-12636914D01*
X19325571Y-12336914D02*
X19354143Y-12336914D01*
X19382714Y-12351200D01*
X19397000Y-12365486D01*
X19411286Y-12394057D01*
X19425571Y-12451200D01*
X19425571Y-12522629D01*
X19411286Y-12579771D01*
X19397000Y-12608343D01*
X19382714Y-12622629D01*
X19354143Y-12636914D01*
X19325571Y-12636914D01*
X19297000Y-12622629D01*
X19282714Y-12608343D01*
X19268428Y-12579771D01*
X19254143Y-12522629D01*
X19254143Y-12451200D01*
X19268428Y-12394057D01*
X19282714Y-12365486D01*
X19297000Y-12351200D01*
X19325571Y-12336914D01*
X19525571Y-12336914D02*
X19711286Y-12336914D01*
X19611286Y-12451200D01*
X19654143Y-12451200D01*
X19682714Y-12465486D01*
X19697000Y-12479771D01*
X19711286Y-12508343D01*
X19711286Y-12579771D01*
X19697000Y-12608343D01*
X19682714Y-12622629D01*
X19654143Y-12636914D01*
X19568428Y-12636914D01*
X19539857Y-12622629D01*
X19525571Y-12608343D01*
X19982714Y-12336914D02*
X19839857Y-12336914D01*
X19825571Y-12479771D01*
X19839857Y-12465486D01*
X19868428Y-12451200D01*
X19939857Y-12451200D01*
X19968428Y-12465486D01*
X19982714Y-12479771D01*
X19997000Y-12508343D01*
X19997000Y-12579771D01*
X19982714Y-12608343D01*
X19968428Y-12622629D01*
X19939857Y-12636914D01*
X19868428Y-12636914D01*
X19839857Y-12622629D01*
X19825571Y-12608343D01*
X20111286Y-12336914D02*
X20111286Y-12394057D01*
X20225571Y-12336914D02*
X20225571Y-12394057D01*
X20668428Y-12751200D02*
X20654143Y-12736914D01*
X20625571Y-12694057D01*
X20611286Y-12665486D01*
X20597000Y-12622629D01*
X20582714Y-12551200D01*
X20582714Y-12494057D01*
X20597000Y-12422629D01*
X20611286Y-12379771D01*
X20625571Y-12351200D01*
X20654143Y-12308343D01*
X20668428Y-12294057D01*
X20911286Y-12436914D02*
X20911286Y-12636914D01*
X20839857Y-12322629D02*
X20768428Y-12536914D01*
X20954143Y-12536914D01*
X21297000Y-12636914D02*
X21297000Y-12336914D01*
X21425571Y-12636914D02*
X21425571Y-12479771D01*
X21411286Y-12451200D01*
X21382714Y-12436914D01*
X21339857Y-12436914D01*
X21311286Y-12451200D01*
X21297000Y-12465486D01*
X21611286Y-12636914D02*
X21582714Y-12622629D01*
X21568428Y-12608343D01*
X21554143Y-12579771D01*
X21554143Y-12494057D01*
X21568428Y-12465486D01*
X21582714Y-12451200D01*
X21611286Y-12436914D01*
X21654143Y-12436914D01*
X21682714Y-12451200D01*
X21697000Y-12465486D01*
X21711286Y-12494057D01*
X21711286Y-12579771D01*
X21697000Y-12608343D01*
X21682714Y-12622629D01*
X21654143Y-12636914D01*
X21611286Y-12636914D01*
X21882714Y-12636914D02*
X21854143Y-12622629D01*
X21839857Y-12594057D01*
X21839857Y-12336914D01*
X22111286Y-12622629D02*
X22082714Y-12636914D01*
X22025571Y-12636914D01*
X21997000Y-12622629D01*
X21982714Y-12594057D01*
X21982714Y-12479771D01*
X21997000Y-12451200D01*
X22025571Y-12436914D01*
X22082714Y-12436914D01*
X22111286Y-12451200D01*
X22125571Y-12479771D01*
X22125571Y-12508343D01*
X21982714Y-12536914D01*
X22239857Y-12622629D02*
X22268429Y-12636914D01*
X22325571Y-12636914D01*
X22354143Y-12622629D01*
X22368429Y-12594057D01*
X22368429Y-12579771D01*
X22354143Y-12551200D01*
X22325571Y-12536914D01*
X22282714Y-12536914D01*
X22254143Y-12522629D01*
X22239857Y-12494057D01*
X22239857Y-12479771D01*
X22254143Y-12451200D01*
X22282714Y-12436914D01*
X22325571Y-12436914D01*
X22354143Y-12451200D01*
X22468428Y-12751200D02*
X22482714Y-12736914D01*
X22511286Y-12694057D01*
X22525571Y-12665486D01*
X22539857Y-12622629D01*
X22554143Y-12551200D01*
X22554143Y-12494057D01*
X22539857Y-12422629D01*
X22525571Y-12379771D01*
X22511286Y-12351200D01*
X22482714Y-12308343D01*
X22468428Y-12294057D01*
X15982356Y-12932556D02*
X15982356Y-12861844D01*
X15911644Y-12861844D01*
X15911644Y-12932556D01*
X15982356Y-12932556D01*
X16425571Y-13032914D02*
X16254143Y-13032914D01*
X16339857Y-13032914D02*
X16339857Y-12732914D01*
X16311286Y-12775771D01*
X16282714Y-12804343D01*
X16254143Y-12818629D01*
X16554143Y-13004343D02*
X16568428Y-13018629D01*
X16554143Y-13032914D01*
X16539857Y-13018629D01*
X16554143Y-13004343D01*
X16554143Y-13032914D01*
X16754143Y-12732914D02*
X16782714Y-12732914D01*
X16811286Y-12747200D01*
X16825571Y-12761486D01*
X16839857Y-12790057D01*
X16854143Y-12847200D01*
X16854143Y-12918629D01*
X16839857Y-12975771D01*
X16825571Y-13004343D01*
X16811286Y-13018629D01*
X16782714Y-13032914D01*
X16754143Y-13032914D01*
X16725571Y-13018629D01*
X16711286Y-13004343D01*
X16697000Y-12975771D01*
X16682714Y-12918629D01*
X16682714Y-12847200D01*
X16697000Y-12790057D01*
X16711286Y-12761486D01*
X16725571Y-12747200D01*
X16754143Y-12732914D01*
X17039857Y-12732914D02*
X17068429Y-12732914D01*
X17097000Y-12747200D01*
X17111286Y-12761486D01*
X17125571Y-12790057D01*
X17139857Y-12847200D01*
X17139857Y-12918629D01*
X17125571Y-12975771D01*
X17111286Y-13004343D01*
X17097000Y-13018629D01*
X17068429Y-13032914D01*
X17039857Y-13032914D01*
X17011286Y-13018629D01*
X16997000Y-13004343D01*
X16982714Y-12975771D01*
X16968429Y-12918629D01*
X16968429Y-12847200D01*
X16982714Y-12790057D01*
X16997000Y-12761486D01*
X17011286Y-12747200D01*
X17039857Y-12732914D01*
X17268429Y-13032914D02*
X17268429Y-12832914D01*
X17268429Y-12861486D02*
X17282714Y-12847200D01*
X17311286Y-12832914D01*
X17354143Y-12832914D01*
X17382714Y-12847200D01*
X17397000Y-12875771D01*
X17397000Y-13032914D01*
X17397000Y-12875771D02*
X17411286Y-12847200D01*
X17439857Y-12832914D01*
X17482714Y-12832914D01*
X17511286Y-12847200D01*
X17525571Y-12875771D01*
X17525571Y-13032914D01*
X17668429Y-13032914D02*
X17668429Y-12832914D01*
X17668429Y-12861486D02*
X17682714Y-12847200D01*
X17711286Y-12832914D01*
X17754143Y-12832914D01*
X17782714Y-12847200D01*
X17797000Y-12875771D01*
X17797000Y-13032914D01*
X17797000Y-12875771D02*
X17811286Y-12847200D01*
X17839857Y-12832914D01*
X17882714Y-12832914D01*
X17911286Y-12847200D01*
X17925571Y-12875771D01*
X17925571Y-13032914D01*
X18511286Y-12718629D02*
X18254143Y-13104343D01*
X18897000Y-12732914D02*
X18925571Y-12732914D01*
X18954143Y-12747200D01*
X18968428Y-12761486D01*
X18982714Y-12790057D01*
X18997000Y-12847200D01*
X18997000Y-12918629D01*
X18982714Y-12975771D01*
X18968428Y-13004343D01*
X18954143Y-13018629D01*
X18925571Y-13032914D01*
X18897000Y-13032914D01*
X18868428Y-13018629D01*
X18854143Y-13004343D01*
X18839857Y-12975771D01*
X18825571Y-12918629D01*
X18825571Y-12847200D01*
X18839857Y-12790057D01*
X18854143Y-12761486D01*
X18868428Y-12747200D01*
X18897000Y-12732914D01*
X19125571Y-13004343D02*
X19139857Y-13018629D01*
X19125571Y-13032914D01*
X19111286Y-13018629D01*
X19125571Y-13004343D01*
X19125571Y-13032914D01*
X19325571Y-12732914D02*
X19354143Y-12732914D01*
X19382714Y-12747200D01*
X19397000Y-12761486D01*
X19411286Y-12790057D01*
X19425571Y-12847200D01*
X19425571Y-12918629D01*
X19411286Y-12975771D01*
X19397000Y-13004343D01*
X19382714Y-13018629D01*
X19354143Y-13032914D01*
X19325571Y-13032914D01*
X19297000Y-13018629D01*
X19282714Y-13004343D01*
X19268428Y-12975771D01*
X19254143Y-12918629D01*
X19254143Y-12847200D01*
X19268428Y-12790057D01*
X19282714Y-12761486D01*
X19297000Y-12747200D01*
X19325571Y-12732914D01*
X19525571Y-12732914D02*
X19711286Y-12732914D01*
X19611286Y-12847200D01*
X19654143Y-12847200D01*
X19682714Y-12861486D01*
X19697000Y-12875771D01*
X19711286Y-12904343D01*
X19711286Y-12975771D01*
X19697000Y-13004343D01*
X19682714Y-13018629D01*
X19654143Y-13032914D01*
X19568428Y-13032914D01*
X19539857Y-13018629D01*
X19525571Y-13004343D01*
X19854143Y-13032914D02*
X19911286Y-13032914D01*
X19939857Y-13018629D01*
X19954143Y-13004343D01*
X19982714Y-12961486D01*
X19997000Y-12904343D01*
X19997000Y-12790057D01*
X19982714Y-12761486D01*
X19968428Y-12747200D01*
X19939857Y-12732914D01*
X19882714Y-12732914D01*
X19854143Y-12747200D01*
X19839857Y-12761486D01*
X19825571Y-12790057D01*
X19825571Y-12861486D01*
X19839857Y-12890057D01*
X19854143Y-12904343D01*
X19882714Y-12918629D01*
X19939857Y-12918629D01*
X19968428Y-12904343D01*
X19982714Y-12890057D01*
X19997000Y-12861486D01*
X20111286Y-12732914D02*
X20111286Y-12790057D01*
X20225571Y-12732914D02*
X20225571Y-12790057D01*
X20668428Y-13147200D02*
X20654143Y-13132914D01*
X20625571Y-13090057D01*
X20611286Y-13061486D01*
X20597000Y-13018629D01*
X20582714Y-12947200D01*
X20582714Y-12890057D01*
X20597000Y-12818629D01*
X20611286Y-12775771D01*
X20625571Y-12747200D01*
X20654143Y-12704343D01*
X20668428Y-12690057D01*
X20939857Y-13032914D02*
X20768428Y-13032914D01*
X20854143Y-13032914D02*
X20854143Y-12732914D01*
X20825571Y-12775771D01*
X20797000Y-12804343D01*
X20768428Y-12818629D01*
X21297000Y-13032914D02*
X21297000Y-12732914D01*
X21425571Y-13032914D02*
X21425571Y-12875771D01*
X21411286Y-12847200D01*
X21382714Y-12832914D01*
X21339857Y-12832914D01*
X21311286Y-12847200D01*
X21297000Y-12861486D01*
X21611286Y-13032914D02*
X21582714Y-13018629D01*
X21568428Y-13004343D01*
X21554143Y-12975771D01*
X21554143Y-12890057D01*
X21568428Y-12861486D01*
X21582714Y-12847200D01*
X21611286Y-12832914D01*
X21654143Y-12832914D01*
X21682714Y-12847200D01*
X21697000Y-12861486D01*
X21711286Y-12890057D01*
X21711286Y-12975771D01*
X21697000Y-13004343D01*
X21682714Y-13018629D01*
X21654143Y-13032914D01*
X21611286Y-13032914D01*
X21882714Y-13032914D02*
X21854143Y-13018629D01*
X21839857Y-12990057D01*
X21839857Y-12732914D01*
X22111286Y-13018629D02*
X22082714Y-13032914D01*
X22025571Y-13032914D01*
X21997000Y-13018629D01*
X21982714Y-12990057D01*
X21982714Y-12875771D01*
X21997000Y-12847200D01*
X22025571Y-12832914D01*
X22082714Y-12832914D01*
X22111286Y-12847200D01*
X22125571Y-12875771D01*
X22125571Y-12904343D01*
X21982714Y-12932914D01*
X22225571Y-13147200D02*
X22239857Y-13132914D01*
X22268429Y-13090057D01*
X22282714Y-13061486D01*
X22297000Y-13018629D01*
X22311286Y-12947200D01*
X22311286Y-12890057D01*
X22297000Y-12818629D01*
X22282714Y-12775771D01*
X22268429Y-12747200D01*
X22239857Y-12704343D01*
X22225571Y-12690057D01*
X15946962Y-13343238D02*
X15997000Y-13293200D01*
X15946962Y-13243162D01*
X15896924Y-13293200D01*
X15946962Y-13343238D01*
X16425571Y-13428914D02*
X16254143Y-13428914D01*
X16339857Y-13428914D02*
X16339857Y-13128914D01*
X16311286Y-13171771D01*
X16282714Y-13200343D01*
X16254143Y-13214629D01*
X16554143Y-13400343D02*
X16568428Y-13414629D01*
X16554143Y-13428914D01*
X16539857Y-13414629D01*
X16554143Y-13400343D01*
X16554143Y-13428914D01*
X16754143Y-13128914D02*
X16782714Y-13128914D01*
X16811286Y-13143200D01*
X16825571Y-13157486D01*
X16839857Y-13186057D01*
X16854143Y-13243200D01*
X16854143Y-13314629D01*
X16839857Y-13371771D01*
X16825571Y-13400343D01*
X16811286Y-13414629D01*
X16782714Y-13428914D01*
X16754143Y-13428914D01*
X16725571Y-13414629D01*
X16711286Y-13400343D01*
X16697000Y-13371771D01*
X16682714Y-13314629D01*
X16682714Y-13243200D01*
X16697000Y-13186057D01*
X16711286Y-13157486D01*
X16725571Y-13143200D01*
X16754143Y-13128914D01*
X17039857Y-13128914D02*
X17068429Y-13128914D01*
X17097000Y-13143200D01*
X17111286Y-13157486D01*
X17125571Y-13186057D01*
X17139857Y-13243200D01*
X17139857Y-13314629D01*
X17125571Y-13371771D01*
X17111286Y-13400343D01*
X17097000Y-13414629D01*
X17068429Y-13428914D01*
X17039857Y-13428914D01*
X17011286Y-13414629D01*
X16997000Y-13400343D01*
X16982714Y-13371771D01*
X16968429Y-13314629D01*
X16968429Y-13243200D01*
X16982714Y-13186057D01*
X16997000Y-13157486D01*
X17011286Y-13143200D01*
X17039857Y-13128914D01*
X17268429Y-13428914D02*
X17268429Y-13228914D01*
X17268429Y-13257486D02*
X17282714Y-13243200D01*
X17311286Y-13228914D01*
X17354143Y-13228914D01*
X17382714Y-13243200D01*
X17397000Y-13271771D01*
X17397000Y-13428914D01*
X17397000Y-13271771D02*
X17411286Y-13243200D01*
X17439857Y-13228914D01*
X17482714Y-13228914D01*
X17511286Y-13243200D01*
X17525571Y-13271771D01*
X17525571Y-13428914D01*
X17668429Y-13428914D02*
X17668429Y-13228914D01*
X17668429Y-13257486D02*
X17682714Y-13243200D01*
X17711286Y-13228914D01*
X17754143Y-13228914D01*
X17782714Y-13243200D01*
X17797000Y-13271771D01*
X17797000Y-13428914D01*
X17797000Y-13271771D02*
X17811286Y-13243200D01*
X17839857Y-13228914D01*
X17882714Y-13228914D01*
X17911286Y-13243200D01*
X17925571Y-13271771D01*
X17925571Y-13428914D01*
X18511286Y-13114629D02*
X18254143Y-13500343D01*
X18897000Y-13128914D02*
X18925571Y-13128914D01*
X18954143Y-13143200D01*
X18968428Y-13157486D01*
X18982714Y-13186057D01*
X18997000Y-13243200D01*
X18997000Y-13314629D01*
X18982714Y-13371771D01*
X18968428Y-13400343D01*
X18954143Y-13414629D01*
X18925571Y-13428914D01*
X18897000Y-13428914D01*
X18868428Y-13414629D01*
X18854143Y-13400343D01*
X18839857Y-13371771D01*
X18825571Y-13314629D01*
X18825571Y-13243200D01*
X18839857Y-13186057D01*
X18854143Y-13157486D01*
X18868428Y-13143200D01*
X18897000Y-13128914D01*
X19125571Y-13400343D02*
X19139857Y-13414629D01*
X19125571Y-13428914D01*
X19111286Y-13414629D01*
X19125571Y-13400343D01*
X19125571Y-13428914D01*
X19325571Y-13128914D02*
X19354143Y-13128914D01*
X19382714Y-13143200D01*
X19397000Y-13157486D01*
X19411286Y-13186057D01*
X19425571Y-13243200D01*
X19425571Y-13314629D01*
X19411286Y-13371771D01*
X19397000Y-13400343D01*
X19382714Y-13414629D01*
X19354143Y-13428914D01*
X19325571Y-13428914D01*
X19297000Y-13414629D01*
X19282714Y-13400343D01*
X19268428Y-13371771D01*
X19254143Y-13314629D01*
X19254143Y-13243200D01*
X19268428Y-13186057D01*
X19282714Y-13157486D01*
X19297000Y-13143200D01*
X19325571Y-13128914D01*
X19525571Y-13128914D02*
X19711286Y-13128914D01*
X19611286Y-13243200D01*
X19654143Y-13243200D01*
X19682714Y-13257486D01*
X19697000Y-13271771D01*
X19711286Y-13300343D01*
X19711286Y-13371771D01*
X19697000Y-13400343D01*
X19682714Y-13414629D01*
X19654143Y-13428914D01*
X19568428Y-13428914D01*
X19539857Y-13414629D01*
X19525571Y-13400343D01*
X19854143Y-13428914D02*
X19911286Y-13428914D01*
X19939857Y-13414629D01*
X19954143Y-13400343D01*
X19982714Y-13357486D01*
X19997000Y-13300343D01*
X19997000Y-13186057D01*
X19982714Y-13157486D01*
X19968428Y-13143200D01*
X19939857Y-13128914D01*
X19882714Y-13128914D01*
X19854143Y-13143200D01*
X19839857Y-13157486D01*
X19825571Y-13186057D01*
X19825571Y-13257486D01*
X19839857Y-13286057D01*
X19854143Y-13300343D01*
X19882714Y-13314629D01*
X19939857Y-13314629D01*
X19968428Y-13300343D01*
X19982714Y-13286057D01*
X19997000Y-13257486D01*
X20111286Y-13128914D02*
X20111286Y-13186057D01*
X20225571Y-13128914D02*
X20225571Y-13186057D01*
X20668428Y-13543200D02*
X20654143Y-13528914D01*
X20625571Y-13486057D01*
X20611286Y-13457486D01*
X20597000Y-13414629D01*
X20582714Y-13343200D01*
X20582714Y-13286057D01*
X20597000Y-13214629D01*
X20611286Y-13171771D01*
X20625571Y-13143200D01*
X20654143Y-13100343D01*
X20668428Y-13086057D01*
X20911286Y-13228914D02*
X20911286Y-13428914D01*
X20839857Y-13114629D02*
X20768428Y-13328914D01*
X20954143Y-13328914D01*
X21211286Y-13128914D02*
X21068428Y-13128914D01*
X21054143Y-13271771D01*
X21068428Y-13257486D01*
X21097000Y-13243200D01*
X21168428Y-13243200D01*
X21197000Y-13257486D01*
X21211286Y-13271771D01*
X21225571Y-13300343D01*
X21225571Y-13371771D01*
X21211286Y-13400343D01*
X21197000Y-13414629D01*
X21168428Y-13428914D01*
X21097000Y-13428914D01*
X21068428Y-13414629D01*
X21054143Y-13400343D01*
X21582714Y-13428914D02*
X21582714Y-13128914D01*
X21711286Y-13428914D02*
X21711286Y-13271771D01*
X21697000Y-13243200D01*
X21668428Y-13228914D01*
X21625571Y-13228914D01*
X21597000Y-13243200D01*
X21582714Y-13257486D01*
X21897000Y-13428914D02*
X21868428Y-13414629D01*
X21854143Y-13400343D01*
X21839857Y-13371771D01*
X21839857Y-13286057D01*
X21854143Y-13257486D01*
X21868428Y-13243200D01*
X21897000Y-13228914D01*
X21939857Y-13228914D01*
X21968428Y-13243200D01*
X21982714Y-13257486D01*
X21997000Y-13286057D01*
X21997000Y-13371771D01*
X21982714Y-13400343D01*
X21968428Y-13414629D01*
X21939857Y-13428914D01*
X21897000Y-13428914D01*
X22168428Y-13428914D02*
X22139857Y-13414629D01*
X22125571Y-13386057D01*
X22125571Y-13128914D01*
X22397000Y-13414629D02*
X22368429Y-13428914D01*
X22311286Y-13428914D01*
X22282714Y-13414629D01*
X22268429Y-13386057D01*
X22268429Y-13271771D01*
X22282714Y-13243200D01*
X22311286Y-13228914D01*
X22368429Y-13228914D01*
X22397000Y-13243200D01*
X22411286Y-13271771D01*
X22411286Y-13300343D01*
X22268429Y-13328914D01*
X22525571Y-13414629D02*
X22554143Y-13428914D01*
X22611286Y-13428914D01*
X22639857Y-13414629D01*
X22654143Y-13386057D01*
X22654143Y-13371771D01*
X22639857Y-13343200D01*
X22611286Y-13328914D01*
X22568428Y-13328914D01*
X22539857Y-13314629D01*
X22525571Y-13286057D01*
X22525571Y-13271771D01*
X22539857Y-13243200D01*
X22568428Y-13228914D01*
X22611286Y-13228914D01*
X22639857Y-13243200D01*
X22754143Y-13543200D02*
X22768428Y-13528914D01*
X22797000Y-13486057D01*
X22811286Y-13457486D01*
X22825571Y-13414629D01*
X22839857Y-13343200D01*
X22839857Y-13286057D01*
X22825571Y-13214629D01*
X22811286Y-13171771D01*
X22797000Y-13143200D01*
X22768428Y-13100343D01*
X22754143Y-13086057D01*
X15895400Y-13638400D02*
X15997000Y-13740000D01*
X15997000Y-13638400D02*
X15895400Y-13740000D01*
X15997000Y-13689200D02*
G75*
G03X15997000Y-13689200I-50800J0D01*
G01*
X16425571Y-13824914D02*
X16254143Y-13824914D01*
X16339857Y-13824914D02*
X16339857Y-13524914D01*
X16311286Y-13567771D01*
X16282714Y-13596343D01*
X16254143Y-13610629D01*
X16554143Y-13796343D02*
X16568428Y-13810629D01*
X16554143Y-13824914D01*
X16539857Y-13810629D01*
X16554143Y-13796343D01*
X16554143Y-13824914D01*
X16754143Y-13524914D02*
X16782714Y-13524914D01*
X16811286Y-13539200D01*
X16825571Y-13553486D01*
X16839857Y-13582057D01*
X16854143Y-13639200D01*
X16854143Y-13710629D01*
X16839857Y-13767771D01*
X16825571Y-13796343D01*
X16811286Y-13810629D01*
X16782714Y-13824914D01*
X16754143Y-13824914D01*
X16725571Y-13810629D01*
X16711286Y-13796343D01*
X16697000Y-13767771D01*
X16682714Y-13710629D01*
X16682714Y-13639200D01*
X16697000Y-13582057D01*
X16711286Y-13553486D01*
X16725571Y-13539200D01*
X16754143Y-13524914D01*
X16968429Y-13553486D02*
X16982714Y-13539200D01*
X17011286Y-13524914D01*
X17082714Y-13524914D01*
X17111286Y-13539200D01*
X17125571Y-13553486D01*
X17139857Y-13582057D01*
X17139857Y-13610629D01*
X17125571Y-13653486D01*
X16954143Y-13824914D01*
X17139857Y-13824914D01*
X17268429Y-13824914D02*
X17268429Y-13624914D01*
X17268429Y-13653486D02*
X17282714Y-13639200D01*
X17311286Y-13624914D01*
X17354143Y-13624914D01*
X17382714Y-13639200D01*
X17397000Y-13667771D01*
X17397000Y-13824914D01*
X17397000Y-13667771D02*
X17411286Y-13639200D01*
X17439857Y-13624914D01*
X17482714Y-13624914D01*
X17511286Y-13639200D01*
X17525571Y-13667771D01*
X17525571Y-13824914D01*
X17668429Y-13824914D02*
X17668429Y-13624914D01*
X17668429Y-13653486D02*
X17682714Y-13639200D01*
X17711286Y-13624914D01*
X17754143Y-13624914D01*
X17782714Y-13639200D01*
X17797000Y-13667771D01*
X17797000Y-13824914D01*
X17797000Y-13667771D02*
X17811286Y-13639200D01*
X17839857Y-13624914D01*
X17882714Y-13624914D01*
X17911286Y-13639200D01*
X17925571Y-13667771D01*
X17925571Y-13824914D01*
X18511286Y-13510629D02*
X18254143Y-13896343D01*
X18897000Y-13524914D02*
X18925571Y-13524914D01*
X18954143Y-13539200D01*
X18968428Y-13553486D01*
X18982714Y-13582057D01*
X18997000Y-13639200D01*
X18997000Y-13710629D01*
X18982714Y-13767771D01*
X18968428Y-13796343D01*
X18954143Y-13810629D01*
X18925571Y-13824914D01*
X18897000Y-13824914D01*
X18868428Y-13810629D01*
X18854143Y-13796343D01*
X18839857Y-13767771D01*
X18825571Y-13710629D01*
X18825571Y-13639200D01*
X18839857Y-13582057D01*
X18854143Y-13553486D01*
X18868428Y-13539200D01*
X18897000Y-13524914D01*
X19125571Y-13796343D02*
X19139857Y-13810629D01*
X19125571Y-13824914D01*
X19111286Y-13810629D01*
X19125571Y-13796343D01*
X19125571Y-13824914D01*
X19325571Y-13524914D02*
X19354143Y-13524914D01*
X19382714Y-13539200D01*
X19397000Y-13553486D01*
X19411286Y-13582057D01*
X19425571Y-13639200D01*
X19425571Y-13710629D01*
X19411286Y-13767771D01*
X19397000Y-13796343D01*
X19382714Y-13810629D01*
X19354143Y-13824914D01*
X19325571Y-13824914D01*
X19297000Y-13810629D01*
X19282714Y-13796343D01*
X19268428Y-13767771D01*
X19254143Y-13710629D01*
X19254143Y-13639200D01*
X19268428Y-13582057D01*
X19282714Y-13553486D01*
X19297000Y-13539200D01*
X19325571Y-13524914D01*
X19682714Y-13624914D02*
X19682714Y-13824914D01*
X19611286Y-13510629D02*
X19539857Y-13724914D01*
X19725571Y-13724914D01*
X19897000Y-13524914D02*
X19925571Y-13524914D01*
X19954143Y-13539200D01*
X19968428Y-13553486D01*
X19982714Y-13582057D01*
X19997000Y-13639200D01*
X19997000Y-13710629D01*
X19982714Y-13767771D01*
X19968428Y-13796343D01*
X19954143Y-13810629D01*
X19925571Y-13824914D01*
X19897000Y-13824914D01*
X19868428Y-13810629D01*
X19854143Y-13796343D01*
X19839857Y-13767771D01*
X19825571Y-13710629D01*
X19825571Y-13639200D01*
X19839857Y-13582057D01*
X19854143Y-13553486D01*
X19868428Y-13539200D01*
X19897000Y-13524914D01*
X20111286Y-13524914D02*
X20111286Y-13582057D01*
X20225571Y-13524914D02*
X20225571Y-13582057D01*
X20668428Y-13939200D02*
X20654143Y-13924914D01*
X20625571Y-13882057D01*
X20611286Y-13853486D01*
X20597000Y-13810629D01*
X20582714Y-13739200D01*
X20582714Y-13682057D01*
X20597000Y-13610629D01*
X20611286Y-13567771D01*
X20625571Y-13539200D01*
X20654143Y-13496343D01*
X20668428Y-13482057D01*
X20911286Y-13624914D02*
X20911286Y-13824914D01*
X20839857Y-13510629D02*
X20768428Y-13724914D01*
X20954143Y-13724914D01*
X21039857Y-13524914D02*
X21239857Y-13524914D01*
X21111286Y-13824914D01*
X21582714Y-13824914D02*
X21582714Y-13524914D01*
X21711286Y-13824914D02*
X21711286Y-13667771D01*
X21697000Y-13639200D01*
X21668428Y-13624914D01*
X21625571Y-13624914D01*
X21597000Y-13639200D01*
X21582714Y-13653486D01*
X21897000Y-13824914D02*
X21868428Y-13810629D01*
X21854143Y-13796343D01*
X21839857Y-13767771D01*
X21839857Y-13682057D01*
X21854143Y-13653486D01*
X21868428Y-13639200D01*
X21897000Y-13624914D01*
X21939857Y-13624914D01*
X21968428Y-13639200D01*
X21982714Y-13653486D01*
X21997000Y-13682057D01*
X21997000Y-13767771D01*
X21982714Y-13796343D01*
X21968428Y-13810629D01*
X21939857Y-13824914D01*
X21897000Y-13824914D01*
X22168428Y-13824914D02*
X22139857Y-13810629D01*
X22125571Y-13782057D01*
X22125571Y-13524914D01*
X22397000Y-13810629D02*
X22368429Y-13824914D01*
X22311286Y-13824914D01*
X22282714Y-13810629D01*
X22268429Y-13782057D01*
X22268429Y-13667771D01*
X22282714Y-13639200D01*
X22311286Y-13624914D01*
X22368429Y-13624914D01*
X22397000Y-13639200D01*
X22411286Y-13667771D01*
X22411286Y-13696343D01*
X22268429Y-13724914D01*
X22525571Y-13810629D02*
X22554143Y-13824914D01*
X22611286Y-13824914D01*
X22639857Y-13810629D01*
X22654143Y-13782057D01*
X22654143Y-13767771D01*
X22639857Y-13739200D01*
X22611286Y-13724914D01*
X22568428Y-13724914D01*
X22539857Y-13710629D01*
X22525571Y-13682057D01*
X22525571Y-13667771D01*
X22539857Y-13639200D01*
X22568428Y-13624914D01*
X22611286Y-13624914D01*
X22639857Y-13639200D01*
X22754143Y-13939200D02*
X22768428Y-13924914D01*
X22797000Y-13882057D01*
X22811286Y-13853486D01*
X22825571Y-13810629D01*
X22839857Y-13739200D01*
X22839857Y-13682057D01*
X22825571Y-13610629D01*
X22811286Y-13567771D01*
X22797000Y-13539200D01*
X22768428Y-13496343D01*
X22754143Y-13482057D01*
X15844600Y-14009000D02*
X15997000Y-14161400D01*
X15997000Y-14009000D02*
X15844600Y-14161400D01*
X15920800Y-14009000D02*
X15920800Y-14161400D01*
X15844600Y-14085200D02*
X15997000Y-14085200D01*
X16425571Y-14220914D02*
X16254143Y-14220914D01*
X16339857Y-14220914D02*
X16339857Y-13920914D01*
X16311286Y-13963771D01*
X16282714Y-13992343D01*
X16254143Y-14006629D01*
X16554143Y-14192343D02*
X16568428Y-14206629D01*
X16554143Y-14220914D01*
X16539857Y-14206629D01*
X16554143Y-14192343D01*
X16554143Y-14220914D01*
X16839857Y-13920914D02*
X16697000Y-13920914D01*
X16682714Y-14063771D01*
X16697000Y-14049486D01*
X16725571Y-14035200D01*
X16797000Y-14035200D01*
X16825571Y-14049486D01*
X16839857Y-14063771D01*
X16854143Y-14092343D01*
X16854143Y-14163771D01*
X16839857Y-14192343D01*
X16825571Y-14206629D01*
X16797000Y-14220914D01*
X16725571Y-14220914D01*
X16697000Y-14206629D01*
X16682714Y-14192343D01*
X16968429Y-13949486D02*
X16982714Y-13935200D01*
X17011286Y-13920914D01*
X17082714Y-13920914D01*
X17111286Y-13935200D01*
X17125571Y-13949486D01*
X17139857Y-13978057D01*
X17139857Y-14006629D01*
X17125571Y-14049486D01*
X16954143Y-14220914D01*
X17139857Y-14220914D01*
X17268429Y-14220914D02*
X17268429Y-14020914D01*
X17268429Y-14049486D02*
X17282714Y-14035200D01*
X17311286Y-14020914D01*
X17354143Y-14020914D01*
X17382714Y-14035200D01*
X17397000Y-14063771D01*
X17397000Y-14220914D01*
X17397000Y-14063771D02*
X17411286Y-14035200D01*
X17439857Y-14020914D01*
X17482714Y-14020914D01*
X17511286Y-14035200D01*
X17525571Y-14063771D01*
X17525571Y-14220914D01*
X17668429Y-14220914D02*
X17668429Y-14020914D01*
X17668429Y-14049486D02*
X17682714Y-14035200D01*
X17711286Y-14020914D01*
X17754143Y-14020914D01*
X17782714Y-14035200D01*
X17797000Y-14063771D01*
X17797000Y-14220914D01*
X17797000Y-14063771D02*
X17811286Y-14035200D01*
X17839857Y-14020914D01*
X17882714Y-14020914D01*
X17911286Y-14035200D01*
X17925571Y-14063771D01*
X17925571Y-14220914D01*
X18511286Y-13906629D02*
X18254143Y-14292343D01*
X18897000Y-13920914D02*
X18925571Y-13920914D01*
X18954143Y-13935200D01*
X18968428Y-13949486D01*
X18982714Y-13978057D01*
X18997000Y-14035200D01*
X18997000Y-14106629D01*
X18982714Y-14163771D01*
X18968428Y-14192343D01*
X18954143Y-14206629D01*
X18925571Y-14220914D01*
X18897000Y-14220914D01*
X18868428Y-14206629D01*
X18854143Y-14192343D01*
X18839857Y-14163771D01*
X18825571Y-14106629D01*
X18825571Y-14035200D01*
X18839857Y-13978057D01*
X18854143Y-13949486D01*
X18868428Y-13935200D01*
X18897000Y-13920914D01*
X19125571Y-14192343D02*
X19139857Y-14206629D01*
X19125571Y-14220914D01*
X19111286Y-14206629D01*
X19125571Y-14192343D01*
X19125571Y-14220914D01*
X19325571Y-13920914D02*
X19354143Y-13920914D01*
X19382714Y-13935200D01*
X19397000Y-13949486D01*
X19411286Y-13978057D01*
X19425571Y-14035200D01*
X19425571Y-14106629D01*
X19411286Y-14163771D01*
X19397000Y-14192343D01*
X19382714Y-14206629D01*
X19354143Y-14220914D01*
X19325571Y-14220914D01*
X19297000Y-14206629D01*
X19282714Y-14192343D01*
X19268428Y-14163771D01*
X19254143Y-14106629D01*
X19254143Y-14035200D01*
X19268428Y-13978057D01*
X19282714Y-13949486D01*
X19297000Y-13935200D01*
X19325571Y-13920914D01*
X19682714Y-13920914D02*
X19625571Y-13920914D01*
X19597000Y-13935200D01*
X19582714Y-13949486D01*
X19554143Y-13992343D01*
X19539857Y-14049486D01*
X19539857Y-14163771D01*
X19554143Y-14192343D01*
X19568428Y-14206629D01*
X19597000Y-14220914D01*
X19654143Y-14220914D01*
X19682714Y-14206629D01*
X19697000Y-14192343D01*
X19711286Y-14163771D01*
X19711286Y-14092343D01*
X19697000Y-14063771D01*
X19682714Y-14049486D01*
X19654143Y-14035200D01*
X19597000Y-14035200D01*
X19568428Y-14049486D01*
X19554143Y-14063771D01*
X19539857Y-14092343D01*
X19897000Y-13920914D02*
X19925571Y-13920914D01*
X19954143Y-13935200D01*
X19968428Y-13949486D01*
X19982714Y-13978057D01*
X19997000Y-14035200D01*
X19997000Y-14106629D01*
X19982714Y-14163771D01*
X19968428Y-14192343D01*
X19954143Y-14206629D01*
X19925571Y-14220914D01*
X19897000Y-14220914D01*
X19868428Y-14206629D01*
X19854143Y-14192343D01*
X19839857Y-14163771D01*
X19825571Y-14106629D01*
X19825571Y-14035200D01*
X19839857Y-13978057D01*
X19854143Y-13949486D01*
X19868428Y-13935200D01*
X19897000Y-13920914D01*
X20111286Y-13920914D02*
X20111286Y-13978057D01*
X20225571Y-13920914D02*
X20225571Y-13978057D01*
X20668428Y-14335200D02*
X20654143Y-14320914D01*
X20625571Y-14278057D01*
X20611286Y-14249486D01*
X20597000Y-14206629D01*
X20582714Y-14135200D01*
X20582714Y-14078057D01*
X20597000Y-14006629D01*
X20611286Y-13963771D01*
X20625571Y-13935200D01*
X20654143Y-13892343D01*
X20668428Y-13878057D01*
X20939857Y-14220914D02*
X20768428Y-14220914D01*
X20854143Y-14220914D02*
X20854143Y-13920914D01*
X20825571Y-13963771D01*
X20797000Y-13992343D01*
X20768428Y-14006629D01*
X21225571Y-14220914D02*
X21054143Y-14220914D01*
X21139857Y-14220914D02*
X21139857Y-13920914D01*
X21111286Y-13963771D01*
X21082714Y-13992343D01*
X21054143Y-14006629D01*
X21582714Y-14220914D02*
X21582714Y-13920914D01*
X21711286Y-14220914D02*
X21711286Y-14063771D01*
X21697000Y-14035200D01*
X21668428Y-14020914D01*
X21625571Y-14020914D01*
X21597000Y-14035200D01*
X21582714Y-14049486D01*
X21897000Y-14220914D02*
X21868428Y-14206629D01*
X21854143Y-14192343D01*
X21839857Y-14163771D01*
X21839857Y-14078057D01*
X21854143Y-14049486D01*
X21868428Y-14035200D01*
X21897000Y-14020914D01*
X21939857Y-14020914D01*
X21968428Y-14035200D01*
X21982714Y-14049486D01*
X21997000Y-14078057D01*
X21997000Y-14163771D01*
X21982714Y-14192343D01*
X21968428Y-14206629D01*
X21939857Y-14220914D01*
X21897000Y-14220914D01*
X22168428Y-14220914D02*
X22139857Y-14206629D01*
X22125571Y-14178057D01*
X22125571Y-13920914D01*
X22397000Y-14206629D02*
X22368429Y-14220914D01*
X22311286Y-14220914D01*
X22282714Y-14206629D01*
X22268429Y-14178057D01*
X22268429Y-14063771D01*
X22282714Y-14035200D01*
X22311286Y-14020914D01*
X22368429Y-14020914D01*
X22397000Y-14035200D01*
X22411286Y-14063771D01*
X22411286Y-14092343D01*
X22268429Y-14120914D01*
X22525571Y-14206629D02*
X22554143Y-14220914D01*
X22611286Y-14220914D01*
X22639857Y-14206629D01*
X22654143Y-14178057D01*
X22654143Y-14163771D01*
X22639857Y-14135200D01*
X22611286Y-14120914D01*
X22568428Y-14120914D01*
X22539857Y-14106629D01*
X22525571Y-14078057D01*
X22525571Y-14063771D01*
X22539857Y-14035200D01*
X22568428Y-14020914D01*
X22611286Y-14020914D01*
X22639857Y-14035200D01*
X22754143Y-14335200D02*
X22768428Y-14320914D01*
X22797000Y-14278057D01*
X22811286Y-14249486D01*
X22825571Y-14206629D01*
X22839857Y-14135200D01*
X22839857Y-14078057D01*
X22825571Y-14006629D01*
X22811286Y-13963771D01*
X22797000Y-13935200D01*
X22768428Y-13892343D01*
X22754143Y-13878057D01*
M02*
