G04 #@! TF.FileFunction,Legend,Top*
%FSLAX46Y46*%
G04 Gerber Fmt 4.6, Leading zero omitted, Abs format (unit mm)*
G04 Created by KiCad (PCBNEW 4.0.2+dfsg1-stable) date dim. 24 juil. 2016 18:32:08 CEST*
%MOMM*%
G01*
G04 APERTURE LIST*
%ADD10C,0.100000*%
%ADD11C,0.304800*%
%ADD12C,0.254000*%
%ADD13C,0.150000*%
G04 APERTURE END LIST*
D10*
D11*
X228008000Y-95588000D02*
G75*
G03X228308000Y-95288000I0J300000D01*
G01*
X228308000Y-95288000D02*
G75*
G03X228008000Y-94988000I-300000J0D01*
G01*
X228008000Y-95588000D02*
G75*
G03X227708000Y-95888000I0J-300000D01*
G01*
X227708000Y-95888000D02*
G75*
G03X228008000Y-96188000I300000J0D01*
G01*
X229908000Y-93688000D02*
G75*
G03X230208000Y-93988000I300000J0D01*
G01*
X230208000Y-93388000D02*
G75*
G03X229908000Y-93688000I0J-300000D01*
G01*
X230508000Y-93088000D02*
G75*
G03X230208000Y-92788000I-300000J0D01*
G01*
X230208000Y-93388000D02*
G75*
G03X230508000Y-93088000I0J300000D01*
G01*
X230208000Y-96188000D02*
X230208000Y-94988000D01*
X228008000Y-93988000D02*
X228008000Y-92788000D01*
X228608000Y-93388000D02*
X227408000Y-93388000D01*
D12*
X233426672Y-94488000D02*
G75*
G03X233426672Y-94488000I-4318672J0D01*
G01*
D11*
X239114919Y-73559081D02*
G75*
G03X238814919Y-73859081I0J-300000D01*
G01*
X238814919Y-73859081D02*
G75*
G03X239114919Y-74159081I300000J0D01*
G01*
X239114919Y-73559081D02*
G75*
G03X239414919Y-73259081I0J300000D01*
G01*
X239414919Y-73259081D02*
G75*
G03X239114919Y-72959081I-300000J0D01*
G01*
X237214919Y-75459081D02*
G75*
G03X236914919Y-75159081I-300000J0D01*
G01*
X236914919Y-75759081D02*
G75*
G03X237214919Y-75459081I0J300000D01*
G01*
X236614919Y-76059081D02*
G75*
G03X236914919Y-76359081I300000J0D01*
G01*
X236914919Y-75759081D02*
G75*
G03X236614919Y-76059081I0J-300000D01*
G01*
X236914919Y-72959081D02*
X236914919Y-74159081D01*
X239114919Y-75159081D02*
X239114919Y-76359081D01*
X238514919Y-75759081D02*
X239714919Y-75759081D01*
D12*
X242333591Y-74659081D02*
G75*
G03X242333591Y-74659081I-4318672J0D01*
G01*
D11*
X229446000Y-51478000D02*
G75*
G03X229146000Y-51778000I0J-300000D01*
G01*
X229146000Y-51778000D02*
G75*
G03X229446000Y-52078000I300000J0D01*
G01*
X229446000Y-51478000D02*
G75*
G03X229746000Y-51178000I0J300000D01*
G01*
X229746000Y-51178000D02*
G75*
G03X229446000Y-50878000I-300000J0D01*
G01*
X227546000Y-53378000D02*
G75*
G03X227246000Y-53078000I-300000J0D01*
G01*
X227246000Y-53678000D02*
G75*
G03X227546000Y-53378000I0J300000D01*
G01*
X226946000Y-53978000D02*
G75*
G03X227246000Y-54278000I300000J0D01*
G01*
X227246000Y-53678000D02*
G75*
G03X226946000Y-53978000I0J-300000D01*
G01*
X227246000Y-50878000D02*
X227246000Y-52078000D01*
X229446000Y-53078000D02*
X229446000Y-54278000D01*
X228846000Y-53678000D02*
X230046000Y-53678000D01*
D12*
X232664672Y-52578000D02*
G75*
G03X232664672Y-52578000I-4318672J0D01*
G01*
D13*
X242316000Y-105156000D02*
X232156000Y-105156000D01*
X242316000Y-106426000D02*
X242316000Y-98806000D01*
X242316000Y-98806000D02*
X232156000Y-98806000D01*
X232156000Y-98806000D02*
X232156000Y-106426000D01*
X232156000Y-106426000D02*
X242316000Y-106426000D01*
X191262000Y-93472000D02*
X196342000Y-93472000D01*
X196342000Y-93472000D02*
X196342000Y-96012000D01*
X196342000Y-96012000D02*
X191262000Y-96012000D01*
X191262000Y-96012000D02*
X191262000Y-93472000D01*
X191262000Y-94742000D02*
X189992000Y-94742000D01*
X196342000Y-94742000D02*
X197612000Y-94742000D01*
X177562000Y-81010000D02*
X177562000Y-74010000D01*
X177562000Y-74010000D02*
X179562000Y-74010000D01*
X179562000Y-74010000D02*
X179562000Y-81010000D01*
X179562000Y-81010000D02*
X177562000Y-81010000D01*
X250698000Y-95758000D02*
X243078000Y-95758000D01*
X250698000Y-80518000D02*
X243078000Y-80518000D01*
X249428000Y-95758000D02*
X249428000Y-80518000D01*
X243078000Y-95758000D02*
X243078000Y-80518000D01*
X250698000Y-95758000D02*
X250698000Y-80518000D01*
X219317000Y-95331000D02*
X219317000Y-105329000D01*
X219457000Y-95335000D02*
X219457000Y-105325000D01*
X219597000Y-95343000D02*
X219597000Y-105317000D01*
X219737000Y-95355000D02*
X219737000Y-105305000D01*
X219877000Y-95370000D02*
X219877000Y-105290000D01*
X220017000Y-95390000D02*
X220017000Y-105270000D01*
X220157000Y-95414000D02*
X220157000Y-105246000D01*
X220297000Y-95443000D02*
X220297000Y-105217000D01*
X220437000Y-95475000D02*
X220437000Y-105185000D01*
X220577000Y-95512000D02*
X220577000Y-105148000D01*
X220717000Y-95553000D02*
X220717000Y-105107000D01*
X220857000Y-95598000D02*
X220857000Y-99864000D01*
X220857000Y-100796000D02*
X220857000Y-105062000D01*
X220997000Y-95648000D02*
X220997000Y-99663000D01*
X220997000Y-100997000D02*
X220997000Y-105012000D01*
X221137000Y-95703000D02*
X221137000Y-99534000D01*
X221137000Y-101126000D02*
X221137000Y-104957000D01*
X221277000Y-95763000D02*
X221277000Y-99445000D01*
X221277000Y-101215000D02*
X221277000Y-104897000D01*
X221417000Y-95828000D02*
X221417000Y-99384000D01*
X221417000Y-101276000D02*
X221417000Y-104832000D01*
X221557000Y-95898000D02*
X221557000Y-99347000D01*
X221557000Y-101313000D02*
X221557000Y-104762000D01*
X221697000Y-95974000D02*
X221697000Y-99331000D01*
X221697000Y-101329000D02*
X221697000Y-104686000D01*
X221837000Y-96056000D02*
X221837000Y-99335000D01*
X221837000Y-101325000D02*
X221837000Y-104604000D01*
X221977000Y-96144000D02*
X221977000Y-99358000D01*
X221977000Y-101302000D02*
X221977000Y-104516000D01*
X222117000Y-96239000D02*
X222117000Y-99403000D01*
X222117000Y-101257000D02*
X222117000Y-104421000D01*
X222257000Y-96341000D02*
X222257000Y-99473000D01*
X222257000Y-101187000D02*
X222257000Y-104319000D01*
X222397000Y-96451000D02*
X222397000Y-99574000D01*
X222397000Y-101086000D02*
X222397000Y-104209000D01*
X222537000Y-96569000D02*
X222537000Y-99723000D01*
X222537000Y-100937000D02*
X222537000Y-104091000D01*
X222677000Y-96697000D02*
X222677000Y-99975000D01*
X222677000Y-100685000D02*
X222677000Y-103963000D01*
X222817000Y-96834000D02*
X222817000Y-103826000D01*
X222957000Y-96984000D02*
X222957000Y-103676000D01*
X223097000Y-97146000D02*
X223097000Y-103514000D01*
X223237000Y-97323000D02*
X223237000Y-103337000D01*
X223377000Y-97519000D02*
X223377000Y-103141000D01*
X223517000Y-97737000D02*
X223517000Y-102923000D01*
X223657000Y-97983000D02*
X223657000Y-102677000D01*
X223797000Y-98268000D02*
X223797000Y-102392000D01*
X223937000Y-98610000D02*
X223937000Y-102050000D01*
X224077000Y-99056000D02*
X224077000Y-101604000D01*
X224217000Y-99831000D02*
X224217000Y-100829000D01*
X222742000Y-100330000D02*
G75*
G03X222742000Y-100330000I-1000000J0D01*
G01*
X224279500Y-100330000D02*
G75*
G03X224279500Y-100330000I-5037500J0D01*
G01*
X180498000Y-92948000D02*
X173498000Y-92948000D01*
X173498000Y-92948000D02*
X173498000Y-90948000D01*
X173498000Y-90948000D02*
X180498000Y-90948000D01*
X180498000Y-90948000D02*
X180498000Y-92948000D01*
X160798000Y-91964000D02*
X167798000Y-91964000D01*
X167798000Y-91964000D02*
X167798000Y-93964000D01*
X167798000Y-93964000D02*
X160798000Y-93964000D01*
X160798000Y-93964000D02*
X160798000Y-91964000D01*
X222951000Y-52673000D02*
X215453000Y-52673000D01*
X222946000Y-52813000D02*
X215458000Y-52813000D01*
X222935000Y-52953000D02*
X219648000Y-52953000D01*
X218756000Y-52953000D02*
X215469000Y-52953000D01*
X222919000Y-53093000D02*
X219858000Y-53093000D01*
X218546000Y-53093000D02*
X215485000Y-53093000D01*
X222898000Y-53233000D02*
X219991000Y-53233000D01*
X218413000Y-53233000D02*
X215506000Y-53233000D01*
X222871000Y-53373000D02*
X220082000Y-53373000D01*
X218322000Y-53373000D02*
X215533000Y-53373000D01*
X222839000Y-53513000D02*
X220144000Y-53513000D01*
X218260000Y-53513000D02*
X215565000Y-53513000D01*
X222801000Y-53653000D02*
X220183000Y-53653000D01*
X218221000Y-53653000D02*
X215603000Y-53653000D01*
X222757000Y-53793000D02*
X220200000Y-53793000D01*
X218204000Y-53793000D02*
X215647000Y-53793000D01*
X222706000Y-53933000D02*
X220198000Y-53933000D01*
X218206000Y-53933000D02*
X215698000Y-53933000D01*
X222650000Y-54073000D02*
X220176000Y-54073000D01*
X218228000Y-54073000D02*
X215754000Y-54073000D01*
X222586000Y-54213000D02*
X220133000Y-54213000D01*
X218271000Y-54213000D02*
X215818000Y-54213000D01*
X222516000Y-54353000D02*
X220065000Y-54353000D01*
X218339000Y-54353000D02*
X215888000Y-54353000D01*
X222438000Y-54493000D02*
X219966000Y-54493000D01*
X218438000Y-54493000D02*
X215966000Y-54493000D01*
X222352000Y-54633000D02*
X219821000Y-54633000D01*
X218583000Y-54633000D02*
X216052000Y-54633000D01*
X222257000Y-54773000D02*
X219582000Y-54773000D01*
X218822000Y-54773000D02*
X216147000Y-54773000D01*
X222152000Y-54913000D02*
X216252000Y-54913000D01*
X222037000Y-55053000D02*
X216367000Y-55053000D01*
X221909000Y-55193000D02*
X216495000Y-55193000D01*
X221768000Y-55333000D02*
X216636000Y-55333000D01*
X221610000Y-55473000D02*
X216794000Y-55473000D01*
X221432000Y-55613000D02*
X216972000Y-55613000D01*
X221229000Y-55753000D02*
X217175000Y-55753000D01*
X220992000Y-55893000D02*
X217412000Y-55893000D01*
X220706000Y-56033000D02*
X217698000Y-56033000D01*
X220334000Y-56173000D02*
X218070000Y-56173000D01*
X219713000Y-56313000D02*
X218691000Y-56313000D01*
X220202000Y-53848000D02*
G75*
G03X220202000Y-53848000I-1000000J0D01*
G01*
X222989500Y-52598000D02*
G75*
G03X222989500Y-52598000I-3787500J0D01*
G01*
X211937000Y-60547000D02*
X205639000Y-60547000D01*
X211931000Y-60687000D02*
X205645000Y-60687000D01*
X211918000Y-60827000D02*
X209234000Y-60827000D01*
X208342000Y-60827000D02*
X205658000Y-60827000D01*
X211899000Y-60967000D02*
X209444000Y-60967000D01*
X208132000Y-60967000D02*
X205677000Y-60967000D01*
X211873000Y-61107000D02*
X209577000Y-61107000D01*
X207999000Y-61107000D02*
X205703000Y-61107000D01*
X211841000Y-61247000D02*
X209668000Y-61247000D01*
X207908000Y-61247000D02*
X205735000Y-61247000D01*
X211802000Y-61387000D02*
X209730000Y-61387000D01*
X207846000Y-61387000D02*
X205774000Y-61387000D01*
X211756000Y-61527000D02*
X209769000Y-61527000D01*
X207807000Y-61527000D02*
X205820000Y-61527000D01*
X211703000Y-61667000D02*
X209786000Y-61667000D01*
X207790000Y-61667000D02*
X205873000Y-61667000D01*
X211641000Y-61807000D02*
X209784000Y-61807000D01*
X207792000Y-61807000D02*
X205935000Y-61807000D01*
X211571000Y-61947000D02*
X209762000Y-61947000D01*
X207814000Y-61947000D02*
X206005000Y-61947000D01*
X211492000Y-62087000D02*
X209719000Y-62087000D01*
X207857000Y-62087000D02*
X206084000Y-62087000D01*
X211404000Y-62227000D02*
X209651000Y-62227000D01*
X207925000Y-62227000D02*
X206172000Y-62227000D01*
X211304000Y-62367000D02*
X209552000Y-62367000D01*
X208024000Y-62367000D02*
X206272000Y-62367000D01*
X211192000Y-62507000D02*
X209407000Y-62507000D01*
X208169000Y-62507000D02*
X206384000Y-62507000D01*
X211067000Y-62647000D02*
X209168000Y-62647000D01*
X208408000Y-62647000D02*
X206509000Y-62647000D01*
X210924000Y-62787000D02*
X206652000Y-62787000D01*
X210762000Y-62927000D02*
X206814000Y-62927000D01*
X210574000Y-63067000D02*
X207002000Y-63067000D01*
X210351000Y-63207000D02*
X207225000Y-63207000D01*
X210075000Y-63347000D02*
X207501000Y-63347000D01*
X209700000Y-63487000D02*
X207876000Y-63487000D01*
X209788000Y-61722000D02*
G75*
G03X209788000Y-61722000I-1000000J0D01*
G01*
X211975500Y-60472000D02*
G75*
G03X211975500Y-60472000I-3187500J0D01*
G01*
X173498000Y-88408000D02*
X180498000Y-88408000D01*
X180498000Y-88408000D02*
X180498000Y-90408000D01*
X180498000Y-90408000D02*
X173498000Y-90408000D01*
X173498000Y-90408000D02*
X173498000Y-88408000D01*
X163418000Y-74692000D02*
X170418000Y-74692000D01*
X170418000Y-74692000D02*
X170418000Y-76692000D01*
X170418000Y-76692000D02*
X163418000Y-76692000D01*
X163418000Y-76692000D02*
X163418000Y-74692000D01*
X164576000Y-62754000D02*
X164576000Y-69754000D01*
X164576000Y-69754000D02*
X162576000Y-69754000D01*
X162576000Y-69754000D02*
X162576000Y-62754000D01*
X162576000Y-62754000D02*
X164576000Y-62754000D01*
X191532000Y-72374000D02*
X191532000Y-65374000D01*
X191532000Y-65374000D02*
X193532000Y-65374000D01*
X193532000Y-65374000D02*
X193532000Y-72374000D01*
X193532000Y-72374000D02*
X191532000Y-72374000D01*
X183230000Y-67580000D02*
X190230000Y-67580000D01*
X190230000Y-67580000D02*
X190230000Y-69580000D01*
X190230000Y-69580000D02*
X183230000Y-69580000D01*
X183230000Y-69580000D02*
X183230000Y-67580000D01*
X200152000Y-76200000D02*
X195072000Y-76200000D01*
X195072000Y-76200000D02*
X195072000Y-78740000D01*
X195072000Y-78740000D02*
X200152000Y-78740000D01*
X202972000Y-79020000D02*
X201422000Y-79020000D01*
X200152000Y-78740000D02*
X200152000Y-76200000D01*
X201422000Y-75920000D02*
X202972000Y-75920000D01*
X202972000Y-75920000D02*
X202972000Y-79020000D01*
X205740000Y-89662000D02*
X200660000Y-89662000D01*
X200660000Y-89662000D02*
X200660000Y-92202000D01*
X200660000Y-92202000D02*
X205740000Y-92202000D01*
X208560000Y-92482000D02*
X207010000Y-92482000D01*
X205740000Y-92202000D02*
X205740000Y-89662000D01*
X207010000Y-89382000D02*
X208560000Y-89382000D01*
X208560000Y-89382000D02*
X208560000Y-92482000D01*
X249428000Y-96266000D02*
X249428000Y-106426000D01*
X250698000Y-96266000D02*
X243078000Y-96266000D01*
X243078000Y-96266000D02*
X243078000Y-106426000D01*
X243078000Y-106426000D02*
X250698000Y-106426000D01*
X250698000Y-106426000D02*
X250698000Y-96266000D01*
X249428000Y-69088000D02*
X249428000Y-79248000D01*
X250698000Y-69088000D02*
X243078000Y-69088000D01*
X243078000Y-69088000D02*
X243078000Y-79248000D01*
X243078000Y-79248000D02*
X250698000Y-79248000D01*
X250698000Y-79248000D02*
X250698000Y-69088000D01*
X233426000Y-49530000D02*
X243586000Y-49530000D01*
X233426000Y-48260000D02*
X233426000Y-55880000D01*
X233426000Y-55880000D02*
X243586000Y-55880000D01*
X243586000Y-55880000D02*
X243586000Y-48260000D01*
X243586000Y-48260000D02*
X233426000Y-48260000D01*
X204216000Y-96774000D02*
X209296000Y-96774000D01*
X209296000Y-96774000D02*
X209296000Y-99314000D01*
X209296000Y-99314000D02*
X204216000Y-99314000D01*
X204216000Y-99314000D02*
X204216000Y-96774000D01*
X204216000Y-98044000D02*
X202946000Y-98044000D01*
X209296000Y-98044000D02*
X210566000Y-98044000D01*
X191262000Y-96774000D02*
X196342000Y-96774000D01*
X196342000Y-96774000D02*
X196342000Y-99314000D01*
X196342000Y-99314000D02*
X191262000Y-99314000D01*
X191262000Y-99314000D02*
X191262000Y-96774000D01*
X191262000Y-98044000D02*
X189992000Y-98044000D01*
X196342000Y-98044000D02*
X197612000Y-98044000D01*
X204216000Y-93472000D02*
X209296000Y-93472000D01*
X209296000Y-93472000D02*
X209296000Y-96012000D01*
X209296000Y-96012000D02*
X204216000Y-96012000D01*
X204216000Y-96012000D02*
X204216000Y-93472000D01*
X204216000Y-94742000D02*
X202946000Y-94742000D01*
X209296000Y-94742000D02*
X210566000Y-94742000D01*
X164338000Y-88392000D02*
X169418000Y-88392000D01*
X169418000Y-88392000D02*
X169418000Y-90932000D01*
X169418000Y-90932000D02*
X164338000Y-90932000D01*
X164338000Y-90932000D02*
X164338000Y-88392000D01*
X164338000Y-89662000D02*
X163068000Y-89662000D01*
X169418000Y-89662000D02*
X170688000Y-89662000D01*
X169418000Y-59436000D02*
X164338000Y-59436000D01*
X164338000Y-59436000D02*
X164338000Y-56896000D01*
X164338000Y-56896000D02*
X169418000Y-56896000D01*
X169418000Y-56896000D02*
X169418000Y-59436000D01*
X169418000Y-58166000D02*
X170688000Y-58166000D01*
X164338000Y-58166000D02*
X163068000Y-58166000D01*
X237490000Y-65024000D02*
X237490000Y-59944000D01*
X237490000Y-59944000D02*
X240030000Y-59944000D01*
X240030000Y-59944000D02*
X240030000Y-65024000D01*
X240030000Y-65024000D02*
X237490000Y-65024000D01*
X238760000Y-65024000D02*
X238760000Y-66294000D01*
X238760000Y-59944000D02*
X238760000Y-58674000D01*
X240792000Y-65024000D02*
X240792000Y-59944000D01*
X240792000Y-59944000D02*
X243332000Y-59944000D01*
X243332000Y-59944000D02*
X243332000Y-65024000D01*
X243332000Y-65024000D02*
X240792000Y-65024000D01*
X242062000Y-65024000D02*
X242062000Y-66294000D01*
X242062000Y-59944000D02*
X242062000Y-58674000D01*
X236982000Y-90170000D02*
X231902000Y-90170000D01*
X231902000Y-90170000D02*
X231902000Y-87630000D01*
X231902000Y-87630000D02*
X236982000Y-87630000D01*
X236982000Y-87630000D02*
X236982000Y-90170000D01*
X236982000Y-88900000D02*
X238252000Y-88900000D01*
X231902000Y-88900000D02*
X230632000Y-88900000D01*
X210312000Y-73660000D02*
X210312000Y-78740000D01*
X210312000Y-78740000D02*
X207772000Y-78740000D01*
X207772000Y-78740000D02*
X207772000Y-73660000D01*
X207772000Y-73660000D02*
X210312000Y-73660000D01*
X209042000Y-73660000D02*
X209042000Y-72390000D01*
X209042000Y-78740000D02*
X209042000Y-80010000D01*
X198374000Y-79756000D02*
X203454000Y-79756000D01*
X203454000Y-79756000D02*
X203454000Y-82296000D01*
X203454000Y-82296000D02*
X198374000Y-82296000D01*
X198374000Y-82296000D02*
X198374000Y-79756000D01*
X198374000Y-81026000D02*
X197104000Y-81026000D01*
X203454000Y-81026000D02*
X204724000Y-81026000D01*
X205994000Y-85598000D02*
X200914000Y-85598000D01*
X200914000Y-85598000D02*
X200914000Y-83058000D01*
X200914000Y-83058000D02*
X205994000Y-83058000D01*
X205994000Y-83058000D02*
X205994000Y-85598000D01*
X205994000Y-84328000D02*
X207264000Y-84328000D01*
X200914000Y-84328000D02*
X199644000Y-84328000D01*
X187960000Y-83058000D02*
X193040000Y-83058000D01*
X193040000Y-83058000D02*
X193040000Y-85598000D01*
X193040000Y-85598000D02*
X187960000Y-85598000D01*
X187960000Y-85598000D02*
X187960000Y-83058000D01*
X187960000Y-84328000D02*
X186690000Y-84328000D01*
X193040000Y-84328000D02*
X194310000Y-84328000D01*
X219456000Y-57658000D02*
X224536000Y-57658000D01*
X224536000Y-57658000D02*
X224536000Y-60198000D01*
X224536000Y-60198000D02*
X219456000Y-60198000D01*
X219456000Y-60198000D02*
X219456000Y-57658000D01*
X219456000Y-58928000D02*
X218186000Y-58928000D01*
X224536000Y-58928000D02*
X225806000Y-58928000D01*
X222758000Y-63500000D02*
X217678000Y-63500000D01*
X217678000Y-63500000D02*
X217678000Y-60960000D01*
X217678000Y-60960000D02*
X222758000Y-60960000D01*
X222758000Y-60960000D02*
X222758000Y-63500000D01*
X222758000Y-62230000D02*
X224028000Y-62230000D01*
X217678000Y-62230000D02*
X216408000Y-62230000D01*
X181745000Y-70095000D02*
X181745000Y-71365000D01*
X189095000Y-70095000D02*
X189095000Y-71365000D01*
X189095000Y-82305000D02*
X189095000Y-81035000D01*
X181745000Y-82305000D02*
X181745000Y-81035000D01*
X181745000Y-70095000D02*
X189095000Y-70095000D01*
X181745000Y-82305000D02*
X189095000Y-82305000D01*
X181745000Y-71365000D02*
X180460000Y-71365000D01*
X164583000Y-86225000D02*
X165853000Y-86225000D01*
X164583000Y-78875000D02*
X165853000Y-78875000D01*
X176793000Y-78875000D02*
X175523000Y-78875000D01*
X176793000Y-86225000D02*
X175523000Y-86225000D01*
X164583000Y-86225000D02*
X164583000Y-78875000D01*
X176793000Y-86225000D02*
X176793000Y-78875000D01*
X165853000Y-86225000D02*
X165853000Y-87510000D01*
X165091000Y-69969000D02*
X166361000Y-69969000D01*
X165091000Y-62619000D02*
X166361000Y-62619000D01*
X177301000Y-62619000D02*
X176031000Y-62619000D01*
X177301000Y-69969000D02*
X176031000Y-69969000D01*
X165091000Y-69969000D02*
X165091000Y-62619000D01*
X177301000Y-69969000D02*
X177301000Y-62619000D01*
X166361000Y-69969000D02*
X166361000Y-71254000D01*
X221742000Y-68834000D02*
X221742000Y-67691000D01*
X218694000Y-68834000D02*
X218694000Y-67691000D01*
X214884000Y-67691000D02*
X214884000Y-64008000D01*
X214884000Y-64008000D02*
X225552000Y-64008000D01*
X225552000Y-64008000D02*
X225552000Y-67691000D01*
X214884000Y-68834000D02*
X214884000Y-67691000D01*
X214884000Y-67691000D02*
X225552000Y-67691000D01*
X225552000Y-67691000D02*
X225552000Y-68834000D01*
X220218000Y-68834000D02*
X225552000Y-68834000D01*
X220218000Y-68834000D02*
X214884000Y-68834000D01*
X194047000Y-73779000D02*
X195317000Y-73779000D01*
X194047000Y-66429000D02*
X195317000Y-66429000D01*
X206257000Y-66429000D02*
X204987000Y-66429000D01*
X206257000Y-73779000D02*
X204987000Y-73779000D01*
X194047000Y-73779000D02*
X194047000Y-66429000D01*
X206257000Y-73779000D02*
X206257000Y-66429000D01*
X195317000Y-73779000D02*
X195317000Y-75064000D01*
X190373000Y-48768000D02*
X213233000Y-48768000D01*
X213233000Y-48768000D02*
X213233000Y-51308000D01*
X213233000Y-51308000D02*
X190373000Y-51308000D01*
X187553000Y-48488000D02*
X189103000Y-48488000D01*
X190373000Y-48768000D02*
X190373000Y-51308000D01*
X189103000Y-51588000D02*
X187553000Y-51588000D01*
X187553000Y-51588000D02*
X187553000Y-48488000D01*
X233124000Y-60970000D02*
X233124000Y-78970000D01*
X233124000Y-78970000D02*
X227124000Y-78970000D01*
X227124000Y-78970000D02*
X227124000Y-60970000D01*
X227124000Y-60970000D02*
X233124000Y-60970000D01*
X250650000Y-49808000D02*
X250650000Y-67808000D01*
X250650000Y-67808000D02*
X244650000Y-67808000D01*
X244650000Y-67808000D02*
X244650000Y-49808000D01*
X244650000Y-49808000D02*
X250650000Y-49808000D01*
D11*
X224082429Y-95612857D02*
X222558429Y-95612857D01*
X222558429Y-95250000D01*
X222631000Y-95032285D01*
X222776143Y-94887143D01*
X222921286Y-94814571D01*
X223211571Y-94742000D01*
X223429286Y-94742000D01*
X223719571Y-94814571D01*
X223864714Y-94887143D01*
X224009857Y-95032285D01*
X224082429Y-95250000D01*
X224082429Y-95612857D01*
X224082429Y-93290571D02*
X224082429Y-94161428D01*
X224082429Y-93726000D02*
X222558429Y-93726000D01*
X222776143Y-93871143D01*
X222921286Y-94016285D01*
X222993857Y-94161428D01*
X244419348Y-75783938D02*
X242895348Y-75783938D01*
X242895348Y-75421081D01*
X242967919Y-75203366D01*
X243113062Y-75058224D01*
X243258205Y-74985652D01*
X243548490Y-74913081D01*
X243766205Y-74913081D01*
X244056490Y-74985652D01*
X244201633Y-75058224D01*
X244346776Y-75203366D01*
X244419348Y-75421081D01*
X244419348Y-75783938D01*
X243040490Y-74332509D02*
X242967919Y-74259938D01*
X242895348Y-74114795D01*
X242895348Y-73751938D01*
X242967919Y-73606795D01*
X243040490Y-73534224D01*
X243185633Y-73461652D01*
X243330776Y-73461652D01*
X243548490Y-73534224D01*
X244419348Y-74405081D01*
X244419348Y-73461652D01*
X230015143Y-58601429D02*
X230015143Y-57077429D01*
X230378000Y-57077429D01*
X230595715Y-57150000D01*
X230740857Y-57295143D01*
X230813429Y-57440286D01*
X230886000Y-57730571D01*
X230886000Y-57948286D01*
X230813429Y-58238571D01*
X230740857Y-58383714D01*
X230595715Y-58528857D01*
X230378000Y-58601429D01*
X230015143Y-58601429D01*
X231394000Y-57077429D02*
X232337429Y-57077429D01*
X231829429Y-57658000D01*
X232047143Y-57658000D01*
X232192286Y-57730571D01*
X232264857Y-57803143D01*
X232337429Y-57948286D01*
X232337429Y-58311143D01*
X232264857Y-58456286D01*
X232192286Y-58528857D01*
X232047143Y-58601429D01*
X231611715Y-58601429D01*
X231466572Y-58528857D01*
X231394000Y-58456286D01*
X149825529Y-48470457D02*
X150043243Y-48543029D01*
X150406100Y-48543029D01*
X150551243Y-48470457D01*
X150623814Y-48397886D01*
X150696386Y-48252743D01*
X150696386Y-48107600D01*
X150623814Y-47962457D01*
X150551243Y-47889886D01*
X150406100Y-47817314D01*
X150115814Y-47744743D01*
X149970672Y-47672171D01*
X149898100Y-47599600D01*
X149825529Y-47454457D01*
X149825529Y-47309314D01*
X149898100Y-47164171D01*
X149970672Y-47091600D01*
X150115814Y-47019029D01*
X150478672Y-47019029D01*
X150696386Y-47091600D01*
X151349529Y-48543029D02*
X151349529Y-47019029D01*
X151349529Y-47744743D02*
X152220386Y-47744743D01*
X152220386Y-48543029D02*
X152220386Y-47019029D01*
X152946100Y-48543029D02*
X152946100Y-47019029D01*
X153671814Y-47744743D02*
X154179814Y-47744743D01*
X154397528Y-48543029D02*
X153671814Y-48543029D01*
X153671814Y-47019029D01*
X154397528Y-47019029D01*
X155776385Y-48543029D02*
X155050671Y-48543029D01*
X155050671Y-47019029D01*
X156284385Y-48543029D02*
X156284385Y-47019029D01*
X156647242Y-47019029D01*
X156864957Y-47091600D01*
X157010099Y-47236743D01*
X157082671Y-47381886D01*
X157155242Y-47672171D01*
X157155242Y-47889886D01*
X157082671Y-48180171D01*
X157010099Y-48325314D01*
X156864957Y-48470457D01*
X156647242Y-48543029D01*
X156284385Y-48543029D01*
X158606671Y-48543029D02*
X157735814Y-48543029D01*
X158171242Y-48543029D02*
X158171242Y-47019029D01*
X158026099Y-47236743D01*
X157880957Y-47381886D01*
X157735814Y-47454457D01*
D13*
X236497905Y-97988381D02*
X236497905Y-96988381D01*
X236878858Y-96988381D01*
X236974096Y-97036000D01*
X237021715Y-97083619D01*
X237069334Y-97178857D01*
X237069334Y-97321714D01*
X237021715Y-97416952D01*
X236974096Y-97464571D01*
X236878858Y-97512190D01*
X236497905Y-97512190D01*
X238021715Y-97988381D02*
X237450286Y-97988381D01*
X237736000Y-97988381D02*
X237736000Y-96988381D01*
X237640762Y-97131238D01*
X237545524Y-97226476D01*
X237450286Y-97274095D01*
X185761334Y-95194381D02*
X185428000Y-94718190D01*
X185189905Y-95194381D02*
X185189905Y-94194381D01*
X185570858Y-94194381D01*
X185666096Y-94242000D01*
X185713715Y-94289619D01*
X185761334Y-94384857D01*
X185761334Y-94527714D01*
X185713715Y-94622952D01*
X185666096Y-94670571D01*
X185570858Y-94718190D01*
X185189905Y-94718190D01*
X186666096Y-94194381D02*
X186189905Y-94194381D01*
X186142286Y-94670571D01*
X186189905Y-94622952D01*
X186285143Y-94575333D01*
X186523239Y-94575333D01*
X186618477Y-94622952D01*
X186666096Y-94670571D01*
X186713715Y-94765810D01*
X186713715Y-95003905D01*
X186666096Y-95099143D01*
X186618477Y-95146762D01*
X186523239Y-95194381D01*
X186285143Y-95194381D01*
X186189905Y-95146762D01*
X186142286Y-95099143D01*
X176887143Y-80398857D02*
X176934762Y-80446476D01*
X176982381Y-80589333D01*
X176982381Y-80684571D01*
X176934762Y-80827429D01*
X176839524Y-80922667D01*
X176744286Y-80970286D01*
X176553810Y-81017905D01*
X176410952Y-81017905D01*
X176220476Y-80970286D01*
X176125238Y-80922667D01*
X176030000Y-80827429D01*
X175982381Y-80684571D01*
X175982381Y-80589333D01*
X176030000Y-80446476D01*
X176077619Y-80398857D01*
X176982381Y-79446476D02*
X176982381Y-80017905D01*
X176982381Y-79732191D02*
X175982381Y-79732191D01*
X176125238Y-79827429D01*
X176220476Y-79922667D01*
X176268095Y-80017905D01*
X175982381Y-79113143D02*
X175982381Y-78494095D01*
X176363333Y-78827429D01*
X176363333Y-78684571D01*
X176410952Y-78589333D01*
X176458571Y-78541714D01*
X176553810Y-78494095D01*
X176791905Y-78494095D01*
X176887143Y-78541714D01*
X176934762Y-78589333D01*
X176982381Y-78684571D01*
X176982381Y-78970286D01*
X176934762Y-79065524D01*
X176887143Y-79113143D01*
X242260381Y-88876095D02*
X241260381Y-88876095D01*
X241260381Y-88495142D01*
X241308000Y-88399904D01*
X241355619Y-88352285D01*
X241450857Y-88304666D01*
X241593714Y-88304666D01*
X241688952Y-88352285D01*
X241736571Y-88399904D01*
X241784190Y-88495142D01*
X241784190Y-88876095D01*
X241260381Y-87971333D02*
X241260381Y-87352285D01*
X241641333Y-87685619D01*
X241641333Y-87542761D01*
X241688952Y-87447523D01*
X241736571Y-87399904D01*
X241831810Y-87352285D01*
X242069905Y-87352285D01*
X242165143Y-87399904D01*
X242212762Y-87447523D01*
X242260381Y-87542761D01*
X242260381Y-87828476D01*
X242212762Y-87923714D01*
X242165143Y-87971333D01*
X219075334Y-94387143D02*
X219027715Y-94434762D01*
X218884858Y-94482381D01*
X218789620Y-94482381D01*
X218646762Y-94434762D01*
X218551524Y-94339524D01*
X218503905Y-94244286D01*
X218456286Y-94053810D01*
X218456286Y-93910952D01*
X218503905Y-93720476D01*
X218551524Y-93625238D01*
X218646762Y-93530000D01*
X218789620Y-93482381D01*
X218884858Y-93482381D01*
X219027715Y-93530000D01*
X219075334Y-93577619D01*
X220027715Y-94482381D02*
X219456286Y-94482381D01*
X219742000Y-94482381D02*
X219742000Y-93482381D01*
X219646762Y-93625238D01*
X219551524Y-93720476D01*
X219456286Y-93768095D01*
X182205334Y-92305143D02*
X182157715Y-92352762D01*
X182014858Y-92400381D01*
X181919620Y-92400381D01*
X181776762Y-92352762D01*
X181681524Y-92257524D01*
X181633905Y-92162286D01*
X181586286Y-91971810D01*
X181586286Y-91828952D01*
X181633905Y-91638476D01*
X181681524Y-91543238D01*
X181776762Y-91448000D01*
X181919620Y-91400381D01*
X182014858Y-91400381D01*
X182157715Y-91448000D01*
X182205334Y-91495619D01*
X182586286Y-91495619D02*
X182633905Y-91448000D01*
X182729143Y-91400381D01*
X182967239Y-91400381D01*
X183062477Y-91448000D01*
X183110096Y-91495619D01*
X183157715Y-91590857D01*
X183157715Y-91686095D01*
X183110096Y-91828952D01*
X182538667Y-92400381D01*
X183157715Y-92400381D01*
X169251334Y-93321143D02*
X169203715Y-93368762D01*
X169060858Y-93416381D01*
X168965620Y-93416381D01*
X168822762Y-93368762D01*
X168727524Y-93273524D01*
X168679905Y-93178286D01*
X168632286Y-92987810D01*
X168632286Y-92844952D01*
X168679905Y-92654476D01*
X168727524Y-92559238D01*
X168822762Y-92464000D01*
X168965620Y-92416381D01*
X169060858Y-92416381D01*
X169203715Y-92464000D01*
X169251334Y-92511619D01*
X169584667Y-92416381D02*
X170203715Y-92416381D01*
X169870381Y-92797333D01*
X170013239Y-92797333D01*
X170108477Y-92844952D01*
X170156096Y-92892571D01*
X170203715Y-92987810D01*
X170203715Y-93225905D01*
X170156096Y-93321143D01*
X170108477Y-93368762D01*
X170013239Y-93416381D01*
X169727524Y-93416381D01*
X169632286Y-93368762D01*
X169584667Y-93321143D01*
X224659143Y-52764666D02*
X224706762Y-52812285D01*
X224754381Y-52955142D01*
X224754381Y-53050380D01*
X224706762Y-53193238D01*
X224611524Y-53288476D01*
X224516286Y-53336095D01*
X224325810Y-53383714D01*
X224182952Y-53383714D01*
X223992476Y-53336095D01*
X223897238Y-53288476D01*
X223802000Y-53193238D01*
X223754381Y-53050380D01*
X223754381Y-52955142D01*
X223802000Y-52812285D01*
X223849619Y-52764666D01*
X223754381Y-51907523D02*
X223754381Y-52098000D01*
X223802000Y-52193238D01*
X223849619Y-52240857D01*
X223992476Y-52336095D01*
X224182952Y-52383714D01*
X224563905Y-52383714D01*
X224659143Y-52336095D01*
X224706762Y-52288476D01*
X224754381Y-52193238D01*
X224754381Y-52002761D01*
X224706762Y-51907523D01*
X224659143Y-51859904D01*
X224563905Y-51812285D01*
X224325810Y-51812285D01*
X224230571Y-51859904D01*
X224182952Y-51907523D01*
X224135333Y-52002761D01*
X224135333Y-52193238D01*
X224182952Y-52288476D01*
X224230571Y-52336095D01*
X224325810Y-52383714D01*
X213545143Y-60638666D02*
X213592762Y-60686285D01*
X213640381Y-60829142D01*
X213640381Y-60924380D01*
X213592762Y-61067238D01*
X213497524Y-61162476D01*
X213402286Y-61210095D01*
X213211810Y-61257714D01*
X213068952Y-61257714D01*
X212878476Y-61210095D01*
X212783238Y-61162476D01*
X212688000Y-61067238D01*
X212640381Y-60924380D01*
X212640381Y-60829142D01*
X212688000Y-60686285D01*
X212735619Y-60638666D01*
X212640381Y-60305333D02*
X212640381Y-59638666D01*
X213640381Y-60067238D01*
X181729143Y-89765143D02*
X181681524Y-89812762D01*
X181538667Y-89860381D01*
X181443429Y-89860381D01*
X181300571Y-89812762D01*
X181205333Y-89717524D01*
X181157714Y-89622286D01*
X181110095Y-89431810D01*
X181110095Y-89288952D01*
X181157714Y-89098476D01*
X181205333Y-89003238D01*
X181300571Y-88908000D01*
X181443429Y-88860381D01*
X181538667Y-88860381D01*
X181681524Y-88908000D01*
X181729143Y-88955619D01*
X182681524Y-89860381D02*
X182110095Y-89860381D01*
X182395809Y-89860381D02*
X182395809Y-88860381D01*
X182300571Y-89003238D01*
X182205333Y-89098476D01*
X182110095Y-89146095D01*
X183300571Y-88860381D02*
X183395810Y-88860381D01*
X183491048Y-88908000D01*
X183538667Y-88955619D01*
X183586286Y-89050857D01*
X183633905Y-89241333D01*
X183633905Y-89479429D01*
X183586286Y-89669905D01*
X183538667Y-89765143D01*
X183491048Y-89812762D01*
X183395810Y-89860381D01*
X183300571Y-89860381D01*
X183205333Y-89812762D01*
X183157714Y-89765143D01*
X183110095Y-89669905D01*
X183062476Y-89479429D01*
X183062476Y-89241333D01*
X183110095Y-89050857D01*
X183157714Y-88955619D01*
X183205333Y-88908000D01*
X183300571Y-88860381D01*
X161155143Y-76049143D02*
X161107524Y-76096762D01*
X160964667Y-76144381D01*
X160869429Y-76144381D01*
X160726571Y-76096762D01*
X160631333Y-76001524D01*
X160583714Y-75906286D01*
X160536095Y-75715810D01*
X160536095Y-75572952D01*
X160583714Y-75382476D01*
X160631333Y-75287238D01*
X160726571Y-75192000D01*
X160869429Y-75144381D01*
X160964667Y-75144381D01*
X161107524Y-75192000D01*
X161155143Y-75239619D01*
X162107524Y-76144381D02*
X161536095Y-76144381D01*
X161821809Y-76144381D02*
X161821809Y-75144381D01*
X161726571Y-75287238D01*
X161631333Y-75382476D01*
X161536095Y-75430095D01*
X163059905Y-76144381D02*
X162488476Y-76144381D01*
X162774190Y-76144381D02*
X162774190Y-75144381D01*
X162678952Y-75287238D01*
X162583714Y-75382476D01*
X162488476Y-75430095D01*
X163933143Y-72444857D02*
X163980762Y-72492476D01*
X164028381Y-72635333D01*
X164028381Y-72730571D01*
X163980762Y-72873429D01*
X163885524Y-72968667D01*
X163790286Y-73016286D01*
X163599810Y-73063905D01*
X163456952Y-73063905D01*
X163266476Y-73016286D01*
X163171238Y-72968667D01*
X163076000Y-72873429D01*
X163028381Y-72730571D01*
X163028381Y-72635333D01*
X163076000Y-72492476D01*
X163123619Y-72444857D01*
X164028381Y-71492476D02*
X164028381Y-72063905D01*
X164028381Y-71778191D02*
X163028381Y-71778191D01*
X163171238Y-71873429D01*
X163266476Y-71968667D01*
X163314095Y-72063905D01*
X163123619Y-71111524D02*
X163076000Y-71063905D01*
X163028381Y-70968667D01*
X163028381Y-70730571D01*
X163076000Y-70635333D01*
X163123619Y-70587714D01*
X163218857Y-70540095D01*
X163314095Y-70540095D01*
X163456952Y-70587714D01*
X164028381Y-71159143D01*
X164028381Y-70540095D01*
X192889143Y-64142857D02*
X192936762Y-64190476D01*
X192984381Y-64333333D01*
X192984381Y-64428571D01*
X192936762Y-64571429D01*
X192841524Y-64666667D01*
X192746286Y-64714286D01*
X192555810Y-64761905D01*
X192412952Y-64761905D01*
X192222476Y-64714286D01*
X192127238Y-64666667D01*
X192032000Y-64571429D01*
X191984381Y-64428571D01*
X191984381Y-64333333D01*
X192032000Y-64190476D01*
X192079619Y-64142857D01*
X192984381Y-63190476D02*
X192984381Y-63761905D01*
X192984381Y-63476191D02*
X191984381Y-63476191D01*
X192127238Y-63571429D01*
X192222476Y-63666667D01*
X192270095Y-63761905D01*
X192317714Y-62333333D02*
X192984381Y-62333333D01*
X191936762Y-62571429D02*
X192651048Y-62809524D01*
X192651048Y-62190476D01*
X186087143Y-66687143D02*
X186039524Y-66734762D01*
X185896667Y-66782381D01*
X185801429Y-66782381D01*
X185658571Y-66734762D01*
X185563333Y-66639524D01*
X185515714Y-66544286D01*
X185468095Y-66353810D01*
X185468095Y-66210952D01*
X185515714Y-66020476D01*
X185563333Y-65925238D01*
X185658571Y-65830000D01*
X185801429Y-65782381D01*
X185896667Y-65782381D01*
X186039524Y-65830000D01*
X186087143Y-65877619D01*
X187039524Y-66782381D02*
X186468095Y-66782381D01*
X186753809Y-66782381D02*
X186753809Y-65782381D01*
X186658571Y-65925238D01*
X186563333Y-66020476D01*
X186468095Y-66068095D01*
X187944286Y-65782381D02*
X187468095Y-65782381D01*
X187420476Y-66258571D01*
X187468095Y-66210952D01*
X187563333Y-66163333D01*
X187801429Y-66163333D01*
X187896667Y-66210952D01*
X187944286Y-66258571D01*
X187991905Y-66353810D01*
X187991905Y-66591905D01*
X187944286Y-66687143D01*
X187896667Y-66734762D01*
X187801429Y-66782381D01*
X187563333Y-66782381D01*
X187468095Y-66734762D01*
X187420476Y-66687143D01*
X205974381Y-78303333D02*
X206688667Y-78303333D01*
X206831524Y-78350953D01*
X206926762Y-78446191D01*
X206974381Y-78589048D01*
X206974381Y-78684286D01*
X206974381Y-77827143D02*
X205974381Y-77827143D01*
X205974381Y-77446190D01*
X206022000Y-77350952D01*
X206069619Y-77303333D01*
X206164857Y-77255714D01*
X206307714Y-77255714D01*
X206402952Y-77303333D01*
X206450571Y-77350952D01*
X206498190Y-77446190D01*
X206498190Y-77827143D01*
X206974381Y-76303333D02*
X206974381Y-76874762D01*
X206974381Y-76589048D02*
X205974381Y-76589048D01*
X206117238Y-76684286D01*
X206212476Y-76779524D01*
X206260095Y-76874762D01*
X211562381Y-91765333D02*
X212276667Y-91765333D01*
X212419524Y-91812953D01*
X212514762Y-91908191D01*
X212562381Y-92051048D01*
X212562381Y-92146286D01*
X212562381Y-91289143D02*
X211562381Y-91289143D01*
X211562381Y-90908190D01*
X211610000Y-90812952D01*
X211657619Y-90765333D01*
X211752857Y-90717714D01*
X211895714Y-90717714D01*
X211990952Y-90765333D01*
X212038571Y-90812952D01*
X212086190Y-90908190D01*
X212086190Y-91289143D01*
X211657619Y-90336762D02*
X211610000Y-90289143D01*
X211562381Y-90193905D01*
X211562381Y-89955809D01*
X211610000Y-89860571D01*
X211657619Y-89812952D01*
X211752857Y-89765333D01*
X211848095Y-89765333D01*
X211990952Y-89812952D01*
X212562381Y-90384381D01*
X212562381Y-89765333D01*
X247594381Y-101830095D02*
X246594381Y-101830095D01*
X246594381Y-101449142D01*
X246642000Y-101353904D01*
X246689619Y-101306285D01*
X246784857Y-101258666D01*
X246927714Y-101258666D01*
X247022952Y-101306285D01*
X247070571Y-101353904D01*
X247118190Y-101449142D01*
X247118190Y-101830095D01*
X246689619Y-100877714D02*
X246642000Y-100830095D01*
X246594381Y-100734857D01*
X246594381Y-100496761D01*
X246642000Y-100401523D01*
X246689619Y-100353904D01*
X246784857Y-100306285D01*
X246880095Y-100306285D01*
X247022952Y-100353904D01*
X247594381Y-100925333D01*
X247594381Y-100306285D01*
X242260381Y-74906095D02*
X241260381Y-74906095D01*
X241260381Y-74525142D01*
X241308000Y-74429904D01*
X241355619Y-74382285D01*
X241450857Y-74334666D01*
X241593714Y-74334666D01*
X241688952Y-74382285D01*
X241736571Y-74429904D01*
X241784190Y-74525142D01*
X241784190Y-74906095D01*
X241593714Y-73477523D02*
X242260381Y-73477523D01*
X241212762Y-73715619D02*
X241927048Y-73953714D01*
X241927048Y-73334666D01*
X237767905Y-57602381D02*
X237767905Y-56602381D01*
X238148858Y-56602381D01*
X238244096Y-56650000D01*
X238291715Y-56697619D01*
X238339334Y-56792857D01*
X238339334Y-56935714D01*
X238291715Y-57030952D01*
X238244096Y-57078571D01*
X238148858Y-57126190D01*
X237767905Y-57126190D01*
X239244096Y-56602381D02*
X238767905Y-56602381D01*
X238720286Y-57078571D01*
X238767905Y-57030952D01*
X238863143Y-56983333D01*
X239101239Y-56983333D01*
X239196477Y-57030952D01*
X239244096Y-57078571D01*
X239291715Y-57173810D01*
X239291715Y-57411905D01*
X239244096Y-57507143D01*
X239196477Y-57554762D01*
X239101239Y-57602381D01*
X238863143Y-57602381D01*
X238767905Y-57554762D01*
X238720286Y-57507143D01*
X214209334Y-98496381D02*
X213876000Y-98020190D01*
X213637905Y-98496381D02*
X213637905Y-97496381D01*
X214018858Y-97496381D01*
X214114096Y-97544000D01*
X214161715Y-97591619D01*
X214209334Y-97686857D01*
X214209334Y-97829714D01*
X214161715Y-97924952D01*
X214114096Y-97972571D01*
X214018858Y-98020190D01*
X213637905Y-98020190D01*
X214590286Y-97591619D02*
X214637905Y-97544000D01*
X214733143Y-97496381D01*
X214971239Y-97496381D01*
X215066477Y-97544000D01*
X215114096Y-97591619D01*
X215161715Y-97686857D01*
X215161715Y-97782095D01*
X215114096Y-97924952D01*
X214542667Y-98496381D01*
X215161715Y-98496381D01*
X185761334Y-98496381D02*
X185428000Y-98020190D01*
X185189905Y-98496381D02*
X185189905Y-97496381D01*
X185570858Y-97496381D01*
X185666096Y-97544000D01*
X185713715Y-97591619D01*
X185761334Y-97686857D01*
X185761334Y-97829714D01*
X185713715Y-97924952D01*
X185666096Y-97972571D01*
X185570858Y-98020190D01*
X185189905Y-98020190D01*
X186094667Y-97496381D02*
X186713715Y-97496381D01*
X186380381Y-97877333D01*
X186523239Y-97877333D01*
X186618477Y-97924952D01*
X186666096Y-97972571D01*
X186713715Y-98067810D01*
X186713715Y-98305905D01*
X186666096Y-98401143D01*
X186618477Y-98448762D01*
X186523239Y-98496381D01*
X186237524Y-98496381D01*
X186142286Y-98448762D01*
X186094667Y-98401143D01*
X214209334Y-95194381D02*
X213876000Y-94718190D01*
X213637905Y-95194381D02*
X213637905Y-94194381D01*
X214018858Y-94194381D01*
X214114096Y-94242000D01*
X214161715Y-94289619D01*
X214209334Y-94384857D01*
X214209334Y-94527714D01*
X214161715Y-94622952D01*
X214114096Y-94670571D01*
X214018858Y-94718190D01*
X213637905Y-94718190D01*
X215066477Y-94527714D02*
X215066477Y-95194381D01*
X214828381Y-94146762D02*
X214590286Y-94861048D01*
X215209334Y-94861048D01*
X161631334Y-87828381D02*
X161298000Y-87352190D01*
X161059905Y-87828381D02*
X161059905Y-86828381D01*
X161440858Y-86828381D01*
X161536096Y-86876000D01*
X161583715Y-86923619D01*
X161631334Y-87018857D01*
X161631334Y-87161714D01*
X161583715Y-87256952D01*
X161536096Y-87304571D01*
X161440858Y-87352190D01*
X161059905Y-87352190D01*
X162488477Y-86828381D02*
X162298000Y-86828381D01*
X162202762Y-86876000D01*
X162155143Y-86923619D01*
X162059905Y-87066476D01*
X162012286Y-87256952D01*
X162012286Y-87637905D01*
X162059905Y-87733143D01*
X162107524Y-87780762D01*
X162202762Y-87828381D01*
X162393239Y-87828381D01*
X162488477Y-87780762D01*
X162536096Y-87733143D01*
X162583715Y-87637905D01*
X162583715Y-87399810D01*
X162536096Y-87304571D01*
X162488477Y-87256952D01*
X162393239Y-87209333D01*
X162202762Y-87209333D01*
X162107524Y-87256952D01*
X162059905Y-87304571D01*
X162012286Y-87399810D01*
X174331334Y-58618381D02*
X173998000Y-58142190D01*
X173759905Y-58618381D02*
X173759905Y-57618381D01*
X174140858Y-57618381D01*
X174236096Y-57666000D01*
X174283715Y-57713619D01*
X174331334Y-57808857D01*
X174331334Y-57951714D01*
X174283715Y-58046952D01*
X174236096Y-58094571D01*
X174140858Y-58142190D01*
X173759905Y-58142190D01*
X174664667Y-57618381D02*
X175331334Y-57618381D01*
X174902762Y-58618381D01*
X236926381Y-67730666D02*
X236450190Y-68064000D01*
X236926381Y-68302095D02*
X235926381Y-68302095D01*
X235926381Y-67921142D01*
X235974000Y-67825904D01*
X236021619Y-67778285D01*
X236116857Y-67730666D01*
X236259714Y-67730666D01*
X236354952Y-67778285D01*
X236402571Y-67825904D01*
X236450190Y-67921142D01*
X236450190Y-68302095D01*
X236354952Y-67159238D02*
X236307333Y-67254476D01*
X236259714Y-67302095D01*
X236164476Y-67349714D01*
X236116857Y-67349714D01*
X236021619Y-67302095D01*
X235974000Y-67254476D01*
X235926381Y-67159238D01*
X235926381Y-66968761D01*
X235974000Y-66873523D01*
X236021619Y-66825904D01*
X236116857Y-66778285D01*
X236164476Y-66778285D01*
X236259714Y-66825904D01*
X236307333Y-66873523D01*
X236354952Y-66968761D01*
X236354952Y-67159238D01*
X236402571Y-67254476D01*
X236450190Y-67302095D01*
X236545429Y-67349714D01*
X236735905Y-67349714D01*
X236831143Y-67302095D01*
X236878762Y-67254476D01*
X236926381Y-67159238D01*
X236926381Y-66968761D01*
X236878762Y-66873523D01*
X236831143Y-66825904D01*
X236735905Y-66778285D01*
X236545429Y-66778285D01*
X236450190Y-66825904D01*
X236402571Y-66873523D01*
X236354952Y-66968761D01*
X242260381Y-70016666D02*
X241784190Y-70350000D01*
X242260381Y-70588095D02*
X241260381Y-70588095D01*
X241260381Y-70207142D01*
X241308000Y-70111904D01*
X241355619Y-70064285D01*
X241450857Y-70016666D01*
X241593714Y-70016666D01*
X241688952Y-70064285D01*
X241736571Y-70111904D01*
X241784190Y-70207142D01*
X241784190Y-70588095D01*
X242260381Y-69540476D02*
X242260381Y-69350000D01*
X242212762Y-69254761D01*
X242165143Y-69207142D01*
X242022286Y-69111904D01*
X241831810Y-69064285D01*
X241450857Y-69064285D01*
X241355619Y-69111904D01*
X241308000Y-69159523D01*
X241260381Y-69254761D01*
X241260381Y-69445238D01*
X241308000Y-69540476D01*
X241355619Y-69588095D01*
X241450857Y-69635714D01*
X241688952Y-69635714D01*
X241784190Y-69588095D01*
X241831810Y-69540476D01*
X241879429Y-69445238D01*
X241879429Y-69254761D01*
X241831810Y-69159523D01*
X241784190Y-69111904D01*
X241688952Y-69064285D01*
X241927143Y-89352381D02*
X241593809Y-88876190D01*
X241355714Y-89352381D02*
X241355714Y-88352381D01*
X241736667Y-88352381D01*
X241831905Y-88400000D01*
X241879524Y-88447619D01*
X241927143Y-88542857D01*
X241927143Y-88685714D01*
X241879524Y-88780952D01*
X241831905Y-88828571D01*
X241736667Y-88876190D01*
X241355714Y-88876190D01*
X242879524Y-89352381D02*
X242308095Y-89352381D01*
X242593809Y-89352381D02*
X242593809Y-88352381D01*
X242498571Y-88495238D01*
X242403333Y-88590476D01*
X242308095Y-88638095D01*
X243498571Y-88352381D02*
X243593810Y-88352381D01*
X243689048Y-88400000D01*
X243736667Y-88447619D01*
X243784286Y-88542857D01*
X243831905Y-88733333D01*
X243831905Y-88971429D01*
X243784286Y-89161905D01*
X243736667Y-89257143D01*
X243689048Y-89304762D01*
X243593810Y-89352381D01*
X243498571Y-89352381D01*
X243403333Y-89304762D01*
X243355714Y-89257143D01*
X243308095Y-89161905D01*
X243260476Y-88971429D01*
X243260476Y-88733333D01*
X243308095Y-88542857D01*
X243355714Y-88447619D01*
X243403333Y-88400000D01*
X243498571Y-88352381D01*
X209494381Y-68714857D02*
X209018190Y-69048191D01*
X209494381Y-69286286D02*
X208494381Y-69286286D01*
X208494381Y-68905333D01*
X208542000Y-68810095D01*
X208589619Y-68762476D01*
X208684857Y-68714857D01*
X208827714Y-68714857D01*
X208922952Y-68762476D01*
X208970571Y-68810095D01*
X209018190Y-68905333D01*
X209018190Y-69286286D01*
X209494381Y-67762476D02*
X209494381Y-68333905D01*
X209494381Y-68048191D02*
X208494381Y-68048191D01*
X208637238Y-68143429D01*
X208732476Y-68238667D01*
X208780095Y-68333905D01*
X209494381Y-66810095D02*
X209494381Y-67381524D01*
X209494381Y-67095810D02*
X208494381Y-67095810D01*
X208637238Y-67191048D01*
X208732476Y-67286286D01*
X208780095Y-67381524D01*
X191889143Y-81478381D02*
X191555809Y-81002190D01*
X191317714Y-81478381D02*
X191317714Y-80478381D01*
X191698667Y-80478381D01*
X191793905Y-80526000D01*
X191841524Y-80573619D01*
X191889143Y-80668857D01*
X191889143Y-80811714D01*
X191841524Y-80906952D01*
X191793905Y-80954571D01*
X191698667Y-81002190D01*
X191317714Y-81002190D01*
X192841524Y-81478381D02*
X192270095Y-81478381D01*
X192555809Y-81478381D02*
X192555809Y-80478381D01*
X192460571Y-80621238D01*
X192365333Y-80716476D01*
X192270095Y-80764095D01*
X193222476Y-80573619D02*
X193270095Y-80526000D01*
X193365333Y-80478381D01*
X193603429Y-80478381D01*
X193698667Y-80526000D01*
X193746286Y-80573619D01*
X193793905Y-80668857D01*
X193793905Y-80764095D01*
X193746286Y-80906952D01*
X193174857Y-81478381D01*
X193793905Y-81478381D01*
X207891143Y-87066381D02*
X207557809Y-86590190D01*
X207319714Y-87066381D02*
X207319714Y-86066381D01*
X207700667Y-86066381D01*
X207795905Y-86114000D01*
X207843524Y-86161619D01*
X207891143Y-86256857D01*
X207891143Y-86399714D01*
X207843524Y-86494952D01*
X207795905Y-86542571D01*
X207700667Y-86590190D01*
X207319714Y-86590190D01*
X208843524Y-87066381D02*
X208272095Y-87066381D01*
X208557809Y-87066381D02*
X208557809Y-86066381D01*
X208462571Y-86209238D01*
X208367333Y-86304476D01*
X208272095Y-86352095D01*
X209176857Y-86066381D02*
X209795905Y-86066381D01*
X209462571Y-86447333D01*
X209605429Y-86447333D01*
X209700667Y-86494952D01*
X209748286Y-86542571D01*
X209795905Y-86637810D01*
X209795905Y-86875905D01*
X209748286Y-86971143D01*
X209700667Y-87018762D01*
X209605429Y-87066381D01*
X209319714Y-87066381D01*
X209224476Y-87018762D01*
X209176857Y-86971143D01*
X181983143Y-84780381D02*
X181649809Y-84304190D01*
X181411714Y-84780381D02*
X181411714Y-83780381D01*
X181792667Y-83780381D01*
X181887905Y-83828000D01*
X181935524Y-83875619D01*
X181983143Y-83970857D01*
X181983143Y-84113714D01*
X181935524Y-84208952D01*
X181887905Y-84256571D01*
X181792667Y-84304190D01*
X181411714Y-84304190D01*
X182935524Y-84780381D02*
X182364095Y-84780381D01*
X182649809Y-84780381D02*
X182649809Y-83780381D01*
X182554571Y-83923238D01*
X182459333Y-84018476D01*
X182364095Y-84066095D01*
X183792667Y-84113714D02*
X183792667Y-84780381D01*
X183554571Y-83732762D02*
X183316476Y-84447048D01*
X183935524Y-84447048D01*
X216273143Y-57094381D02*
X215939809Y-56618190D01*
X215701714Y-57094381D02*
X215701714Y-56094381D01*
X216082667Y-56094381D01*
X216177905Y-56142000D01*
X216225524Y-56189619D01*
X216273143Y-56284857D01*
X216273143Y-56427714D01*
X216225524Y-56522952D01*
X216177905Y-56570571D01*
X216082667Y-56618190D01*
X215701714Y-56618190D01*
X217225524Y-57094381D02*
X216654095Y-57094381D01*
X216939809Y-57094381D02*
X216939809Y-56094381D01*
X216844571Y-56237238D01*
X216749333Y-56332476D01*
X216654095Y-56380095D01*
X218130286Y-56094381D02*
X217654095Y-56094381D01*
X217606476Y-56570571D01*
X217654095Y-56522952D01*
X217749333Y-56475333D01*
X217987429Y-56475333D01*
X218082667Y-56522952D01*
X218130286Y-56570571D01*
X218177905Y-56665810D01*
X218177905Y-56903905D01*
X218130286Y-56999143D01*
X218082667Y-57046762D01*
X217987429Y-57094381D01*
X217749333Y-57094381D01*
X217654095Y-57046762D01*
X217606476Y-56999143D01*
X214495143Y-65222381D02*
X214161809Y-64746190D01*
X213923714Y-65222381D02*
X213923714Y-64222381D01*
X214304667Y-64222381D01*
X214399905Y-64270000D01*
X214447524Y-64317619D01*
X214495143Y-64412857D01*
X214495143Y-64555714D01*
X214447524Y-64650952D01*
X214399905Y-64698571D01*
X214304667Y-64746190D01*
X213923714Y-64746190D01*
X215447524Y-65222381D02*
X214876095Y-65222381D01*
X215161809Y-65222381D02*
X215161809Y-64222381D01*
X215066571Y-64365238D01*
X214971333Y-64460476D01*
X214876095Y-64508095D01*
X216304667Y-64222381D02*
X216114190Y-64222381D01*
X216018952Y-64270000D01*
X215971333Y-64317619D01*
X215876095Y-64460476D01*
X215828476Y-64650952D01*
X215828476Y-65031905D01*
X215876095Y-65127143D01*
X215923714Y-65174762D01*
X216018952Y-65222381D01*
X216209429Y-65222381D01*
X216304667Y-65174762D01*
X216352286Y-65127143D01*
X216399905Y-65031905D01*
X216399905Y-64793810D01*
X216352286Y-64698571D01*
X216304667Y-64650952D01*
X216209429Y-64603333D01*
X216018952Y-64603333D01*
X215923714Y-64650952D01*
X215876095Y-64698571D01*
X215828476Y-64793810D01*
X184658095Y-74636381D02*
X184658095Y-75445905D01*
X184705714Y-75541143D01*
X184753333Y-75588762D01*
X184848571Y-75636381D01*
X185039048Y-75636381D01*
X185134286Y-75588762D01*
X185181905Y-75541143D01*
X185229524Y-75445905D01*
X185229524Y-74636381D01*
X186229524Y-75636381D02*
X185658095Y-75636381D01*
X185943809Y-75636381D02*
X185943809Y-74636381D01*
X185848571Y-74779238D01*
X185753333Y-74874476D01*
X185658095Y-74922095D01*
X169672095Y-80478381D02*
X169672095Y-81287905D01*
X169719714Y-81383143D01*
X169767333Y-81430762D01*
X169862571Y-81478381D01*
X170053048Y-81478381D01*
X170148286Y-81430762D01*
X170195905Y-81383143D01*
X170243524Y-81287905D01*
X170243524Y-80478381D01*
X170672095Y-80573619D02*
X170719714Y-80526000D01*
X170814952Y-80478381D01*
X171053048Y-80478381D01*
X171148286Y-80526000D01*
X171195905Y-80573619D01*
X171243524Y-80668857D01*
X171243524Y-80764095D01*
X171195905Y-80906952D01*
X170624476Y-81478381D01*
X171243524Y-81478381D01*
X170434095Y-65238381D02*
X170434095Y-66047905D01*
X170481714Y-66143143D01*
X170529333Y-66190762D01*
X170624571Y-66238381D01*
X170815048Y-66238381D01*
X170910286Y-66190762D01*
X170957905Y-66143143D01*
X171005524Y-66047905D01*
X171005524Y-65238381D01*
X171386476Y-65238381D02*
X172005524Y-65238381D01*
X171672190Y-65619333D01*
X171815048Y-65619333D01*
X171910286Y-65666952D01*
X171957905Y-65714571D01*
X172005524Y-65809810D01*
X172005524Y-66047905D01*
X171957905Y-66143143D01*
X171910286Y-66190762D01*
X171815048Y-66238381D01*
X171529333Y-66238381D01*
X171434095Y-66190762D01*
X171386476Y-66143143D01*
X215138095Y-66254381D02*
X215138095Y-67063905D01*
X215185714Y-67159143D01*
X215233333Y-67206762D01*
X215328571Y-67254381D01*
X215519048Y-67254381D01*
X215614286Y-67206762D01*
X215661905Y-67159143D01*
X215709524Y-67063905D01*
X215709524Y-66254381D01*
X216614286Y-66587714D02*
X216614286Y-67254381D01*
X216376190Y-66206762D02*
X216138095Y-66921048D01*
X216757143Y-66921048D01*
X199390095Y-68794381D02*
X199390095Y-69603905D01*
X199437714Y-69699143D01*
X199485333Y-69746762D01*
X199580571Y-69794381D01*
X199771048Y-69794381D01*
X199866286Y-69746762D01*
X199913905Y-69699143D01*
X199961524Y-69603905D01*
X199961524Y-68794381D01*
X200913905Y-68794381D02*
X200437714Y-68794381D01*
X200390095Y-69270571D01*
X200437714Y-69222952D01*
X200532952Y-69175333D01*
X200771048Y-69175333D01*
X200866286Y-69222952D01*
X200913905Y-69270571D01*
X200961524Y-69365810D01*
X200961524Y-69603905D01*
X200913905Y-69699143D01*
X200866286Y-69746762D01*
X200771048Y-69794381D01*
X200532952Y-69794381D01*
X200437714Y-69746762D01*
X200390095Y-69699143D01*
X183455381Y-50371333D02*
X184169667Y-50371333D01*
X184312524Y-50418953D01*
X184407762Y-50514191D01*
X184455381Y-50657048D01*
X184455381Y-50752286D01*
X184455381Y-49371333D02*
X184455381Y-49942762D01*
X184455381Y-49657048D02*
X183455381Y-49657048D01*
X183598238Y-49752286D01*
X183693476Y-49847524D01*
X183741095Y-49942762D01*
X234731143Y-70136666D02*
X234778762Y-70184285D01*
X234826381Y-70327142D01*
X234826381Y-70422380D01*
X234778762Y-70565238D01*
X234683524Y-70660476D01*
X234588286Y-70708095D01*
X234397810Y-70755714D01*
X234254952Y-70755714D01*
X234064476Y-70708095D01*
X233969238Y-70660476D01*
X233874000Y-70565238D01*
X233826381Y-70422380D01*
X233826381Y-70327142D01*
X233874000Y-70184285D01*
X233921619Y-70136666D01*
X234159714Y-69279523D02*
X234826381Y-69279523D01*
X233778762Y-69517619D02*
X234493048Y-69755714D01*
X234493048Y-69136666D01*
X252257143Y-58974666D02*
X252304762Y-59022285D01*
X252352381Y-59165142D01*
X252352381Y-59260380D01*
X252304762Y-59403238D01*
X252209524Y-59498476D01*
X252114286Y-59546095D01*
X251923810Y-59593714D01*
X251780952Y-59593714D01*
X251590476Y-59546095D01*
X251495238Y-59498476D01*
X251400000Y-59403238D01*
X251352381Y-59260380D01*
X251352381Y-59165142D01*
X251400000Y-59022285D01*
X251447619Y-58974666D01*
X251352381Y-58069904D02*
X251352381Y-58546095D01*
X251828571Y-58593714D01*
X251780952Y-58546095D01*
X251733333Y-58450857D01*
X251733333Y-58212761D01*
X251780952Y-58117523D01*
X251828571Y-58069904D01*
X251923810Y-58022285D01*
X252161905Y-58022285D01*
X252257143Y-58069904D01*
X252304762Y-58117523D01*
X252352381Y-58212761D01*
X252352381Y-58450857D01*
X252304762Y-58546095D01*
X252257143Y-58593714D01*
M02*
